<?xml version="1.0" encoding="UTF-8" standalone="no"?>
<!-- Created with Inkscape (http://www.inkscape.org/) -->

<svg
   xmlns:dc="http://purl.org/dc/elements/1.1/"
   xmlns:cc="http://creativecommons.org/ns#"
   xmlns:rdf="http://www.w3.org/1999/02/22-rdf-syntax-ns#"
   xmlns:svg="http://www.w3.org/2000/svg"
   xmlns="http://www.w3.org/2000/svg"
   xmlns:sodipodi="http://sodipodi.sourceforge.net/DTD/sodipodi-0.dtd"
   xmlns:inkscape="http://www.inkscape.org/namespaces/inkscape"
   width="80.260483mm"
   height="130.33263mm"
   viewBox="0 0 80.260483 130.33263"
   version="1.1"
   id="svg4986"
   inkscape:version="0.92.2 5c3e80d, 2017-08-06"
   sodipodi:docname="monster9.svg">
  <defs
     id="defs4980" />
  <sodipodi:namedview
     id="base"
     pagecolor="#ffffff"
     bordercolor="#666666"
     borderopacity="1.0"
     inkscape:pageopacity="0.0"
     inkscape:pageshadow="2"
     inkscape:zoom="0.35"
     inkscape:cx="125.95906"
     inkscape:cy="232.01214"
     inkscape:document-units="mm"
     inkscape:current-layer="layer1"
     showgrid="false"
     inkscape:window-width="1920"
     inkscape:window-height="1016"
     inkscape:window-x="1920"
     inkscape:window-y="27"
     inkscape:window-maximized="1" />
  <metadata
     id="metadata4983">
    <rdf:RDF>
      <cc:Work
         rdf:about="">
        <dc:format>image/svg+xml</dc:format>
        <dc:type
           rdf:resource="http://purl.org/dc/dcmitype/StillImage" />
        <dc:title></dc:title>
      </cc:Work>
    </rdf:RDF>
  </metadata>
  <g
     inkscape:label="Calque 1"
     inkscape:groupmode="layer"
     id="layer1"
     transform="translate(-72.506665,-79.887261)">
    <path
       d="m 139.83265,93.517471 c 2.38654,0.508 2.8328,3.326695 2.90124,4.780139 l 0.004,0.864306 v 0.0071 l 0.0741,21.163134 c 0,0 0.81527,11.18659 -9.79275,14.47447 v 5.98312 c 6.21312,-1.15712 14.61205,-5.58095 14.61205,-21.0432 V 98.442293 c 0.0586,-0.437445 0.0222,-1.019528 0,-1.665111 v -0.356306 h -0.0106 c -0.0265,-1.252361 0.073,-2.659944 1.0347,-3.644194 1.56598,-1.605139 4.70358,-2.187222 4.01426,-3.725333 -0.69074,-1.538111 -3.70382,0.779639 -4.14126,0.03175 -0.43745,-0.758472 5.29731,-4.582583 3.3087,-5.834945 -1.98788,-1.252405 -2.81973,2.885679 -4.71027,2.910373 -1.89265,0.01764 1.14371,-4.462639 -1.78752,-5.393972 -2.93123,-0.924278 -1.17652,5.36575 -2.23626,5.228166 -1.06222,-0.137583 -2.40947,-4.113388 -3.90913,-4.310944 -1.50319,-0.197555 -1.28658,2.183695 -0.3997,2.931583 0.88794,0.747889 2.2927,3.640667 1.45768,5.161139 -0.83538,1.520472 -4.67078,-0.705555 -5.32906,0.836083 -0.65934,1.541639 0.69497,2.007306 4.91031,2.906889"
       style="fill:#4caea9;fill-opacity:1;fill-rule:nonzero;stroke:none;stroke-width:0.03527778"
       id="path18"
       inkscape:connector-curvature="0" />
    <path
       d="m 85.44102,92.727249 c -2.38654,0.508 -2.83245,3.326694 -2.90124,4.776611 l -0.004,0.871361 v 0.0035 l -0.0748,21.166669 c 0,0 -0.81457,11.18658 9.79346,14.47094 v 5.98311 C 86.03953,138.83883 77.64165,134.42558 77.64165,118.9598 V 97.652027 c -0.0586,-0.437445 -0.0226,-1.023056 0,-1.665111 V 95.63061 h 0.0113 c 0.0247,-1.252361 -0.0723,-2.663472 -1.0347,-3.644194 -1.56598,-1.605139 -4.70288,-2.183694 -4.01425,-3.725333 0.69003,-1.534584 3.70275,0.779639 4.13949,0.03175 0.43744,-0.758472 -5.29555,-4.579056 -3.30835,-5.834945 1.98931,-1.255889 2.82011,2.885722 4.71099,2.910417 1.89301,0.01764 -1.1437,-4.462639 1.78823,-5.386917 2.92947,-0.931333 1.17652,5.358695 2.2352,5.221111 1.06151,-0.137583 2.40877,-4.113388 3.90949,-4.310944 1.50283,-0.201083 1.28623,2.183694 0.39934,2.931583 -0.88759,0.747889 -2.2927,3.640667 -1.45838,5.161139 0.83714,1.520472 4.67184,-0.702027 5.33082,0.836084 0.65935,1.545166 -0.69532,2.007305 -4.91031,2.906888"
       style="fill:#4caea9;fill-opacity:1;fill-rule:nonzero;stroke:none;stroke-width:0.03527778"
       id="path20"
       inkscape:connector-curvature="0" />
    <path
       d="m 133.7363,122.24417 c 0,-25.770421 -41.68317,-26.320754 -41.68317,0 v 31.39722 l -0.0293,52.13349 h -2.8515 c -1.19027,0 -2.15935,0.99837 -2.15935,2.21898 0,1.23119 0.96908,2.22602 2.15935,2.22602 h 2.8515 2.51884 2.15864 v -43.22233 c 2.0447,1.60161 4.66655,2.89278 7.66657,3.75003 v 35.0273 h -2.84974 c -1.19203,0 -2.15865,0.99837 -2.15865,2.21898 0,1.23119 0.96662,2.22602 2.15865,2.22602 h 2.84974 2.51954 2.15794 v -38.53744 c 1.27529,0.1517 2.59045,0.23283 3.93594,0.23283 1.27459,0 2.51989,-0.0741 3.73063,-0.21166 v 34.07127 h -2.84798 c -1.19344,0 -2.15935,0.99837 -2.15935,2.21898 0,1.23119 0.96591,2.22602 2.15935,2.22602 h 2.84798 2.52059 2.15865 v -39.41586 c 2.98485,-0.82902 5.60564,-2.08491 7.66763,-3.64419 v 38.61505 h -2.85151 c -1.19203,0 -2.15794,0.99837 -2.15794,2.21898 0,1.23119 0.96591,2.22602 2.15794,2.22602 h 2.85151 2.51777 2.15971 v -87.97571"
       style="fill:#57c6c1;fill-opacity:1;fill-rule:nonzero;stroke:none;stroke-width:0.03527778"
       id="path22"
       inkscape:connector-curvature="0" />
    <path
       d="m 124.47376,122.24417 c 0,6.36058 -5.1562,11.51819 -11.5129,11.51819 -6.35952,0 -11.51396,-5.15761 -11.51396,-11.51819 0,-6.35706 5.15444,-11.51114 11.51396,-11.51114 6.3567,0 11.5129,5.15408 11.5129,11.51114"
       style="fill:#ffffff;fill-opacity:1;fill-rule:nonzero;stroke:none;stroke-width:0.03527778"
       id="path24"
       inkscape:connector-curvature="0" />
    <path
       d="m 121.50126,122.24417 c 0,4.71663 -3.82517,8.54074 -8.5404,8.54074 -4.71876,0 -8.54216,-3.82411 -8.54216,-8.54074 0,-4.71312 3.8234,-8.54075 8.54216,-8.54075 4.71523,0 8.5404,3.82763 8.5404,8.54075"
       style="fill:#54c8f4;fill-opacity:1;fill-rule:nonzero;stroke:none;stroke-width:0.03527778"
       id="path26"
       inkscape:connector-curvature="0" />
    <path
       d="m 119.88977,122.24417 c 0,3.82763 -3.10303,6.93208 -6.92891,6.93208 -3.8287,0 -6.93173,-3.10445 -6.93173,-6.93208 0,-3.82764 3.10303,-6.92856 6.93173,-6.92856 3.82588,0 6.92891,3.10092 6.92891,6.92856"
       style="fill:#5a3114;fill-opacity:1;fill-rule:nonzero;stroke:none;stroke-width:0.03527778"
       id="path28"
       inkscape:connector-curvature="0" />
    <path
       d="m 106.91425,127.22539 c 0,1.0795 -0.87136,1.95086 -1.94839,1.95086 -1.07597,0 -1.94804,-0.87136 -1.94804,-1.95086 0,-1.07598 0.87207,-1.94734 1.94804,-1.94734 1.07703,0 1.94839,0.87136 1.94839,1.94734"
       style="fill:#ffffff;fill-opacity:1;fill-rule:nonzero;stroke:none;stroke-width:0.03527778"
       id="path30"
       inkscape:connector-curvature="0" />
    <path
       d="m 118.94291,116.51858 c 0,1.07245 -0.87065,1.94381 -1.94839,1.94381 -1.07491,0 -1.94698,-0.87136 -1.94698,-1.94381 0,-1.0795 0.87207,-1.95086 1.94698,-1.95086 1.07774,0 1.94839,0.87136 1.94839,1.95086"
       style="fill:#ffffff;fill-opacity:1;fill-rule:nonzero;stroke:none;stroke-width:0.03527778"
       id="path32"
       inkscape:connector-curvature="0" />
    <path
       d="m 131.49933,161.42014 c 0,1.31233 -1.05974,2.37066 -2.36678,2.37066 -1.30634,0 -2.36679,-1.05833 -2.36679,-2.37066 0,-1.30528 1.06045,-2.36714 2.36679,-2.36714 1.30704,0 2.36678,1.06186 2.36678,2.36714"
       style="fill:#227f73;fill-opacity:1;fill-rule:nonzero;stroke:none;stroke-width:0.03527778"
       id="path34"
       inkscape:connector-curvature="0" />
    <path
       d="m 126.99683,165.01847 c 0,0.80433 -0.65193,1.45344 -1.45627,1.45344 -0.80539,0 -1.45767,-0.64911 -1.45767,-1.45344 0,-0.80433 0.65228,-1.4605 1.45767,-1.4605 0.80434,0 1.45627,0.65617 1.45627,1.4605"
       style="fill:#227f73;fill-opacity:1;fill-rule:nonzero;stroke:none;stroke-width:0.03527778"
       id="path36"
       inkscape:connector-curvature="0" />
    <path
       d="m 126.28351,161.86111 c 0,0.52564 -0.4258,0.94897 -0.95214,0.94897 -0.52741,0 -0.95462,-0.42333 -0.95462,-0.94897 0,-0.5327 0.42721,-0.9525 0.95462,-0.9525 0.52634,0 0.95214,0.4198 0.95214,0.9525"
       style="fill:#227f73;fill-opacity:1;fill-rule:nonzero;stroke:none;stroke-width:0.03527778"
       id="path38"
       inkscape:connector-curvature="0" />
    <path
       d="m 124.24375,163.34277 c 0,0.41275 -0.33373,0.74789 -0.74683,0.74789 -0.41275,0 -0.74612,-0.33514 -0.74612,-0.74789 0,-0.40922 0.33337,-0.74436 0.74612,-0.74436 0.4131,0 0.74683,0.33514 0.74683,0.74436"
       style="fill:#227f73;fill-opacity:1;fill-rule:nonzero;stroke:none;stroke-width:0.03527778"
       id="path40"
       inkscape:connector-curvature="0" />
    <path
       d="m 125.58254,159.26819 c 0.34714,-0.0459 0.66675,0.19403 0.71579,0.53622 0.049,0.34925 -0.19332,0.67028 -0.53975,0.71967 -0.34784,0.0494 -0.66781,-0.1905 -0.71473,-0.53975 -0.0501,-0.34925 0.1905,-0.66675 0.53869,-0.71614"
       style="fill:#227f73;fill-opacity:1;fill-rule:nonzero;stroke:none;stroke-width:0.03527778"
       id="path42"
       inkscape:connector-curvature="0" />
    <path
       d="m 98.73968,165.71697 c -1.30598,0 -2.36678,-1.06186 -2.36678,-2.36714 0,-1.30528 1.0608,-2.36361 2.36678,-2.36361 1.3081,0 2.36679,1.05833 2.36679,2.36361 0,1.30528 -1.05869,2.36714 -2.36679,2.36714"
       style="fill:#227f73;fill-opacity:1;fill-rule:nonzero;stroke:none;stroke-width:0.03527778"
       id="path44"
       inkscape:connector-curvature="0" />
    <path
       d="m 95.14594,161.212 c -0.80257,0 -1.45592,-0.64911 -1.45592,-1.45345 0,-0.80433 0.65335,-1.45697 1.45592,-1.45697 0.80539,0 1.45767,0.65264 1.45767,1.45697 0,0.80434 -0.65228,1.45345 -1.45767,1.45345"
       style="fill:#227f73;fill-opacity:1;fill-rule:nonzero;stroke:none;stroke-width:0.03527778"
       id="path46"
       inkscape:connector-curvature="0" />
    <path
       d="m 98.304,160.50291 c -0.5274,0 -0.95391,-0.42686 -0.95391,-0.9525 0,-0.52563 0.42651,-0.95602 0.95391,-0.95602 0.52776,0 0.95321,0.43039 0.95321,0.95602 0,0.52564 -0.42545,0.9525 -0.95321,0.9525"
       style="fill:#227f73;fill-opacity:1;fill-rule:nonzero;stroke:none;stroke-width:0.03527778"
       id="path48"
       inkscape:connector-curvature="0" />
    <path
       d="m 96.8181,158.46033 c -0.41134,0 -0.74753,-0.33161 -0.74753,-0.74436 0,-0.41628 0.33619,-0.74436 0.74753,-0.74436 0.41346,0 0.74789,0.32808 0.74789,0.74436 0,0.41275 -0.33443,0.74436 -0.74789,0.74436"
       style="fill:#227f73;fill-opacity:1;fill-rule:nonzero;stroke:none;stroke-width:0.03527778"
       id="path50"
       inkscape:connector-curvature="0" />
    <path
       d="m 100.89445,159.79736 c 0.048,0.34925 -0.19438,0.67028 -0.53905,0.71967 -0.34713,0.0459 -0.66675,-0.19403 -0.71755,-0.53975 -0.0473,-0.34925 0.19333,-0.66675 0.54152,-0.71614 0.34607,-0.0529 0.66498,0.19402 0.71508,0.53622"
       style="fill:#227f73;fill-opacity:1;fill-rule:nonzero;stroke:none;stroke-width:0.03527778"
       id="path52"
       inkscape:connector-curvature="0" />
    <path
       d="m 126.50717,102.1958 h -2.63066 c -0.75001,-3.626551 -1.50036,-7.253107 -2.25143,-10.879662 -0.36865,-1.668639 -2.02459,-2.7305 -3.70981,-2.511777 -3.72815,0.493888 -7.50076,0.493888 -11.22786,0 -1.68768,-0.218723 -3.34151,0.843138 -3.71087,2.511777 -0.75035,3.626555 -1.50036,7.253111 -2.25142,10.879662 h -2.62996 c -1.71274,0 -3.10057,1.38289 -3.10057,3.09739 0,1.71098 1.38783,3.10092 3.10057,3.10092 h 28.41201 c 1.71203,0 3.0981,-1.38994 3.0981,-3.10092 0,-1.7145 -1.38607,-3.09739 -3.0981,-3.09739"
       style="fill:#f14624;fill-opacity:1;fill-rule:nonzero;stroke:none;stroke-width:0.03527778"
       id="path54"
       inkscape:connector-curvature="0" />
    <path
       d="m 123.86875,102.14994 c -0.21131,-1.016 -0.42263,-2.03552 -0.6343,-3.05858 h -21.86763 c -0.21202,1.02306 -0.42263,2.04258 -0.63394,3.05858 h 23.13587"
       style="fill:#431b0e;fill-opacity:1;fill-rule:nonzero;stroke:none;stroke-width:0.03527778"
       id="path56"
       inkscape:connector-curvature="0" />
    <path
       d="m 127.17392,141.65047 c 0.76342,0.22931 1.31939,0.93486 1.31939,1.77094 0,0.55034 -0.24059,1.04423 -0.6223,1.38289 -0.0466,0.0494 -0.10301,0.0917 -0.16263,0.13053 -0.30162,0.21167 -0.66745,0.3422 -1.06468,0.3422 -0.32456,0 -0.60678,-0.0423 -0.86254,-0.10584 -1.63654,-0.71614 -1.32715,-2.02141 -2.73826,-4.36386 -2.60633,-4.32505 -7.45596,-4.29683 -10.55123,-3.63008 -3.09704,-0.66675 -7.94597,-0.69497 -10.55229,3.63008 -1.41217,2.34245 -1.10173,3.64772 -2.7372,4.36386 -0.25612,0.0635 -0.53975,0.10584 -0.86466,0.10584 -0.39511,0 -0.7613,-0.13053 -1.06398,-0.3422 -0.06,-0.0388 -0.11501,-0.0811 -0.16298,-0.13053 -0.37995,-0.33866 -0.6223,-0.83255 -0.6223,-1.38289 0,-0.83608 0.55703,-1.54163 1.31938,-1.77094 -1.3469,0.0176 -2.83456,1.42522 -2.83456,2.77636 0,1.69333 1.46543,3.61597 5.81025,3.61597 4.77237,0 8.69103,-0.84314 11.70834,-5.99722 3.01625,5.15408 6.9342,5.99722 11.70552,5.99722 4.34586,0 5.81201,-1.92264 5.81201,-3.61597 0,-1.35114 -1.48766,-2.75872 -2.83528,-2.77636"
       style="fill:#431b0e;fill-opacity:1;fill-rule:nonzero;stroke:none;stroke-width:0.03527778"
       id="path58"
       inkscape:connector-curvature="0" />
    <path
       d="m 121.13084,153.0205 c -0.74401,0 -1.67922,0.2928 -2.77918,0.8643 -1.9043,0.99131 -3.82164,1.92617 -5.16043,2.57528 -0.2727,-0.11994 -0.57327,-0.1905 -0.89042,-0.1905 -0.31785,0 -0.61877,0.0706 -0.89041,0.1905 -1.34055,-0.64911 -3.25684,-1.5875 -5.16043,-2.57528 -1.09926,-0.5715 -2.03412,-0.8643 -2.78024,-0.8643 -1.02941,0 -1.51906,0.54328 -1.74872,1.00189 -0.24307,0.47977 -0.24659,0.95955 -0.24659,0.98072 v 6.91797 c 0,0.0177 0.024,1.98261 1.99531,1.98261 0.74612,0 1.68098,-0.28928 2.78024,-0.86078 1.90535,-0.9913 3.82164,-1.92616 5.1622,-2.57527 0.27163,0.12347 0.5715,0.1905 0.88864,0.1905 0.31786,0 0.61878,-0.067 0.89042,-0.1905 1.34055,0.64911 3.25613,1.58397 5.16043,2.57527 1.09996,0.5715 2.03517,0.86078 2.77918,0.86078 v 0 c 1.02976,0 1.52118,-0.54328 1.75048,-0.99836 0.24342,-0.48683 0.24518,-0.96661 0.24518,-0.98425 v -6.91797 c 0,-0.0177 -0.0233,-1.98261 -1.99566,-1.98261"
       style="fill:#431b0e;fill-opacity:1;fill-rule:nonzero;stroke:none;stroke-width:0.03527778"
       id="path60"
       inkscape:connector-curvature="0" />
    <path
       d="m 122.30489,163.09936 c -0.16757,0.17639 -0.40041,0.3175 -0.71579,0.39158 l 1.17722,-3.29847 v 1.61572 l -0.46143,1.29117"
       style="fill:#f14624;fill-opacity:1;fill-rule:nonzero;stroke:none;stroke-width:0.03527778"
       id="path62"
       inkscape:connector-curvature="0" />
    <path
       d="m 120.54311,163.48389 c -0.16757,-0.0317 -0.34466,-0.0741 -0.52952,-0.13406 l 2.75273,-7.70819 v 1.61572 l -2.22321,6.22653"
       style="fill:#f14624;fill-opacity:1;fill-rule:nonzero;stroke:none;stroke-width:0.03527778"
       id="path64"
       inkscape:connector-curvature="0" />
    <path
       d="m 122.34863,153.87069 -3.2572,9.12989 c -0.15981,-0.0741 -0.32314,-0.15169 -0.49248,-0.23636 l 3.29601,-9.23219 c 0.18979,0.0917 0.33761,0.21166 0.45367,0.33866"
       style="fill:#f14624;fill-opacity:1;fill-rule:nonzero;stroke:none;stroke-width:0.03527778"
       id="path66"
       inkscape:connector-curvature="0" />
    <path
       d="m 117.71384,162.30914 c -0.16299,-0.0882 -0.32632,-0.16934 -0.4879,-0.25048 l 3.05682,-8.56191 c 0.21661,-0.0564 0.42087,-0.0882 0.61348,-0.10231 l -3.1824,8.9147"
       style="fill:#f14624;fill-opacity:1;fill-rule:nonzero;stroke:none;stroke-width:0.03527778"
       id="path68"
       inkscape:connector-curvature="0" />
    <path
       d="m 119.07873,153.93419 -2.74038,7.67645 c -0.1651,-0.0847 -0.32843,-0.16228 -0.49,-0.24342 l 2.53259,-7.09436 c 0.0455,-0.0247 0.0921,-0.0494 0.13829,-0.0706 0.19261,-0.10231 0.37817,-0.18697 0.5595,-0.26811"
       style="fill:#f14624;fill-opacity:1;fill-rule:nonzero;stroke:none;stroke-width:0.03527778"
       id="path70"
       inkscape:connector-curvature="0" />
    <path
       d="m 110.18238,159.03183 c 0.0681,0.25047 0.17992,0.48683 0.32844,0.69497 l -0.33338,0.93486 c -0.22507,0.11289 -0.45825,0.22578 -0.69885,0.34573 l 0.70379,-1.97556"
       style="fill:#f14624;fill-opacity:1;fill-rule:nonzero;stroke:none;stroke-width:0.03527778"
       id="path72"
       inkscape:connector-curvature="0" />
    <path
       d="m 108.204,161.63886 c -0.23283,0.11641 -0.46566,0.23636 -0.70273,0.3563 l 2.1396,-5.99722 c 0.16863,0.0847 0.33091,0.16228 0.49071,0.23989 l -1.92758,5.40103"
       style="fill:#f14624;fill-opacity:1;fill-rule:nonzero;stroke:none;stroke-width:0.03527778"
       id="path74"
       inkscape:connector-curvature="0" />
    <path
       d="m 114.42101,156.26605 c 0.22437,-0.11289 0.45896,-0.2293 0.69956,-0.34572 l -0.70309,1.9685 c -0.0688,-0.254 -0.17956,-0.48683 -0.32844,-0.69497 l 0.33197,-0.92781"
       style="fill:#f14624;fill-opacity:1;fill-rule:nonzero;stroke:none;stroke-width:0.03527778"
       id="path76"
       inkscape:connector-curvature="0" />
    <path
       d="m 116.39409,155.28533 c 0.23284,-0.11642 0.46638,-0.23283 0.70274,-0.35278 l -2.13889,5.99017 c -0.16828,-0.0776 -0.32985,-0.15875 -0.49072,-0.23636 l 1.92687,-5.40103"
       style="fill:#f14624;fill-opacity:1;fill-rule:nonzero;stroke:none;stroke-width:0.03527778"
       id="path78"
       inkscape:connector-curvature="0" />
    <path
       d="m 111.0227,156.6788 0.002,-0.004 c 0.002,0 0.005,0 0.005,0 -0.003,0.004 -0.005,0.004 -0.006,0.004"
       style="fill:#f14624;fill-opacity:1;fill-rule:nonzero;stroke:none;stroke-width:0.03527778"
       id="path80"
       inkscape:connector-curvature="0" />
    <path
       d="m 106.88603,154.61505 c 0.16227,0.0847 0.32561,0.16581 0.48718,0.24695 l -3.05682,8.56897 c -0.21731,0.0494 -0.42298,0.0847 -0.61348,0.1023 l 3.18312,-8.91822"
       style="fill:#f14624;fill-opacity:1;fill-rule:nonzero;stroke:none;stroke-width:0.03527778"
       id="path82"
       inkscape:connector-curvature="0" />
    <path
       d="m 102.29251,153.83189 c 0.16651,-0.17639 0.39969,-0.32456 0.71755,-0.39864 l -1.17475,3.29141 v -1.61572 l 0.4572,-1.27705"
       style="fill:#f14624;fill-opacity:1;fill-rule:nonzero;stroke:none;stroke-width:0.03527778"
       id="path84"
       inkscape:connector-curvature="0" />
    <path
       d="m 104.05499,153.4403 c 0.16862,0.0317 0.34572,0.0741 0.53022,0.13053 l -2.7499,7.70467 v -1.6122 l 2.21968,-6.223"
       style="fill:#f14624;fill-opacity:1;fill-rule:nonzero;stroke:none;stroke-width:0.03527778"
       id="path86"
       inkscape:connector-curvature="0" />
    <path
       d="m 102.24947,163.0535 3.2579,-9.12636 c 0.16087,0.0706 0.32385,0.14816 0.49248,0.23283 l -3.29495,9.23219 c -0.18979,-0.0882 -0.33831,-0.20814 -0.45543,-0.33866"
       style="fill:#f14624;fill-opacity:1;fill-rule:nonzero;stroke:none;stroke-width:0.03527778"
       id="path88"
       inkscape:connector-curvature="0" />
    <path
       d="m 105.51866,162.99705 2.74144,-7.67997 c 0.16686,0.0811 0.32984,0.16228 0.49071,0.23989 l -2.5333,7.09436 c -0.0448,0.0282 -0.0907,0.0494 -0.13511,0.0706 -0.19403,0.10583 -0.37994,0.1905 -0.56374,0.27517"
       style="fill:#f14624;fill-opacity:1;fill-rule:nonzero;stroke:none;stroke-width:0.03527778"
       id="path90"
       inkscape:connector-curvature="0" />
    <path
       d="m 113.57434,160.24891 -7.9e-4,0.004 h -0.002 c 0.002,-0.004 0.002,-0.004 0.002,-0.004"
       style="fill:#f14624;fill-opacity:1;fill-rule:nonzero;stroke:none;stroke-width:0.03527778"
       id="path92"
       inkscape:connector-curvature="0" />
  </g>
</svg>
