<?xml version="1.0" encoding="UTF-8" standalone="no"?>
<!-- Created with Inkscape (http://www.inkscape.org/) -->

<svg
   xmlns:dc="http://purl.org/dc/elements/1.1/"
   xmlns:cc="http://creativecommons.org/ns#"
   xmlns:rdf="http://www.w3.org/1999/02/22-rdf-syntax-ns#"
   xmlns:svg="http://www.w3.org/2000/svg"
   xmlns="http://www.w3.org/2000/svg"
   xmlns:sodipodi="http://sodipodi.sourceforge.net/DTD/sodipodi-0.dtd"
   xmlns:inkscape="http://www.inkscape.org/namespaces/inkscape"
   width="91.021706mm"
   height="124.22257mm"
   viewBox="0 0 91.021706 124.22257"
   version="1.1"
   id="svg2827"
   inkscape:version="0.92.2 5c3e80d, 2017-08-06"
   sodipodi:docname="monster2.svg">
  <defs
     id="defs2821" />
  <sodipodi:namedview
     id="base"
     pagecolor="#ffffff"
     bordercolor="#666666"
     borderopacity="1.0"
     inkscape:pageopacity="0.0"
     inkscape:pageshadow="2"
     inkscape:zoom="0.35"
     inkscape:cx="174.86667"
     inkscape:cy="189.03705"
     inkscape:document-units="mm"
     inkscape:current-layer="layer1"
     showgrid="false"
     inkscape:window-width="1920"
     inkscape:window-height="1016"
     inkscape:window-x="1920"
     inkscape:window-y="27"
     inkscape:window-maximized="1" />
  <metadata
     id="metadata2824">
    <rdf:RDF>
      <cc:Work
         rdf:about="">
        <dc:format>image/svg+xml</dc:format>
        <dc:type
           rdf:resource="http://purl.org/dc/dcmitype/StillImage" />
        <dc:title></dc:title>
      </cc:Work>
    </rdf:RDF>
  </metadata>
  <g
     inkscape:label="Calque 1"
     inkscape:groupmode="layer"
     id="layer1"
     transform="translate(-59.566528,-74.626811)">
    <g
       id="g1156"
       transform="matrix(0.04137836,0,0,-0.04137836,-137.86715,765.20574)">
      <path
         d="m 5620.59,15884.4 c -62.63,125.9 -219.99,360.2 -526.71,365.5 l 53.77,50.1 c 336.18,-5.8 493.01,-286.6 542.19,-398.4 l -69.25,-17.2"
         style="fill:#94d335;fill-opacity:1;fill-rule:nonzero;stroke:none"
         id="path1158"
         inkscape:connector-curvature="0" />
    </g>
    <g
       id="g1160"
       transform="matrix(0.04164753,0,0,-0.04164753,-137.86715,765.20574)">
      <path
         d="m 5183.98,16211.9 c -13.51,54.7 -68.92,88.1 -123.66,74.6 -54.75,-13.7 -88.13,-68.9 -74.58,-123.7 13.54,-54.7 68.9,-88.2 123.65,-74.6 54.76,13.6 88.17,68.9 74.59,123.7"
         style="fill:#9153af;fill-opacity:1;fill-rule:nonzero;stroke:none"
         id="path1162"
         inkscape:connector-curvature="0" />
    </g>
    <g
       id="g1164"
       transform="matrix(0.04055957,0,0,-0.04055957,-137.86715,765.20574)">
      <path
         d="m 5790.21,16254.1 -68.39,-24.9 c -7.27,13.6 -15.56,27.9 -24.73,42.8 l 68.71,28 c 9.39,-16.4 17.46,-31.8 24.41,-45.9"
         style="fill:#57c6c1;fill-opacity:1;fill-rule:nonzero;stroke:none"
         id="path1166"
         inkscape:connector-curvature="0" />
    </g>
    <g
       id="g1168"
       transform="matrix(0.04077794,0,0,-0.04077794,-137.86715,765.20574)">
      <path
         d="m 5709.92,16253.4 -66.7,-32.7 c -8.19,11.7 -16.92,23.7 -26.32,35.7 l 60.17,43.6 c 12.01,-15.7 22.93,-31.4 32.85,-46.6"
         style="fill:#57c6c1;fill-opacity:1;fill-rule:nonzero;stroke:none"
         id="path1170"
         inkscape:connector-curvature="0" />
    </g>
    <g
       id="g1172"
       transform="matrix(0.04099489,0,0,-0.04099489,-137.86715,765.20574)">
      <path
         d="m 5606.38,16262.4 -57.56,-47 c -10.72,11.5 -22.04,23 -34.03,34.2 l 54.4,50.4 c 13.17,-12.3 25.56,-24.9 37.19,-37.6"
         style="fill:#57c6c1;fill-opacity:1;fill-rule:nonzero;stroke:none"
         id="path1174"
         inkscape:connector-curvature="0" />
    </g>
    <g
       id="g1176"
       transform="matrix(0.04121961,0,0,-0.04121961,-137.86715,765.20574)">
      <path
         d="m 5495.54,16248.3 -55.86,-49 c -14.98,11.6 -30.85,22.6 -47.56,32.8 l 23.48,67.9 c 28.9,-15.4 55.56,-32.9 79.94,-51.7"
         style="fill:#57c6c1;fill-opacity:1;fill-rule:nonzero;stroke:none"
         id="path1178"
         inkscape:connector-curvature="0" />
    </g>
    <g
       id="g1180"
       transform="matrix(0.04133709,0,0,-0.04133709,-137.86715,765.20574)">
      <path
         d="m 5342.36,16280.1 -18.38,-65.3 c -18.36,8.7 -37.67,16.5 -57.77,23.2 l 12.88,62 c 22.06,-5.4 43.16,-12.1 63.27,-19.9"
         style="fill:#57c6c1;fill-opacity:1;fill-rule:nonzero;stroke:none"
         id="path1182"
         inkscape:connector-curvature="0" />
    </g>
    <g
       id="g1184"
       transform="matrix(0.04137836,0,0,-0.04137836,-137.86715,765.20574)">
      <path
         d="m 6121.96,15884.4 c 62.61,125.9 220,360.2 526.72,365.5 l -53.76,50.1 c -336.2,-5.8 -493.05,-286.6 -542.19,-398.4 l 69.23,-17.2"
         style="fill:#94d335;fill-opacity:1;fill-rule:nonzero;stroke:none"
         id="path1186"
         inkscape:connector-curvature="0" />
    </g>
    <g
       id="g1188"
       transform="matrix(0.04164753,0,0,-0.04164753,-137.86715,765.20574)">
      <path
         d="m 6482.65,16211.9 c 13.56,54.7 68.94,88.1 123.69,74.6 54.72,-13.7 88.17,-68.9 74.59,-123.7 -13.55,-54.7 -68.92,-88.2 -123.68,-74.6 -54.72,13.6 -88.15,68.9 -74.6,123.7"
         style="fill:#9153af;fill-opacity:1;fill-rule:nonzero;stroke:none"
         id="path1190"
         inkscape:connector-curvature="0" />
    </g>
    <g
       id="g1192"
       transform="matrix(0.04055957,0,0,-0.04055957,-137.86715,765.20574)">
      <path
         d="m 6189.37,16254.1 68.42,-24.9 c 7.29,13.6 15.53,27.9 24.72,42.8 l -68.69,28 c -9.4,-16.4 -17.48,-31.8 -24.45,-45.9"
         style="fill:#57c6c1;fill-opacity:1;fill-rule:nonzero;stroke:none"
         id="path1194"
         inkscape:connector-curvature="0" />
    </g>
    <g
       id="g1196"
       transform="matrix(0.04077794,0,0,-0.04077794,-137.86715,765.20574)">
      <path
         d="m 6205.56,16253.4 66.72,-32.7 c 8.15,11.7 16.9,23.7 26.31,35.7 l -60.16,43.6 c -12.01,-15.7 -22.92,-31.4 -32.87,-46.6"
         style="fill:#57c6c1;fill-opacity:1;fill-rule:nonzero;stroke:none"
         id="path1198"
         inkscape:connector-curvature="0" />
    </g>
    <g
       id="g1200"
       transform="matrix(0.04099489,0,0,-0.04099489,-137.86715,765.20574)">
      <path
         d="m 6245.96,16262.4 57.57,-47 c 10.7,11.5 22.01,23 34.02,34.2 l -54.41,50.4 c -13.14,-12.3 -25.55,-24.9 -37.18,-37.6"
         style="fill:#57c6c1;fill-opacity:1;fill-rule:nonzero;stroke:none"
         id="path1202"
         inkscape:connector-curvature="0" />
    </g>
    <g
       id="g1204"
       transform="matrix(0.04121961,0,0,-0.04121961,-137.86715,765.20574)">
      <path
         d="m 6292.21,16248.3 55.87,-49 c 15.02,11.6 30.93,22.6 47.59,32.8 l -23.48,67.9 c -28.92,-15.4 -55.58,-32.9 -79.98,-51.7"
         style="fill:#57c6c1;fill-opacity:1;fill-rule:nonzero;stroke:none"
         id="path1206"
         inkscape:connector-curvature="0" />
    </g>
    <g
       id="g1208"
       transform="matrix(0.04133709,0,0,-0.04133709,-137.86715,765.20574)">
      <path
         d="m 6411.94,16280.1 18.4,-65.3 c 18.33,8.7 37.65,16.5 57.75,23.2 l -12.87,62 c -22.05,-5.4 -43.16,-12.1 -63.28,-19.9"
         style="fill:#57c6c1;fill-opacity:1;fill-rule:nonzero;stroke:none"
         id="path1210"
         inkscape:connector-curvature="0" />
    </g>
    <g
       id="g1212"
       transform="matrix(0.04109332,0,0,-0.04109332,-137.86715,765.20574)">
      <path
         d="m 7019.52,15393.1 c -107.88,73.8 -363.38,-22.7 -323.63,-278.9 28.78,-185.5 -44.31,-202.1 -86.87,-197.1 l -51.07,606.7 c 0,759.8 -1229.09,776.2 -1229.09,0 l -43.1,-608.4 c -50.98,-5.1 -142.96,10.2 -109.33,198.8 45.7,256.2 -247.94,352.7 -371.91,278.9 0,0 195.72,-22.7 182.69,-159 -12.76,-133.1 -153.96,-630.7 274.82,-653.2 l -46.6,-657.3 c 0,0 -45.36,-141.4 239.1,-141.4 219.78,0 205.6,505.8 205.6,505.8 l 630.7,-9 c 0,0 -16.73,-496.8 192.9,-496.8 240.76,0 208.97,141.1 208.97,141.1 l -55.9,664.1 c 371.68,22.8 234.85,513.7 223.75,646.7 -11.36,136.3 158.97,159 158.97,159"
         style="fill:#94d335;fill-opacity:1;fill-rule:nonzero;stroke:none"
         id="path1214"
         inkscape:connector-curvature="0" />
    </g>
    <g
       id="g1216"
       transform="matrix(0.03940845,0,0,-0.03940845,-137.86715,765.20574)">
      <path
         d="m 6188.63,16218.3 c 0,-45.3 -36.6,-81.8 -81.76,-81.8 -45.19,0 -81.77,36.5 -81.77,81.8 0,45.1 36.58,81.7 81.77,81.7 45.16,0 81.76,-36.6 81.76,-81.7"
         style="fill:#6ec732;fill-opacity:1;fill-rule:nonzero;stroke:none"
         id="path1218"
         inkscape:connector-curvature="0" />
    </g>
    <g
       id="g1220"
       transform="matrix(0.03682824,0,0,-0.03682824,-137.86715,765.20574)">
      <path
         d="m 7006.8,16212.6 c 0,-48.3 -39.14,-87.5 -87.48,-87.5 -48.33,0 -87.49,39.2 -87.49,87.5 0,48.3 39.16,87.4 87.49,87.4 48.34,0 87.48,-39.1 87.48,-87.4"
         style="fill:#6ec732;fill-opacity:1;fill-rule:nonzero;stroke:none"
         id="path1222"
         inkscape:connector-curvature="0" />
    </g>
    <g
       id="g1224"
       transform="matrix(0.0392871,0,0,-0.0392871,-137.86715,765.20574)">
      <path
         d="m 5802.37,16218.1 c 0,-45.4 -36.74,-82.1 -82.05,-82.1 -45.3,0 -82.05,36.7 -82.05,82.1 0,45.2 36.75,81.9 82.05,81.9 45.31,0 82.05,-36.7 82.05,-81.9"
         style="fill:#6ec732;fill-opacity:1;fill-rule:nonzero;stroke:none"
         id="path1226"
         inkscape:connector-curvature="0" />
    </g>
    <g
       id="g1228"
       transform="matrix(0.03801145,0,0,-0.03801145,-137.86715,765.20574)">
      <path
         d="m 6173.19,16169.6 c 0,-72 -58.4,-130.4 -130.45,-130.4 -72.03,0 -130.42,58.4 -130.42,130.4 0,72.1 58.39,130.4 130.42,130.4 72.05,0 130.45,-58.3 130.45,-130.4"
         style="fill:#6ec732;fill-opacity:1;fill-rule:nonzero;stroke:none"
         id="path1230"
         inkscape:connector-curvature="0" />
    </g>
    <g
       id="g1232"
       transform="matrix(0.03866162,0,0,-0.03866162,-137.86715,765.20574)">
      <path
         d="m 6669.79,16171.8 c 0,-71 -57.44,-128.4 -128.26,-128.4 -70.84,0 -128.21,57.4 -128.21,128.4 0,70.7 57.37,128.2 128.21,128.2 70.82,0 128.26,-57.5 128.26,-128.2"
         style="fill:#6ec732;fill-opacity:1;fill-rule:nonzero;stroke:none"
         id="path1234"
         inkscape:connector-curvature="0" />
    </g>
    <g
       id="g1236"
       transform="matrix(0.04038459,0,0,-0.04038459,-137.86715,765.20574)">
      <path
         d="m 6441.42,16177.2 c 0,-67.8 -54.94,-122.7 -122.76,-122.7 -67.79,0 -122.78,54.9 -122.78,122.7 0,67.9 54.99,122.8 122.78,122.8 67.82,0 122.76,-54.9 122.76,-122.8"
         style="fill:#6ec732;fill-opacity:1;fill-rule:nonzero;stroke:none"
         id="path1238"
         inkscape:connector-curvature="0" />
    </g>
    <g
       id="g1240"
       transform="matrix(0.03669841,0,0,-0.03669841,-137.86715,765.20574)">
      <path
         d="m 6748.07,16164.9 c 0,-74.6 -60.54,-135 -135.15,-135 -74.57,0 -135.11,60.4 -135.11,135 0,74.6 60.54,135.1 135.11,135.1 74.61,0 135.15,-60.5 135.15,-135.1"
         style="fill:#6ec732;fill-opacity:1;fill-rule:nonzero;stroke:none"
         id="path1242"
         inkscape:connector-curvature="0" />
    </g>
    <g
       id="g1244"
       transform="matrix(0.0404943,0,0,-0.0404943,-137.86715,765.20574)">
      <path
         d="m 6065.54,16177.5 c 0,-67.6 -54.82,-122.4 -122.45,-122.4 -67.62,0 -122.43,54.8 -122.43,122.4 0,67.7 54.81,122.5 122.43,122.5 67.63,0 122.45,-54.8 122.45,-122.5"
         style="fill:#6ec732;fill-opacity:1;fill-rule:nonzero;stroke:none"
         id="path1246"
         inkscape:connector-curvature="0" />
    </g>
    <g
       id="g1248"
       transform="matrix(0.03770736,0,0,-0.03770736,-137.86715,765.20574)">
      <path
         d="m 7381.2,16300 c -72.61,0 -131.5,-58.8 -131.5,-131.5 0,-72.6 58.89,-131.5 131.5,-131.5 47.14,0 88.34,24.9 111.59,62.2 8.78,30.2 14.28,62.4 17.32,95.2 -12.03,60.2 -65.17,105.6 -128.91,105.6"
         style="fill:#6ec732;fill-opacity:1;fill-rule:nonzero;stroke:none"
         id="path1250"
         inkscape:connector-curvature="0" />
    </g>
    <g
       id="g1252"
       transform="matrix(0.03639397,0,0,-0.03639397,-137.86715,765.20574)">
      <path
         d="m 7508.15,16300 c -47.45,-1.6 -85.37,-40.5 -85.37,-88.3 0,-48.9 39.61,-88.6 88.52,-88.6 3.99,0 7.82,0.4 11.65,0.8 l -14.8,176.1"
         style="fill:#6ec732;fill-opacity:1;fill-rule:nonzero;stroke:none"
         id="path1254"
         inkscape:connector-curvature="0" />
    </g>
    <g
       id="g1256"
       transform="matrix(0.03597698,0,0,-0.03597698,-137.86715,765.20574)">
      <path
         d="m 7420.58,16162.1 c 0,76.2 -61.75,137.9 -137.85,137.9 -38.08,0 -72.55,-15.4 -97.48,-40.5 0.64,-48.7 3.96,-127.3 16.48,-208.7 22.76,-16.6 50.67,-26.6 81,-26.6 76.1,0 137.85,61.8 137.85,137.9"
         style="fill:#6ec732;fill-opacity:1;fill-rule:nonzero;stroke:none"
         id="path1258"
         inkscape:connector-curvature="0" />
    </g>
    <g
       id="g1260"
       transform="matrix(0.03639432,0,0,-0.03639432,-137.86715,765.20574)">
      <path
         d="m 6381.16,16163.8 c 0,-75.3 -60.98,-136.2 -136.21,-136.2 -75.26,0 -136.25,60.9 -136.25,136.2 0,75.2 60.99,136.2 136.25,136.2 75.23,0 136.21,-61 136.21,-136.2"
         style="fill:#6ec732;fill-opacity:1;fill-rule:nonzero;stroke:none"
         id="path1262"
         inkscape:connector-curvature="0" />
    </g>
    <g
       id="g1264"
       transform="matrix(0.03555435,0,0,-0.03555435,-137.86715,765.20574)">
      <path
         d="m 6108.27,16181.8 c 0,49.9 -26.26,93.6 -65.66,118.2 l -14.69,-207.3 c 0,0 -5.16,-16 -2.09,-38.1 48.57,21.9 82.44,70.6 82.44,127.2"
         style="fill:#6ec732;fill-opacity:1;fill-rule:nonzero;stroke:none"
         id="path1266"
         inkscape:connector-curvature="0" />
    </g>
    <g
       id="g1268"
       transform="matrix(0.03773699,0,0,-0.03773699,-137.86715,765.20574)">
      <path
         d="m 5396.08,16300 c -2.71,-87.6 6.28,-178.9 43.34,-254.1 49.76,18.6 85.19,66.5 85.19,122.9 0,71.5 -57.29,129.7 -128.53,131.2"
         style="fill:#6ec732;fill-opacity:1;fill-rule:nonzero;stroke:none"
         id="path1270"
         inkscape:connector-curvature="0" />
    </g>
    <g
       id="g1272"
       transform="matrix(0.03813245,0,0,-0.03813245,-137.86715,765.20574)">
      <path
         d="m 5747.05,16300 c -12.67,0 -24.64,-2.7 -35.39,-7.8 l -10.44,-147.7 c 13.21,-8.5 28.89,-13.4 45.83,-13.4 46.67,0 84.48,37.7 84.48,84.4 0,46.7 -37.81,84.5 -84.48,84.5"
         style="fill:#6ec732;fill-opacity:1;fill-rule:nonzero;stroke:none"
         id="path1274"
         inkscape:connector-curvature="0" />
    </g>
    <g
       id="g1276"
       transform="matrix(0.03940845,0,0,-0.03940845,-137.86715,765.20574)">
      <path
         d="m 6841.37,16151.9 -3.04,35.6 c 0,36.1 -2.72,70.8 -7.8,103.6 -11.12,5.7 -23.62,8.9 -36.92,8.9 -45.16,0 -81.77,-36.6 -81.77,-81.7 0,-45.3 36.61,-81.8 81.77,-81.8 17.87,0 34.3,5.7 47.76,15.4"
         style="fill:#6ec732;fill-opacity:1;fill-rule:nonzero;stroke:none"
         id="path1278"
         inkscape:connector-curvature="0" />
    </g>
    <g
       id="g1280"
       transform="matrix(0.04003851,0,0,-0.04003851,-137.86715,765.20574)">
      <path
         d="m 6654.82,15927.8 c -48.83,-129.9 -193.6,-195.4 -323.39,-146.6 -129.8,48.8 -195.34,193.7 -146.56,323.4 48.85,129.8 193.65,195.4 323.42,146.5 129.72,-48.8 195.38,-193.6 146.53,-323.3"
         style="fill:#ffffff;fill-opacity:1;fill-rule:nonzero;stroke:none"
         id="path1282"
         inkscape:connector-curvature="0" />
    </g>
    <g
       id="g1284"
       transform="matrix(0.03985824,0,0,-0.03985824,-137.86715,765.20574)">
      <path
         d="m 6623.94,16022.6 c -36.4,-96.7 -144.26,-145.6 -240.97,-109.1 -96.72,36.3 -145.59,144.2 -109.22,240.9 36.41,96.8 144.28,145.6 241,109.3 96.71,-36.5 145.58,-144.3 109.19,-241.1"
         style="fill:#54c8f4;fill-opacity:1;fill-rule:nonzero;stroke:none"
         id="path1286"
         inkscape:connector-curvature="0" />
    </g>
    <g
       id="g1288"
       transform="matrix(0.03976088,0,0,-0.03976088,-137.86715,765.20574)">
      <path
         d="m 6607.12,16074.4 c -29.63,-78.6 -117.39,-118.4 -196.04,-88.8 -78.67,29.5 -118.46,117.4 -88.85,196 29.61,78.6 117.37,118.4 196.03,88.9 78.67,-29.7 118.45,-117.5 88.86,-196.1"
         style="fill:#5a3114;fill-opacity:1;fill-rule:nonzero;stroke:none"
         id="path1290"
         inkscape:connector-curvature="0" />
    </g>
    <g
       id="g1292"
       transform="matrix(0.03936047,0,0,-0.03936047,-137.86715,765.20574)">
      <path
         d="m 6366.04,16235.9 c -8.46,-22.4 -33.33,-33.6 -55.71,-25.2 -22.29,8.4 -33.58,33.4 -25.15,55.7 8.39,22.3 33.27,33.6 55.62,25.2 22.35,-8.4 33.64,-33.3 25.24,-55.7"
         style="fill:#ffffff;fill-opacity:1;fill-rule:nonzero;stroke:none"
         id="path1294"
         inkscape:connector-curvature="0" />
    </g>
    <g
       id="g1296"
       transform="matrix(0.03967057,0,0,-0.03967057,-137.86715,765.20574)">
      <path
         d="m 6647.1,16236.5 c -8.37,-22.2 -33.06,-33.4 -55.25,-25.1 -22.11,8.4 -33.35,33.1 -25.03,55.3 8.36,22.1 33.1,33.3 55.26,25 22.21,-8.3 33.34,-33.1 25.02,-55.2"
         style="fill:#ffffff;fill-opacity:1;fill-rule:nonzero;stroke:none"
         id="path1298"
         inkscape:connector-curvature="0" />
    </g>
    <g
       id="g1300"
       transform="matrix(0.04002052,0,0,-0.04002052,-137.86715,765.20574)">
      <path
         d="m 6063.46,16082 c 32.37,-135 -50.77,-270.5 -185.63,-302.8 -134.9,-32.4 -270.49,50.7 -302.85,185.5 -32.35,134.9 50.77,270.5 185.62,302.9 134.87,32.4 270.53,-50.8 302.86,-185.6"
         style="fill:#ffffff;fill-opacity:1;fill-rule:nonzero;stroke:none"
         id="path1302"
         inkscape:connector-curvature="0" />
    </g>
    <g
       id="g1304"
       transform="matrix(0.03984519,0,0,-0.03984519,-137.86715,765.20574)">
      <path
         d="m 6026.82,16137.6 c 24.13,-100.5 -37.77,-201.5 -138.26,-225.7 -100.55,-24.1 -201.55,37.9 -225.69,138.4 -24.11,100.5 37.81,201.5 138.32,225.6 100.51,24.1 201.51,-37.8 225.63,-138.3"
         style="fill:#54c8f4;fill-opacity:1;fill-rule:nonzero;stroke:none"
         id="path1306"
         inkscape:connector-curvature="0" />
    </g>
    <g
       id="g1308"
       transform="matrix(0.03975029,0,0,-0.03975029,-137.86715,765.20574)">
      <path
         d="m 6006.84,16167.8 c 19.6,-81.6 -30.77,-163.9 -112.51,-183.5 -81.77,-19.6 -163.95,30.7 -183.56,112.5 -19.6,81.7 30.75,163.9 112.52,183.5 81.71,19.7 163.93,-30.7 183.55,-112.5"
         style="fill:#5a3114;fill-opacity:1;fill-rule:nonzero;stroke:none"
         id="path1310"
         inkscape:connector-curvature="0" />
    </g>
    <g
       id="g1312"
       transform="matrix(0.03909695,0,0,-0.03909695,-137.86715,765.20574)">
      <path
         d="m 5851.4,16262.3 c 5.63,-23.4 -8.75,-47 -32.19,-52.6 -23.33,-5.5 -46.81,8.9 -52.41,32.2 -5.62,23.4 8.77,46.8 32.1,52.4 23.42,5.7 46.89,-8.7 52.5,-32"
         style="fill:#ffffff;fill-opacity:1;fill-rule:nonzero;stroke:none"
         id="path1314"
         inkscape:connector-curvature="0" />
    </g>
    <g
       id="g1316"
       transform="matrix(0.03980533,0,0,-0.03980533,-137.86715,765.20574)">
      <path
         d="m 5949.01,16262.9 c 5.53,-22.9 -8.65,-45.9 -31.6,-51.5 -22.91,-5.5 -46.01,8.7 -51.51,31.6 -5.5,23 8.63,46 31.58,51.6 22.98,5.4 46.01,-8.7 51.53,-31.7"
         style="fill:#ffffff;fill-opacity:1;fill-rule:nonzero;stroke:none"
         id="path1318"
         inkscape:connector-curvature="0" />
    </g>
    <g
       id="g1320"
       transform="matrix(0.03841115,0,0,-0.03841115,-137.86715,765.20574)">
      <path
         d="m 6375.33,16096.1 h -2.93 c -164.56,0.7 -269.94,53.4 -329.43,97.7 -65.29,48.6 -90.71,96.9 -91.75,98.9 l 14.31,7.3 c 0.25,-0.4 25.18,-47.5 87.84,-93.9 57.63,-42.6 160.04,-93.5 320.48,-93.8 307.87,0.6 407.32,185.8 408.27,187.7 l 14.34,-7.3 c -1.03,-2 -26.47,-50.3 -91.74,-98.9 -59.5,-44.3 -164.86,-97 -329.39,-97.7 v 0"
         style="fill:#213b0b;fill-opacity:1;fill-rule:nonzero;stroke:none"
         id="path1322"
         inkscape:connector-curvature="0" />
    </g>
    <g
       id="g1324"
       transform="matrix(0.03846795,0,0,-0.03846795,-137.86715,765.20574)">
      <path
         d="m 6677.44,16291.2 c 15.32,6.3 31.92,8.8 48.68,8.8 16.78,-0.2 34.09,-3.5 49.68,-11.7 15.61,-8 28.82,-21.7 35.5,-37.9 6.75,-16.1 7.93,-33.6 5,-49.7 -3.77,16 -8.36,31.2 -16.32,43.9 -7.73,12.8 -18.67,22.7 -31.69,29.6 -12.99,6.8 -27.85,10.8 -43.18,13.2 -15.37,2.5 -31.28,3.4 -47.67,3.8"
         style="fill:#213b0b;fill-opacity:1;fill-rule:nonzero;stroke:none"
         id="path1326"
         inkscape:connector-curvature="0" />
    </g>
    <g
       id="g1328"
       transform="matrix(0.03846795,0,0,-0.03846795,-137.86715,765.20574)">
      <path
         d="m 6051.89,16291.2 c -16.39,-0.4 -32.31,-1.3 -47.72,-3.8 -15.28,-2.4 -30.11,-6.4 -43.16,-13.2 -13,-6.9 -23.93,-16.8 -31.67,-29.6 -7.94,-12.7 -12.5,-27.9 -16.29,-43.9 -2.95,16.1 -1.74,33.6 5.01,49.7 6.67,16.2 19.83,29.9 35.5,37.9 15.6,8.2 32.9,11.5 49.63,11.7 16.82,0 33.38,-2.5 48.7,-8.8"
         style="fill:#213b0b;fill-opacity:1;fill-rule:nonzero;stroke:none"
         id="path1330"
         inkscape:connector-curvature="0" />
    </g>
    <g
       id="g1332"
       transform="matrix(0.03739268,0,0,-0.03739268,-137.86715,765.20574)">
      <path
         d="m 6448.33,16300 c 16.46,-7.9 32.98,-14.6 49.74,-19.8 16.68,-5.1 33.71,-8.4 50.72,-9.1 16.98,-0.8 33.99,1.3 50.38,6.3 16.54,4.9 32.22,13.1 47.92,22.6 -11,-14.6 -25.99,-26.8 -43.21,-34.7 -17.24,-8.1 -36.75,-11.6 -55.8,-10.8 -19.12,0.8 -37.7,5.8 -54.7,13.6 -16.82,7.9 -32.57,18.3 -45.05,31.9"
         style="fill:#213b0b;fill-opacity:1;fill-rule:nonzero;stroke:none"
         id="path1334"
         inkscape:connector-curvature="0" />
    </g>
    <g
       id="g1336"
       transform="matrix(0.03818467,0,0,-0.03818467,-137.86715,765.20574)">
      <path
         d="m 6538.02,16025.6 h -252.24 c -156.1,0 -213.29,260 -215.64,271.1 l 15.9,3.3 c 0.58,-2.5 56.71,-258.2 199.74,-258.2 h 252.24 c 143.14,0 199.2,255.7 199.72,258.2 l 15.87,-3.3 c -2.38,-11.1 -59.49,-271.1 -215.59,-271.1"
         style="fill:#213b0b;fill-opacity:1;fill-rule:nonzero;stroke:none"
         id="path1338"
         inkscape:connector-curvature="0" />
    </g>
    <g
       id="g1340"
       transform="matrix(0.03814127,0,0,-0.03814127,-137.86715,765.20574)">
      <path
         d="m 6545.35,16059.9 h -252.49 c -120.21,0 -179.11,180.2 -195.26,239.7 61.67,-42.5 164.55,-89.1 319.77,-89.7 h 2.97 v 0 c 155.72,0.6 258.77,47.5 320.39,90.1 -16.01,-59 -74.84,-240.1 -195.38,-240.1"
         style="fill:#84111c;fill-opacity:1;fill-rule:nonzero;stroke:none"
         id="path1342"
         inkscape:connector-curvature="0" />
    </g>
    <g
       id="g1344"
       transform="matrix(0.03815292,0,0,-0.03815292,-137.86715,765.20574)">
      <path
         d="m 6099.19,16289.9 c 17.28,-61.2 76.06,-232.8 191.77,-232.8 h 252.42 c 115.95,0 174.65,171.9 191.88,233.3 -59.84,-40.4 -162.36,-86.9 -316.86,-87.4 h -2.96 c -154.1,0.5 -256.44,46.9 -316.25,86.9 z m 444.19,-236.9 h -252.42 c -122.17,0 -181.79,184.7 -197.15,241.2 l -1.44,5.3 4.55,-3.1 c 58.61,-40.4 161.43,-88.7 318.52,-89.4 h 2.96 c 157.48,0.7 260.49,49.2 319.15,89.8 l 4.57,3.2 -1.47,-5.4 c -15.32,-56.7 -74.86,-241.6 -197.27,-241.6"
         style="fill:#213b0b;fill-opacity:1;fill-rule:nonzero;stroke:none"
         id="path1346"
         inkscape:connector-curvature="0" />
    </g>
    <g
       id="g1348"
       transform="matrix(0.03814127,0,0,-0.03814127,-137.86715,765.20574)">
      <path
         d="m 6420.34,16209.9 v 0 h -2.97 c -155.22,0.6 -258.1,47.2 -319.77,89.7 0.52,-1.9 1.09,-3.9 1.67,-6 41.93,-57.9 136.7,-150.5 316.14,-153 v -0.1 c 1.26,0 2.48,0 3.69,0 1.24,0 2.44,0 3.65,0 v 0.1 c 179.48,2.5 274.3,95.1 316.19,153 0.64,2.3 1.24,4.4 1.79,6.4 -61.62,-42.6 -164.67,-89.5 -320.39,-90.1"
         style="fill:#ffffff;fill-opacity:1;fill-rule:nonzero;stroke:none"
         id="path1350"
         inkscape:connector-curvature="0" />
    </g>
    <g
       id="g1352"
       transform="matrix(0.03774722,0,0,-0.03774722,-137.86715,765.20574)">
      <path
         d="m 6686.92,16251.9 c -50.07,26.9 -114.75,47 -197.13,48.1 v 0 c -1.27,0 -2.47,0 -3.73,0 -1.25,0 -2.46,0 -3.68,0 v 0 c -82.29,-1.1 -146.87,-21.1 -196.96,-47.9 21.35,-15.1 45.74,-24.5 73.24,-24.5 h 126.15 v 2.4 l 0.46,-2.4 h 128.58 c 27.46,0 51.76,9.3 73.07,24.3"
         style="fill:#ffffff;fill-opacity:1;fill-rule:nonzero;stroke:none"
         id="path1354"
         inkscape:connector-curvature="0" />
    </g>
    <g
       id="g1356"
       transform="matrix(0.03852051,0,0,-0.03852051,-137.86715,765.20574)">
      <path
         d="m 6832.09,16224.8 c 0.84,11.5 1.59,22.7 0.87,33.4 -0.67,10.6 -3.26,21.3 -9.7,26.1 -3.15,2.3 -7.72,3.6 -12.74,4.3 -5.04,0.4 -10.48,0.3 -15.95,0.1 -11.02,-0.6 -22.46,-2 -34.07,-1.5 10.72,4.3 21.38,8.2 32.8,10.7 5.76,1.2 11.68,2.1 17.96,1.9 6.23,-0.2 13.16,-1.4 19.21,-5.9 5.97,-4.5 9.23,-11 10.91,-17.3 1.56,-6.3 1.74,-12.5 1.2,-18.5 -1.2,-11.9 -4.75,-23.2 -10.49,-33.3"
         style="fill:#213b0b;fill-opacity:1;fill-rule:nonzero;stroke:none"
         id="path1358"
         inkscape:connector-curvature="0" />
    </g>
    <g
       id="g1360"
       transform="matrix(0.03852051,0,0,-0.03852051,-137.86715,765.20574)">
      <path
         d="m 5879.79,16224.8 c -5.76,10.1 -9.3,21.4 -10.47,33.3 -0.53,6 -0.37,12.2 1.17,18.5 1.67,6.3 4.9,12.8 10.95,17.3 6.04,4.5 12.99,5.7 19.23,5.9 6.24,0.2 12.18,-0.7 17.91,-1.9 11.47,-2.5 22.11,-6.4 32.8,-10.7 -11.6,-0.5 -23,0.9 -34.02,1.5 -5.49,0.2 -10.94,0.3 -15.99,-0.1 -5,-0.7 -9.56,-2 -12.72,-4.3 -6.45,-4.8 -9.09,-15.5 -9.7,-26.1 -0.73,-10.7 0.03,-21.9 0.84,-33.4"
         style="fill:#213b0b;fill-opacity:1;fill-rule:nonzero;stroke:none"
         id="path1362"
         inkscape:connector-curvature="0" />
    </g>
    <g
       id="g1364"
       transform="matrix(0.04200666,0,0,-0.04200666,-137.86715,765.20574)">
      <path
         d="m 6223.42,15629 h -790.31 c 0,0 282.11,671 386.45,671 104.93,0 403.86,-671 403.86,-671"
         style="fill:#57c6c1;fill-opacity:1;fill-rule:nonzero;stroke:none"
         id="path1366"
         inkscape:connector-curvature="0" />
    </g>
    <g
       id="g1368"
       transform="matrix(0.04068339,0,0,-0.04068339,-137.86715,765.20574)">
      <path
         d="m 6324.44,16300 c -56.27,-52.3 -118.62,-95.1 -184.91,-128.2 h 165.76 c 18.5,17.6 36.2,36.3 53.25,55.7 -9.31,20.1 -20.88,44.7 -34.1,72.5"
         style="fill:#295a5b;fill-opacity:1;fill-rule:nonzero;stroke:none"
         id="path1370"
         inkscape:connector-curvature="0" />
    </g>
    <g
       id="g1372"
       transform="matrix(0.04110284,0,0,-0.04110284,-137.86715,765.20574)">
      <path
         d="m 6218.26,16219.1 c -13.01,26.3 -26.77,53.5 -40.99,80.9 -152.5,-107.4 -336.53,-155.4 -517.14,-137.5 -40.94,-89.4 -68.87,-155.8 -68.87,-155.8 h 189.98 c 162.18,29.4 313.72,102.5 437.02,212.4"
         style="fill:#295a5b;fill-opacity:1;fill-rule:nonzero;stroke:none"
         id="path1374"
         inkscape:connector-curvature="0" />
    </g>
    <g
       id="g1376"
       transform="matrix(0.04154382,0,0,-0.04154382,-137.86715,765.20574)">
      <path
         d="m 5630.4,16056.2 c 157.37,12.3 308.14,65.7 436.59,154.4 -17.22,31.3 -34.59,61.6 -51.61,89.4 -95.24,-48.2 -198.84,-75.5 -303.72,-80.9 -28.29,-53.4 -56.16,-110.1 -81.26,-162.9"
         style="fill:#295a5b;fill-opacity:1;fill-rule:nonzero;stroke:none"
         id="path1378"
         inkscape:connector-curvature="0" />
    </g>
    <g
       id="g1380"
       transform="matrix(0.04192094,0,0,-0.04192094,-137.86715,765.20574)">
      <path
         d="m 5908.81,16232.3 c -30.84,41.5 -58.12,67.7 -77.82,67.7 -29.35,0 -74.31,-58.8 -122.26,-139.8 69.51,15.9 136.69,40.1 200.08,72.1"
         style="fill:#295a5b;fill-opacity:1;fill-rule:nonzero;stroke:none"
         id="path1382"
         inkscape:connector-curvature="0" />
    </g>
    <g
       id="g1384"
       transform="matrix(0.04239895,0,0,-0.04239895,-137.86715,765.20574)">
      <path
         d="m 5761.74,16145.5 c 0,0 -1.63,78.1 53.62,95.2 0,0 -15.42,59.3 -81.27,44.6 0,0 -35.78,-86.9 27.65,-139.8"
         style="fill:#ee205d;fill-opacity:1;fill-rule:nonzero;stroke:none"
         id="path1386"
         inkscape:connector-curvature="0" />
    </g>
    <g
       id="g1388"
       transform="matrix(0.04210191,0,0,-0.04210191,-137.86715,765.20574)">
      <path
         d="m 5798.72,16264.4 c 0,0 72.1,-31.5 64.36,-89.3 0,0 60.79,-10.9 75.22,55.5 0,0 -64.52,69.4 -139.58,33.8"
         style="fill:#ee205d;fill-opacity:1;fill-rule:nonzero;stroke:none"
         id="path1390"
         inkscape:connector-curvature="0" />
    </g>
    <g
       id="g1392"
       transform="matrix(0.04199714,0,0,-0.04199714,-137.86715,765.20574)">
      <path
         d="m 5812.73,16300 c 0,0 -56.17,-55.3 -107.02,-26.6 0,0 -32.86,-52.5 23.54,-90.6 0,0 88.66,34 83.48,117.2"
         style="fill:#ee205d;fill-opacity:1;fill-rule:nonzero;stroke:none"
         id="path1394"
         inkscape:connector-curvature="0" />
    </g>
    <g
       id="g1396"
       transform="matrix(0.04222679,0,0,-0.04222679,-137.86715,765.20574)">
      <path
         d="m 5785.71,16215.4 c 0,0 61.22,36.2 99.56,0 0,0 40.18,38.9 -0.97,84.6 0,0 -85.09,-10.6 -98.59,-84.6"
         style="fill:#ee205d;fill-opacity:1;fill-rule:nonzero;stroke:none"
         id="path1398"
         inkscape:connector-curvature="0" />
    </g>
    <g
       id="g1400"
       transform="matrix(0.04202042,0,0,-0.04202042,-137.86715,765.20574)">
      <path
         d="m 5816.35,16300 c 0,0 7.33,-71.1 -41.87,-90.8 0,0 18.53,-53.1 77.55,-34.8 0,0 26.16,82.1 -35.68,125.6"
         style="fill:#ee205d;fill-opacity:1;fill-rule:nonzero;stroke:none"
         id="path1402"
         inkscape:connector-curvature="0" />
    </g>
    <g
       id="g1404"
       transform="matrix(0.04220986,0,0,-0.04220986,-137.86715,765.20574)">
      <path
         d="m 5786.17,16225.2 c 0,0 -68.39,19.5 -68.39,72.3 0,0 -55.89,2.5 -60.83,-58.7 0,0 66.13,-54.6 129.22,-13.6"
         style="fill:#ee205d;fill-opacity:1;fill-rule:nonzero;stroke:none"
         id="path1406"
         inkscape:connector-curvature="0" />
    </g>
  </g>
</svg>
