<?xml version="1.0" encoding="UTF-8" standalone="no"?>
<!-- Created with Inkscape (http://www.inkscape.org/) -->

<svg
   xmlns:dc="http://purl.org/dc/elements/1.1/"
   xmlns:cc="http://creativecommons.org/ns#"
   xmlns:rdf="http://www.w3.org/1999/02/22-rdf-syntax-ns#"
   xmlns:svg="http://www.w3.org/2000/svg"
   xmlns="http://www.w3.org/2000/svg"
   xmlns:sodipodi="http://sodipodi.sourceforge.net/DTD/sodipodi-0.dtd"
   xmlns:inkscape="http://www.inkscape.org/namespaces/inkscape"
   width="91.516106mm"
   height="133.02162mm"
   viewBox="0 0 91.516106 133.02162"
   version="1.1"
   id="svg4091"
   inkscape:version="0.92.2 5c3e80d, 2017-08-06"
   sodipodi:docname="monster5.svg">
  <defs
     id="defs4085" />
  <sodipodi:namedview
     id="base"
     pagecolor="#ffffff"
     bordercolor="#666666"
     borderopacity="1.0"
     inkscape:pageopacity="0.0"
     inkscape:pageshadow="2"
     inkscape:zoom="0.35"
     inkscape:cx="152.94381"
     inkscape:cy="208.52228"
     inkscape:document-units="mm"
     inkscape:current-layer="layer1"
     showgrid="false"
     inkscape:window-width="1920"
     inkscape:window-height="1016"
     inkscape:window-x="1920"
     inkscape:window-y="27"
     inkscape:window-maximized="1" />
  <metadata
     id="metadata4088">
    <rdf:RDF>
      <cc:Work
         rdf:about="">
        <dc:format>image/svg+xml</dc:format>
        <dc:type
           rdf:resource="http://purl.org/dc/dcmitype/StillImage" />
        <dc:title></dc:title>
      </cc:Work>
    </rdf:RDF>
  </metadata>
  <g
     inkscape:label="Calque 1"
     inkscape:groupmode="layer"
     id="layer1"
     transform="translate(-65.366951,-70.983237)">
    <g
       id="g1408"
       transform="matrix(0.04330171,0,0,-0.04330171,-547.87932,765.96115)">
      <path
         d="m 15977.3,15360.3 c 55,-11.8 65.3,-76.8 66.9,-110.3 l 0.1,-20 v -0.1 l 1.7,-488.2 c 0,0 18.8,-258 -225.9,-333.8 v -138.1 c 143.3,26.8 337,128.7 337,485.4 v 491.5 c 1.4,10 0.6,23.5 0,38.3 v 8.3 h -0.2 c -0.6,28.8 1.7,61.3 23.9,84.1 36.1,36.9 108.4,50.4 92.6,85.8 -16,35.4 -85.5,-17.9 -95.6,-0.7 -10,17.5 122.2,105.6 76.3,134.7 -45.8,28.9 -65,-66.7 -108.7,-67.2 -43.5,-0.4 26.4,102.9 -41.1,124.3 -67.6,21.4 -27.2,-123.7 -51.6,-120.4 -24.5,3.1 -55.5,94.8 -90.2,99.4 -34.7,4.5 -29.7,-50.4 -9.2,-67.6 20.5,-17.4 52.8,-84 33.6,-119.1 -19.2,-35.1 -107.7,16.2 -122.9,-19.4 -15.2,-35.5 16,-46.2 113.3,-66.9"
         style="fill:#dc2c23;fill-opacity:1;fill-rule:nonzero;stroke:none"
         id="path1410"
         inkscape:connector-curvature="0" />
    </g>
    <g
       id="g1412"
       transform="matrix(0.0416433,0,0,-0.0416433,-547.87932,765.96115)">
      <path
         d="m 15036.5,15972 c -57.3,-12.3 -68,-79.8 -69.7,-114.6 v -20.9 -0.1 l -1.8,-507.6 c 0,0 -19.6,-268.3 234.9,-347.1 v -143.6 c -149.1,27.9 -350.5,133.8 -350.5,504.7 v 511.1 c -1.4,10.4 -0.5,24.4 0,39.9 v 8.5 h 0.3 c 0.6,30 -1.8,63.8 -24.8,87.5 -37.7,38.4 -112.9,52.4 -96.4,89.3 16.6,36.8 88.9,-18.7 99.4,-0.8 10.4,18.2 -127.1,109.8 -79.4,140 47.7,30.1 67.6,-69.2 113,-69.9 45.4,-0.4 -27.5,107.1 42.8,129.4 70.3,22.2 28.3,-128.7 53.6,-125.3 25.5,3.3 57.9,98.6 93.9,103.4 36,4.7 30.8,-52.4 9.5,-70.3 -21.3,-18 -55,-87.4 -34.9,-123.9 20,-36.4 112,16.9 127.8,-20.1 15.8,-36.9 -16.7,-48.1 -117.7,-69.6"
         style="fill:#dc2c23;fill-opacity:1;fill-rule:nonzero;stroke:none"
         id="path1414"
         inkscape:connector-curvature="0" />
    </g>
    <g
       id="g1416"
       transform="matrix(0.04242012,0,0,-0.04242012,-547.87932,765.96115)">
      <path
         d="m 16216.8,14417.6 -4.5,55 -52.8,625.8 c 0,783.9 -1267.9,800.8 -1267.9,0 l -44.5,-627.6 -24.5,-345.1 -10.2,-145.3 c -20.6,-212.7 -40.6,-556.9 -40.3,-560.9 2.1,-126.3 22.1,-172.1 211.7,-172.1 210.4,0 213.2,170.4 213.2,170.4 l 36.3,405.7 650.7,-9.2 c 0,0 -0.7,-21.7 0,-55.8 v -340.7 c 0,0 2.8,-170.4 208.7,-170.4 187.6,0 205.4,47 207.1,176.7 0.2,3.9 -82.8,992.5 -83,993.5"
         style="fill:#f14624;fill-opacity:1;fill-rule:nonzero;stroke:none"
         id="path1418"
         inkscape:connector-curvature="0" />
    </g>
    <g
       id="g1420"
       transform="matrix(0.04057297,0,0,-0.04057297,-547.87932,765.96115)">
      <path
         d="m 16229,16120.7 c -8.1,0 -14.8,6.7 -14.8,14.9 l -0.1,149.5 c 0,8.2 6.7,14.9 14.9,14.9 8.3,0 14.9,-6.7 14.9,-14.9 l 0.1,-149.5 c 0,-8.2 -6.7,-14.9 -15,-14.9"
         style="fill:#4f1308;fill-opacity:1;fill-rule:nonzero;stroke:none"
         id="path1422"
         inkscape:connector-curvature="0" />
    </g>
    <g
       id="g1424"
       transform="matrix(0.0409889,0,0,-0.0409889,-547.87932,765.96115)">
      <path
         d="m 16218.8,15911.5 c -2.3,0 -4.4,0.4 -6.5,1.4 -7.3,3.6 -10.4,12.4 -6.9,19.8 l 64.6,133.1 c 3.5,7.4 12.4,10.4 19.7,6.8 7.3,-3.5 10.3,-12.4 6.8,-19.7 l -64.5,-133.1 c -2.5,-5.2 -7.8,-8.3 -13.2,-8.3"
         style="fill:#4f1308;fill-opacity:1;fill-rule:nonzero;stroke:none"
         id="path1426"
         inkscape:connector-curvature="0" />
    </g>
    <g
       id="g1428"
       transform="matrix(0.04142211,0,0,-0.04142211,-547.87932,765.96115)">
      <path
         d="m 16176.8,15645 c -3.8,0 -7.7,1.6 -10.6,4.7 -5.4,5.9 -5.2,15.2 0.7,20.6 l 107,100 c 5.8,5.6 15.1,5.3 20.6,-0.7 5.5,-5.9 5.2,-15.1 -0.7,-20.6 l -106.9,-100 c -2.8,-2.7 -6.5,-4 -10.1,-4"
         style="fill:#4f1308;fill-opacity:1;fill-rule:nonzero;stroke:none"
         id="path1430"
         inkscape:connector-curvature="0" />
    </g>
    <g
       id="g1432"
       transform="matrix(0.04042022,0,0,-0.04042022,-547.87932,765.96115)">
      <path
         d="m 16108.4,16133 c -5.6,0 -11.1,3.2 -13.6,8.7 l -62,135 c -3.4,7.5 0,16.4 7.5,19.8 7.5,3.5 16.4,0.2 19.8,-7.3 l 61.9,-135 c 3.4,-7.6 0.1,-16.5 -7.4,-19.9 -2,-0.9 -4.1,-1.3 -6.2,-1.3"
         style="fill:#4f1308;fill-opacity:1;fill-rule:nonzero;stroke:none"
         id="path1434"
         inkscape:connector-curvature="0" />
    </g>
    <g
       id="g1436"
       transform="matrix(0.04008402,0,0,-0.04008402,-547.87932,765.96115)">
      <path
         d="m 16122.1,16165 c -3.9,0 -7.6,1.4 -10.6,4.4 l -104.5,103.3 c -6,5.8 -6.1,15.4 -0.2,21.3 5.9,5.9 15.4,6 21.4,0.2 l 104.5,-103.3 c 6,-5.9 6,-15.5 0.1,-21.4 -2.9,-3.1 -6.8,-4.5 -10.7,-4.5"
         style="fill:#4f1308;fill-opacity:1;fill-rule:nonzero;stroke:none"
         id="path1438"
         inkscape:connector-curvature="0" />
    </g>
    <g
       id="g1440"
       transform="matrix(0.04151912,0,0,-0.04151912,-547.87932,765.96115)">
      <path
         d="m 16250,15457.4 c 50,-208.2 -78.3,-417.5 -286.6,-467.5 -208.1,-49.9 -417.3,78.4 -467.4,286.6 -49.9,208.2 78.4,417.5 286.5,467.4 208.2,50 417.6,-78.4 467.5,-286.5"
         style="fill:#ffffff;fill-opacity:1;fill-rule:nonzero;stroke:none"
         id="path1442"
         inkscape:connector-curvature="0" />
    </g>
    <g
       id="g1444"
       transform="matrix(0.04123831,0,0,-0.04123831,-547.87932,765.96115)">
      <path
         d="m 16262.7,15539.1 c 37.3,-155.4 -58.4,-311.7 -213.9,-349.1 -155.6,-37.2 -311.9,58.6 -349.2,214 -37.3,155.6 58.6,311.8 214,349.2 155.5,37.3 311.7,-58.5 349.1,-214.1"
         style="fill:#54c8f4;fill-opacity:1;fill-rule:nonzero;stroke:none"
         id="path1446"
         inkscape:connector-curvature="0" />
    </g>
    <g
       id="g1448"
       transform="matrix(0.04108626,0,0,-0.04108626,-547.87932,765.96115)">
      <path
         d="m 16269.6,15583.8 c 30.4,-126.5 -47.6,-254 -174.3,-284.3 -126.6,-30.3 -254,47.6 -284.4,174.3 -30.3,126.6 47.7,253.9 174.3,284.3 126.7,30.4 254.1,-47.7 284.4,-174.3"
         style="fill:#5a3114;fill-opacity:1;fill-rule:nonzero;stroke:none"
         id="path1450"
         inkscape:connector-curvature="0" />
    </g>
    <g
       id="g1452"
       transform="matrix(0.04004874,0,0,-0.04004874,-547.87932,765.96115)">
      <path
         d="m 16291.2,15712.8 c 8.8,-36.5 -13.7,-73.2 -50.3,-82 -36.5,-8.8 -73.2,13.7 -81.9,50.3 -8.8,36.4 13.7,73.2 50.2,82 36.6,8.8 73.3,-13.8 82,-50.3"
         style="fill:#ffffff;fill-opacity:1;fill-rule:nonzero;stroke:none"
         id="path1454"
         inkscape:connector-curvature="0" />
    </g>
    <g
       id="g1456"
       transform="matrix(0.04083755,0,0,-0.04083755,-547.87932,765.96115)">
      <path
         d="m 16291.4,15862.1 c 8.6,-36 -13.5,-71.9 -49.4,-80.5 -35.7,-8.6 -71.8,13.4 -80.4,49.3 -8.5,35.8 13.6,71.8 49.3,80.4 35.9,8.6 71.8,-13.5 80.5,-49.2"
         style="fill:#ffffff;fill-opacity:1;fill-rule:nonzero;stroke:none"
         id="path1458"
         inkscape:connector-curvature="0" />
    </g>
    <g
       id="g1460"
       transform="matrix(0.04158333,0,0,-0.04158333,-547.87932,765.96115)">
      <path
         d="m 16159.3,14865.7 c 15.1,6.4 31.6,9.1 48.2,9.2 16.7,-0.2 34,-3.4 49.5,-11.6 15.5,-7.9 28.7,-21.8 35.3,-37.9 6.6,-16 7.7,-33.4 4.6,-49.4 -4,15.8 -8.6,30.9 -16.6,43.4 -7.6,12.6 -18.5,22.2 -31.3,29 -12.7,6.7 -27.4,10.7 -42.5,13.2 -15.2,2.5 -31,3.6 -47.2,4.1"
         style="fill:#4f1308;fill-opacity:1;fill-rule:nonzero;stroke:none"
         id="path1462"
         inkscape:connector-curvature="0" />
    </g>
    <g
       id="g1464"
       transform="matrix(0.03964305,0,0,-0.03964305,-547.87932,765.96115)">
      <path
         d="m 16300,15593.3 c -17.1,-0.6 -33.6,-1.7 -49.6,-4.4 -15.9,-2.5 -31.2,-6.8 -44.6,-13.8 -13.5,-7.1 -24.8,-17.1 -32.9,-30.4 -8.3,-13.1 -13.1,-28.9 -17.3,-45.5 -3.2,16.8 -2.2,35 4.9,51.8 6.8,16.9 20.6,31.4 37,39.8 16.3,8.6 34.4,11.9 51.9,12.1 17.3,-0.1 34.7,-2.9 50.6,-9.6"
         style="fill:#4f1308;fill-opacity:1;fill-rule:nonzero;stroke:none"
         id="path1466"
         inkscape:connector-curvature="0" />
    </g>
    <g
       id="g1468"
       transform="matrix(0.04067775,0,0,-0.04067775,-547.87932,765.96115)">
      <path
         d="m 16104.3,14633.9 c 16.4,-7.5 32.7,-14 49.1,-19 16.5,-4.9 33.2,-8.2 49.9,-8.9 16.6,-0.7 33.2,1.2 49.4,6.1 16.3,4.7 31.7,12.6 47.3,21.8 -10.7,-14.5 -25.4,-26.6 -42.4,-34.5 -17,-8.1 -36.3,-11.6 -55.1,-10.7 -18.9,0.8 -37.2,5.7 -53.9,13.6 -16.7,7.9 -32.1,18.2 -44.3,31.6"
         style="fill:#4f1308;fill-opacity:1;fill-rule:nonzero;stroke:none"
         id="path1470"
         inkscape:connector-curvature="0" />
    </g>
    <g
       id="g1472"
       transform="matrix(0.04166764,0,0,-0.04166764,-547.87932,765.96115)">
      <path
         d="m 16288.7,14816.7 c 0.7,11.5 1.4,22.6 0.6,33.2 -0.6,10.4 -3.4,20.9 -9.5,25.5 -3.1,2.2 -7.5,3.5 -12.5,4.1 -4.9,0.6 -10.2,0.4 -15.7,0.3 -10.9,-0.5 -22.2,-1.9 -33.7,-1.3 10.6,4.6 21.1,8.4 32.4,11 5.7,1.2 11.6,2.1 17.9,1.9 6.1,-0.2 13.1,-1.5 19.2,-5.9 6,-4.6 9.2,-11.2 10.9,-17.3 1.5,-6.4 1.7,-12.5 1.1,-18.4 -1.3,-11.9 -4.7,-23 -10.7,-33.1"
         style="fill:#4f1308;fill-opacity:1;fill-rule:nonzero;stroke:none"
         id="path1474"
         inkscape:connector-curvature="0" />
    </g>
    <g
       id="g1476"
       transform="matrix(0.03940951,0,0,-0.03940951,-547.87932,765.96115)">
      <path
         d="m 16225,15665.8 c -6.2,10.6 -9.9,22.3 -11.2,34.9 -0.6,6.2 -0.5,12.7 1.2,19.5 1.7,6.4 5.1,13.4 11.5,18.3 6.5,4.6 13.8,6 20.3,6.2 6.7,0.2 12.8,-0.7 18.8,-2.1 12,-2.7 23.2,-6.7 34.4,-11.5 -12.2,-0.7 -24.2,0.8 -35.7,1.3 -5.7,0.2 -11.4,0.3 -16.7,-0.3 -5.2,-0.6 -9.9,-2 -13,-4.3 -6.6,-4.9 -9.4,-16 -10.2,-27 -0.8,-11.1 0,-22.9 0.6,-35"
         style="fill:#4f1308;fill-opacity:1;fill-rule:nonzero;stroke:none"
         id="path1478"
         inkscape:connector-curvature="0" />
    </g>
    <g
       id="g1480"
       transform="matrix(0.04149831,0,0,-0.04149831,-547.87932,765.96115)">
      <path
         d="m 15881.7,14689.1 c 0.6,0 1.1,0 1.6,0 h -3.1 c 0.5,0 1,0 1.5,0 -274,0.5 -389.1,140.8 -418.2,184.3 10.5,-48.8 115.2,-498.1 412.9,-508.7 v -0.3 c 1.8,0 3.5,0.1 5.3,0.1 1.8,0 3.6,-0.1 5.4,-0.1 v 0.3 c 297.6,10.6 402.4,459.9 412.9,508.7 -29.2,-43.5 -144.2,-183.8 -418.3,-184.3"
         style="fill:#790f19;fill-opacity:1;fill-rule:nonzero;stroke:none"
         id="path1482"
         inkscape:connector-curvature="0" />
    </g>
    <g
       id="g1484"
       transform="matrix(0.04152159,0,0,-0.04152159,-547.87932,765.96115)">
      <path
         d="m 15872.6,14364.9 h 2.8 c 0.2,-0.1 0.6,-0.1 0.8,-0.1 0.5,0.2 1.1,0.3 1.6,0.3 252.4,9 363.5,342.9 395.4,463.4 -51.8,-58.7 -171.2,-155 -398.3,-156.2 -0.1,0 -0.4,0 -0.6,0 h -3 c -0.2,0 -0.4,0 -0.7,0 -226.9,1.2 -346.5,97.5 -398.2,156.2 31.9,-120.5 143,-454.4 395.3,-463.4 0.6,0 1.1,-0.1 1.7,-0.3 0.3,0 0.6,0 0.9,0.1 z m 5.6,-17 c -1.1,0 -2.3,0 -3.4,0 l -2.2,0.1 -1.7,-0.1 c -2,0 -4,-0.2 -5.9,0.3 -301.9,12.8 -407.5,463.6 -418.5,515 -0.9,4.1 1.2,8.1 5,9.7 3.7,1.6 8.1,0.2 10.3,-3.2 28.3,-42.1 141.3,-179.7 411,-180.3 269.7,0.6 382.7,138.2 411,180.3 2.2,3.4 6.5,4.8 10.3,3.2 3.8,-1.6 5.9,-5.6 5.1,-9.7 -11.2,-51.4 -116.8,-502.2 -418.7,-515 -0.7,-0.2 -1.6,-0.3 -2.3,-0.3"
         style="fill:#4f1308;fill-opacity:1;fill-rule:nonzero;stroke:none"
         id="path1486"
         inkscape:connector-curvature="0" />
    </g>
    <g
       id="g1488"
       transform="matrix(0.04145774,0,0,-0.04145774,-547.87932,765.96115)">
      <path
         d="m 15898.8,14695.2 h -3.7 c -274,13.1 -323.3,94.6 -398.8,155.7 0.6,-2.8 1.3,-5.7 2,-8.6 51.3,-83.3 174.8,-243.2 394.4,-246.7 v -0.2 c 1.6,0 3,0.1 4.6,0.1 1.5,0 2.9,-0.1 4.5,-0.1 v 0.2 c 219.6,3.5 344.7,164.9 396,248.1 0.8,3.3 1.5,6.4 2.2,9.3 -75.4,-61.2 -133.5,-148.4 -401.2,-157.8"
         style="fill:#ffffff;fill-opacity:1;fill-rule:nonzero;stroke:none"
         id="path1490"
         inkscape:connector-curvature="0" />
    </g>
    <g
       id="g1492"
       transform="matrix(0.0409582,0,0,-0.0409582,-547.87932,765.96115)">
      <path
         d="m 16096,14562.8 c 73.4,4 145.9,35.9 204,93.3 -53.8,33.1 -132.5,71.6 -202.3,73.2 v 0.3 c -1.8,0 -3.6,-0.2 -5.4,-0.2 -1.7,0 -3.4,0.2 -5.2,0.2 v -0.3 c -70.7,-1.6 -152,-38 -206.6,-72.2 51.5,-62.5 131.7,-90.3 204.5,-94.3 v -0.3 c 1.8,0 3.7,0.2 5.5,0.2 1.8,0 3.6,-0.2 5.5,-0.2 v 0.3"
         style="fill:#f03852;fill-opacity:1;fill-rule:nonzero;stroke:none"
         id="path1494"
         inkscape:connector-curvature="0" />
    </g>
    <g
       id="g1496"
       transform="matrix(0.04227654,0,0,-0.04227654,-547.87932,765.96115)">
      <path
         d="m 15967.7,15633.3 h -785.2 c 0,0 280.3,666.7 384,666.7 104.2,0 401.2,-666.7 401.2,-666.7"
         style="fill:#57c6c1;fill-opacity:1;fill-rule:nonzero;stroke:none"
         id="path1498"
         inkscape:connector-curvature="0" />
    </g>
    <g
       id="g1500"
       transform="matrix(0.04124678,0,0,-0.04124678,-547.87932,765.96115)">
      <path
         d="m 16266.3,16184 c -55.5,-51.6 -117,-93.9 -182.3,-126.5 h 163.4 c 18.2,17.4 35.8,35.7 52.6,54.9 -9.2,19.8 -20.6,44.2 -33.7,71.6"
         style="fill:#295a5b;fill-opacity:1;fill-rule:nonzero;stroke:none"
         id="path1502"
         inkscape:connector-curvature="0" />
    </g>
    <g
       id="g1504"
       transform="matrix(0.04137272,0,0,-0.04137272,-547.87932,765.96115)">
      <path
         d="m 16175.5,16219.6 c -13,26.1 -26.7,53.1 -40.7,80.4 -151.6,-106.7 -334.4,-154.5 -513.8,-136.7 -40.7,-88.8 -68.5,-154.6 -68.5,-154.6 h 188.8 c 161.1,29 311.7,101.7 434.2,210.9"
         style="fill:#295a5b;fill-opacity:1;fill-rule:nonzero;stroke:none"
         id="path1506"
         inkscape:connector-curvature="0" />
    </g>
    <g
       id="g1508"
       transform="matrix(0.04181369,0,0,-0.04181369,-547.87932,765.96115)">
      <path
         d="m 15486.4,16057.7 c 156.4,12.3 306.1,65.4 433.8,153.5 -17.1,31 -34.4,61 -51.3,88.8 -94.7,-47.8 -197.5,-75.1 -301.8,-80.4 -28,-53 -55.8,-109.3 -80.7,-161.9"
         style="fill:#295a5b;fill-opacity:1;fill-rule:nonzero;stroke:none"
         id="path1510"
         inkscape:connector-curvature="0" />
    </g>
    <g
       id="g1512"
       transform="matrix(0.04219081,0,0,-0.04219081,-547.87932,765.96115)">
      <path
         d="m 15674.9,16232.6 c -30.7,41.3 -57.8,67.4 -77.3,67.4 -29.2,0 -73.9,-58.5 -121.5,-139 69.1,15.9 135.8,39.9 198.8,71.6"
         style="fill:#295a5b;fill-opacity:1;fill-rule:nonzero;stroke:none"
         id="path1514"
         inkscape:connector-curvature="0" />
    </g>
    <g
       id="g1516"
       transform="matrix(0.04266882,0,0,-0.04266882,-547.87932,765.96115)">
      <path
         d="m 15419.4,16146.5 c 0,0 -1.7,77.5 53.3,94.5 0,0 -15.4,59 -80.8,44.4 0,0 -35.5,-86.5 27.5,-138.9"
         style="fill:#ee205d;fill-opacity:1;fill-rule:nonzero;stroke:none"
         id="path1518"
         inkscape:connector-curvature="0" />
    </g>
    <g
       id="g1520"
       transform="matrix(0.04237179,0,0,-0.04237179,-547.87932,765.96115)">
      <path
         d="m 15523.9,16264.6 c 0,0 71.6,-31.3 63.9,-88.7 0,0 60.4,-10.8 74.8,55.1 0,0 -64.1,69 -138.7,33.6"
         style="fill:#ee205d;fill-opacity:1;fill-rule:nonzero;stroke:none"
         id="path1522"
         inkscape:connector-curvature="0" />
    </g>
    <g
       id="g1524"
       transform="matrix(0.04226701,0,0,-0.04226701,-547.87932,765.96115)">
      <path
         d="m 15561.9,16300 c 0,0 -55.8,-54.9 -106.3,-26.4 0,0 -32.6,-52.1 23.4,-90.1 0,0 88,33.8 82.9,116.5"
         style="fill:#ee205d;fill-opacity:1;fill-rule:nonzero;stroke:none"
         id="path1526"
         inkscape:connector-curvature="0" />
    </g>
    <g
       id="g1528"
       transform="matrix(0.04249667,0,0,-0.04249667,-547.87932,765.96115)">
      <path
         d="m 15482.3,16216 c 0,0 60.9,36 99,0 0,0 39.9,38.5 -1,84 0,0 -84.5,-10.6 -98,-84"
         style="fill:#ee205d;fill-opacity:1;fill-rule:nonzero;stroke:none"
         id="path1530"
         inkscape:connector-curvature="0" />
    </g>
    <g
       id="g1532"
       transform="matrix(0.04229029,0,0,-0.04229029,-547.87932,765.96115)">
      <path
         d="m 15560.1,16300 c 0,0 7.3,-70.7 -41.6,-90.2 0,0 18.5,-52.7 77.1,-34.6 0,0 26,81.6 -35.5,124.8"
         style="fill:#ee205d;fill-opacity:1;fill-rule:nonzero;stroke:none"
         id="path1534"
         inkscape:connector-curvature="0" />
    </g>
    <g
       id="g1536"
       transform="matrix(0.04247974,0,0,-0.04247974,-547.87932,765.96115)">
      <path
         d="m 15486.7,16225.6 c 0,0 -68,19.4 -68,71.8 0,0 -55.5,2.6 -60.5,-58.3 0,0 65.7,-54.4 128.5,-13.5"
         style="fill:#ee205d;fill-opacity:1;fill-rule:nonzero;stroke:none"
         id="path1538"
         inkscape:connector-curvature="0" />
    </g>
  </g>
</svg>
