<?xml version="1.0" encoding="UTF-8" standalone="no"?>
<!-- Created with Inkscape (http://www.inkscape.org/) -->

<svg
   xmlns:dc="http://purl.org/dc/elements/1.1/"
   xmlns:cc="http://creativecommons.org/ns#"
   xmlns:rdf="http://www.w3.org/1999/02/22-rdf-syntax-ns#"
   xmlns:svg="http://www.w3.org/2000/svg"
   xmlns="http://www.w3.org/2000/svg"
   xmlns:sodipodi="http://sodipodi.sourceforge.net/DTD/sodipodi-0.dtd"
   xmlns:inkscape="http://www.inkscape.org/namespaces/inkscape"
   width="91.02475mm"
   height="112.05885mm"
   viewBox="0 0 91.02475 112.05885"
   version="1.1"
   id="svg6757"
   inkscape:version="0.92.2 5c3e80d, 2017-08-06"
   sodipodi:docname="monster16.svg">
  <defs
     id="defs6751" />
  <sodipodi:namedview
     id="base"
     pagecolor="#ffffff"
     bordercolor="#666666"
     borderopacity="1.0"
     inkscape:pageopacity="0.0"
     inkscape:pageshadow="2"
     inkscape:zoom="0.35"
     inkscape:cx="186.30099"
     inkscape:cy="146.05049"
     inkscape:document-units="mm"
     inkscape:current-layer="layer1"
     showgrid="false"
     inkscape:window-width="1920"
     inkscape:window-height="1016"
     inkscape:window-x="1920"
     inkscape:window-y="27"
     inkscape:window-maximized="1" />
  <metadata
     id="metadata6754">
    <rdf:RDF>
      <cc:Work
         rdf:about="">
        <dc:format>image/svg+xml</dc:format>
        <dc:type
           rdf:resource="http://purl.org/dc/dcmitype/StillImage" />
        <dc:title></dc:title>
      </cc:Work>
    </rdf:RDF>
  </metadata>
  <g
     inkscape:label="Calque 1"
     inkscape:groupmode="layer"
     id="layer1"
     transform="translate(-56.541196,-75.417006)">
    <g
       id="g404"
       transform="matrix(0.03996902,0,0,-0.03996902,-556.94662,431.31155)">
      <path
         d="m 16228.3,8375.25 c -64.8,130.27 -227.8,372.73 -545.3,378.29 l 55.6,51.81 c 348.2,-6.09 510.5,-296.74 561.4,-412.45 l -71.7,-17.65"
         style="fill:#94d335;fill-opacity:1;fill-rule:nonzero;stroke:none"
         id="path406"
         inkscape:connector-curvature="0" />
    </g>
    <g
       id="g408"
       transform="matrix(0.0388052,0,0,-0.0388052,-556.94662,431.31155)">
      <path
         d="m 16285.5,9088.01 c -14.5,58.82 -74,94.55 -132.8,80.09 -58.7,-14.64 -94.5,-74.09 -80,-132.82 14.6,-58.82 74,-94.54 132.8,-80 58.7,14.46 94.5,74 80,132.73"
         style="fill:#9153af;fill-opacity:1;fill-rule:nonzero;stroke:none"
         id="path410"
         inkscape:connector-curvature="0" />
    </g>
    <g
       id="g412"
       transform="matrix(0.03993303,0,0,-0.03993303,-556.94662,431.31155)">
      <path
         d="m 16300,8432.47 -69.4,-25.26 c -7.5,13.78 -15.9,28.45 -25.1,43.55 l 69.8,28.27 c 9.4,-16.61 17.6,-32.24 24.7,-46.56"
         style="fill:#57c6c1;fill-opacity:1;fill-rule:nonzero;stroke:none"
         id="path414"
         inkscape:connector-curvature="0" />
    </g>
    <g
       id="g416"
       transform="matrix(0.03980991,0,0,-0.03980991,-556.94662,431.31155)">
      <path
         d="m 16300,8547 -68.3,-33.67 c -8.4,12.13 -17.4,24.45 -27,36.77 l 61.6,44.67 c 12.3,-16.22 23.5,-32.17 33.7,-47.77"
         style="fill:#57c6c1;fill-opacity:1;fill-rule:nonzero;stroke:none"
         id="path418"
         inkscape:connector-curvature="0" />
    </g>
    <g
       id="g420"
       transform="matrix(0.03962541,0,0,-0.03962541,-556.94662,431.31155)">
      <path
         d="m 16300,8685.06 -59.6,-48.61 c -11,12.02 -22.8,23.95 -35.1,35.52 l 56.2,52.08 c 13.7,-12.73 26.5,-25.72 38.5,-38.99"
         style="fill:#57c6c1;fill-opacity:1;fill-rule:nonzero;stroke:none"
         id="path422"
         inkscape:connector-curvature="0" />
    </g>
    <g
       id="g424"
       transform="matrix(0.03942221,0,0,-0.03942221,-556.94662,431.31155)">
      <path
         d="m 16300,8807.73 -58.4,-51.19 c -15.7,12.08 -32.3,23.54 -49.8,34.36 l 24.6,70.88 c 30.2,-16.02 58.1,-34.37 83.6,-54.05"
         style="fill:#57c6c1;fill-opacity:1;fill-rule:nonzero;stroke:none"
         id="path426"
         inkscape:connector-curvature="0" />
    </g>
    <g
       id="g428"
       transform="matrix(0.03907367,0,0,-0.03907367,-556.94662,431.31155)">
      <path
         d="m 16300,8968.89 -19.5,-69.07 c -19.4,9.21 -39.8,17.34 -61.1,24.56 l 13.6,65.64 c 23.4,-5.87 45.7,-12.91 67,-21.13"
         style="fill:#57c6c1;fill-opacity:1;fill-rule:nonzero;stroke:none"
         id="path430"
         inkscape:connector-curvature="0" />
    </g>
    <g
       id="g432"
       transform="matrix(0.04240318,0,0,-0.04240318,-556.94662,431.31155)">
      <path
         d="m 15786,7894.5 c 61.2,122.8 214.7,351.34 514,356.58 l -52.4,48.84 c -328.1,-5.74 -481.1,-279.71 -529.1,-388.78 l 67.5,-16.64"
         style="fill:#94d335;fill-opacity:1;fill-rule:nonzero;stroke:none"
         id="path434"
         inkscape:connector-curvature="0" />
    </g>
    <g
       id="g436"
       transform="matrix(0.04262967,0,0,-0.04262967,-556.94662,431.31155)">
      <path
         d="m 16093.1,8272.64 c 13.3,53.54 67.4,86.06 120.8,72.91 53.5,-13.33 86.1,-67.45 72.9,-120.91 -13.2,-53.54 -67.3,-86.06 -120.8,-72.82 -53.5,13.16 -86.1,67.36 -72.9,120.82"
         style="fill:#9153af;fill-opacity:1;fill-rule:nonzero;stroke:none"
         id="path438"
         inkscape:connector-curvature="0" />
    </g>
    <g
       id="g440"
       transform="matrix(0.04115823,0,0,-0.04115823,-556.94662,431.31155)">
      <path
         d="m 16208.2,8181.46 67.4,-24.52 c 7.2,13.37 15.3,27.6 24.4,42.26 l -67.7,27.43 c -9.4,-16.12 -17.2,-31.29 -24.1,-45.17"
         style="fill:#57c6c1;fill-opacity:1;fill-rule:nonzero;stroke:none"
         id="path442"
         inkscape:connector-curvature="0" />
    </g>
    <g
       id="g444"
       transform="matrix(0.04128241,0,0,-0.04128241,-556.94662,431.31155)">
      <path
         d="m 16208.1,8242.12 65.9,-32.47 c 8.1,11.71 16.7,23.59 26,35.46 l -59.5,43.07 c -11.8,-15.64 -22.6,-31.02 -32.4,-46.06"
         style="fill:#57c6c1;fill-opacity:1;fill-rule:nonzero;stroke:none"
         id="path446"
         inkscape:connector-curvature="0" />
    </g>
    <g
       id="g448"
       transform="matrix(0.04146409,0,0,-0.04146409,-556.94662,431.31155)">
      <path
         d="m 16209.5,8299.91 56.9,-46.45 c 10.6,11.48 21.8,22.88 33.6,33.94 l -53.8,49.77 c -12.9,-12.16 -25.2,-24.58 -36.7,-37.26"
         style="fill:#57c6c1;fill-opacity:1;fill-rule:nonzero;stroke:none"
         id="path450"
         inkscape:connector-curvature="0" />
    </g>
    <g
       id="g452"
       transform="matrix(0.04169869,0,0,-0.04169869,-556.94662,431.31155)">
      <path
         d="m 16197.7,8326.94 55.3,-48.39 c 14.8,11.42 30.5,22.25 47,32.49 l -23.3,67 c -28.5,-15.14 -54.9,-32.48 -79,-51.1"
         style="fill:#57c6c1;fill-opacity:1;fill-rule:nonzero;stroke:none"
         id="path454"
         inkscape:connector-curvature="0" />
    </g>
    <g
       id="g456"
       transform="matrix(0.04197914,0,0,-0.04197914,-556.94662,431.31155)">
      <path
         d="m 16225,8348.12 18.1,-64.29 c 18.1,8.57 37.1,16.13 56.9,22.86 l -12.7,61.09 c -21.8,-5.46 -42.5,-12.02 -62.3,-19.66"
         style="fill:#57c6c1;fill-opacity:1;fill-rule:nonzero;stroke:none"
         id="path458"
         inkscape:connector-curvature="0" />
    </g>
    <g
       id="g460"
       transform="matrix(0.04322163,0,0,-0.04322163,-556.94662,431.31155)">
      <path
         d="m 16300,7172.96 c -102.6,70.12 -345.4,-21.63 -307.7,-265.26 27.3,-176.3 -42.1,-191.97 -82.6,-187.16 l -48.5,576.73 c 0,722.34 -1168.6,737.93 -1168.6,0 l -41,-578.44 c -48.4,-4.82 -135.9,9.71 -103.9,188.87 43.4,243.63 -235.7,335.38 -353.7,265.26 0,0 186.2,-21.63 173.8,-151.08 -12.2,-126.67 -146.4,-599.74 261.3,-621.21 l -44.4,-624.72 c 0,0 -43,-134.43 227.4,-134.43 208.9,0 195.4,480.74 195.4,480.74 l 599.7,-8.56 c 0,0 -15.9,-472.18 183.3,-472.18 229,0 198.8,134.1 198.8,134.1 l -53.2,631.42 c 353.5,21.63 223.3,488.25 212.7,614.84 -10.7,129.45 151.2,151.08 151.2,151.08"
         style="fill:#94d335;fill-opacity:1;fill-rule:nonzero;stroke:none"
         id="path462"
         inkscape:connector-curvature="0" />
    </g>
    <g
       id="g464"
       transform="matrix(0.04048725,0,0,-0.04048725,-556.94662,431.31155)">
      <path
         d="m 16300,7819.99 c 0,-43.92 -35.6,-79.65 -79.6,-79.65 -44,0 -79.6,35.73 -79.6,79.65 0,43.91 35.6,79.55 79.6,79.55 44,0 79.6,-35.64 79.6,-79.55"
         style="fill:#6ec732;fill-opacity:1;fill-rule:nonzero;stroke:none"
         id="path466"
         inkscape:connector-curvature="0" />
    </g>
    <g
       id="g468"
       transform="matrix(0.04135649,0,0,-0.04135649,-556.94662,431.31155)">
      <path
         d="m 16300,6638.88 c 0,-42.99 -34.9,-77.88 -77.9,-77.88 -43.1,0 -77.9,34.89 -77.9,77.88 0,43.07 34.8,77.88 77.9,77.88 43,0 77.9,-34.81 77.9,-77.88"
         style="fill:#6ec732;fill-opacity:1;fill-rule:nonzero;stroke:none"
         id="path470"
         inkscape:connector-curvature="0" />
    </g>
    <g
       id="g472"
       transform="matrix(0.0395104,0,0,-0.0395104,-556.94662,431.31155)">
      <path
         d="m 16300,7963.39 c 0,-45 -36.5,-81.52 -81.5,-81.52 -45.1,0 -81.6,36.52 -81.6,81.52 0,45.09 36.5,81.61 81.6,81.61 45,0 81.5,-36.52 81.5,-81.61"
         style="fill:#6ec732;fill-opacity:1;fill-rule:nonzero;stroke:none"
         id="path474"
         inkscape:connector-curvature="0" />
    </g>
    <g
       id="g476"
       transform="matrix(0.03992104,0,0,-0.03992104,-556.94662,431.31155)">
      <path
         d="m 16300,7317.03 c 0,-68.66 -55.7,-124.24 -124.2,-124.24 -68.6,0 -124.2,55.58 -124.2,124.24 0,68.67 55.6,124.25 124.2,124.25 68.5,0 124.2,-55.58 124.2,-124.25"
         style="fill:#6ec732;fill-opacity:1;fill-rule:nonzero;stroke:none"
         id="path478"
         inkscape:connector-curvature="0" />
    </g>
    <g
       id="g480"
       transform="matrix(0.04134485,0,0,-0.04134485,-556.94662,431.31155)">
      <path
         d="m 16300,7321.36 c 0,-66.3 -53.7,-119.97 -119.9,-119.97 -66.2,0 -119.9,53.67 -119.9,119.97 0,66.21 53.7,119.88 119.9,119.88 66.2,0 119.9,-53.67 119.9,-119.88"
         style="fill:#6ec732;fill-opacity:1;fill-rule:nonzero;stroke:none"
         id="path482"
         inkscape:connector-curvature="0" />
    </g>
    <g
       id="g484"
       transform="matrix(0.0414842,0,0,-0.0414842,-556.94662,431.31155)">
      <path
         d="m 16300,7973.76 c 0,-65.99 -53.5,-119.48 -119.6,-119.48 -66,0 -119.4,53.49 -119.4,119.48 0,66.07 53.4,119.56 119.4,119.56 66.1,0 119.6,-53.49 119.6,-119.56"
         style="fill:#6ec732;fill-opacity:1;fill-rule:nonzero;stroke:none"
         id="path486"
         inkscape:connector-curvature="0" />
    </g>
    <g
       id="g488"
       transform="matrix(0.04071796,0,0,-0.04071796,-556.94662,431.31155)">
      <path
         d="m 16300,6648.37 c 0,-67.24 -54.5,-121.91 -121.7,-121.91 -67.3,0 -121.8,54.67 -121.8,121.91 0,67.23 54.5,121.72 121.8,121.72 67.2,0 121.7,-54.49 121.7,-121.72"
         style="fill:#6ec732;fill-opacity:1;fill-rule:nonzero;stroke:none"
         id="path490"
         inkscape:connector-curvature="0" />
    </g>
    <g
       id="g492"
       transform="matrix(0.04059379,0,0,-0.04059379,-556.94662,431.31155)">
      <path
         d="m 16300,8192.67 c 0,-67.35 -54.7,-122.01 -122.1,-122.01 -67.4,0 -122.1,54.66 -122.1,122.01 0,67.53 54.7,122.19 122.1,122.19 67.4,0 122.1,-54.66 122.1,-122.19"
         style="fill:#6ec732;fill-opacity:1;fill-rule:nonzero;stroke:none"
         id="path494"
         inkscape:connector-curvature="0" />
    </g>
    <g
       id="g496"
       transform="matrix(0.04289848,0,0,-0.04289848,-556.94662,431.31155)">
      <path
         d="m 16186.7,6809.19 c -63.8,0 -115.6,-51.81 -115.6,-115.62 0,-63.82 51.8,-115.55 115.6,-115.55 41.4,0 77.7,21.96 98.1,54.69 7.7,26.56 12.6,54.77 15.2,83.72 -10.6,52.96 -57.2,92.76 -113.3,92.76"
         style="fill:#6ec732;fill-opacity:1;fill-rule:nonzero;stroke:none"
         id="path498"
         inkscape:connector-curvature="0" />
    </g>
    <g
       id="g500"
       transform="matrix(0.04232204,0,0,-0.04232204,-556.94662,431.31155)">
      <path
         d="m 16287.2,6396.2 c -40.7,-1.5 -73.4,-34.84 -73.4,-76.02 0,-42.01 34.1,-76.19 76.2,-76.19 3.4,0 6.8,0.42 10,0.84 l -12.8,151.37"
         style="fill:#6ec732;fill-opacity:1;fill-rule:nonzero;stroke:none"
         id="path502"
         inkscape:connector-curvature="0" />
    </g>
    <g
       id="g504"
       transform="matrix(0.04190365,0,0,-0.04190365,-556.94662,431.31155)">
      <path
         d="m 16300,6179.46 c 0,65.33 -53,118.29 -118.4,118.29 -32.6,0 -62.2,-13.22 -83.7,-34.61 0.6,-41.92 3.4,-109.27 14.2,-179.23 19.5,-14.23 43.5,-22.73 69.5,-22.73 65.4,0 118.4,52.95 118.4,118.28"
         style="fill:#6ec732;fill-opacity:1;fill-rule:nonzero;stroke:none"
         id="path506"
         inkscape:connector-curvature="0" />
    </g>
    <g
       id="g508"
       transform="matrix(0.03977287,0,0,-0.03977287,-556.94662,431.31155)">
      <path
         d="m 16300,6681.52 c 0,-68.74 -55.9,-124.53 -124.7,-124.53 -68.8,0 -124.6,55.79 -124.6,124.53 0,68.92 55.8,124.8 124.6,124.8 68.8,0 124.7,-55.88 124.7,-124.8"
         style="fill:#6ec732;fill-opacity:1;fill-rule:nonzero;stroke:none"
         id="path510"
         inkscape:connector-curvature="0" />
    </g>
    <g
       id="g512"
       transform="matrix(0.03884895,0,0,-0.03884895,-556.94662,431.31155)">
      <path
         d="m 16300,6507.65 c 0,45.59 -24.1,85.54 -60.1,108.15 l -13.5,-189.69 c 0,0 -4.7,-14.71 -1.9,-34.97 44.5,19.98 75.5,64.57 75.5,116.51"
         style="fill:#6ec732;fill-opacity:1;fill-rule:nonzero;stroke:none"
         id="path514"
         inkscape:connector-curvature="0" />
    </g>
    <g
       id="g516"
       transform="matrix(0.03831519,0,0,-0.03831519,-556.94662,431.31155)">
      <path
         d="m 16173.4,7636.28 c -2.7,-86.36 6.2,-176.13 42.7,-250.34 49,18.41 83.9,65.65 83.9,121.07 0,70.53 -56.4,127.8 -126.6,129.27"
         style="fill:#6ec732;fill-opacity:1;fill-rule:nonzero;stroke:none"
         id="path518"
         inkscape:connector-curvature="0" />
    </g>
    <g
       id="g520"
       transform="matrix(0.0391675,0,0,-0.0391675,-556.94662,431.31155)">
      <path
         d="m 16217.7,7634.85 c -12.4,0 -24,-2.88 -34.4,-7.65 l -10.2,-143.75 c 12.8,-8.29 28.1,-13.24 44.6,-13.24 45.5,0 82.3,36.93 82.3,82.32 0,45.48 -36.8,82.32 -82.3,82.32"
         style="fill:#6ec732;fill-opacity:1;fill-rule:nonzero;stroke:none"
         id="path522"
         inkscape:connector-curvature="0" />
    </g>
    <g
       id="g524"
       transform="matrix(0.04206522,0,0,-0.04206522,-556.94662,431.31155)">
      <path
         d="m 16300,7464.49 -2.8,33.38 c 0,33.88 -2.6,66.17 -7.3,97.03 -10.4,5.29 -22.1,8.31 -34.6,8.31 -42.3,0 -76.7,-34.3 -76.7,-76.57 0,-42.27 34.4,-76.65 76.7,-76.65 16.7,0 32.1,5.45 44.7,14.5"
         style="fill:#6ec732;fill-opacity:1;fill-rule:nonzero;stroke:none"
         id="path526"
         inkscape:connector-curvature="0" />
    </g>
    <g
       id="g528"
       transform="matrix(0.04199184,0,0,-0.04199184,-556.94662,431.31155)">
      <path
         d="m 16253.4,7506.22 c -46.6,-123.74 -184.7,-186.33 -308.3,-139.71 -123.8,46.55 -186.4,184.57 -139.8,308.41 46.6,123.75 184.6,186.17 308.4,139.62 123.6,-46.54 186.3,-184.57 139.7,-308.32"
         style="fill:#ffffff;fill-opacity:1;fill-rule:nonzero;stroke:none"
         id="path530"
         inkscape:connector-curvature="0" />
    </g>
    <g
       id="g532"
       transform="matrix(0.04181157,0,0,-0.04181157,-556.94662,431.31155)">
      <path
         d="m 16265.4,7560.44 c -34.8,-92.3 -137.6,-138.79 -229.7,-104.03 -92.3,34.68 -138.8,137.44 -104.2,229.66 34.7,92.14 137.6,138.8 229.8,104.04 92.1,-34.6 138.7,-137.45 104.1,-229.67"
         style="fill:#54c8f4;fill-opacity:1;fill-rule:nonzero;stroke:none"
         id="path534"
         inkscape:connector-curvature="0" />
    </g>
    <g
       id="g536"
       transform="matrix(0.04171421,0,0,-0.04171421,-556.94662,431.31155)">
      <path
         d="m 16271.8,7590.02 c -28.2,-75.02 -111.9,-112.9 -186.9,-84.74 -75,28.24 -112.9,111.88 -84.6,186.81 28.2,75.02 111.9,112.9 186.8,84.74 75,-28.24 112.9,-111.89 84.7,-186.81"
         style="fill:#5a3114;fill-opacity:1;fill-rule:nonzero;stroke:none"
         id="path538"
         inkscape:connector-curvature="0" />
    </g>
    <g
       id="g540"
       transform="matrix(0.04091799,0,0,-0.04091799,-556.94662,431.31155)">
      <path
         d="m 16291.9,7735.73 c -8.1,-21.46 -32.1,-32.41 -53.6,-24.31 -21.5,8.1 -32.3,32.07 -24.2,53.54 8,21.47 32,32.33 53.5,24.23 21.5,-8.11 32.4,-31.99 24.3,-53.46"
         style="fill:#ffffff;fill-opacity:1;fill-rule:nonzero;stroke:none"
         id="path542"
         inkscape:connector-curvature="0" />
    </g>
    <g
       id="g544"
       transform="matrix(0.04172303,0,0,-0.04172303,-556.94662,431.31155)">
      <path
         d="m 16292.1,7707.54 c -8,-20.97 -31.5,-31.71 -52.6,-23.85 -21,8.04 -31.7,31.54 -23.8,52.68 7.9,21.05 31.5,31.62 52.5,23.76 21.1,-8.03 31.8,-31.54 23.9,-52.59"
         style="fill:#ffffff;fill-opacity:1;fill-rule:nonzero;stroke:none"
         id="path546"
         inkscape:connector-curvature="0" />
    </g>
    <g
       id="g548"
       transform="matrix(0.04049183,0,0,-0.04049183,-556.94662,431.31155)">
      <path
         d="m 16268,7929.58 c 32,-133.3 -50.2,-267.21 -183.5,-299.36 -133.3,-31.97 -267.3,50.27 -299.3,183.57 -32,133.3 50.2,267.29 183.5,299.18 133.3,32.06 267.3,-50.09 299.3,-183.39"
         style="fill:#ffffff;fill-opacity:1;fill-rule:nonzero;stroke:none"
         id="path550"
         inkscape:connector-curvature="0" />
    </g>
    <g
       id="g552"
       transform="matrix(0.0403165,0,0,-0.0403165,-556.94662,431.31155)">
      <path
         d="m 16276.2,7949.05 c 23.8,-99.32 -37.3,-199.15 -136.7,-222.95 -99.3,-23.8 -199.1,37.36 -223,136.67 -23.8,99.32 37.3,199.16 136.7,223.05 99.4,23.88 199.2,-37.37 223,-136.77"
         style="fill:#54c8f4;fill-opacity:1;fill-rule:nonzero;stroke:none"
         id="path554"
         inkscape:connector-curvature="0" />
    </g>
    <g
       id="g556"
       transform="matrix(0.0402216,0,0,-0.0402216,-556.94662,431.31155)">
      <path
         d="m 16280.6,7959.72 c 19.4,-80.87 -30.4,-162.09 -111.2,-181.39 -80.8,-19.47 -162,30.35 -181.4,111.13 -19.4,80.78 30.4,162 111.2,181.47 80.8,19.39 162,-30.43 181.4,-111.21"
         style="fill:#5a3114;fill-opacity:1;fill-rule:nonzero;stroke:none"
         id="path558"
         inkscape:connector-curvature="0" />
    </g>
    <g
       id="g560"
       transform="matrix(0.03957355,0,0,-0.03957355,-556.94662,431.31155)">
      <path
         d="m 16294.5,7916.4 c 5.5,-23.09 -8.7,-46.45 -31.9,-51.89 -23,-5.52 -46.2,8.74 -51.7,31.83 -5.6,23 8.6,46.17 31.7,51.7 23.2,5.53 46.3,-8.65 51.9,-31.64"
         style="fill:#ffffff;fill-opacity:1;fill-rule:nonzero;stroke:none"
         id="path562"
         inkscape:connector-curvature="0" />
    </g>
    <g
       id="g564"
       transform="matrix(0.04006638,0,0,-0.04006638,-556.94662,431.31155)">
      <path
         d="m 16294.5,8107.17 c 5.5,-22.81 -8.6,-45.61 -31.4,-51.07 -22.7,-5.46 -45.7,8.45 -51.1,31.25 -5.5,22.72 8.6,45.7 31.4,51.16 22.7,5.46 45.7,-8.54 51.1,-31.34"
         style="fill:#ffffff;fill-opacity:1;fill-rule:nonzero;stroke:none"
         id="path566"
         inkscape:connector-curvature="0" />
    </g>
    <g
       id="g568"
       transform="matrix(0.04154099,0,0,-0.04154099,-556.94662,431.31155)">
      <path
         d="m 15910.6,7119.42 h -2.7 c -152.2,0.51 -249.6,49.34 -304.6,90.27 -60.4,44.93 -83.9,89.51 -84.8,91.38 l 13.2,6.88 c 0.3,-0.43 23.3,-43.91 81.2,-86.88 53.3,-39.49 148,-86.45 296.4,-86.71 284.6,0.52 376.6,171.8 377.5,173.59 l 13.2,-6.88 c -0.9,-1.87 -24.5,-46.45 -84.8,-91.38 -55,-40.93 -152.5,-89.76 -304.6,-90.27 v 0"
         style="fill:#213b0b;fill-opacity:1;fill-rule:nonzero;stroke:none"
         id="path570"
         inkscape:connector-curvature="0" />
    </g>
    <g
       id="g572"
       transform="matrix(0.0416186,0,0,-0.0416186,-556.94662,431.31155)">
      <path
         d="m 16169,7308.41 c 14.1,5.77 29.5,8.14 45,8.14 15.5,-0.17 31.4,-3.13 45.9,-10.76 14.4,-7.38 26.6,-20.18 32.7,-35.1 6.3,-15 7.4,-30.94 4.7,-45.94 -3.5,14.84 -7.7,28.91 -15.1,40.6 -7.1,11.87 -17.3,20.94 -29.2,27.3 -12.1,6.27 -25.8,10 -40.1,12.29 -14.1,2.29 -28.8,3.05 -43.9,3.47"
         style="fill:#213b0b;fill-opacity:1;fill-rule:nonzero;stroke:none"
         id="path574"
         inkscape:connector-curvature="0" />
    </g>
    <g
       id="g576"
       transform="matrix(0.03980744,0,0,-0.03980744,-556.94662,431.31155)">
      <path
         d="m 16300,7640.87 c -15.9,-0.44 -31.3,-1.23 -46.1,-3.63 -14.8,-2.39 -29.1,-6.29 -41.7,-12.85 -12.6,-6.65 -23.2,-16.13 -30.7,-28.54 -7.6,-12.22 -12,-26.93 -15.7,-42.44 -2.9,15.68 -1.7,32.34 4.8,48.03 6.5,15.6 19.2,28.98 34.3,36.69 15.2,7.98 31.8,11.08 48,11.25 16.3,0 32.3,-2.48 47.1,-8.51"
         style="fill:#213b0b;fill-opacity:1;fill-rule:nonzero;stroke:none"
         id="path578"
         inkscape:connector-curvature="0" />
    </g>
    <g
       id="g580"
       transform="matrix(0.0407737,0,0,-0.0407737,-556.94662,431.31155)">
      <path
         d="m 16117.7,7038.3 c 15.1,-7.27 30.2,-13.59 45.6,-18.17 15.3,-4.68 31,-7.88 46.5,-8.4 15.6,-0.69 31.2,1.13 46.3,5.71 15.1,4.59 29.5,12.03 43.9,20.86 -10.1,-13.59 -23.9,-24.49 -39.7,-31.93 -15.8,-7.36 -33.6,-10.64 -51.1,-9.86 -17.5,0.78 -34.6,5.36 -50.1,12.45 -15.5,7.36 -30,16.88 -41.4,29.34"
         style="fill:#213b0b;fill-opacity:1;fill-rule:nonzero;stroke:none"
         id="path582"
         inkscape:connector-curvature="0" />
    </g>
    <g
       id="g584"
       transform="matrix(0.04134626,0,0,-0.04134626,-556.94662,431.31155)">
      <path
         d="m 16100.9,6999.55 h -233 c -144.2,0 -196.9,240.18 -199,250.34 l 14.6,3.24 c 0.5,-2.47 52.3,-238.65 184.4,-238.65 h 233 c 132.2,0 184,236.18 184.4,238.65 l 14.7,-3.24 c -2.2,-10.16 -54.9,-250.34 -199.1,-250.34"
         style="fill:#213b0b;fill-opacity:1;fill-rule:nonzero;stroke:none"
         id="path586"
         inkscape:connector-curvature="0" />
    </g>
    <g
       id="g588"
       transform="matrix(0.04129828,0,0,-0.04129828,-556.94662,431.31155)">
      <path
         d="m 16119.6,7022.55 h -233.2 c -111,0 -165.5,166.58 -180.3,221.5 56.9,-39.38 151.9,-82.34 295.3,-82.94 h 2.7 v 0 c 143.8,0.6 239,43.99 295.9,83.37 -14.8,-54.59 -69.1,-221.93 -180.4,-221.93"
         style="fill:#84111c;fill-opacity:1;fill-rule:nonzero;stroke:none"
         id="path590"
         inkscape:connector-curvature="0" />
    </g>
    <g
       id="g592"
       transform="matrix(0.04130604,0,0,-0.04130604,-556.94662,431.31155)">
      <path
         d="m 15706.2,7238.21 c 15.9,-56.62 70.2,-215.14 177.1,-215.14 h 233.2 c 107,0 161.2,158.94 177.2,215.57 -55.3,-37.15 -150,-80.2 -292.7,-80.71 h -2.7 c -142.4,0.51 -237,43.3 -292.1,80.28 z m 410.3,-218.72 h -233.2 c -112.8,0 -167.9,170.38 -182.1,222.73 l -1.3,4.87 4.1,-2.99 c 54.2,-37.32 149.2,-81.9 294.3,-82.5 h 2.7 c 145.4,0.6 240.6,45.44 294.8,83.02 l 4.2,2.9 -1.4,-4.96 c -14.1,-52.35 -69.1,-223.07 -182.1,-223.07"
         style="fill:#213b0b;fill-opacity:1;fill-rule:nonzero;stroke:none"
         id="path594"
         inkscape:connector-curvature="0" />
    </g>
    <g
       id="g596"
       transform="matrix(0.04129828,0,0,-0.04129828,-556.94662,431.31155)">
      <path
         d="m 16004.1,7161.11 v 0 h -2.7 c -143.4,0.6 -238.4,43.56 -295.3,82.94 0.4,-1.7 0.9,-3.58 1.5,-5.55 38.7,-53.47 126.2,-139.07 292,-141.29 v 0 c 1.2,0 2.3,0 3.4,0 1.1,0 2.2,0 3.3,0 v 0 c 165.8,2.22 253.4,87.82 292.1,141.29 0.6,2.14 1.1,4.1 1.6,5.98 -56.9,-39.38 -152.1,-82.77 -295.9,-83.37"
         style="fill:#ffffff;fill-opacity:1;fill-rule:nonzero;stroke:none"
         id="path598"
         inkscape:connector-curvature="0" />
    </g>
    <g
       id="g600"
       transform="matrix(0.04101042,0,0,-0.04101042,-556.94662,431.31155)">
      <path
         d="m 16300,7094.35 c -46.1,24.77 -105.6,43.09 -181.4,44.21 v 0.09 c -1.2,0 -2.3,-0.09 -3.5,-0.09 -1.1,0 -2.2,0.09 -3.4,0.09 v -0.09 c -75.7,-1.12 -135.1,-19.35 -181.2,-44.13 19.7,-13.93 42,-22.62 67.4,-22.62 h 116.1 v 2.32 l 0.4,-2.32 h 118.4 c 25.2,0 47.6,8.6 67.2,22.54"
         style="fill:#ffffff;fill-opacity:1;fill-rule:nonzero;stroke:none"
         id="path602"
         inkscape:connector-curvature="0" />
    </g>
    <g
       id="g604"
       transform="matrix(0.04169692,0,0,-0.04169692,-556.94662,431.31155)">
      <path
         d="m 16289.9,7253.9 c 0.7,10.66 1.5,20.98 0.8,30.97 -0.6,9.72 -3.1,19.54 -9,23.94 -2.9,2.29 -7.1,3.47 -11.7,3.97 -4.7,0.51 -9.8,0.43 -14.8,0.18 -10.2,-0.51 -20.8,-1.78 -31.4,-1.36 9.9,3.98 19.7,7.53 30.3,9.9 5.2,1.19 10.8,1.86 16.5,1.78 5.8,-0.34 12.2,-1.44 17.8,-5.5 5.5,-4.23 8.6,-10.24 10.1,-15.99 1.4,-5.84 1.5,-11.51 1.1,-17.09 -1.1,-10.92 -4.4,-21.41 -9.7,-30.8"
         style="fill:#213b0b;fill-opacity:1;fill-rule:nonzero;stroke:none"
         id="path606"
         inkscape:connector-curvature="0" />
    </g>
    <g
       id="g608"
       transform="matrix(0.03958978,0,0,-0.03958978,-556.94662,431.31155)">
      <path
         d="m 16230.3,7639.99 c -5.6,9.89 -9,20.94 -10.1,32.43 -0.6,5.88 -0.5,11.85 1.1,18 1.6,6.06 4.7,12.39 10.6,16.84 5.9,4.28 12.7,5.44 18.7,5.8 6.1,0.08 11.9,-0.63 17.5,-1.88 11.1,-2.49 21.5,-6.23 31.9,-10.42 -11.3,-0.45 -22.4,0.89 -33.1,1.43 -5.4,0.26 -10.7,0.35 -15.6,-0.19 -4.9,-0.53 -9.3,-1.77 -12.3,-4.18 -6.4,-4.64 -9,-14.97 -9.6,-25.22 -0.6,-10.51 0.1,-21.38 0.9,-32.61"
         style="fill:#213b0b;fill-opacity:1;fill-rule:nonzero;stroke:none"
         id="path610"
         inkscape:connector-curvature="0" />
    </g>
  </g>
</svg>
