<?xml version="1.0" encoding="UTF-8" standalone="no"?>
<!-- Created with Inkscape (http://www.inkscape.org/) -->

<svg
   xmlns:dc="http://purl.org/dc/elements/1.1/"
   xmlns:cc="http://creativecommons.org/ns#"
   xmlns:rdf="http://www.w3.org/1999/02/22-rdf-syntax-ns#"
   xmlns:svg="http://www.w3.org/2000/svg"
   xmlns="http://www.w3.org/2000/svg"
   xmlns:sodipodi="http://sodipodi.sourceforge.net/DTD/sodipodi-0.dtd"
   xmlns:inkscape="http://www.inkscape.org/namespaces/inkscape"
   width="91.512199mm"
   height="115.99099mm"
   viewBox="0 0 91.512199 115.99099"
   version="1.1"
   id="svg5655"
   inkscape:version="0.92.2 5c3e80d, 2017-08-06"
   sodipodi:docname="monster12.svg">
  <defs
     id="defs5649" />
  <sodipodi:namedview
     id="base"
     pagecolor="#ffffff"
     bordercolor="#666666"
     borderopacity="1.0"
     inkscape:pageopacity="0.0"
     inkscape:pageshadow="2"
     inkscape:zoom="0.35"
     inkscape:cx="150.07984"
     inkscape:cy="170.62415"
     inkscape:document-units="mm"
     inkscape:current-layer="layer1"
     showgrid="false"
     inkscape:window-width="1920"
     inkscape:window-height="1016"
     inkscape:window-x="1920"
     inkscape:window-y="27"
     inkscape:window-maximized="1" />
  <metadata
     id="metadata5652">
    <rdf:RDF>
      <cc:Work
         rdf:about="">
        <dc:format>image/svg+xml</dc:format>
        <dc:type
           rdf:resource="http://purl.org/dc/dcmitype/StillImage" />
        <dc:title></dc:title>
      </cc:Work>
    </rdf:RDF>
  </metadata>
  <g
     inkscape:label="Calque 1"
     inkscape:groupmode="layer"
     id="layer1"
     transform="translate(-66.124708,-77.986648)">
    <path
       d="m 144.72042,90.81131 c 2.38231,0.511528 2.82857,3.323167 2.89701,4.776611 l 0.003,0.867833 v 0 l 0.0748,21.141976 c 0,0 0.81315,11.16894 -9.78217,14.4533 v 5.97959 c 6.20712,-1.15712 14.59477,-5.57389 14.59477,-21.0185 V 95.729032 c 0.0593,-0.433917 0.0229,-1.016 0,-1.661583 v -0.356306 h -0.0102 c -0.0243,-1.248833 0.073,-2.656416 1.03469,-3.640666 1.56387,-1.601611 4.69548,-2.183695 4.00721,-3.718278 -0.68862,-1.531055 -3.69888,0.779639 -4.13526,0.03175 -0.43674,-0.754944 5.29025,-4.572 3.30482,-5.831416 -1.98579,-1.248834 -2.81587,2.885722 -4.705,2.910416 -1.89053,0.01764 1.143,-4.455583 -1.78505,-5.383389 -2.92663,-0.924277 -1.17544,5.355167 -2.23342,5.217584 -1.05939,-0.134056 -2.4063,-4.109861 -3.9049,-4.303889 -1.50036,-0.197556 -1.28482,2.180166 -0.39864,2.924528 0.88689,0.751416 2.29024,3.640666 1.45662,5.157611 -0.83643,1.516944 -4.66654,-0.702028 -5.32482,0.836083 -0.65653,1.541639 0.69602,2.003777 4.90607,2.899833"
       style="fill:#dc2c23;fill-opacity:1;fill-rule:nonzero;stroke:none;stroke-width:0.03527778"
       id="path612"
       inkscape:connector-curvature="0" />
    <path
       d="m 79.042024,90.81131 c -2.38337,0.511528 -2.82858,3.323167 -2.89631,4.776611 l -0.004,0.867833 v 0 l -0.0748,21.141976 c 0,0 -0.81386,11.16894 9.78218,14.4533 v 5.97959 c -6.20716,-1.15712 -14.59481,-5.57389 -14.59481,-21.0185 V 95.729032 c -0.0586,-0.433917 -0.0222,-1.016 0,-1.661583 v -0.356306 h 0.0102 c 0.025,-1.248833 -0.072,-2.656416 -1.03363,-3.640666 -1.56422,-1.601611 -4.69653,-2.183695 -4.00897,-3.718278 0.69074,-1.531055 3.69958,0.779639 4.13702,0.03175 0.43463,-0.754944 -5.29202,-4.572 -3.30623,-5.831416 1.98614,-1.248834 2.81728,2.885722 4.70606,2.910416 1.88983,0.01764 -1.14371,-4.455583 1.78505,-5.383389 2.927,-0.924277 1.17546,5.355167 2.23273,5.217584 1.0601,-0.134056 2.407,-4.109861 3.9056,-4.303889 1.50072,-0.197556 1.28482,2.180166 0.39723,2.924528 -0.88512,0.751416 -2.28882,3.640666 -1.45521,5.157611 0.83468,1.516944 4.66584,-0.702028 5.32377,0.836083 0.65758,1.541639 -0.69603,2.003777 -4.90572,2.899833"
       style="fill:#dc2c23;fill-opacity:1;fill-rule:nonzero;stroke:none;stroke-width:0.03527778"
       id="path614"
       inkscape:connector-curvature="0" />
    <path
       d="m 140.7993,144.34181 -0.1958,-2.33539 -2.23449,-26.54653 c 0,-33.25283 -53.787676,-33.968969 -53.787676,0 l -1.88736,26.62414 -1.03717,14.63675 -0.43709,6.16656 c -0.87171,9.02052 -1.71979,23.622 -1.70779,23.79133 0.091,5.36222 0.93768,7.29897 8.9789,7.29897 8.92457,0 9.04557,-7.22489 9.04557,-7.22489 l 1.54023,-17.21202 27.603096,0.39158 c 0,0 -0.031,0.92075 0,2.36714 v 14.4533 c 0,0 0.11747,7.22489 8.84978,7.22489 7.96043,0 8.71502,-1.99319 8.78558,-7.493 0.0102,-0.1658 -3.51155,-42.1005 -3.51578,-42.14283"
       style="fill:#f14624;fill-opacity:1;fill-rule:nonzero;stroke:none;stroke-width:0.03527778"
       id="path616"
       inkscape:connector-curvature="0" />
    <path
       d="m 111.33882,101.87089 c -0.33408,0 -0.60501,-0.26811 -0.60501,-0.60325 l -0.002,-6.064247 c 0,-0.335139 0.27093,-0.606777 0.60537,-0.606777 0.33408,0 0.60571,0.271638 0.60571,0.606777 l 8e-4,6.064247 c 0,0.33514 -0.27129,0.60325 -0.60502,0.60325"
       style="fill:#4f1308;fill-opacity:1;fill-rule:nonzero;stroke:none;stroke-width:0.03527778"
       id="path618"
       inkscape:connector-curvature="0" />
    <path
       d="m 117.66483,103.74414 c -0.0875,0 -0.1778,-0.0212 -0.26281,-0.06 -0.30092,-0.14816 -0.42651,-0.508 -0.28117,-0.81139 l 2.64337,-5.453942 c 0.1464,-0.303389 0.50976,-0.426861 0.80856,-0.282223 0.30022,0.144639 0.42722,0.508 0.28117,0.807862 l -2.64443,5.457473 c -0.10371,0.21519 -0.32032,0.34219 -0.54469,0.34219"
       style="fill:#4f1308;fill-opacity:1;fill-rule:nonzero;stroke:none;stroke-width:0.03527778"
       id="path620"
       inkscape:connector-curvature="0" />
    <path
       d="m 122.96038,107.88575 c -0.16157,0 -0.3242,-0.067 -0.44344,-0.1905 -0.22683,-0.24694 -0.21413,-0.62794 0.03,-0.85725 l 4.43018,-4.14161 c 0.24307,-0.2293 0.62724,-0.21519 0.85408,0.0282 0.2286,0.24695 0.21484,0.62795 -0.0282,0.85725 l -4.43018,4.14161 c -0.11607,0.10584 -0.26459,0.16228 -0.4124,0.16228"
       style="fill:#4f1308;fill-opacity:1;fill-rule:nonzero;stroke:none;stroke-width:0.03527778"
       id="path622"
       inkscape:connector-curvature="0" />
    <path
       d="m 103.98446,103.83586 c -0.2293,0 -0.44873,-0.127 -0.54998,-0.35277 l -2.50084,-5.457475 c -0.13935,-0.303388 -0.006,-0.663222 0.29634,-0.800805 0.30585,-0.141111 0.66427,-0.0071 0.80362,0.296333 l 2.50155,5.457467 c 0.13829,0.30692 0.005,0.66675 -0.2981,0.80434 -0.0833,0.0353 -0.16827,0.0529 -0.25259,0.0529"
       style="fill:#4f1308;fill-opacity:1;fill-rule:nonzero;stroke:none;stroke-width:0.03527778"
       id="path624"
       inkscape:connector-curvature="0" />
    <path
       d="m 99.116844,107.981 c -0.15276,0 -0.30657,-0.06 -0.42545,-0.17638 l -4.18854,-4.14514 c -0.23812,-0.22931 -0.24165,-0.61737 -0.007,-0.85373 0.23566,-0.23636 0.61983,-0.23989 0.8562,-0.004 l 4.19029,4.14162 c 0.23812,0.23283 0.23953,0.61736 0.005,0.85372 -0.11853,0.12347 -0.27482,0.18344 -0.43039,0.18344"
       style="fill:#4f1308;fill-opacity:1;fill-rule:nonzero;stroke:none;stroke-width:0.03527778"
       id="path626"
       inkscape:connector-curvature="0" />
    <path
       d="m 127.5659,114.15814 c 2.07433,8.64306 -3.25403,17.3355 -11.89743,19.40984 -8.64342,2.0708 -17.331976,-3.25261 -19.407366,-11.89214 -2.07363,-8.64659 3.25296,-17.3355 11.896366,-19.40984 8.64376,-2.07786 17.33374,3.24909 19.40843,11.89214"
       style="fill:#ffffff;fill-opacity:1;fill-rule:nonzero;stroke:none;stroke-width:0.03527778"
       id="path628"
       inkscape:connector-curvature="0" />
    <path
       d="m 123.52306,115.13181 c 1.53917,6.40997 -2.40876,12.85522 -8.82226,14.39333 -6.41527,1.54164 -12.85946,-2.413 -14.39722,-8.82297 -1.539166,-6.4135 2.41053,-12.85522 8.82332,-14.40039 6.4128,-1.53458 12.85629,2.41653 14.39616,8.83003"
       style="fill:#54c8f4;fill-opacity:1;fill-rule:nonzero;stroke:none;stroke-width:0.03527778"
       id="path630"
       inkscape:connector-curvature="0" />
    <path
       d="m 121.33513,115.65745 c 1.24884,5.19642 -1.95932,10.42811 -7.16209,11.68047 -5.20171,1.24883 -10.4327,-1.96144 -11.68153,-7.16139 -1.24848,-5.19994 1.95862,-10.43516 7.16139,-11.684 5.20171,-1.24883 10.43446,1.96145 11.68223,7.16492"
       style="fill:#5a3114;fill-opacity:1;fill-rule:nonzero;stroke:none;stroke-width:0.03527778"
       id="path632"
       inkscape:connector-curvature="0" />
    <path
       d="m 105.32079,126.65706 c 0.35136,1.46756 -0.54822,2.93511 -2.01366,3.29142 -1.46262,0.34925 -2.93299,-0.55739 -3.28365,-2.01789 -0.350666,-1.4605 0.55068,-2.93159 2.01259,-3.28084 1.46544,-0.3563 2.93299,0.54681 3.28472,2.00731"
       style="fill:#ffffff;fill-opacity:1;fill-rule:nonzero;stroke:none;stroke-width:0.03527778"
       id="path634"
       inkscape:connector-curvature="0" />
    <path
       d="m 118.17777,108.1715 c 0.35243,1.46403 -0.54998,2.93159 -2.0133,3.28084 -1.46191,0.35278 -2.93335,-0.54681 -3.28365,-2.01084 -0.34996,-1.45697 0.55068,-2.93511 2.01259,-3.28436 1.46438,-0.34925 2.93406,0.55034 3.28436,2.01436"
       style="fill:#ffffff;fill-opacity:1;fill-rule:nonzero;stroke:none;stroke-width:0.03527778"
       id="path636"
       inkscape:connector-curvature="0" />
    <path
       d="m 124.83116,137.77309 c 0.63147,-0.26459 1.31586,-0.37747 2.00942,-0.381 0.68969,0.007 1.40759,0.14111 2.05353,0.47978 0.64805,0.33161 1.19485,0.90663 1.4672,1.57691 0.27834,0.66675 0.32314,1.38995 0.19332,2.05317 -0.1651,-0.65617 -0.35913,-1.28058 -0.68651,-1.8027 -0.32314,-0.52211 -0.76835,-0.92427 -1.3021,-1.20297 -0.53199,-0.28222 -1.14018,-0.44803 -1.7713,-0.55033 -0.63147,-0.10583 -1.28622,-0.14817 -1.96356,-0.17286"
       style="fill:#4f1308;fill-opacity:1;fill-rule:nonzero;stroke:none;stroke-width:0.03527778"
       id="path638"
       inkscape:connector-curvature="0" />
    <path
       d="m 99.056514,137.77309 c -0.67768,0.0247 -1.33103,0.067 -1.96427,0.17286 -0.63076,0.1023 -1.23754,0.26811 -1.772,0.55033 -0.53199,0.2787 -0.97896,0.68086 -1.29963,1.20297 -0.32703,0.52212 -0.52247,1.14653 -0.68651,1.8027 -0.13052,-0.66322 -0.0861,-1.38642 0.19156,-2.05317 0.2734,-0.67028 0.81809,-1.2453 1.46614,-1.57691 0.64806,-0.33867 1.36561,-0.47273 2.0567,-0.47978 0.6918,0.004 1.3783,0.11641 2.00801,0.381"
       style="fill:#4f1308;fill-opacity:1;fill-rule:nonzero;stroke:none;stroke-width:0.03527778"
       id="path640"
       inkscape:connector-curvature="0" />
    <path
       d="m 107.96415,160.66131 c 0.66534,0.31044 1.3268,0.57503 1.99707,0.77258 0.67063,0.20109 1.34938,0.33867 2.02742,0.37042 0.67698,0.0247 1.35432,-0.0529 2.01154,-0.254 0.6611,-0.19403 1.29011,-0.51506 1.92334,-0.889 -0.43391,0.59619 -1.03187,1.08303 -1.72367,1.40758 -0.69109,0.32809 -1.4739,0.47272 -2.24225,0.43392 -0.768,-0.0318 -1.51413,-0.23283 -2.19499,-0.55033 -0.67522,-0.32456 -1.30422,-0.74084 -1.79846,-1.29117"
       style="fill:#4f1308;fill-opacity:1;fill-rule:nonzero;stroke:none;stroke-width:0.03527778"
       id="path642"
       inkscape:connector-curvature="0" />
    <path
       d="m 131.5918,138.55978 c 0.0268,-0.47625 0.0543,-0.94191 0.0233,-1.38289 -0.0293,-0.43744 -0.14006,-0.87136 -0.39864,-1.06539 -0.12559,-0.0882 -0.30939,-0.14816 -0.51753,-0.1658 -0.20531,-0.0247 -0.42792,-0.0212 -0.65652,-0.007 -0.4519,0.0141 -0.92569,0.0741 -1.4044,0.0459 0.4392,-0.18345 0.87841,-0.34925 1.35113,-0.45509 0.23637,-0.0529 0.4819,-0.0882 0.74331,-0.0811 0.25717,0.007 0.54751,0.0635 0.80116,0.24695 0.25153,0.1905 0.38735,0.46566 0.45437,0.71966 0.0646,0.26106 0.0706,0.52212 0.0483,0.76906 -0.0526,0.49389 -0.19967,0.95956 -0.4445,1.37583"
       style="fill:#4f1308;fill-opacity:1;fill-rule:nonzero;stroke:none;stroke-width:0.03527778"
       id="path644"
       inkscape:connector-curvature="0" />
    <path
       d="m 92.295174,138.55978 c -0.24236,-0.41628 -0.39088,-0.88194 -0.44344,-1.37583 -0.0233,-0.24695 -0.0173,-0.508 0.0473,-0.76906 0.0677,-0.254 0.20285,-0.52916 0.45438,-0.71966 0.2547,-0.18345 0.54504,-0.23989 0.80186,-0.24695 0.26035,-0.007 0.50624,0.0282 0.7426,0.0811 0.47343,0.10584 0.91193,0.27164 1.35255,0.45509 -0.47943,0.0282 -0.95109,-0.0317 -1.40653,-0.0459 -0.22683,-0.0141 -0.44873,-0.0177 -0.65581,0.007 -0.20638,0.0177 -0.39194,0.0776 -0.51753,0.1658 -0.25752,0.19403 -0.36759,0.62795 -0.39793,1.06539 -0.0314,0.44097 -0.003,0.90664 0.0226,1.38289"
       style="fill:#4f1308;fill-opacity:1;fill-rule:nonzero;stroke:none;stroke-width:0.03527778"
       id="path646"
       inkscape:connector-curvature="0" />
    <path
       d="m 111.94384,146.3597 c 0.0208,0 0.0413,0.004 0.0635,0.004 h -0.12524 c 0.0205,0 0.0402,-0.004 0.0617,-0.004 -11.37462,-0.0177 -16.148396,-5.83847 -17.355956,-7.6447 0.43497,2.02142 4.7819,20.66925 17.132646,21.11023 v 0.0106 c 0.0765,0 0.14852,-0.004 0.22331,-0.007 0.0741,0.004 0.14887,0.007 0.22437,0.007 v -0.0106 c 12.3511,-0.44098 16.69873,-19.08881 17.13159,-21.11023 -1.20544,1.80623 -5.98099,7.62706 -17.35596,7.6447"
       style="fill:#790f19;fill-opacity:1;fill-rule:nonzero;stroke:none;stroke-width:0.03527778"
       id="path648"
       inkscape:connector-curvature="0" />
    <path
       d="m 111.93961,159.47598 0.11006,0.004 c 0.0102,0 0.024,0 0.036,0 0.0215,-0.004 0.0448,-0.007 0.0688,-0.007 10.47821,-0.37395 15.09078,-14.23811 16.41687,-19.2405 -2.15124,2.43769 -7.11412,6.43819 -16.53893,6.48405 -0.008,0 -0.0162,0 -0.0251,0 h -0.12524 c -0.01,0 -0.0173,0 -0.0275,0 -9.42305,-0.0459 -14.387686,-4.04636 -16.536106,-6.48405 1.3261,5.00239 5.936546,18.86655 16.415816,19.2405 0.0222,0 0.0455,0.004 0.0688,0.007 0.0102,0 0.024,0 0.037,0 z m 0.2286,0.71261 c -0.048,0 -0.0977,0 -0.14359,0 l -0.085,-0.004 -0.0765,0.004 c -0.0815,0 -0.1658,0.0106 -0.24306,-0.0141 -12.533136,-0.5327 -16.917806,-19.24756 -17.378186,-21.38539 -0.0346,-0.16581 0.0533,-0.33514 0.20779,-0.40217 0.15557,-0.067 0.33761,-0.0106 0.43145,0.13053 1.17228,1.7533 5.865276,7.47183 17.063856,7.48947 11.19858,-0.0177 15.88982,-5.73617 17.0628,-7.48947 0.0945,-0.14111 0.27411,-0.19756 0.43145,-0.13053 0.15628,0.067 0.2413,0.23636 0.20708,0.40217 -0.46143,2.13783 -4.84681,20.85269 -17.38171,21.38539 -0.03,0.0106 -0.0628,0.0141 -0.0963,0.0141"
       style="fill:#4f1308;fill-opacity:1;fill-rule:nonzero;stroke:none;stroke-width:0.03527778"
       id="path650"
       inkscape:connector-curvature="0" />
    <path
       d="m 112.00487,146.70895 h -0.15134 c -11.36157,-0.54328 -13.404496,-3.91936 -16.535046,-6.45583 0.0257,0.11641 0.055,0.23636 0.0857,0.36336 2.12478,3.44663 7.243576,10.07886 16.350896,10.2235 v 0.007 c 0.0617,0 0.12453,-0.004 0.18626,-0.004 0.0617,0 0.12277,0.004 0.18662,0.004 v -0.007 c 9.10767,-0.14464 14.29315,-6.84037 16.41828,-10.287 0.0325,-0.13759 0.0635,-0.26459 0.0917,-0.38453 -3.12808,2.53647 -5.53402,6.15244 -16.63312,6.5405"
       style="fill:#ffffff;fill-opacity:1;fill-rule:nonzero;stroke:none;stroke-width:0.03527778"
       id="path652"
       inkscape:connector-curvature="0" />
    <path
       d="m 112.13822,159.46539 c 3.01131,-0.15522 5.97605,-1.46403 8.35977,-3.81353 -2.20768,-1.35819 -5.42748,-2.93511 -8.28922,-3.00213 v -0.0106 c -0.073,0 -0.14464,0.007 -0.21766,0.007 -0.072,0 -0.14252,-0.007 -0.21555,-0.007 v 0.0106 c -2.89595,0.067 -6.22441,1.55927 -8.45996,2.9598 2.10643,2.56117 5.39185,3.70064 8.37671,3.85586 v 0.0176 c 0.0737,0 0.14781,-0.007 0.22331,-0.007 0.0741,0 0.1471,0.007 0.2226,0.007 v -0.0176"
       style="fill:#f03852;fill-opacity:1;fill-rule:nonzero;stroke:none;stroke-width:0.03527778"
       id="path654"
       inkscape:connector-curvature="0" />
  </g>
</svg>
