<?xml version="1.0" encoding="UTF-8" standalone="no"?>
<!-- Created with Inkscape (http://www.inkscape.org/) -->

<svg
   xmlns:dc="http://purl.org/dc/elements/1.1/"
   xmlns:cc="http://creativecommons.org/ns#"
   xmlns:rdf="http://www.w3.org/1999/02/22-rdf-syntax-ns#"
   xmlns:svg="http://www.w3.org/2000/svg"
   xmlns="http://www.w3.org/2000/svg"
   xmlns:sodipodi="http://sodipodi.sourceforge.net/DTD/sodipodi-0.dtd"
   xmlns:inkscape="http://www.inkscape.org/namespaces/inkscape"
   width="83.486176mm"
   height="149.18256mm"
   viewBox="0 0 83.486176 149.18256"
   version="1.1"
   id="svg2514"
   inkscape:version="0.92.2 5c3e80d, 2017-08-06"
   sodipodi:docname="monster1.svg">
  <defs
     id="defs2508" />
  <sodipodi:namedview
     id="base"
     pagecolor="#ffffff"
     bordercolor="#666666"
     borderopacity="1.0"
     inkscape:pageopacity="0.0"
     inkscape:pageshadow="2"
     inkscape:zoom="0.98994949"
     inkscape:cx="216.38088"
     inkscape:cy="262.09201"
     inkscape:document-units="mm"
     inkscape:current-layer="layer1"
     showgrid="false"
     inkscape:window-width="1920"
     inkscape:window-height="1016"
     inkscape:window-x="1920"
     inkscape:window-y="27"
     inkscape:window-maximized="1" />
  <metadata
     id="metadata2511">
    <rdf:RDF>
      <cc:Work
         rdf:about="">
        <dc:format>image/svg+xml</dc:format>
        <dc:type
           rdf:resource="http://purl.org/dc/dcmitype/StillImage" />
        <dc:title></dc:title>
      </cc:Work>
    </rdf:RDF>
  </metadata>
  <g
     inkscape:label="Calque 1"
     inkscape:groupmode="layer"
     id="layer1"
     transform="translate(-62.578338,-72.730154)">
    <g
       id="g656"
       transform="matrix(0.0431352,0,0,-0.0431352,2.5188595,775.78855)">
      <path
         d="m 3030.08,15985.1 c 54.95,-11.7 65.19,-76.5 66.78,-110 l 0.09,-20 v -0.1 l 1.71,-487.2 c 0,0 18.77,-257.5 -225.45,-333.1 v -137.8 c 143.07,26.7 336.39,128.4 336.39,484.4 v 490.5 c 1.34,10 0.5,23.4 0,38.3 v 8.3 h -0.25 c -0.58,28.7 1.67,61.1 23.82,83.9 36.04,36.8 108.24,50.2 92.4,85.6 -15.89,35.4 -85.26,-18 -95.32,-0.6 -10.05,17.3 121.94,105.3 76.18,134.2 -45.8,28.9 -64.92,-66.3 -108.42,-66.9 -43.61,-0.6 26.32,102.6 -41.16,124 -67.48,21.4 -27.12,-123.4 -51.48,-120.2 -24.45,3.2 -55.48,94.7 -90.01,99.2 -34.6,4.5 -29.63,-50.2 -9.17,-67.5 20.38,-17.3 52.76,-83.8 33.53,-118.9 -19.24,-34.9 -107.55,16.3 -122.71,-19.2 -15.15,-35.5 16.02,-46.2 113.07,-66.9"
         style="fill:#ee205d;fill-opacity:1;fill-rule:nonzero;stroke:none"
         id="path658"
         inkscape:connector-curvature="0" />
    </g>
    <g
       id="g660"
       transform="matrix(0.04318317,0,0,-0.04318317,2.5188595,775.78855)">
      <path
         d="m 1688.21,15985.5 c -54.86,-11.7 -65.13,-76.4 -66.7,-109.8 l -0.08,-20 v -0.1 l -1.71,-486.7 c 0,0 -18.73,-257.2 225.21,-332.9 v -137.5 c -142.93,26.6 -336.03,128.3 -336.03,483.9 v 489.9 c -1.37,10.1 -0.51,23.5 0,38.3 v 8.3 h 0.25 c 0.57,28.7 -1.68,61.1 -23.78,83.7 -36.05,36.9 -108.17,50.3 -92.32,85.6 15.86,35.4 85.15,-17.9 95.2,-0.7 10.03,17.4 -121.77,105.3 -76.1,134.1 45.75,28.9 64.88,-66.3 108.34,-66.8 43.51,-0.5 -26.31,102.6 41.1,123.9 67.4,21.3 27.08,-123.3 51.44,-120.1 24.38,3.2 55.36,94.5 89.91,99.1 34.52,4.5 29.58,-50.2 9.16,-67.4 -20.4,-17.2 -52.73,-83.8 -33.52,-118.8 19.22,-34.9 107.43,16.2 122.55,-19.2 15.16,-35.4 -16,-46.1 -112.92,-66.8"
         style="fill:#ee205d;fill-opacity:1;fill-rule:nonzero;stroke:none"
         id="path662"
         inkscape:connector-curvature="0" />
    </g>
    <g
       id="g664"
       transform="matrix(0.04110884,0,0,-0.04110884,2.5188595,775.78855)">
      <path
         d="m 2751.23,16300 c -120.18,0 -223.27,-73.3 -267.02,-177.6 -43.77,104.3 -146.84,177.6 -267.04,177.6 -159.86,0 -289.47,-129.6 -289.47,-289.5 0,-9.1 0.45,-18.1 1.3,-27 -0.79,-6.3 -1.3,-12.6 -1.3,-19.1 v -629 c 0,-73.7 50.76,-135.4 119.2,-152.5 l 25.09,-1624.2 c 0,-47.2 11.93,-85.3 59.06,-85.3 47.09,0 59.03,38.1 59.03,85.3 l 25.04,1619.3 h 184.99 l 25.07,-1619.3 c 0,-47.2 11.93,-85.3 59.03,-85.3 47.08,0 59.04,38.1 59.04,85.3 l 25.04,1619.3 h 185.51 l 25.04,-1619.3 c 0,-47.2 11.97,-85.3 59.09,-85.3 47.07,0 59.06,38.1 59.06,85.3 l 25.1,1625.4 c 63.97,18.2 110.96,75.8 113.85,144.9 v 732.8 c -24.27,135.4 -142.37,238.2 -284.71,238.2"
         style="fill:#ef2c6d;fill-opacity:1;fill-rule:nonzero;stroke:none"
         id="path666"
         inkscape:connector-curvature="0" />
    </g>
    <g
       id="g668"
       transform="matrix(0.03620982,0,0,-0.03620982,2.5188595,775.78855)">
      <path
         d="m 3214.68,15546.9 v 753.1 l -30.99,-594.2 -29.45,552.8 -7.98,-311.2 8.54,-554.3 c 0,-53.5 13.58,-96.8 67.08,-96.8 53.45,0 67.05,43.3 67.05,96.8 l 9.77,634.3 -42.55,-414.8 v 670.1 l -41.47,-735.8"
         style="fill:#ed114e;fill-opacity:1;fill-rule:nonzero;stroke:none"
         id="path670"
         inkscape:connector-curvature="0" />
    </g>
    <g
       id="g672"
       transform="matrix(0.03620982,0,0,-0.03620982,2.5188595,775.78855)">
      <path
         d="m 2812.53,15546.9 v 753.1 l -30.99,-594.2 -29.49,552.8 -7.97,-311.2 8.55,-554.3 c 0,-53.5 13.59,-96.8 67.07,-96.8 53.46,0 67.02,43.3 67.02,96.8 l 9.82,634.3 -42.57,-414.8 v 670.1 l -41.44,-735.8"
         style="fill:#ed114e;fill-opacity:1;fill-rule:nonzero;stroke:none"
         id="path674"
         inkscape:connector-curvature="0" />
    </g>
    <g
       id="g676"
       transform="matrix(0.03620982,0,0,-0.03620982,2.5188595,775.78855)">
      <path
         d="m 2410.34,15546.9 v 753.1 l -30.99,-594.2 -29.46,552.8 -7.99,-311.2 8.56,-554.3 c 0,-53.5 13.61,-96.8 67.07,-96.8 53.45,0 67.03,43.3 67.03,96.8 l 9.8,634.3 -42.58,-414.8 v 670.1 l -41.44,-735.8"
         style="fill:#ed114e;fill-opacity:1;fill-rule:nonzero;stroke:none"
         id="path678"
         inkscape:connector-curvature="0" />
    </g>
    <g
       id="g680"
       transform="matrix(0.04075007,0,0,-0.04075007,2.5188595,775.78855)">
      <path
         d="m 2952.61,16122.3 c 0,-98.1 -79.54,-177.7 -177.67,-177.7 -98.14,0 -177.69,79.6 -177.69,177.7 0,98.1 79.55,177.7 177.69,177.7 98.13,0 177.67,-79.6 177.67,-177.7"
         style="fill:#ffffff;fill-opacity:1;fill-rule:nonzero;stroke:none"
         id="path682"
         inkscape:connector-curvature="0" />
    </g>
    <g
       id="g684"
       transform="matrix(0.04063541,0,0,-0.04063541,2.5188595,775.78855)">
      <path
         d="m 2914.96,16167.9 c 0,-73 -59.17,-132.2 -132.18,-132.2 -72.98,0 -132.2,59.2 -132.2,132.2 0,72.9 59.22,132.1 132.2,132.1 73.01,0 132.18,-59.2 132.18,-132.1"
         style="fill:#54c8f4;fill-opacity:1;fill-rule:nonzero;stroke:none"
         id="path686"
         inkscape:connector-curvature="0" />
    </g>
    <g
       id="g688"
       transform="matrix(0.04057332,0,0,-0.04057332,2.5188595,775.78855)">
      <path
         d="m 2894.46,16192.6 c 0,-59.4 -48.1,-107.4 -107.42,-107.4 -59.31,0 -107.44,48 -107.44,107.4 0,59.4 48.13,107.4 107.44,107.4 59.32,0 107.42,-48 107.42,-107.4"
         style="fill:#5a3114;fill-opacity:1;fill-rule:nonzero;stroke:none"
         id="path690"
         inkscape:connector-curvature="0" />
    </g>
    <g
       id="g692"
       transform="matrix(0.0401888,0,0,-0.0401888,2.5188595,775.78855)">
      <path
         d="m 2719.12,16269.6 c 0,-16.9 -13.65,-30.5 -30.52,-30.5 -16.84,0 -30.47,13.6 -30.47,30.5 0,16.8 13.63,30.4 30.47,30.4 16.87,0 30.52,-13.6 30.52,-30.4"
         style="fill:#ffffff;fill-opacity:1;fill-rule:nonzero;stroke:none"
         id="path694"
         inkscape:connector-curvature="0" />
    </g>
    <g
       id="g696"
       transform="matrix(0.0406026,0,0,-0.0406026,2.5188595,775.78855)">
      <path
         d="m 2877.72,16269.8 c 0,-16.7 -13.51,-30.2 -30.18,-30.2 -16.66,0 -30.17,13.5 -30.17,30.2 0,16.6 13.51,30.2 30.17,30.2 16.67,0 30.18,-13.6 30.18,-30.2"
         style="fill:#ffffff;fill-opacity:1;fill-rule:nonzero;stroke:none"
         id="path698"
         inkscape:connector-curvature="0" />
    </g>
    <g
       id="g700"
       transform="matrix(0.04075007,0,0,-0.04075007,2.5188595,775.78855)">
      <path
         d="m 2410.04,16122.3 c 0,-98.1 -79.54,-177.7 -177.67,-177.7 -98.15,0 -177.7,79.6 -177.7,177.7 0,98.1 79.55,177.7 177.7,177.7 98.13,0 177.67,-79.6 177.67,-177.7"
         style="fill:#ffffff;fill-opacity:1;fill-rule:nonzero;stroke:none"
         id="path702"
         inkscape:connector-curvature="0" />
    </g>
    <g
       id="g704"
       transform="matrix(0.04063541,0,0,-0.04063541,2.5188595,775.78855)">
      <path
         d="m 2370.85,16167.9 c 0,-73 -59.17,-132.2 -132.17,-132.2 -73.03,0 -132.21,59.2 -132.21,132.2 0,72.9 59.18,132.1 132.21,132.1 73,0 132.17,-59.2 132.17,-132.1"
         style="fill:#54c8f4;fill-opacity:1;fill-rule:nonzero;stroke:none"
         id="path706"
         inkscape:connector-curvature="0" />
    </g>
    <g
       id="g708"
       transform="matrix(0.04057332,0,0,-0.04057332,2.5188595,775.78855)">
      <path
         d="m 2349.52,16192.6 c 0,-59.4 -48.11,-107.4 -107.42,-107.4 -59.33,0 -107.43,48 -107.43,107.4 0,59.4 48.1,107.4 107.43,107.4 59.31,0 107.42,-48 107.42,-107.4"
         style="fill:#5a3114;fill-opacity:1;fill-rule:nonzero;stroke:none"
         id="path710"
         inkscape:connector-curvature="0" />
    </g>
    <g
       id="g712"
       transform="matrix(0.0401888,0,0,-0.0401888,2.5188595,775.78855)">
      <path
         d="m 2168.92,16269.6 c 0,-16.9 -13.61,-30.5 -30.49,-30.5 -16.82,0 -30.43,13.6 -30.43,30.5 0,16.8 13.61,30.4 30.43,30.4 16.88,0 30.49,-13.6 30.49,-30.4"
         style="fill:#ffffff;fill-opacity:1;fill-rule:nonzero;stroke:none"
         id="path714"
         inkscape:connector-curvature="0" />
    </g>
    <g
       id="g716"
       transform="matrix(0.0406026,0,0,-0.0406026,2.5188595,775.78855)">
      <path
         d="m 2333.16,16269.8 c 0,-16.7 -13.5,-30.2 -30.19,-30.2 -16.64,0 -30.15,13.5 -30.15,30.2 0,16.6 13.51,30.2 30.15,30.2 16.69,0 30.19,-13.6 30.19,-30.2"
         style="fill:#ffffff;fill-opacity:1;fill-rule:nonzero;stroke:none"
         id="path718"
         inkscape:connector-curvature="0" />
    </g>
    <g
       id="g720"
       transform="matrix(0.03953792,0,0,-0.03953792,2.5188595,775.78855)">
      <path
         d="m 2898.75,16285.6 c -2.43,-10.6 -5.15,-20.9 -8.21,-31.1 -6.09,-20.5 -13.2,-40.7 -21.65,-60.1 -16.71,-39.2 -38.51,-76.2 -66.36,-107.8 -13.93,-15.8 -29.43,-30 -46.21,-42.5 -16.86,-12.3 -35.08,-22.7 -54.33,-30.8 -19.24,-8 -39.37,-13.9 -59.91,-17.4 -10.31,-1.9 -20.74,-3.2 -31.15,-3.9 -10.48,-0.9 -20.82,-1 -31.53,-1 -21.22,-0.2 -42.06,1.2 -62.69,4.9 -20.59,3.5 -40.71,9.5 -59.95,17.4 -19.26,8 -37.47,18.5 -54.36,30.8 -16.78,12.5 -32.28,26.7 -46.19,42.5 -27.86,31.6 -49.63,68.6 -66.36,107.7 -8.46,19.5 -15.56,39.7 -21.66,60.2 -3.02,10.2 -5.76,20.5 -8.2,31.1 -1.15,4.7 -2.24,9.5 -3.17,14.4 10.34,-14.9 30.36,-39.2 63.27,-63.8 46.86,-34.8 129.72,-76.2 259.17,-76.7 h 2.26 v 0 c 129.5,0.5 212.36,41.9 259.15,76.7 30.11,22.5 49.46,44.8 60.43,59.7 -0.74,-3.5 -1.53,-6.9 -2.35,-10.3"
         style="fill:#84111c;fill-opacity:1;fill-rule:nonzero;stroke:none"
         id="path722"
         inkscape:connector-curvature="0" />
    </g>
    <g
       id="g724"
       transform="matrix(0.03953263,0,0,-0.03953263,2.5188595,775.78855)">
      <path
         d="m 2897.06,16300 c -11.37,-14.9 -29.98,-35.5 -57.87,-56.2 -46.83,-34.8 -129.71,-76.4 -259.16,-76.9 v 0 h -2.3 c -129.43,0.5 -212.37,42.1 -259.15,76.9 -27.24,20.2 -45.59,40.3 -57,55 53.2,-89.8 150.78,-197.7 313.49,-201.1 v -0.2 c 1.31,0 2.59,0.1 3.9,0.2 1.3,-0.1 2.6,-0.2 3.9,-0.2 v 0.2 c 163.42,3.4 261.13,112.3 314.19,202.3"
         style="fill:#ffffff;fill-opacity:1;fill-rule:nonzero;stroke:none"
         id="path726"
         inkscape:connector-curvature="0" />
    </g>
    <g
       id="g728"
       transform="matrix(0.03901475,0,0,-0.03901475,2.5188595,775.78855)">
      <path
         d="m 2784.2,16253.8 c -45.84,26.8 -100.61,44.7 -165.69,46.1 v 0.1 c -1.35,0 -2.67,0 -3.99,0 -1.35,0 -2.64,0 -4.01,0 v -0.1 c -65.99,-1.4 -121.41,-19.8 -167.63,-47.2 14.37,-9.6 29.65,-17.9 45.58,-24.6 19.49,-8 39.89,-14.1 60.75,-17.7 20.9,-3.7 42.01,-5.1 63.5,-4.9 10.85,0 21.37,0.1 31.97,1 10.59,0.8 21.09,2 31.52,3.9 20.88,3.6 41.25,9.6 60.75,17.7 16.56,7 32.42,15.5 47.25,25.7"
         style="fill:#f8a1b3;fill-opacity:1;fill-rule:nonzero;stroke:none"
         id="path730"
         inkscape:connector-curvature="0" />
    </g>
    <g
       id="g732"
       transform="matrix(0.03963282,0,0,-0.03963282,2.5188595,775.78855)">
      <path
         d="m 2818.48,16293 c 12.01,5 25.09,7 38.24,7 13.2,-0.2 26.77,-2.7 39.06,-9.2 12.27,-6.2 22.64,-17.1 27.89,-29.8 5.28,-12.7 6.24,-26.3 3.9,-39 -3.04,12.6 -6.6,24.4 -12.84,34.5 -6.11,10 -14.7,17.8 -24.87,23.2 -10.21,5.3 -21.9,8.4 -33.93,10.4 -12.06,1.9 -24.57,2.6 -37.45,2.9"
         style="fill:#4d1805;fill-opacity:1;fill-rule:nonzero;stroke:none"
         id="path734"
         inkscape:connector-curvature="0" />
    </g>
    <g
       id="g736"
       transform="matrix(0.03963282,0,0,-0.03963282,2.5188595,775.78855)">
      <path
         d="m 2327.07,16293 c -12.91,-0.3 -25.35,-1 -37.43,-2.9 -12.1,-2 -23.72,-5.1 -33.93,-10.4 -10.19,-5.4 -18.78,-13.2 -24.88,-23.2 -6.24,-10.1 -9.84,-21.9 -12.85,-34.5 -2.33,12.7 -1.39,26.3 3.94,39 5.21,12.7 15.57,23.6 27.87,29.8 12.26,6.5 25.88,9 39.03,9.2 13.17,0 26.22,-2 38.25,-7"
         style="fill:#4d1805;fill-opacity:1;fill-rule:nonzero;stroke:none"
         id="path738"
         inkscape:connector-curvature="0" />
    </g>
    <g
       id="g740"
       transform="matrix(0.0384877,0,0,-0.0384877,2.5188595,775.78855)">
      <path
         d="m 2571.19,16300 c 12.97,-6.3 25.93,-11.6 39.12,-15.6 13.15,-3.9 26.5,-6.6 39.89,-7.2 13.34,-0.6 26.7,1.1 39.58,5 12.99,3.9 25.34,10.2 37.71,17.8 -8.67,-11.7 -20.41,-21.1 -34.01,-27.4 -13.5,-6.4 -28.84,-9.2 -43.83,-8.5 -15.03,0.7 -29.68,4.5 -43,10.7 -13.28,6.3 -25.66,14.4 -35.46,25.2"
         style="fill:#4d1805;fill-opacity:1;fill-rule:nonzero;stroke:none"
         id="path742"
         inkscape:connector-curvature="0" />
    </g>
    <g
       id="g744"
       transform="matrix(0.03958696,0,0,-0.03958696,2.5188595,775.78855)">
      <path
         d="m 2576.89,16139.9 h -2.28 c -129.23,0.4 -211.96,41.8 -258.72,76.5 -51.28,38.2 -71.23,76.1 -72.05,77.7 l 11.34,5.9 c 0.17,-0.4 19.74,-37.3 68.92,-73.8 45.35,-33.5 125.69,-73.4 251.67,-73.6 241.76,0.4 319.83,145.9 320.57,147.4 l 11.35,-5.9 c -0.84,-1.6 -20.78,-39.5 -72.05,-77.7 -46.75,-34.7 -129.52,-76.1 -258.75,-76.5 v 0"
         style="fill:#4d1805;fill-opacity:1;fill-rule:nonzero;stroke:none"
         id="path746"
         inkscape:connector-curvature="0" />
    </g>
    <g
       id="g748"
       transform="matrix(0.03957955,0,0,-0.03957955,2.5188595,775.78855)">
      <path
         d="m 2249.92,16300 c 1.56,-10.6 3.76,-21.1 6.19,-31.4 2.45,-10.6 5.17,-20.8 8.21,-31.2 6.08,-20.3 13.15,-40.5 21.6,-60 16.7,-39.1 38.44,-76 66.26,-107.7 13.9,-15.7 29.38,-30 46.15,-42.4 16.84,-12.4 35.1,-22.8 54.34,-30.8 19.24,-8 39.32,-13.9 59.93,-17.5 20.64,-3.6 41.45,-5.1 62.62,-4.8 10.68,-0.1 21.06,0.1 31.51,0.9 10.44,0.8 20.84,2.1 31.13,3.9 20.58,3.6 40.67,9.5 59.88,17.6 19.26,8 37.48,18.4 54.33,30.7 16.8,12.4 32.27,26.7 46.22,42.5 27.79,31.6 49.52,68.5 66.25,107.6 8.43,19.5 15.5,39.7 21.58,60 3.04,10.4 5.78,20.6 8.18,31.2 2.41,10.3 4.65,20.8 6.24,31.4 -1.65,-21.5 -5.34,-42.6 -10.15,-63.6 -4.86,-21 -11.08,-41.6 -18.6,-61.9 -15.24,-40.4 -35.98,-79.3 -64.09,-112.9 -27.78,-33.7 -63.55,-61.3 -103.98,-78.9 -40.46,-17.8 -85.01,-24.9 -128.5,-24.4 -43.49,-0.5 -88.05,6.6 -128.5,24.4 -40.38,17.6 -76.21,45.2 -103.98,78.9 -28.1,33.6 -48.83,72.5 -64.06,112.9 -7.5,20.3 -13.8,40.9 -18.6,61.9 -4.83,21 -8.51,42.1 -10.16,63.6"
         style="fill:#4d1805;fill-opacity:1;fill-rule:nonzero;stroke:none"
         id="path750"
         inkscape:connector-curvature="0" />
    </g>
    <g
       id="g752"
       transform="matrix(0.03969985,0,0,-0.03969985,2.5188595,775.78855)">
      <path
         d="m 2945.85,16240.5 c 0.61,9.1 1.21,18 0.67,26.5 -0.54,8.3 -2.6,16.7 -7.68,20.5 -2.53,1.8 -6.15,2.9 -10.11,3.4 -4.01,0.4 -8.28,0.4 -12.6,0.1 -8.7,-0.4 -17.77,-1.5 -26.93,-1.1 8.44,3.3 16.86,6.4 25.93,8.5 4.51,0.9 9.2,1.6 14.2,1.4 4.9,-0.2 10.42,-1.2 15.15,-4.6 4.81,-3.6 7.39,-8.8 8.67,-13.8 1.23,-5 1.36,-9.8 0.95,-14.6 -0.95,-9.4 -3.73,-18.3 -8.25,-26.3"
         style="fill:#4d1805;fill-opacity:1;fill-rule:nonzero;stroke:none"
         id="path754"
         inkscape:connector-curvature="0" />
    </g>
    <g
       id="g756"
       transform="matrix(0.03969985,0,0,-0.03969985,2.5188595,775.78855)">
      <path
         d="m 2192.58,16240.5 c -4.52,8 -7.29,16.9 -8.24,26.3 -0.44,4.8 -0.31,9.6 0.95,14.6 1.25,5 3.85,10.2 8.64,13.8 4.76,3.4 10.26,4.4 15.17,4.6 4.98,0.2 9.64,-0.5 14.19,-1.4 9.04,-2.1 17.46,-5.2 25.94,-8.5 -9.17,-0.4 -18.2,0.7 -26.92,1.1 -4.36,0.3 -8.62,0.3 -12.63,-0.1 -3.98,-0.5 -7.57,-1.6 -10.08,-3.4 -5.11,-3.8 -7.16,-12.2 -7.69,-20.5 -0.54,-8.5 0.09,-17.4 0.67,-26.5"
         style="fill:#4d1805;fill-opacity:1;fill-rule:nonzero;stroke:none"
         id="path758"
         inkscape:connector-curvature="0" />
    </g>
    <g
       id="g760"
       transform="matrix(0.0426212,0,0,-0.0426212,2.5188595,775.78855)">
      <path
         d="M 2783.23,15638.8 H 2004.3 c 0,0 278.09,661.2 380.9,661.2 103.43,0 398.03,-661.2 398.03,-661.2"
         style="fill:#94d335;fill-opacity:1;fill-rule:nonzero;stroke:none"
         id="path762"
         inkscape:connector-curvature="0" />
    </g>
    <g
       id="g764"
       transform="matrix(0.04129793,0,0,-0.04129793,2.5188595,775.78855)">
      <path
         d="m 2772.47,16300 c -55.37,-51.5 -116.84,-93.8 -182.16,-126.3 h 163.28 c 18.24,17.4 35.72,35.7 52.52,54.8 -9.24,19.9 -20.6,44.2 -33.64,71.5"
         style="fill:#295a5b;fill-opacity:1;fill-rule:nonzero;stroke:none"
         id="path766"
         inkscape:connector-curvature="0" />
    </g>
    <g
       id="g768"
       transform="matrix(0.04171738,0,0,-0.04171738,2.5188595,775.78855)">
      <path
         d="m 2703.59,16220.3 c -12.82,25.8 -26.39,52.7 -40.38,79.7 -150.26,-105.8 -331.56,-153.1 -509.52,-135.6 -40.34,-87.9 -67.88,-153.4 -67.88,-153.4 h 187.17 c 159.8,28.9 309.15,101 430.61,209.3"
         style="fill:#295a5b;fill-opacity:1;fill-rule:nonzero;stroke:none"
         id="path770"
         inkscape:connector-curvature="0" />
    </g>
    <g
       id="g772"
       transform="matrix(0.04215835,0,0,-0.04215835,2.5188595,775.78855)">
      <path
         d="m 2161.11,16059.7 c 155.04,12.2 303.62,64.9 430.2,152.3 -16.96,30.8 -34.09,60.6 -50.86,88 -93.86,-47.4 -195.92,-74.4 -299.29,-79.7 -27.89,-52.6 -55.39,-108.4 -80.05,-160.6"
         style="fill:#295a5b;fill-opacity:1;fill-rule:nonzero;stroke:none"
         id="path774"
         inkscape:connector-curvature="0" />
    </g>
    <g
       id="g776"
       transform="matrix(0.04253547,0,0,-0.04253547,2.5188595,775.78855)">
      <path
         d="m 2466.24,16233.3 c -30.41,40.8 -57.29,66.7 -76.71,66.7 -28.92,0 -73.24,-57.9 -120.48,-137.8 68.5,15.7 134.68,39.7 197.19,71.1"
         style="fill:#295a5b;fill-opacity:1;fill-rule:nonzero;stroke:none"
         id="path778"
         inkscape:connector-curvature="0" />
    </g>
    <g
       id="g780"
       transform="matrix(0.04301349,0,0,-0.04301349,2.5188595,775.78855)">
      <path
         d="m 2359.5,16147.7 c 0,0 -1.61,77 52.89,93.8 0,0 -15.22,58.5 -80.13,44.1 0,0 -35.28,-85.8 27.24,-137.9"
         style="fill:#f14624;fill-opacity:1;fill-rule:nonzero;stroke:none"
         id="path782"
         inkscape:connector-curvature="0" />
    </g>
    <g
       id="g784"
       transform="matrix(0.04271645,0,0,-0.04271645,2.5188595,775.78855)">
      <path
         d="m 2372.33,16264.8 c 0,0 71.01,-31 63.41,-88 0,0 59.89,-10.7 74.1,54.8 0,0 -63.56,68.4 -137.51,33.2"
         style="fill:#f14624;fill-opacity:1;fill-rule:nonzero;stroke:none"
         id="path786"
         inkscape:connector-curvature="0" />
    </g>
    <g
       id="g788"
       transform="matrix(0.04261167,0,0,-0.04261167,2.5188595,775.78855)">
      <path
         d="m 2377.69,16300 c 0,0 -55.38,-54.5 -105.47,-26.2 0,0 -32.39,-51.6 23.18,-89.3 0,0 87.39,33.6 82.29,115.5"
         style="fill:#f14624;fill-opacity:1;fill-rule:nonzero;stroke:none"
         id="path790"
         inkscape:connector-curvature="0" />
    </g>
    <g
       id="g792"
       transform="matrix(0.04284098,0,0,-0.04284098,2.5188595,775.78855)">
      <path
         d="m 2369.48,16216.6 c 0,0 60.3,35.9 98.11,0.1 0,0 39.56,38.3 -0.94,83.3 0,0 -83.88,-10.5 -97.17,-83.4"
         style="fill:#f14624;fill-opacity:1;fill-rule:nonzero;stroke:none"
         id="path794"
         inkscape:connector-curvature="0" />
    </g>
    <g
       id="g796"
       transform="matrix(0.04263531,0,0,-0.04263531,2.5188595,775.78855)">
      <path
         d="m 2383.12,16300 c 0,0 7.24,-70.1 -41.26,-89.6 0,0 18.29,-52.3 76.44,-34.3 0,0 25.78,81.1 -35.18,123.9"
         style="fill:#f14624;fill-opacity:1;fill-rule:nonzero;stroke:none"
         id="path798"
         inkscape:connector-curvature="0" />
    </g>
    <g
       id="g800"
       transform="matrix(0.0428244,0,0,-0.0428244,2.5188595,775.78855)">
      <path
         d="m 2368.62,16226.2 c 0,0 -67.47,19.3 -67.45,71.3 0,0 -55.09,2.5 -59.97,-57.9 0,0 65.2,-53.8 127.42,-13.4"
         style="fill:#f14624;fill-opacity:1;fill-rule:nonzero;stroke:none"
         id="path802"
         inkscape:connector-curvature="0" />
    </g>
  </g>
</svg>
