<?xml version="1.0" encoding="UTF-8" standalone="no"?>
<!-- Created with Inkscape (http://www.inkscape.org/) -->

<svg
   xmlns:dc="http://purl.org/dc/elements/1.1/"
   xmlns:cc="http://creativecommons.org/ns#"
   xmlns:rdf="http://www.w3.org/1999/02/22-rdf-syntax-ns#"
   xmlns:svg="http://www.w3.org/2000/svg"
   xmlns="http://www.w3.org/2000/svg"
   xmlns:sodipodi="http://sodipodi.sourceforge.net/DTD/sodipodi-0.dtd"
   xmlns:inkscape="http://www.inkscape.org/namespaces/inkscape"
   width="76.450821mm"
   height="115.64362mm"
   viewBox="0 0 76.450821 115.64362"
   version="1.1"
   id="svg5159"
   inkscape:version="0.92.2 5c3e80d, 2017-08-06"
   sodipodi:docname="monster10.svg">
  <defs
     id="defs5153" />
  <sodipodi:namedview
     id="base"
     pagecolor="#ffffff"
     bordercolor="#666666"
     borderopacity="1.0"
     inkscape:pageopacity="0.0"
     inkscape:pageshadow="2"
     inkscape:zoom="0.35"
     inkscape:cx="93.045579"
     inkscape:cy="167.10961"
     inkscape:document-units="mm"
     inkscape:current-layer="layer1"
     showgrid="false"
     inkscape:window-width="1920"
     inkscape:window-height="1016"
     inkscape:window-x="1920"
     inkscape:window-y="27"
     inkscape:window-maximized="1" />
  <metadata
     id="metadata5156">
    <rdf:RDF>
      <cc:Work
         rdf:about="">
        <dc:format>image/svg+xml</dc:format>
        <dc:type
           rdf:resource="http://purl.org/dc/dcmitype/StillImage" />
        <dc:title></dc:title>
      </cc:Work>
    </rdf:RDF>
  </metadata>
  <g
     inkscape:label="Calque 1"
     inkscape:groupmode="layer"
     id="layer1"
     transform="translate(-81.215024,-77.404135)">
    <path
       d="m 153.64048,156.37344 h -0.0177 c 0.31045,-1.25942 0.49742,-2.56469 0.49742,-3.91583 v -23.82309 c 0,-8.93586 -7.24606,-16.18544 -16.18192,-16.18544 h -9.7543 c 1.71097,-7.73289 7.14728,-22.764751 23.92186,-27.227389 l -3.62656,-2.014361 c -18.39383,4.893027 -23.15633,22.48958 -24.3205,29.24175 h -8.64305 c -1.15711,-6.75217 -5.88434,-24.348723 -24.133532,-29.24175 l -3.60185,2.014361 c 16.647582,4.462638 22.041552,19.494499 23.738422,27.227389 h -9.54264 c -8.935862,0 -16.179802,7.24958 -16.179802,16.18544 v 23.82309 c 0,0.26458 0.0268,0.52211 0.0388,0.78669 l -0.0208,-0.004 c 0,0 -11.81876,39.80745 2.43522,39.80745 9.25336,0 4.83306,-21.12434 15.250592,-21.11728 10.41752,0.007 2.97391,21.11728 17.526,21.11728 14.55561,0 6.68514,-21.77698 17.53305,-21.77698 10.84086,0 3.91936,25.08956 14.28397,21.3854 10.36461,-3.70064 0.79728,-36.2832 0.79728,-36.2832"
       style="fill:#9153af;fill-opacity:1;fill-rule:nonzero;stroke:none;stroke-width:0.03527778"
       id="path220"
       inkscape:connector-curvature="0" />
    <path
       d="m 144.40123,83.20733 c 0,-3.210278 2.59997,-5.803195 5.8032,-5.803195 3.20675,0 5.80672,2.592917 5.80672,5.803195 0,3.206749 -2.59997,5.803194 -5.80672,5.803194 -3.20323,0 -5.8032,-2.596445 -5.8032,-5.803194"
       style="fill:#f03a74;fill-opacity:1;fill-rule:nonzero;stroke:none;stroke-width:0.03527778"
       id="path222"
       inkscape:connector-curvature="0" />
    <path
       d="m 95.396868,83.20733 c 0,-3.210278 -2.5788,-5.803195 -5.75733,-5.803195 -3.18206,0 -5.76192,2.592917 -5.76192,5.803195 0,3.206749 2.57986,5.803194 5.76192,5.803194 3.17853,0 5.75733,-2.596445 5.75733,-5.803194"
       style="fill:#f03a74;fill-opacity:1;fill-rule:nonzero;stroke:none;stroke-width:0.03527778"
       id="path224"
       inkscape:connector-curvature="0" />
    <path
       d="m 124.52573,110.51233 4.00756,0.42686 c 0.21166,-0.82197 0.46214,-1.70392 0.75847,-2.63172 l -4.064,-0.58208 c -0.28575,1.00188 -0.51506,1.93675 -0.70203,2.78694"
       style="fill:#80cc28;fill-opacity:1;fill-rule:nonzero;stroke:none;stroke-width:0.03527778"
       id="path226"
       inkscape:connector-curvature="0" />
    <path
       d="m 126.03562,105.18539 4.04283,0.88547 c 0.28223,-0.74789 0.5962,-1.50989 0.94192,-2.28248 l -3.83117,-1.55222 c -0.43744,1.00895 -0.82197,2.00025 -1.15358,2.94923"
       style="fill:#80cc28;fill-opacity:1;fill-rule:nonzero;stroke:none;stroke-width:0.03527778"
       id="path228"
       inkscape:connector-curvature="0" />
    <path
       d="m 128.7379,99.043523 3.75708,1.781527 c 0.42686,-0.77611 0.88547,-1.552221 1.38642,-2.317749 l -3.63008,-2.003778 c -0.55034,0.843139 -1.05481,1.689806 -1.51342,2.54"
       style="fill:#80cc28;fill-opacity:1;fill-rule:nonzero;stroke:none;stroke-width:0.03527778"
       id="path230"
       inkscape:connector-curvature="0" />
    <path
       d="m 132.11398,93.892968 3.71122,1.915583 c 0.66323,-0.829028 1.38289,-1.643944 2.15195,-2.430639 l -2.19781,-3.386666 c -1.36877,1.227666 -2.58586,2.543527 -3.66536,3.901722"
       style="fill:#80cc28;fill-opacity:1;fill-rule:nonzero;stroke:none;stroke-width:0.03527778"
       id="path232"
       inkscape:connector-curvature="0" />
    <path
       d="m 138.58745,87.758162 1.89442,3.323167 c 0.88547,-0.726722 1.8415,-1.407583 2.85045,-2.049639 l -1.5487,-3.22086 c -1.13242,0.596194 -2.1978,1.248833 -3.19617,1.947332"
       style="fill:#80cc28;fill-opacity:1;fill-rule:nonzero;stroke:none;stroke-width:0.03527778"
       id="path234"
       inkscape:connector-curvature="0" />
    <path
       d="m 115.16654,110.51233 -4.00756,0.42686 c -0.20814,-0.82197 -0.46214,-1.70392 -0.75847,-2.63172 l 4.064,-0.58208 c 0.28575,1.00188 0.51506,1.93675 0.70203,2.78694"
       style="fill:#80cc28;fill-opacity:1;fill-rule:nonzero;stroke:none;stroke-width:0.03527778"
       id="path236"
       inkscape:connector-curvature="0" />
    <path
       d="m 113.65665,105.18539 -4.03931,0.88547 c -0.28575,-0.74789 -0.59619,-1.50989 -0.94191,-2.28248 l 3.83116,-1.55222 c 0.43745,1.00895 0.81845,2.00025 1.15006,2.94923"
       style="fill:#80cc28;fill-opacity:1;fill-rule:nonzero;stroke:none;stroke-width:0.03527778"
       id="path238"
       inkscape:connector-curvature="0" />
    <path
       d="m 110.9579,99.043523 -3.76061,1.781527 c -0.42686,-0.77611 -0.88547,-1.552221 -1.38642,-2.317749 l 3.63008,-2.003778 c 0.55034,0.843139 1.05481,1.689806 1.51695,2.54"
       style="fill:#80cc28;fill-opacity:1;fill-rule:nonzero;stroke:none;stroke-width:0.03527778"
       id="path240"
       inkscape:connector-curvature="0" />
    <path
       d="m 107.57829,93.892968 -3.71122,1.915583 c -0.66323,-0.829028 -1.38289,-1.643944 -2.15195,-2.430639 l 2.19781,-3.386666 c 1.36878,1.227666 2.58939,2.543527 3.66536,3.901722"
       style="fill:#80cc28;fill-opacity:1;fill-rule:nonzero;stroke:none;stroke-width:0.03527778"
       id="path242"
       inkscape:connector-curvature="0" />
    <path
       d="m 101.10482,87.758162 -1.894422,3.323167 c -0.88547,-0.726722 -1.83797,-1.407583 -2.85044,-2.049639 l 1.54869,-3.22086 c 1.13242,0.596194 2.197812,1.248833 3.196172,1.947332"
       style="fill:#80cc28;fill-opacity:1;fill-rule:nonzero;stroke:none;stroke-width:0.03527778"
       id="path244"
       inkscape:connector-curvature="0" />
    <path
       d="m 148.19712,131.80952 c 0,4.52614 -3.66536,8.1915 -8.1915,8.1915 -4.52261,0 -8.18797,-3.66536 -8.18797,-8.1915 0,-4.52261 3.66536,-8.18797 8.18797,-8.18797 4.52614,0 8.1915,3.66536 8.1915,8.18797"
       style="fill:#ffffff;fill-opacity:1;fill-rule:nonzero;stroke:none;stroke-width:0.03527778"
       id="path246"
       inkscape:connector-curvature="0" />
    <path
       d="m 146.08398,131.80952 c 0,3.35845 -2.72344,6.07836 -6.07836,6.07836 -3.35139,0 -6.07483,-2.71991 -6.07483,-6.07836 0,-3.35138 2.72344,-6.0713 6.07483,-6.0713 3.35492,0 6.07836,2.71992 6.07836,6.0713"
       style="fill:#54c8f4;fill-opacity:1;fill-rule:nonzero;stroke:none;stroke-width:0.03527778"
       id="path248"
       inkscape:connector-curvature="0" />
    <path
       d="m 144.93745,131.80952 c 0,2.72345 -2.20838,4.93536 -4.93183,4.93536 -2.71992,0 -4.9283,-2.21191 -4.9283,-4.93536 0,-2.71991 2.20838,-4.9283 4.9283,-4.9283 2.72345,0 4.93183,2.20839 4.93183,4.9283"
       style="fill:#5a3114;fill-opacity:1;fill-rule:nonzero;stroke:none;stroke-width:0.03527778"
       id="path250"
       inkscape:connector-curvature="0" />
    <path
       d="m 135.70879,135.35494 c 0,0.76553 -0.62089,1.38994 -1.38642,1.38994 -0.76905,0 -1.38642,-0.62441 -1.38642,-1.38994 0,-0.762 0.61737,-1.38289 1.38642,-1.38289 0.76553,0 1.38642,0.62089 1.38642,1.38289"
       style="fill:#ffffff;fill-opacity:1;fill-rule:nonzero;stroke:none;stroke-width:0.03527778"
       id="path252"
       inkscape:connector-curvature="0" />
    <path
       d="m 144.26365,127.73494 c 0,0.762 -0.61736,1.38289 -1.38642,1.38289 -0.76553,0 -1.38289,-0.62089 -1.38289,-1.38289 0,-0.76553 0.61736,-1.38642 1.38289,-1.38642 0.76906,0 1.38642,0.62089 1.38642,1.38642"
       style="fill:#ffffff;fill-opacity:1;fill-rule:nonzero;stroke:none;stroke-width:0.03527778"
       id="path254"
       inkscape:connector-curvature="0" />
    <path
       d="m 129.04482,131.80952 c 0,4.52614 -3.66889,8.1915 -8.1915,8.1915 -4.52262,0 -8.18798,-3.66536 -8.18798,-8.1915 0,-4.52261 3.66536,-8.18797 8.18798,-8.18797 4.52261,0 8.1915,3.66536 8.1915,8.18797"
       style="fill:#ffffff;fill-opacity:1;fill-rule:nonzero;stroke:none;stroke-width:0.03527778"
       id="path256"
       inkscape:connector-curvature="0" />
    <path
       d="m 126.93168,131.80952 c 0,3.35845 -2.72345,6.07836 -6.07836,6.07836 -3.35492,0 -6.07484,-2.71991 -6.07484,-6.07836 0,-3.35138 2.71992,-6.0713 6.07484,-6.0713 3.35491,0 6.07836,2.71992 6.07836,6.0713"
       style="fill:#54c8f4;fill-opacity:1;fill-rule:nonzero;stroke:none;stroke-width:0.03527778"
       id="path258"
       inkscape:connector-curvature="0" />
    <path
       d="m 125.78515,131.80952 c 0,2.72345 -2.20839,4.93536 -4.93183,4.93536 -2.71992,0 -4.92831,-2.21191 -4.92831,-4.93536 0,-2.71991 2.20839,-4.9283 4.92831,-4.9283 2.72344,0 4.93183,2.20839 4.93183,4.9283"
       style="fill:#5a3114;fill-opacity:1;fill-rule:nonzero;stroke:none;stroke-width:0.03527778"
       id="path260"
       inkscape:connector-curvature="0" />
    <path
       d="m 116.55648,135.35494 c 0,0.76553 -0.62089,1.38994 -1.38641,1.38994 -0.76553,0 -1.38642,-0.62441 -1.38642,-1.38994 0,-0.762 0.62089,-1.38289 1.38642,-1.38289 0.76552,0 1.38641,0.62089 1.38641,1.38289"
       style="fill:#ffffff;fill-opacity:1;fill-rule:nonzero;stroke:none;stroke-width:0.03527778"
       id="path262"
       inkscape:connector-curvature="0" />
    <path
       d="m 125.11134,127.73494 c 0,0.762 -0.62089,1.38289 -1.38641,1.38289 -0.76553,0 -1.38289,-0.62089 -1.38289,-1.38289 0,-0.76553 0.61736,-1.38642 1.38289,-1.38642 0.76552,0 1.38641,0.62089 1.38641,1.38642"
       style="fill:#ffffff;fill-opacity:1;fill-rule:nonzero;stroke:none;stroke-width:0.03527778"
       id="path264"
       inkscape:connector-curvature="0" />
    <path
       d="m 107.06323,131.80952 c 0,4.52614 -3.66536,8.1915 -8.187972,8.1915 -4.52614,0 -8.19503,-3.66536 -8.19503,-8.1915 0,-4.52261 3.66889,-8.18797 8.19503,-8.18797 4.522612,0 8.187972,3.66536 8.187972,8.18797"
       style="fill:#ffffff;fill-opacity:1;fill-rule:nonzero;stroke:none;stroke-width:0.03527778"
       id="path266"
       inkscape:connector-curvature="0" />
    <path
       d="m 104.95009,131.80952 c 0,3.35845 -2.71991,6.07836 -6.074832,6.07836 -3.35492,0 -6.07836,-2.71991 -6.07836,-6.07836 0,-3.35138 2.72344,-6.0713 6.07836,-6.0713 3.354922,0 6.074832,2.71992 6.074832,6.0713"
       style="fill:#54c8f4;fill-opacity:1;fill-rule:nonzero;stroke:none;stroke-width:0.03527778"
       id="path268"
       inkscape:connector-curvature="0" />
    <path
       d="m 103.80357,131.80952 c 0,2.72345 -2.20839,4.93536 -4.928312,4.93536 -2.72344,0 -4.93183,-2.21191 -4.93183,-4.93536 0,-2.71991 2.20839,-4.9283 4.93183,-4.9283 2.719922,0 4.928312,2.20839 4.928312,4.9283"
       style="fill:#5a3114;fill-opacity:1;fill-rule:nonzero;stroke:none;stroke-width:0.03527778"
       id="path270"
       inkscape:connector-curvature="0" />
    <path
       d="m 94.574898,135.35494 c 0,0.76553 -0.62089,1.38994 -1.38642,1.38994 -0.76552,0 -1.38641,-0.62441 -1.38641,-1.38994 0,-0.762 0.62089,-1.38289 1.38641,-1.38289 0.76553,0 1.38642,0.62089 1.38642,1.38289"
       style="fill:#ffffff;fill-opacity:1;fill-rule:nonzero;stroke:none;stroke-width:0.03527778"
       id="path272"
       inkscape:connector-curvature="0" />
    <path
       d="m 103.12976,127.73494 c 0,0.762 -0.61736,1.38289 -1.38642,1.38289 -0.76552,0 -1.38641,-0.62089 -1.38641,-1.38289 0,-0.76553 0.62089,-1.38642 1.38641,-1.38642 0.76906,0 1.38642,0.62089 1.38642,1.38642"
       style="fill:#ffffff;fill-opacity:1;fill-rule:nonzero;stroke:none;stroke-width:0.03527778"
       id="path274"
       inkscape:connector-curvature="0" />
    <path
       d="m 120.7122,157.03313 h -0.16227 c -8.83003,-0.0317 -14.48153,-2.86102 -17.6777,-5.23875 -3.503082,-2.60702 -4.868332,-5.18936 -4.921252,-5.30225 l 0.76553,-0.39863 c 0.0141,0.0247 1.351142,2.54705 4.713112,5.04119 3.09386,2.28953 8.59014,5.02003 17.20145,5.03414 16.52411,-0.0282 21.86163,-9.97303 21.91102,-10.07533 l 0.76906,0.39863 c -0.0565,0.11289 -1.41817,2.69523 -4.92125,5.30225 -3.19617,2.37773 -8.84767,5.207 -17.6777,5.23875 v 0"
       style="fill:#271325;fill-opacity:1;fill-rule:nonzero;stroke:none;stroke-width:0.03527778"
       id="path276"
       inkscape:connector-curvature="0" />
    <path
       d="m 137.45504,145.27152 c 0.82197,-0.33161 1.71803,-0.46919 2.61761,-0.46919 0.89958,0.0106 1.82739,0.17992 2.67053,0.62089 0.83961,0.43744 1.54869,1.1818 1.905,2.04258 0.36688,0.86783 0.42686,1.80622 0.27163,2.67406 -0.20461,-0.86431 -0.45155,-1.6757 -0.87841,-2.36361 -0.41628,-0.68792 -1.00189,-1.22062 -1.70039,-1.58398 -0.70203,-0.37041 -1.49578,-0.58561 -2.32481,-0.71614 -0.8255,-0.13052 -1.67922,-0.17991 -2.56116,-0.20461"
       style="fill:#271325;fill-opacity:1;fill-rule:nonzero;stroke:none;stroke-width:0.03527778"
       id="path278"
       inkscape:connector-curvature="0" />
    <path
       d="m 103.83179,145.27152 c -0.88195,0.0247 -1.73567,0.0741 -2.5647,0.20461 -0.81844,0.13053 -1.619252,0.34573 -2.317752,0.71614 -0.70202,0.36336 -1.28763,0.89606 -1.70391,1.58398 -0.42686,0.68791 -0.67381,1.4993 -0.87489,2.36361 -0.15875,-0.86784 -0.0952,-1.80623 0.26458,-2.67053 0.35984,-0.86431 1.06892,-1.60867 1.91206,-2.04258 0.83961,-0.4445 1.767412,-0.61384 2.667002,-0.62442 0.90311,0 1.79564,0.13758 2.61761,0.46919"
       style="fill:#271325;fill-opacity:1;fill-rule:nonzero;stroke:none;stroke-width:0.03527778"
       id="path280"
       inkscape:connector-curvature="0" />
    <path
       d="m 114.24932,162.26836 c 0.86077,0.41275 1.72508,0.762 2.59644,1.02658 0.87489,0.27164 1.76036,0.44803 2.65289,0.48683 0.88547,0.0318 1.77447,-0.067 2.63172,-0.33514 0.86078,-0.25752 1.68275,-0.68438 2.5012,-1.17827 -0.57503,0.762 -1.35467,1.39347 -2.25425,1.81327 -0.90312,0.42334 -1.92264,0.61031 -2.91748,0.56445 -0.99836,-0.0459 -1.97202,-0.30339 -2.8575,-0.71614 -0.88194,-0.41628 -1.70039,-0.95956 -2.35302,-1.66158"
       style="fill:#271325;fill-opacity:1;fill-rule:nonzero;stroke:none;stroke-width:0.03527778"
       id="path282"
       inkscape:connector-curvature="0" />
    <path
       d="m 145.07151,146.29811 c 0.0388,-0.62089 0.0811,-1.22061 0.0459,-1.79917 -0.0388,-0.56797 -0.17639,-1.143 -0.52564,-1.40053 -0.16933,-0.127 -0.41628,-0.20108 -0.68439,-0.2293 -0.27164,-0.0282 -0.56444,-0.0247 -0.86077,-0.007 -0.59267,0.0247 -1.2065,0.1023 -1.83092,0.0741 0.57503,-0.23284 1.14653,-0.43745 1.76389,-0.57503 0.31044,-0.0635 0.62794,-0.10936 0.96661,-0.10231 0.33161,0.0106 0.70908,0.0811 1.03364,0.32103 0.32455,0.24342 0.50094,0.5962 0.58561,0.92781 0.0847,0.33866 0.0953,0.67733 0.0635,0.99836 -0.0635,0.64205 -0.254,1.24883 -0.55739,1.79211"
       style="fill:#271325;fill-opacity:1;fill-rule:nonzero;stroke:none;stroke-width:0.03527778"
       id="path284"
       inkscape:connector-curvature="0" />
    <path
       d="m 93.809368,146.29811 c -0.30691,-0.54328 -0.49741,-1.15006 -0.56091,-1.79211 -0.0282,-0.32103 -0.0212,-0.6597 0.0635,-0.99837 0.0882,-0.33161 0.26458,-0.68438 0.58913,-0.9278 0.32456,-0.23989 0.6985,-0.31045 1.03364,-0.32103 0.33867,-0.007 0.65617,0.0388 0.96309,0.10231 0.62089,0.13758 1.19239,0.34219 1.77094,0.57502 -0.62794,0.0282 -1.2453,-0.0494 -1.83444,-0.0741 -0.29634,-0.0177 -0.58914,-0.0212 -0.86078,0.007 -0.27164,0.0282 -0.51506,0.10231 -0.68439,0.22931 -0.34925,0.25753 -0.49036,0.83255 -0.52211,1.40053 -0.0388,0.57855 0.004,1.17827 0.0423,1.79916"
       style="fill:#271325;fill-opacity:1;fill-rule:nonzero;stroke:none;stroke-width:0.03527778"
       id="path286"
       inkscape:connector-curvature="0" />
  </g>
</svg>
