<?xml version="1.0" encoding="UTF-8" standalone="no"?>
<!-- Created with Inkscape (http://www.inkscape.org/) -->

<svg
   xmlns:dc="http://purl.org/dc/elements/1.1/"
   xmlns:cc="http://creativecommons.org/ns#"
   xmlns:rdf="http://www.w3.org/1999/02/22-rdf-syntax-ns#"
   xmlns:svg="http://www.w3.org/2000/svg"
   xmlns="http://www.w3.org/2000/svg"
   xmlns:sodipodi="http://sodipodi.sourceforge.net/DTD/sodipodi-0.dtd"
   xmlns:inkscape="http://www.inkscape.org/namespaces/inkscape"
   width="91.021248mm"
   height="112.05499mm"
   viewBox="0 0 91.021248 112.05499"
   version="1.1"
   id="svg6101"
   inkscape:version="0.92.2 5c3e80d, 2017-08-06"
   sodipodi:docname="monster14.svg">
  <defs
     id="defs6095" />
  <sodipodi:namedview
     id="base"
     pagecolor="#ffffff"
     bordercolor="#666666"
     borderopacity="1.0"
     inkscape:pageopacity="0.0"
     inkscape:pageshadow="2"
     inkscape:zoom="0.35"
     inkscape:cx="154.8658"
     inkscape:cy="166.04317"
     inkscape:document-units="mm"
     inkscape:current-layer="layer1"
     showgrid="false"
     inkscape:window-width="1920"
     inkscape:window-height="1016"
     inkscape:window-x="1920"
     inkscape:window-y="27"
     inkscape:window-maximized="1" />
  <metadata
     id="metadata6098">
    <rdf:RDF>
      <cc:Work
         rdf:about="">
        <dc:format>image/svg+xml</dc:format>
        <dc:type
           rdf:resource="http://purl.org/dc/dcmitype/StillImage" />
        <dc:title></dc:title>
      </cc:Work>
    </rdf:RDF>
  </metadata>
  <g
     inkscape:label="Calque 1"
     inkscape:groupmode="layer"
     id="layer1"
     transform="translate(-64.858423,-80.710601)">
    <path
       d="M 99.996148,101.85476 C 97.403231,96.647764 90.890953,86.956959 78.201536,86.731181 l 2.226028,-2.067278 c 13.910028,0.239889 20.397616,11.860389 22.433136,16.485307 l -2.864552,0.70555"
       style="fill:#94d335;fill-opacity:1;fill-rule:nonzero;stroke:none;stroke-width:0.03527778"
       id="path2262"
       inkscape:connector-curvature="0" />
    <path
       d="m 83.327397,83.944237 c -0.564444,-2.282472 -2.871611,-3.672417 -5.150555,-3.107972 -2.281414,0.567972 -3.672064,2.868083 -3.107267,5.150555 0.563739,2.278944 2.870906,3.672416 5.14985,3.107972 2.278945,-0.564444 3.672417,-2.871611 3.107972,-5.150555"
       style="fill:#431b0e;fill-opacity:1;fill-rule:nonzero;stroke:none;stroke-width:0.03527778"
       id="path2264"
       inkscape:connector-curvature="0" />
    <path
       d="m 102.27509,99.868625 -2.772832,1.008945 c -0.296333,-0.55033 -0.631473,-1.132417 -1.005416,-1.739195 l 2.786948,-1.128889 c 0.381,0.663222 0.70908,1.287639 0.9913,1.859139"
       style="fill:#57c6c1;fill-opacity:1;fill-rule:nonzero;stroke:none;stroke-width:0.03527778"
       id="path2266"
       inkscape:connector-curvature="0" />
    <path
       d="m 100.26426,96.347903 -2.719918,1.337028 c -0.33514,-0.479778 -0.691444,-0.970139 -1.072444,-1.456973 l 2.451804,-1.781527 c 0.490363,0.642055 0.934863,1.280583 1.340558,1.901472"
       style="fill:#57c6c1;fill-opacity:1;fill-rule:nonzero;stroke:none;stroke-width:0.03527778"
       id="path2268"
       inkscape:connector-curvature="0" />
    <path
       d="m 97.258592,92.456764 -2.356557,1.919111 c -0.44097,-0.472722 -0.906637,-0.941917 -1.397,-1.404056 l 2.229557,-2.06375 c 0.53975,0.504473 1.04775,1.019528 1.524,1.548695"
       style="fill:#57c6c1;fill-opacity:1;fill-rule:nonzero;stroke:none;stroke-width:0.03527778"
       id="path2270"
       inkscape:connector-curvature="0" />
    <path
       d="m 93.949535,89.38407 -2.303637,2.014361 c -0.617362,-0.47625 -1.270001,-0.924278 -1.961445,-1.351139 l 0.970139,-2.794 c 1.192389,0.631472 2.289526,1.351139 3.294943,2.130778"
       style="fill:#57c6c1;fill-opacity:1;fill-rule:nonzero;stroke:none;stroke-width:0.03527778"
       id="path2272"
       inkscape:connector-curvature="0" />
    <path
       d="m 88.262758,86.159681 -0.762,2.69875 c -0.754944,-0.363361 -1.55575,-0.677333 -2.388305,-0.956028 l 0.532694,-2.568222 c 0.913695,0.225778 1.785056,0.504472 2.617611,0.8255"
       style="fill:#57c6c1;fill-opacity:1;fill-rule:nonzero;stroke:none;stroke-width:0.03527778"
       id="path2274"
       inkscape:connector-curvature="0" />
    <path
       d="m 120.74301,101.85476 c 2.58939,-5.206996 9.10167,-14.897801 21.79461,-15.123579 l -2.22603,-2.067278 c -13.91003,0.239889 -20.40114,11.860389 -22.43314,16.485307 l 2.86456,0.70555"
       style="fill:#94d335;fill-opacity:1;fill-rule:nonzero;stroke:none;stroke-width:0.03527778"
       id="path2276"
       inkscape:connector-curvature="0" />
    <path
       d="m 137.41176,83.944237 c 0.56444,-2.282472 2.87161,-3.672417 5.15055,-3.107972 2.28248,0.567972 3.67242,2.868083 3.10798,5.150555 -0.56445,2.278944 -2.87161,3.672416 -5.15056,3.107972 -2.28247,-0.564444 -3.67242,-2.871611 -3.10797,-5.150555"
       style="fill:#431b0e;fill-opacity:1;fill-rule:nonzero;stroke:none;stroke-width:0.03527778"
       id="path2278"
       inkscape:connector-curvature="0" />
    <path
       d="m 118.46406,99.868625 2.77284,1.008945 c 0.29986,-0.55033 0.63147,-1.132417 1.00541,-1.739195 l -2.78694,-1.128889 c -0.381,0.663222 -0.70908,1.287639 -0.99131,1.859139"
       style="fill:#57c6c1;fill-opacity:1;fill-rule:nonzero;stroke:none;stroke-width:0.03527778"
       id="path2280"
       inkscape:connector-curvature="0" />
    <path
       d="m 120.4749,96.347903 2.71991,1.337028 c 0.33514,-0.479778 0.69145,-0.970139 1.07245,-1.456973 l -2.45181,-1.781527 c -0.49036,0.642055 -0.93486,1.280583 -1.34055,1.901472"
       style="fill:#57c6c1;fill-opacity:1;fill-rule:nonzero;stroke:none;stroke-width:0.03527778"
       id="path2282"
       inkscape:connector-curvature="0" />
    <path
       d="m 123.48056,92.456764 2.36009,1.919111 c 0.43744,-0.472722 0.90311,-0.941917 1.39347,-1.404056 l -2.22956,-2.06375 c -0.53975,0.504473 -1.04775,1.019528 -1.524,1.548695"
       style="fill:#57c6c1;fill-opacity:1;fill-rule:nonzero;stroke:none;stroke-width:0.03527778"
       id="path2284"
       inkscape:connector-curvature="0" />
    <path
       d="m 126.78962,89.38407 2.30364,2.014361 c 0.61736,-0.47625 1.27,-0.924278 1.95792,-1.351139 l -0.97014,-2.794 c -1.18886,0.631472 -2.286,1.351139 -3.29142,2.130778"
       style="fill:#57c6c1;fill-opacity:1;fill-rule:nonzero;stroke:none;stroke-width:0.03527778"
       id="path2286"
       inkscape:connector-curvature="0" />
    <path
       d="m 132.4764,86.159681 0.762,2.69875 c 0.75494,-0.363361 1.55575,-0.677333 2.38478,-0.956028 l -0.5327,-2.568222 c -0.91017,0.225778 -1.78153,0.504472 -2.61408,0.8255"
       style="fill:#57c6c1;fill-opacity:1;fill-rule:nonzero;stroke:none;stroke-width:0.03527778"
       id="path2288"
       inkscape:connector-curvature="0" />
    <path
       d="m 155.87967,126.5739 c -4.43088,-3.03036 -14.92955,0.93133 -13.29619,11.46175 1.18181,7.62706 -1.82033,8.30086 -3.57011,8.09625 l -2.09903,-24.92728 c 0,-31.224356 -50.507193,-31.894634 -50.507193,0 l -1.770944,25.00136 c -2.0955,0.20814 -5.87375,-0.4198 -4.494389,-8.17033 1.876778,-10.53042 -10.188222,-14.49211 -15.283391,-11.46175 0,0 8.044744,0.93133 7.509228,6.53345 -0.524228,5.47158 -6.326717,25.91858 11.294885,26.84286 l -1.915583,27.00866 c 0,0 -1.866194,5.80672 9.824862,5.80672 9.031115,0 8.445505,-20.77861 8.445505,-20.77861 l 25.92211,0.37042 c 0,0 -0.69145,20.40819 7.92338,20.40819 9.89542,0 8.58662,-5.78908 8.58662,-5.78908 l -2.29659,-27.29794 c 15.27528,-0.93486 9.652,-21.10317 9.19692,-26.57122 -0.4692,-5.60212 6.52991,-6.53345 6.52991,-6.53345"
       style="fill:#94d335;fill-opacity:1;fill-rule:nonzero;stroke:none;stroke-width:0.03527778"
       id="path2290"
       inkscape:connector-curvature="0" />
    <path
       d="m 111.30973,119.9946 c 0,1.778 -1.44286,3.22086 -3.22086,3.22086 -1.78153,0 -3.22439,-1.44286 -3.22439,-3.22086 0,-1.78153 1.44286,-3.22087 3.22439,-3.22087 1.778,0 3.22086,1.43934 3.22086,3.22087"
       style="fill:#6ec732;fill-opacity:1;fill-rule:nonzero;stroke:none;stroke-width:0.03527778"
       id="path2292"
       inkscape:connector-curvature="0" />
    <path
       d="m 125.47729,162.04571 c 0,1.77447 -1.44286,3.22086 -3.22439,3.22086 -1.78153,0 -3.22086,-1.44639 -3.22086,-3.22086 0,-1.78153 1.43933,-3.22439 3.22086,-3.22439 1.78153,0 3.22439,1.44286 3.22439,3.22439"
       style="fill:#6ec732;fill-opacity:1;fill-rule:nonzero;stroke:none;stroke-width:0.03527778"
       id="path2294"
       inkscape:connector-curvature="0" />
    <path
       d="m 95.381815,121.96662 c 0,1.78153 -1.439334,3.22086 -3.220863,3.22086 -1.777999,0 -3.224388,-1.43933 -3.224388,-3.22086 0,-1.78152 1.446389,-3.22086 3.224388,-3.22086 1.781529,0 3.220863,1.43934 3.220863,3.22086"
       style="fill:#6ec732;fill-opacity:1;fill-rule:nonzero;stroke:none;stroke-width:0.03527778"
       id="path2296"
       inkscape:connector-curvature="0" />
    <path
       d="m 102.07754,144.49854 c 0,2.74108 -2.218975,4.96005 -4.960059,4.96005 -2.737556,0 -4.956529,-2.21897 -4.956529,-4.96005 0,-2.74108 2.218973,-4.96006 4.956529,-4.96006 2.741084,0 4.960059,2.21898 4.960059,4.96006"
       style="fill:#6ec732;fill-opacity:1;fill-rule:nonzero;stroke:none;stroke-width:0.03527778"
       id="path2298"
       inkscape:connector-curvature="0" />
    <path
       d="m 125.29031,133.90462 c 0,2.73756 -2.21897,4.95653 -4.96005,4.95653 -2.73756,0 -4.95653,-2.21897 -4.95653,-4.95653 0,-2.73755 2.21897,-4.96005 4.95653,-4.96005 2.74108,0 4.96005,2.2225 4.96005,4.96005"
       style="fill:#6ec732;fill-opacity:1;fill-rule:nonzero;stroke:none;stroke-width:0.03527778"
       id="path2300"
       inkscape:connector-curvature="0" />
    <path
       d="m 127.55868,105.81646 c 0,2.73755 -2.21898,4.95653 -4.95653,4.95653 -2.73756,0 -4.96006,-2.21898 -4.96006,-4.95653 0,-2.73756 2.2225,-4.96006 4.96006,-4.96006 2.73755,0 4.95653,2.2225 4.95653,4.96006"
       style="fill:#6ec732;fill-opacity:1;fill-rule:nonzero;stroke:none;stroke-width:0.03527778"
       id="path2302"
       inkscape:connector-curvature="0" />
    <path
       d="m 115.06682,165.89451 c 0,2.74108 -2.21545,4.96358 -4.95653,4.96358 -2.73756,0 -4.95653,-2.2225 -4.95653,-4.96358 0,-2.73755 2.21897,-4.95653 4.95653,-4.95653 2.74108,0 4.95653,2.21898 4.95653,4.95653"
       style="fill:#6ec732;fill-opacity:1;fill-rule:nonzero;stroke:none;stroke-width:0.03527778"
       id="path2304"
       inkscape:connector-curvature="0" />
    <path
       d="m 113.0454,104.0314 c 0,2.73756 -2.21897,4.95653 -4.96006,4.95653 -2.73402,0 -4.95652,-2.21897 -4.95652,-4.95653 0,-2.74108 2.2225,-4.956525 4.95652,-4.956525 2.74109,0 4.96006,2.215445 4.96006,4.956525"
       style="fill:#6ec732;fill-opacity:1;fill-rule:nonzero;stroke:none;stroke-width:0.03527778"
       id="path2306"
       inkscape:connector-curvature="0" />
    <path
       d="m 145.75143,144.49854 c -2.73756,0 -4.96006,2.2225 -4.96006,4.96005 0,2.73756 2.2225,4.96006 4.96006,4.96006 1.778,0 3.33022,-0.93839 4.20511,-2.34597 0.33161,-1.13947 0.54327,-2.3495 0.65616,-3.59128 -0.45508,-2.27189 -2.45886,-3.98286 -4.86127,-3.98286"
       style="fill:#6ec732;fill-opacity:1;fill-rule:nonzero;stroke:none;stroke-width:0.03527778"
       id="path2308"
       inkscape:connector-curvature="0" />
    <path
       d="m 140.67495,165.90157 c -1.72155,0.067 -3.10444,1.47461 -3.10444,3.21733 0,1.78153 1.44286,3.22439 3.22086,3.22439 0.14464,0 0.28575,-0.0141 0.42686,-0.0353 l -0.54328,-6.40644"
       style="fill:#6ec732;fill-opacity:1;fill-rule:nonzero;stroke:none;stroke-width:0.03527778"
       id="path2310"
       inkscape:connector-curvature="0" />
    <path
       d="m 134.39551,177.65965 c 0,-2.73756 -2.21897,-4.95653 -4.95653,-4.95653 -1.3723,0 -2.61055,0.55386 -3.51014,1.44992 0.0247,1.76036 0.14464,4.58258 0.59267,7.51417 0.81844,0.59619 1.82739,0.9525 2.91747,0.9525 2.73756,0 4.95653,-2.21898 4.95653,-4.96006"
       style="fill:#6ec732;fill-opacity:1;fill-rule:nonzero;stroke:none;stroke-width:0.03527778"
       id="path2312"
       inkscape:connector-curvature="0" />
    <path
       d="m 99.664535,170.85809 c 0,2.73756 -2.21897,4.95653 -4.956527,4.95653 -2.741083,0 -4.960055,-2.21897 -4.960055,-4.95653 0,-2.73755 2.218972,-4.96358 4.960055,-4.96358 2.737557,0 4.956527,2.22603 4.956527,4.96358"
       style="fill:#6ec732;fill-opacity:1;fill-rule:nonzero;stroke:none;stroke-width:0.03527778"
       id="path2314"
       inkscape:connector-curvature="0" />
    <path
       d="m 84.600925,183.7874 c 0,-1.77094 -0.931333,-3.31964 -2.331861,-4.19806 l -0.522111,7.36953 c 0,0 -0.183444,0.5715 -0.07408,1.35467 1.725083,-0.77611 2.928055,-2.50825 2.928055,-4.52614"
       style="fill:#6ec732;fill-opacity:1;fill-rule:nonzero;stroke:none;stroke-width:0.03527778"
       id="path2316"
       inkscape:connector-curvature="0" />
    <path
       d="m 71.057081,144.01523 c -0.103011,3.30906 0.237067,6.75217 1.635478,9.59203 1.878541,-0.70908 3.215922,-2.5153 3.215922,-4.63903 0,-2.70227 -2.162175,-4.89302 -4.8514,-4.953"
       style="fill:#6ec732;fill-opacity:1;fill-rule:nonzero;stroke:none;stroke-width:0.03527778"
       id="path2318"
       inkscape:connector-curvature="0" />
    <path
       d="m 86.572953,137.56293 c -0.479778,0 -0.938389,0.11289 -1.347611,0.29986 l -0.398639,5.63033 c 0.504472,0.32456 1.104194,0.51859 1.74625,0.51859 1.781528,0 3.224389,-1.44286 3.224389,-3.22439 0,-1.778 -1.442861,-3.22439 -3.224389,-3.22439"
       style="fill:#6ec732;fill-opacity:1;fill-rule:nonzero;stroke:none;stroke-width:0.03527778"
       id="path2320"
       inkscape:connector-curvature="0" />
    <path
       d="m 137.03076,122.60515 -0.11642,-1.40053 c 0,-1.42522 -0.10936,-2.78341 -0.31044,-4.08164 -0.43745,-0.22225 -0.92781,-0.34925 -1.45345,-0.34925 -1.778,0 -3.22086,1.43934 -3.22086,3.22087 0,1.778 1.44286,3.22086 3.22086,3.22086 0.70556,0 1.35114,-0.22578 1.88031,-0.61031"
       style="fill:#6ec732;fill-opacity:1;fill-rule:nonzero;stroke:none;stroke-width:0.03527778"
       id="path2322"
       inkscape:connector-curvature="0" />
    <path
       d="m 133.40773,124.17501 c -1.95439,5.19289 -7.75405,7.81403 -12.95047,5.86317 -5.19289,-1.95792 -7.82108,-7.75053 -5.86669,-12.95047 1.95791,-5.19289 7.75405,-7.82109 12.95047,-5.86317 5.19289,1.95439 7.82108,7.747 5.86669,12.95047"
       style="fill:#ffffff;fill-opacity:1;fill-rule:nonzero;stroke:none;stroke-width:0.03527778"
       id="path2324"
       inkscape:connector-curvature="0" />
    <path
       d="m 130.98062,123.25779 c -1.45344,3.85233 -5.75381,5.80319 -9.60614,4.34975 -3.85586,-1.44992 -5.80319,-5.75028 -4.3568,-9.60261 1.45344,-3.85586 5.7538,-5.80319 9.60613,-4.35328 3.85587,1.44992 5.80673,5.74675 4.35681,9.60614"
       style="fill:#54c8f4;fill-opacity:1;fill-rule:nonzero;stroke:none;stroke-width:0.03527778"
       id="path2326"
       inkscape:connector-curvature="0" />
    <path
       d="m 129.66476,122.76037 c -1.17828,3.12914 -4.66725,4.70959 -7.79639,3.53131 -3.12914,-1.17475 -4.70958,-4.66372 -3.53131,-7.79286 1.17828,-3.12561 4.66725,-4.70959 7.79287,-3.53131 3.12913,1.17475 4.70958,4.66725 3.53483,7.79286"
       style="fill:#5a3114;fill-opacity:1;fill-rule:nonzero;stroke:none;stroke-width:0.03527778"
       id="path2328"
       inkscape:connector-curvature="0" />
    <path
       d="m 117.5292,122.84504 c -0.33161,0.87489 -1.31233,1.31939 -2.19427,0.99131 -0.87842,-0.33162 -1.31939,-1.31587 -0.99131,-2.19428 0.33161,-0.87842 1.31233,-1.32292 2.19075,-0.99484 0.88195,0.33514 1.32292,1.31234 0.99483,2.19781"
       style="fill:#ffffff;fill-opacity:1;fill-rule:nonzero;stroke:none;stroke-width:0.03527778"
       id="path2330"
       inkscape:connector-curvature="0" />
    <path
       d="m 130.65254,117.78621 c -0.33161,0.87841 -1.31234,1.32291 -2.19075,0.9913 -0.87842,-0.33161 -1.32292,-1.30528 -0.99484,-2.19075 0.33161,-0.87489 1.31234,-1.32291 2.19075,-0.9913 0.88195,0.33161 1.32645,1.31233 0.99484,2.19075"
       style="fill:#ffffff;fill-opacity:1;fill-rule:nonzero;stroke:none;stroke-width:0.03527778"
       id="path2332"
       inkscape:connector-curvature="0" />
    <path
       d="m 109.62345,118.28715 c 1.2947,5.3975 -2.032,10.8197 -7.4295,12.11792 -5.401025,1.29469 -10.826748,-2.032 -12.121442,-7.4295 -1.294694,-5.3975 2.032,-10.82675 7.4295,-12.11792 5.397502,-1.30175 10.823222,2.02847 12.121442,7.4295"
       style="fill:#ffffff;fill-opacity:1;fill-rule:nonzero;stroke:none;stroke-width:0.03527778"
       id="path2334"
       inkscape:connector-curvature="0" />
    <path
       d="m 107.09757,118.8904 c 0.96308,4.00403 -1.50637,8.02922 -5.51039,8.99231 -4.004032,0.95955 -8.029228,-1.50989 -8.992312,-5.51039 -0.959553,-4.01109 1.506363,-8.03275 5.51039,-8.99231 4.007562,-0.95955 8.032752,1.50636 8.992312,5.51039"
       style="fill:#54c8f4;fill-opacity:1;fill-rule:nonzero;stroke:none;stroke-width:0.03527778"
       id="path2336"
       inkscape:connector-curvature="0" />
    <path
       d="m 105.72879,119.21848 c 0.78316,3.24909 -1.22061,6.51581 -4.4697,7.29545 -3.249082,0.77611 -6.515805,-1.22414 -7.295442,-4.4697 -0.77964,-3.25261 1.22061,-6.51933 4.47322,-7.29897 3.249082,-0.77964 6.515812,1.22414 7.291922,4.47322"
       style="fill:#5a3114;fill-opacity:1;fill-rule:nonzero;stroke:none;stroke-width:0.03527778"
       id="path2338"
       inkscape:connector-curvature="0" />
    <path
       d="m 95.727535,126.08707 c 0.22225,0.91722 -0.338667,1.83444 -1.255887,2.05316 -0.910167,0.21873 -1.830917,-0.34572 -2.04964,-1.25941 -0.218723,-0.91017 0.342194,-1.82739 1.25589,-2.04964 0.91722,-0.2152 1.834444,0.34572 2.049637,1.25589"
       style="fill:#ffffff;fill-opacity:1;fill-rule:nonzero;stroke:none;stroke-width:0.03527778"
       id="path2340"
       inkscape:connector-curvature="0" />
    <path
       d="m 103.76029,114.54418 c 0.21872,0.91369 -0.3422,1.83092 -1.25942,2.04964 -0.91017,0.21872 -1.83092,-0.33867 -2.04964,-1.25589 -0.21872,-0.9137 0.34572,-1.83092 1.25589,-2.04964 0.9137,-0.21872 1.83445,0.34219 2.05317,1.25589"
       style="fill:#ffffff;fill-opacity:1;fill-rule:nonzero;stroke:none;stroke-width:0.03527778"
       id="path2342"
       inkscape:connector-curvature="0" />
    <path
       d="m 123.52643,129.97468 c -5.13998,0 -9.32745,-4.18395 -9.32745,-9.32745 0,-5.13997 4.18747,-9.32391 9.32745,-9.32391 5.1435,0 9.32744,4.18394 9.32744,9.32391 0,5.1435 -4.18394,9.32745 -9.32744,9.32745 z m -23.770172,0 c -5.139973,0 -9.327444,-4.18395 -9.327444,-9.32745 0,-5.13997 4.187471,-9.32391 9.327444,-9.32391 5.143502,0 9.327442,4.18394 9.327442,9.32391 0,5.1435 -4.18394,9.32745 -9.327442,9.32745 z m 31.912282,-15.9632 c 0,0 0.0317,0.0459 0.0741,0.11642 -1.92617,-2.42358 -4.8895,-3.97933 -8.2162,-3.97933 -5.27403,0 -9.63789,3.91583 -10.37872,8.9923 -0.4198,0.62442 -0.80786,1.16064 -1.50636,1.16064 -0.69497,0 -1.08303,-0.53622 -1.50989,-1.16064 -0.7373,-5.07647 -5.10117,-8.9923 -10.375195,-8.9923 -3.326693,0 -6.290027,1.55575 -8.212666,3.97933 0.04233,-0.0705 0.07408,-0.11642 0.07408,-0.11642 -1.55575,1.55223 -5.898444,9.18281 -4.3815,12.92578 1.407583,3.48192 11.743973,4.20864 11.743973,4.20864 0,0 -0.05292,-0.0141 -0.13053,-0.0388 0.299863,0.0247 0.599724,0.0388 0.90664,0.0388 5.108228,0 9.362728,-3.66536 10.297588,-8.50547 0.49741,0.36336 0.98072,0.58208 1.59455,0.58208 0.89959,0 1.08303,-0.21872 1.58397,-0.58208 0.93134,4.84011 5.18584,8.50547 10.29406,8.50547 0.30692,0 0.6103,-0.0141 0.90664,-0.0388 -0.0776,0.0247 -0.13053,0.0388 -0.13053,0.0388 0,0 10.33639,-0.72672 11.7475,-4.20864 1.51342,-3.74297 -2.82928,-11.37355 -4.3815,-12.92578"
       style="fill:#431b0e;fill-opacity:1;fill-rule:nonzero;stroke:none;stroke-width:0.03527778"
       id="path2344"
       inkscape:connector-curvature="0" />
    <path
       d="M 126.51093,97.293347 H 94.245868 c -3.940526,0 -5.270498,-0.102305 -5.489221,0.948972 -0.458611,2.070801 1.5875,8.396111 4.596695,8.791221 6.501693,0.86078 27.527248,0.86078 34.032468,0 3.01273,-0.39511 5.05531,-6.72042 4.5967,-8.791221 -0.21872,-1.051277 -1.32997,-0.948972 -5.47158,-0.948972"
       style="fill:#c1322f;fill-opacity:1;fill-rule:nonzero;stroke:none;stroke-width:0.03527778"
       id="path2346"
       inkscape:connector-curvature="0" />
    <path
       d="m 126.51093,101.29032 c 0,-8.914695 -7.22842,-16.139583 -16.13959,-16.139583 -8.91469,0 -16.139582,7.224888 -16.139582,16.139583 0,0.21872 0.0071,0.44097 0.0141,0.65617 v 0 0 c 0,1.21708 7.221362,4.64255 16.132532,4.64255 8.91116,0 16.13252,-3.42547 16.13252,-4.64255 0,-0.0282 -0.0106,-0.0494 -0.0176,-0.0741 0.0106,-0.19403 0.0176,-0.38806 0.0176,-0.58209"
       style="fill:#c1322f;fill-opacity:1;fill-rule:nonzero;stroke:none;stroke-width:0.03527778"
       id="path2348"
       inkscape:connector-curvature="0" />
    <path
       d="m 126.24634,98.394014 c -1.36525,1.456972 -7.94808,4.166306 -15.86794,4.166306 -7.94808,0 -14.548558,-2.726973 -15.882058,-4.180417 -0.169334,0.945444 -0.264584,1.915587 -0.264584,2.910417 0,0.21872 0.0071,0.44097 0.0141,0.65617 v 0 c 0,1.21708 7.221362,4.64255 16.132532,4.64255 8.91116,0 16.13252,-3.42547 16.13252,-4.64255 0,-0.0282 -0.0106,-0.0494 -0.0176,-0.0741 0.0106,-0.19403 0.0176,-0.38806 0.0176,-0.58209 0,-0.98778 -0.0952,-1.954386 -0.26458,-2.896303"
       style="fill:#431b0e;fill-opacity:1;fill-rule:nonzero;stroke:none;stroke-width:0.03527778"
       id="path2350"
       inkscape:connector-curvature="0" />
    <path
       d="m 127.9432,136.93498 c 1.36525,0.40923 2.36361,1.6757 2.36361,3.175 0,0.98778 -0.43391,1.86973 -1.1183,2.48003 -0.0847,0.0882 -0.18345,0.16581 -0.28928,0.22931 -0.53975,0.381 -1.19944,0.60678 -1.90853,0.60678 -3.26672,0 -4.42736,-1.89442 -5.23875,-3.98287 -1.59102,-4.09222 -3.64419,-6.30413 -7.06966,-6.36058 -0.8255,-0.0141 -2.24367,0.38806 -3.03742,1.82739 -0.79375,-1.43933 -2.21544,-1.8415 -3.04094,-1.82739 -3.42548,0.0565 -5.47864,2.26836 -7.06967,6.36058 -0.81139,2.08845 -1.968502,3.98287 -5.235225,3.98287 -0.71261,0 -1.368777,-0.22578 -1.908527,-0.60678 -0.10936,-0.0635 -0.20814,-0.14111 -0.292806,-0.22931 -0.684387,-0.6103 -1.114777,-1.49225 -1.114777,-2.48003 0,-1.4993 0.994833,-2.76577 2.36361,-3.175 -2.416527,0.0282 -5.079999,1.98614 -5.079999,4.39562 0,3.03741 2.335389,5.4998 6.230056,5.4998 6.611058,0 13.200948,-3.95817 15.148278,-7.45067 1.94733,3.4925 8.53369,7.45067 15.14828,7.45067 3.89114,0 6.23005,-2.46239 6.23005,-5.4998 0,-2.40948 -2.667,-4.36739 -5.08,-4.39562"
       style="fill:#431b0e;fill-opacity:1;fill-rule:nonzero;stroke:none;stroke-width:0.03527778"
       id="path2352"
       inkscape:connector-curvature="0" />
    <path
       d="m 120.13976,153.37796 c -0.74436,0 -1.67922,0.28927 -2.77636,0.8643 -1.90853,0.99131 -3.82411,1.9297 -5.16467,2.57881 -0.27164,-0.12348 -0.5715,-0.19756 -0.889,-0.19756 -0.3175,0 -0.61736,0.0741 -0.89253,0.19403 -1.33702,-0.64911 -3.25261,-1.58397 -5.15761,-2.57528 -1.10066,-0.57503 -2.03552,-0.8643 -2.77989,-0.8643 -1.03011,0 -1.52047,0.5468 -1.74977,1.00188 -0.24342,0.48684 -0.24695,0.96309 -0.24695,0.98778 v 6.91445 c 0,0.0177 0.0247,1.97908 1.99672,1.97908 0.74437,0 1.67923,-0.28928 2.77989,-0.85725 1.905,-0.99483 3.82059,-1.93322 5.16114,-2.58233 0.27517,0.12347 0.5715,0.19402 0.889,0.19402 0.3175,0 0.61736,-0.067 0.89253,-0.1905 1.33703,0.64559 3.25614,1.58398 5.16114,2.57881 1.09714,0.56797 2.032,0.85725 2.77636,0.85725 v 0 c 1.03011,0 1.52047,-0.54328 1.74978,-0.99836 0.24341,-0.48331 0.24694,-0.96308 0.24694,-0.98072 v -6.91445 c 0,-0.0247 -0.0247,-1.98966 -1.99672,-1.98966"
       style="fill:#431b0e;fill-opacity:1;fill-rule:nonzero;stroke:none;stroke-width:0.03527778"
       id="path2354"
       inkscape:connector-curvature="0" />
    <path
       d="m 121.31451,163.45682 c -0.16933,0.17639 -0.40217,0.32102 -0.71614,0.39511 l 1.17828,-3.302 v 1.61572 l -0.46214,1.29117"
       style="fill:#c1322f;fill-opacity:1;fill-rule:nonzero;stroke:none;stroke-width:0.03527778"
       id="path2356"
       inkscape:connector-curvature="0" />
    <path
       d="m 119.55415,163.84487 c -0.16934,-0.0317 -0.34572,-0.0776 -0.5327,-0.13053 l 2.7552,-7.71172 v 1.6122 l -2.2225,6.23005"
       style="fill:#c1322f;fill-opacity:1;fill-rule:nonzero;stroke:none;stroke-width:0.03527778"
       id="path2358"
       inkscape:connector-curvature="0" />
    <path
       d="m 121.36037,154.23168 -3.25967,9.12636 c -0.15875,-0.0706 -0.32455,-0.14817 -0.49036,-0.23636 l 3.29142,-9.22867 c 0.1905,0.0847 0.34219,0.20461 0.45861,0.33867"
       style="fill:#c1322f;fill-opacity:1;fill-rule:nonzero;stroke:none;stroke-width:0.03527778"
       id="path2360"
       inkscape:connector-curvature="0" />
    <path
       d="m 116.72134,162.66307 c -0.16227,-0.0811 -0.32455,-0.15875 -0.48683,-0.24695 l 3.05858,-8.55839 c 0.2152,-0.0564 0.41981,-0.0917 0.61031,-0.10583 l -3.18206,8.91117"
       style="fill:#c1322f;fill-opacity:1;fill-rule:nonzero;stroke:none;stroke-width:0.03527778"
       id="path2362"
       inkscape:connector-curvature="0" />
    <path
       d="m 118.08659,154.29165 -2.74108,7.67644 c -0.16228,-0.0811 -0.32808,-0.16227 -0.48683,-0.24341 l 2.53294,-7.09436 c 0.0459,-0.0212 0.0917,-0.0459 0.13406,-0.0706 0.19402,-0.0988 0.381,-0.18697 0.56091,-0.26811"
       style="fill:#c1322f;fill-opacity:1;fill-rule:nonzero;stroke:none;stroke-width:0.03527778"
       id="path2364"
       inkscape:connector-curvature="0" />
    <path
       d="m 109.19307,159.39282 c 0.067,0.254 0.17991,0.4833 0.32808,0.69497 l -0.33514,0.93486 c -0.22578,0.10936 -0.45861,0.22225 -0.6985,0.34219 l 0.70556,-1.97202"
       style="fill:#c1322f;fill-opacity:1;fill-rule:nonzero;stroke:none;stroke-width:0.03527778"
       id="path2366"
       inkscape:connector-curvature="0" />
    <path
       d="m 107.21398,161.99984 c -0.23283,0.11642 -0.46566,0.22931 -0.70555,0.35278 l 2.14136,-5.99369 c 0.16933,0.0811 0.33161,0.15875 0.49036,0.23989 l -1.92617,5.40102"
       style="fill:#c1322f;fill-opacity:1;fill-rule:nonzero;stroke:none;stroke-width:0.03527778"
       id="path2368"
       inkscape:connector-curvature="0" />
    <path
       d="m 113.42993,156.61998 c 0.22577,-0.10583 0.45861,-0.22225 0.6985,-0.34219 l -0.70203,1.9685 c -0.067,-0.254 -0.17992,-0.48683 -0.32808,-0.69497 l 0.33161,-0.93134"
       style="fill:#c1322f;fill-opacity:1;fill-rule:nonzero;stroke:none;stroke-width:0.03527778"
       id="path2370"
       inkscape:connector-curvature="0" />
    <path
       d="m 115.40548,155.64632 c 0.22931,-0.11995 0.46567,-0.23284 0.70203,-0.35278 l -2.14136,5.99017 c -0.16581,-0.0811 -0.33161,-0.15875 -0.49036,-0.23989 l 1.92969,-5.3975"
       style="fill:#c1322f;fill-opacity:1;fill-rule:nonzero;stroke:none;stroke-width:0.03527778"
       id="path2372"
       inkscape:connector-curvature="0" />
    <path
       d="m 110.03268,157.03979 v -0.007 c 0.004,0 0.004,0 0.004,0 0,0.004 -0.004,0.007 -0.004,0.007"
       style="fill:#c1322f;fill-opacity:1;fill-rule:nonzero;stroke:none;stroke-width:0.03527778"
       id="path2374"
       inkscape:connector-curvature="0" />
    <path
       d="m 105.89459,154.97604 c 0.16581,0.0811 0.32456,0.1658 0.48684,0.25047 l -3.05859,8.56192 c -0.21519,0.0564 -0.4198,0.0882 -0.6103,0.1023 l 3.18205,-8.91469"
       style="fill:#c1322f;fill-opacity:1;fill-rule:nonzero;stroke:none;stroke-width:0.03527778"
       id="path2376"
       inkscape:connector-curvature="0" />
    <path
       d="m 101.30143,154.18934 c 0.16933,-0.17638 0.39864,-0.32102 0.71614,-0.39511 l -1.17475,3.29142 v -1.61925 l 0.45861,-1.27706"
       style="fill:#c1322f;fill-opacity:1;fill-rule:nonzero;stroke:none;stroke-width:0.03527778"
       id="path2378"
       inkscape:connector-curvature="0" />
    <path
       d="m 103.06532,153.79776 c 0.1658,0.0317 0.34572,0.0776 0.52916,0.13406 l -2.75166,7.70466 v -1.61925 l 2.2225,-6.21947"
       style="fill:#c1322f;fill-opacity:1;fill-rule:nonzero;stroke:none;stroke-width:0.03527778"
       id="path2380"
       inkscape:connector-curvature="0" />
    <path
       d="m 101.25909,163.41096 3.25614,-9.12637 c 0.16228,0.0706 0.32456,0.1517 0.49389,0.23637 l -3.29494,9.22866 c -0.1905,-0.0882 -0.33867,-0.20461 -0.45509,-0.33866"
       style="fill:#c1322f;fill-opacity:1;fill-rule:nonzero;stroke:none;stroke-width:0.03527778"
       id="path2382"
       inkscape:connector-curvature="0" />
    <path
       d="m 104.52934,163.35451 2.74109,-7.6835 c 0.1658,0.0811 0.32808,0.16581 0.48683,0.24342 l -2.52942,7.09789 c -0.0459,0.0212 -0.0917,0.0459 -0.13758,0.0706 -0.19403,0.0988 -0.381,0.1905 -0.56092,0.27163"
       style="fill:#c1322f;fill-opacity:1;fill-rule:nonzero;stroke:none;stroke-width:0.03527778"
       id="path2384"
       inkscape:connector-curvature="0" />
    <path
       d="m 112.58326,160.60284 v 0.007 c 0,0 0,0 0,-0.007"
       style="fill:#c1322f;fill-opacity:1;fill-rule:nonzero;stroke:none;stroke-width:0.03527778"
       id="path2386"
       inkscape:connector-curvature="0" />
  </g>
</svg>
