<?xml version="1.0" encoding="UTF-8" standalone="no"?>
<!-- Created with Inkscape (http://www.inkscape.org/) -->

<svg
   xmlns:dc="http://purl.org/dc/elements/1.1/"
   xmlns:cc="http://creativecommons.org/ns#"
   xmlns:rdf="http://www.w3.org/1999/02/22-rdf-syntax-ns#"
   xmlns:svg="http://www.w3.org/2000/svg"
   xmlns="http://www.w3.org/2000/svg"
   xmlns:sodipodi="http://sodipodi.sourceforge.net/DTD/sodipodi-0.dtd"
   xmlns:inkscape="http://www.inkscape.org/namespaces/inkscape"
   width="63.956688mm"
   height="161.036mm"
   viewBox="0 0 63.956688 161.036"
   version="1.1"
   id="svg6402"
   inkscape:version="0.92.2 5c3e80d, 2017-08-06"
   sodipodi:docname="monster15.svg">
  <defs
     id="defs6396" />
  <sodipodi:namedview
     id="base"
     pagecolor="#ffffff"
     bordercolor="#666666"
     borderopacity="1.0"
     inkscape:pageopacity="0.0"
     inkscape:pageshadow="2"
     inkscape:zoom="0.35"
     inkscape:cx="129.4349"
     inkscape:cy="244.31999"
     inkscape:document-units="mm"
     inkscape:current-layer="layer1"
     showgrid="false"
     inkscape:window-width="1920"
     inkscape:window-height="1016"
     inkscape:window-x="1920"
     inkscape:window-y="27"
     inkscape:window-maximized="1" />
  <metadata
     id="metadata6399">
    <rdf:RDF>
      <cc:Work
         rdf:about="">
        <dc:format>image/svg+xml</dc:format>
        <dc:type
           rdf:resource="http://purl.org/dc/dcmitype/StillImage" />
        <dc:title></dc:title>
      </cc:Work>
    </rdf:RDF>
  </metadata>
  <g
     inkscape:label="Calque 1"
     inkscape:groupmode="layer"
     id="layer1"
     transform="translate(-71.587017,-52.440338)">
    <path
       d="m 81.359232,118.61439 c 1.623483,0.43745 3.289652,-0.49389 3.724627,-2.08491 0.433917,-1.59456 -0.529519,-3.24203 -2.153003,-3.683 -9.359194,-5.95489 -5.636683,-16.520588 -5.636683,-16.520588 l 2.890309,-10.322277 v -0.0035 l 0.232833,-0.836083 c 0.446969,-1.38289 1.617486,-3.975807 4.050241,-3.84175 4.297892,0.239887 5.724525,0.148166 5.495925,-1.50989 -0.230364,-1.658055 -4.509205,-0.52211 -4.916664,-2.204861 -0.4064,-1.686278 1.709209,-4.106333 2.760486,-4.593167 1.052336,-0.490361 1.885245,-2.723444 0.384881,-2.928055 -1.497189,-0.208139 -3.841397,3.27025 -4.899378,3.125611 -1.056216,-0.148167 2.284236,-5.743222 -0.783872,-5.61975 -3.067755,0.119918 -1.31833,5.238723 -3.136547,4.72014 -1.816805,-0.518584 -1.528939,-4.727222 -3.776133,-4.039306 -2.244019,0.687917 2.275769,5.880806 1.656997,6.491111 -0.617361,0.606778 -2.914297,-2.416528 -3.981803,-1.118305 -1.067858,1.30175 1.800578,2.688166 2.888545,4.646083 0.670278,1.199445 0.392641,2.582332 0.04198,3.781778 l -0.01023,-0.0035 -0.09278,0.345723 c -0.192264,0.613834 -0.381705,1.164167 -0.439208,1.60514 l -2.855736,10.4775 c -3.7846,13.892386 1.981552,20.450526 7.386461,23.498526 0.331611,0.2787 0.724605,0.49389 1.168752,0.61736"
       style="fill:#ee205d;fill-opacity:1;fill-rule:nonzero;stroke:none;stroke-width:0.03527778"
       id="path1846"
       inkscape:connector-curvature="0" />
    <path
       d="m 125.77184,118.61439 c -1.62243,0.43745 -3.29071,-0.49389 -3.72357,-2.08491 -0.43392,-1.59456 0.52916,-3.24203 2.15088,-3.683 9.36025,-5.95489 5.63915,-16.520588 5.63915,-16.520588 l -2.89101,-10.322277 -10e-4,-0.0035 -0.23318,-0.836083 c -0.44591,-1.38289 -1.61537,-3.975807 -4.04848,-3.84175 -4.29754,0.239887 -5.72523,0.148166 -5.49663,-1.50989 0.23142,-1.658056 4.51026,-0.52211 4.91772,-2.204861 0.4064,-1.686278 -1.71027,-4.106333 -2.76049,-4.593167 -1.05374,-0.490361 -1.88559,-2.723444 -0.38593,-2.928055 1.49683,-0.208139 3.84139,3.27025 4.89867,3.125611 1.05692,-0.148167 -2.28283,-5.743222 0.78352,-5.61975 3.06811,0.119945 1.31939,5.23875 3.1376,4.720167 1.81575,-0.518584 1.53071,-4.727222 3.77614,-4.039306 2.24472,0.687917 -2.27648,5.880806 -1.657,6.491111 0.61807,0.606778 2.91359,-2.416528 3.98074,-1.118305 1.06821,1.30175 -1.79952,2.688166 -2.88819,4.646083 -0.66887,1.199445 -0.39299,2.582332 -0.0406,3.781778 l 0.008,-0.0035 0.0956,0.345723 c 0.1898,0.613834 0.37888,1.164167 0.43745,1.60514 l 2.85467,10.4775 c 3.78637,13.892389 -1.98084,20.450529 -7.3861,23.498529 -0.3295,0.27869 -0.72285,0.49389 -1.16805,0.61736"
       style="fill:#ee205d;fill-opacity:1;fill-rule:nonzero;stroke:none;stroke-width:0.03527778"
       id="path1848"
       inkscape:connector-curvature="0" />
    <path
       d="m 114.64134,97.281921 c -4.94065,0 -9.17751,3.012719 -10.97632,7.298969 -1.80093,-4.28625 -6.037795,-7.298969 -10.978447,-7.298969 -6.570839,0 -11.8999,5.326949 -11.8999,11.899199 0,0.37394 0.01905,0.74083 0.05433,1.10772 -0.03281,0.26105 -0.05433,0.52916 -0.05433,0.79375 v 25.85508 c 0,3.02331 2.086681,5.56331 4.898672,6.26886 l 1.032933,66.76672 c 0,1.93675 0.49142,3.50308 2.428523,3.50308 1.935338,0 2.426758,-1.56633 2.426758,-3.50308 l 1.029758,-66.56916 h 7.604473 l 1.03047,66.56916 c 0,1.93675 0.48895,3.50308 2.42676,3.50308 1.93463,0 2.42711,-1.56633 2.42711,-3.50308 l 1.0294,-66.56916 h 7.62635 l 1.0287,66.56916 c 0,1.93675 0.49213,3.50308 2.42747,3.50308 1.9371,0 2.42711,-1.56633 2.42711,-3.50308 l 1.03293,-66.81964 c 2.63031,-0.74436 4.56248,-3.11149 4.68101,-5.95136 v -30.12722 c -0.99695,-5.56683 -5.85223,-9.793109 -11.70376,-9.793109"
       style="fill:#ef2c6d;fill-opacity:1;fill-rule:nonzero;stroke:none;stroke-width:0.03527778"
       id="path1850"
       inkscape:connector-curvature="0" />
    <path
       d="M 117.94475,204.40642 V 177.1367 l -1.12147,21.51239 -1.0668,-20.00956 -0.28858,11.26419 0.30868,20.06953 c 0,1.93675 0.49213,3.50308 2.42747,3.50308 1.9371,0 2.42711,-1.56633 2.42711,-3.50308 l 0.3556,-22.96936 -1.54093,15.02481 v -24.26759 l -1.50108,26.64531"
       style="fill:#ed114e;fill-opacity:1;fill-rule:nonzero;stroke:none;stroke-width:0.03527778"
       id="path1852"
       inkscape:connector-curvature="0" />
    <path
       d="M 103.38244,204.40642 V 177.1367 l -1.12218,21.51239 -1.06751,-20.00956 -0.28857,11.26419 0.31009,20.06953 c 0,1.93675 0.49142,3.50308 2.42676,3.50308 1.9371,0 2.42852,-1.56633 2.42852,-3.50308 l 0.35595,-22.96936 -1.54164,15.02481 v -24.26759 l -1.50142,26.64531"
       style="fill:#ed114e;fill-opacity:1;fill-rule:nonzero;stroke:none;stroke-width:0.03527778"
       id="path1854"
       inkscape:connector-curvature="0" />
    <path
       d="M 88.819423,204.40642 V 177.1367 l -1.122186,21.51239 -1.0668,-20.00956 -0.289278,11.26419 0.311856,20.06953 c 0,1.93675 0.489655,3.50308 2.426758,3.50308 1.935339,0 2.427816,-1.56633 2.427816,-3.50308 l 0.354895,-22.96936 -1.541639,15.02481 v -24.26759 l -1.501422,26.64531"
       style="fill:#ed114e;fill-opacity:1;fill-rule:nonzero;stroke:none;stroke-width:0.03527778"
       id="path1856"
       inkscape:connector-curvature="0" />
    <path
       d="m 121.86165,110.36998 c 0,4.0005 -3.24344,7.24252 -7.24041,7.24252 -3.99945,0 -7.24077,-3.24202 -7.24077,-7.24252 0,-4.0005 3.24132,-7.24253 7.24077,-7.24253 3.99697,0 7.24041,3.24203 7.24041,7.24253"
       style="fill:#ffffff;fill-opacity:1;fill-rule:nonzero;stroke:none;stroke-width:0.03527778"
       id="path1858"
       inkscape:connector-curvature="0" />
    <path
       d="m 119.99157,110.36998 c 0,2.96686 -2.40347,5.36927 -5.37033,5.36927 -2.96651,0 -5.37175,-2.40241 -5.37175,-5.36927 0,-2.96334 2.40524,-5.37281 5.37175,-5.37281 2.96686,0 5.37033,2.40947 5.37033,5.37281"
       style="fill:#54c8f4;fill-opacity:1;fill-rule:nonzero;stroke:none;stroke-width:0.03527778"
       id="path1860"
       inkscape:connector-curvature="0" />
    <path
       d="m 118.98016,110.36998 c 0,2.40594 -1.95333,4.36033 -4.35892,4.36033 -2.40701,0 -4.35928,-1.95439 -4.35928,-4.36033 0,-2.40595 1.95227,-4.36034 4.35928,-4.36034 2.40559,0 4.35892,1.95439 4.35892,4.36034"
       style="fill:#5a3114;fill-opacity:1;fill-rule:nonzero;stroke:none;stroke-width:0.03527778"
       id="path1862"
       inkscape:connector-curvature="0" />
    <path
       d="m 110.8197,113.50264 c 0,0.68086 -0.54751,1.22767 -1.22661,1.22767 -0.67627,0 -1.22449,-0.54681 -1.22449,-1.22767 0,-0.67733 0.54822,-1.22414 1.22449,-1.22414 0.6791,0 1.22661,0.54681 1.22661,1.22414"
       style="fill:#ffffff;fill-opacity:1;fill-rule:nonzero;stroke:none;stroke-width:0.03527778"
       id="path1864"
       inkscape:connector-curvature="0" />
    <path
       d="m 118.3829,106.76459 c 0,0.6738 -0.54645,1.22414 -1.22484,1.22414 -0.67522,0 -1.22343,-0.55034 -1.22343,-1.22414 0,-0.67734 0.54821,-1.22414 1.22343,-1.22414 0.67839,0 1.22484,0.5468 1.22484,1.22414"
       style="fill:#ffffff;fill-opacity:1;fill-rule:nonzero;stroke:none;stroke-width:0.03527778"
       id="path1866"
       inkscape:connector-curvature="0" />
    <path
       d="m 99.751653,110.36998 c 0,4.0005 -3.243439,7.24252 -7.241116,7.24252 -3.999442,0 -7.240411,-3.24202 -7.240411,-7.24252 0,-4.0005 3.240969,-7.24253 7.240411,-7.24253 3.997677,0 7.241116,3.24203 7.241116,7.24253"
       style="fill:#ffffff;fill-opacity:1;fill-rule:nonzero;stroke:none;stroke-width:0.03527778"
       id="path1868"
       inkscape:connector-curvature="0" />
    <path
       d="m 97.881578,110.36998 c 0,2.96686 -2.405239,5.36927 -5.371041,5.36927 -2.967567,0 -5.3721,-2.40241 -5.3721,-5.36927 0,-2.96334 2.404533,-5.37281 5.3721,-5.37281 2.965802,0 5.371041,2.40947 5.371041,5.37281"
       style="fill:#54c8f4;fill-opacity:1;fill-rule:nonzero;stroke:none;stroke-width:0.03527778"
       id="path1870"
       inkscape:connector-curvature="0" />
    <path
       d="m 96.870164,110.36998 c 0,2.40594 -1.95333,4.36033 -4.359627,4.36033 -2.407003,0 -4.358923,-1.95439 -4.358923,-4.36033 0,-2.40595 1.95192,-4.36034 4.358923,-4.36034 2.406297,0 4.359627,1.95439 4.359627,4.36034"
       style="fill:#5a3114;fill-opacity:1;fill-rule:nonzero;stroke:none;stroke-width:0.03527778"
       id="path1872"
       inkscape:connector-curvature="0" />
    <path
       d="m 88.708651,113.50264 c 0,0.68086 -0.547512,1.22767 -1.22555,1.22767 -0.677334,0 -1.224492,-0.54681 -1.224492,-1.22767 0,-0.67733 0.547158,-1.22414 1.224492,-1.22414 0.678038,0 1.22555,0.54681 1.22555,1.22414"
       style="fill:#ffffff;fill-opacity:1;fill-rule:nonzero;stroke:none;stroke-width:0.03527778"
       id="path1874"
       inkscape:connector-curvature="0" />
    <path
       d="m 96.272911,106.76459 c 0,0.6738 -0.546452,1.22414 -1.224844,1.22414 -0.675569,0 -1.224492,-0.55034 -1.224492,-1.22414 0,-0.67734 0.548923,-1.22414 1.224492,-1.22414 0.678392,0 1.224844,0.5468 1.224844,1.22414"
       style="fill:#ffffff;fill-opacity:1;fill-rule:nonzero;stroke:none;stroke-width:0.03527778"
       id="path1876"
       inkscape:connector-curvature="0" />
    <path
       d="m 116.15264,123.46156 c -0.096,0.41275 -0.20355,0.82197 -0.32455,1.22767 -0.24165,0.80786 -0.52176,1.60514 -0.8569,2.38125 -0.66075,1.54164 -1.52365,3.00566 -2.6229,4.2545 -0.55175,0.62441 -1.16346,1.18886 -1.8281,1.67922 -0.66569,0.49036 -1.38747,0.89605 -2.14735,1.21355 -0.76236,0.32103 -1.55611,0.55387 -2.36926,0.6985 -0.40746,0.0706 -0.81985,0.11642 -1.23155,0.1517 -0.4131,0.0282 -0.82303,0.0353 -1.24601,0.0353 -0.83961,0.007 -1.6637,-0.0459 -2.47932,-0.18697 -0.81386,-0.14464 -1.608666,-0.37747 -2.369256,-0.69145 -0.761646,-0.32455 -1.482371,-0.72672 -2.149474,-1.22061 -0.664281,-0.49036 -1.275997,-1.0548 -1.827742,-1.67922 -1.099961,-1.24883 -1.96215,-2.71286 -2.622197,-4.2545 -0.335139,-0.77611 -0.61595,-1.57339 -0.856544,-2.38125 -0.121356,-0.40569 -0.2286,-0.81492 -0.324203,-1.22767 -0.04621,-0.1905 -0.08855,-0.381 -0.126295,-0.56797 0.409928,0.57856 1.201561,1.54164 2.502606,2.51531 1.851025,1.37936 5.128683,3.01625 10.247135,3.03741 h 0.0896 v 0 c 5.11916,-0.0212 8.39505,-1.65805 10.24537,-3.03741 1.19098,-0.88548 1.95404,-1.76742 2.38901,-2.35656 -0.0282,0.13758 -0.0593,0.27517 -0.0921,0.40922"
       style="fill:#84111c;fill-opacity:1;fill-rule:nonzero;stroke:none;stroke-width:0.03527778"
       id="path1878"
       inkscape:connector-curvature="0" />
    <path
       d="m 116.06763,122.97825 c -0.44768,0.58562 -1.18322,1.40053 -2.28565,2.2225 -1.85138,1.37937 -5.12798,3.01625 -10.24643,3.03389 v 0 h -0.0903 c -5.117747,-0.0177 -8.394348,-1.65452 -10.245725,-3.03389 -1.074914,-0.8008 -1.800225,-1.59808 -2.253192,-2.18016 2.102908,3.54894 5.96265,7.82108 12.394137,7.95161 v 0.004 c 0.0522,0 0.10302,0 0.15452,0 0.0508,0 0.10231,0 0.15452,0 v -0.004 c 6.45865,-0.13053 10.32298,-4.43795 12.41813,-7.99395"
       style="fill:#ffffff;fill-opacity:1;fill-rule:nonzero;stroke:none;stroke-width:0.03527778"
       id="path1880"
       inkscape:connector-curvature="0" />
    <path
       d="m 110.16636,133.21939 c -1.78823,-1.04422 -3.92571,-1.74272 -6.4643,-1.79916 v -0.004 c -0.0533,0 -0.10478,0 -0.15699,0.004 -0.0508,-0.004 -0.1016,-0.004 -0.15557,-0.004 v 0.004 c -2.57493,0.0564 -4.737101,0.77611 -6.539091,1.84502 0.559152,0.37748 1.156758,0.69498 1.776942,0.95956 0.761648,0.31397 1.556459,0.54681 2.371369,0.69144 0.81527,0.14112 1.63795,0.19403 2.4765,0.18698 0.42369,0 0.83362,-0.007 1.24707,-0.0353 0.41346,-0.0353 0.82233,-0.0811 1.23049,-0.1517 0.81456,-0.14464 1.60867,-0.37747 2.36926,-0.6985 0.64734,-0.26458 1.26506,-0.60325 1.84432,-0.99836"
       style="fill:#f8a1b3;fill-opacity:1;fill-rule:nonzero;stroke:none;stroke-width:0.03527778"
       id="path1882"
       inkscape:connector-curvature="0" />
    <path
       d="m 113.2454,121.613 c 0.47696,-0.19402 0.99448,-0.27516 1.51695,-0.27516 0.52175,0.007 1.06045,0.10936 1.54763,0.36336 0.48578,0.254 0.89747,0.68439 1.1042,1.18886 0.21096,0.50094 0.24694,1.04069 0.15487,1.54164 -0.11924,-0.49389 -0.26212,-0.96661 -0.50941,-1.36525 -0.2406,-0.39511 -0.58103,-0.70203 -0.98425,-0.92075 -0.4057,-0.20814 -0.8689,-0.33514 -1.34479,-0.41275 -0.47943,-0.0741 -0.97367,-0.10583 -1.4852,-0.11995"
       style="fill:#4d1805;fill-opacity:1;fill-rule:nonzero;stroke:none;stroke-width:0.03527778"
       id="path1884"
       inkscape:connector-curvature="0" />
    <path
       d="m 93.7696,121.613 c -0.510822,0.0141 -1.004005,0.0459 -1.484488,0.11995 -0.47872,0.0776 -0.939095,0.20461 -1.343025,0.41275 -0.4064,0.21872 -0.745773,0.52564 -0.986367,0.92075 -0.246944,0.39864 -0.391231,0.87136 -0.509764,1.36525 -0.09208,-0.50095 -0.05574,-1.0407 0.155575,-1.54164 0.207786,-0.50447 0.617714,-0.93486 1.104195,-1.18886 0.487186,-0.254 1.027641,-0.35631 1.547636,-0.36336 0.521758,0 1.039988,0.0811 1.516238,0.27516"
       style="fill:#4d1805;fill-opacity:1;fill-rule:nonzero;stroke:none;stroke-width:0.03527778"
       id="path1886"
       inkscape:connector-curvature="0" />
    <path
       d="m 100.50095,140.01037 c 0.49848,0.24341 0.99766,0.44097 1.50566,0.59619 0.50553,0.15169 1.01988,0.25753 1.53493,0.28222 0.51189,0.0212 1.02588,-0.0423 1.52365,-0.19403 0.49918,-0.15169 0.97437,-0.39511 1.45133,-0.68438 -0.33408,0.4445 -0.78634,0.81138 -1.30951,1.05127 -0.5207,0.24695 -1.11055,0.35278 -1.68628,0.32809 -0.57997,-0.0212 -1.1437,-0.17287 -1.65664,-0.41628 -0.50977,-0.23989 -0.98672,-0.55033 -1.36314,-0.96308"
       style="fill:#4d1805;fill-opacity:1;fill-rule:nonzero;stroke:none;stroke-width:0.03527778"
       id="path1888"
       inkscape:connector-curvature="0" />
    <path
       d="m 103.55354,128.4322 h -0.0921 c -5.114221,-0.0247 -8.390115,-1.66158 -10.24114,-3.03389 -2.029883,-1.51342 -2.818694,-3.01272 -2.851502,-3.07622 l 0.446969,-0.22931 c 0.0078,0.0141 0.782814,1.47461 2.730147,2.91395 1.793522,1.32644 4.975226,2.91041 9.962096,2.91747 9.57156,-0.0177 12.66119,-5.7785 12.69118,-5.83142 l 0.44944,0.22931 c -0.0335,0.0635 -0.82339,1.5628 -2.85327,3.07622 -1.84997,1.37231 -5.12586,3.00919 -10.24185,3.03389 v 0"
       style="fill:#4d1805;fill-opacity:1;fill-rule:nonzero;stroke:none;stroke-width:0.03527778"
       id="path1890"
       inkscape:connector-curvature="0" />
    <path
       d="m 90.593189,122.20567 c 0.06174,0.41981 0.147814,0.83961 0.244123,1.25236 0.09807,0.40922 0.204611,0.81492 0.325614,1.22414 0.239888,0.80786 0.519994,1.60514 0.854427,2.37772 0.660753,1.54517 1.520825,3.01273 2.62255,4.26156 0.551039,0.62442 1.162756,1.19239 1.827036,1.67922 0.667103,0.49389 1.389592,0.89958 2.151239,1.21708 0.760589,0.32103 1.556102,0.55387 2.371022,0.6985 0.81703,0.14112 1.64041,0.19403 2.47826,0.18698 0.42369,0 0.83362,-0.007 1.24778,-0.0388 0.41275,-0.0318 0.82444,-0.0776 1.23154,-0.1517 0.81386,-0.14111 1.61079,-0.37394 2.37102,-0.69497 0.7613,-0.3175 1.48343,-0.7232 2.15018,-1.21708 0.66358,-0.49389 1.27635,-1.05481 1.8288,-1.68275 1.09996,-1.24884 1.9611,-2.71287 2.6222,-4.25803 0.33408,-0.77259 0.61419,-1.56986 0.85407,-2.37772 0.11924,-0.40923 0.2286,-0.81492 0.32315,-1.22414 0.097,-0.41275 0.1845,-0.83256 0.2473,-1.25236 -0.0653,0.85019 -0.21132,1.68627 -0.40041,2.52236 -0.19332,0.8255 -0.4392,1.64747 -0.73801,2.44827 -0.60184,1.59456 -1.4231,3.1362 -2.53541,4.46617 -1.10067,1.32997 -2.51601,2.42711 -4.11551,3.12561 -1.60196,0.6985 -3.3662,0.98072 -5.0867,0.96661 -1.7205,0.0141 -3.484032,-0.26811 -5.084936,-0.96661 -1.599143,-0.6985 -3.016251,-1.79564 -4.115507,-3.12561 -1.112661,-1.32997 -1.932869,-2.87161 -2.536825,-4.46617 -0.295628,-0.8008 -0.545041,-1.62277 -0.735541,-2.44827 -0.191912,-0.83609 -0.336903,-1.67217 -0.401462,-2.52236"
       style="fill:#4d1805;fill-opacity:1;fill-rule:nonzero;stroke:none;stroke-width:0.03527778"
       id="path1892"
       inkscape:connector-curvature="0" />
    <path
       d="m 118.49121,122.61137 c 0.024,-0.35984 0.048,-0.71614 0.0257,-1.05481 -0.0198,-0.32808 -0.10231,-0.65969 -0.3041,-0.81139 -0.0998,-0.0741 -0.24341,-0.11642 -0.40252,-0.13405 -0.15698,-0.0177 -0.32737,-0.0106 -0.49988,-0.004 -0.34396,0.0141 -0.70485,0.0635 -1.06927,0.0459 0.33796,-0.13759 0.67134,-0.25753 1.03046,-0.33514 0.17957,-0.0423 0.36513,-0.067 0.56304,-0.0635 0.19402,0.007 0.41416,0.0494 0.60254,0.18344 0.1905,0.14464 0.29386,0.34925 0.34361,0.54328 0.049,0.20108 0.055,0.39511 0.0378,0.58561 -0.0378,0.37394 -0.14852,0.72319 -0.32738,1.04422"
       style="fill:#4d1805;fill-opacity:1;fill-rule:nonzero;stroke:none;stroke-width:0.03527778"
       id="path1894"
       inkscape:connector-curvature="0" />
    <path
       d="m 88.586589,122.61137 c -0.178858,-0.32103 -0.28963,-0.67028 -0.327377,-1.04423 -0.01729,-0.1905 -0.01199,-0.38452 0.03775,-0.58561 0.0508,-0.19403 0.152753,-0.39864 0.341842,-0.54328 0.190852,-0.13405 0.409222,-0.17638 0.603602,-0.18344 0.198261,-0.004 0.383117,0.0212 0.562681,0.0635 0.360186,0.0776 0.694619,0.19756 1.031522,0.33514 -0.365478,0.0176 -0.7239,-0.0318 -1.069975,-0.0459 -0.172155,-0.007 -0.343253,-0.0141 -0.500239,0.004 -0.159103,0.0176 -0.301625,0.06 -0.401461,0.13405 -0.201789,0.1517 -0.283633,0.48331 -0.305153,0.81139 -0.02152,0.33867 0.0028,0.69498 0.02681,1.05481"
       style="fill:#4d1805;fill-opacity:1;fill-rule:nonzero;stroke:none;stroke-width:0.03527778"
       id="path1896"
       inkscape:connector-curvature="0" />
    <path
       d="M 97.873817,74.347837 H 93.70857 V 59.845144 h 4.165247 v 14.502693"
       style="fill:#57c6c1;fill-opacity:1;fill-rule:nonzero;stroke:none;stroke-width:0.03527778"
       id="path1898"
       inkscape:connector-curvature="0" />
    <path
       d="m 96.04925,52.440338 c 0,0 -0.437444,1.852083 0.881945,2.554111 1.459089,0.779639 1.580445,3.982861 -1.156759,3.982861 -2.734733,0 -3.070577,-3.52425 0.274814,-6.536972"
       style="fill:#fbc108;fill-opacity:1;fill-rule:nonzero;stroke:none;stroke-width:0.03527778"
       id="path1900"
       inkscape:connector-curvature="0" />
    <path
       d="m 95.508089,54.073699 c 0,0 -0.137583,1.255889 0.78352,1.605139 1.023761,0.395111 1.361369,2.494139 -0.437445,2.712861 -1.798461,0.218722 -2.301169,-2.070805 -0.346075,-4.318"
       style="fill:#f14624;fill-opacity:1;fill-rule:nonzero;stroke:none;stroke-width:0.03527778"
       id="path1902"
       inkscape:connector-curvature="0" />
    <path
       d="m 95.980459,59.845144 h -0.378884 v -2.416528 h 0.378884 v 2.416528"
       style="fill:#351f17;fill-opacity:1;fill-rule:nonzero;stroke:none;stroke-width:0.03527778"
       id="path1904"
       inkscape:connector-curvature="0" />
    <path
       d="m 105.93585,74.347837 h -4.16313 V 59.845144 h 4.16313 v 14.502693"
       style="fill:#57c6c1;fill-opacity:1;fill-rule:nonzero;stroke:none;stroke-width:0.03527778"
       id="path1906"
       inkscape:connector-curvature="0" />
    <path
       d="m 104.11199,52.440338 c 0,0 -0.43745,1.852083 0.88194,2.554111 1.4598,0.779639 1.58115,3.982861 -1.15499,3.982861 -2.7365,0 -3.07164,-3.52425 0.27305,-6.536972"
       style="fill:#fbc108;fill-opacity:1;fill-rule:nonzero;stroke:none;stroke-width:0.03527778"
       id="path1908"
       inkscape:connector-curvature="0" />
    <path
       d="m 103.66854,54.080755 c 0,0 -0.0843,1.259416 0.85267,1.569861 1.03717,0.34925 1.46332,2.434167 -0.32244,2.726972 -1.78823,0.296333 -2.38725,-1.972028 -0.53023,-4.296833"
       style="fill:#f14624;fill-opacity:1;fill-rule:nonzero;stroke:none;stroke-width:0.03527778"
       id="path1910"
       inkscape:connector-curvature="0" />
    <path
       d="m 104.04425,59.845144 h -0.37923 v -2.416528 h 0.37923 v 2.416528"
       style="fill:#351f17;fill-opacity:1;fill-rule:nonzero;stroke:none;stroke-width:0.03527778"
       id="path1912"
       inkscape:connector-curvature="0" />
    <path
       d="m 113.99999,74.347837 h -4.16524 V 59.845144 h 4.16524 v 14.502693"
       style="fill:#57c6c1;fill-opacity:1;fill-rule:nonzero;stroke:none;stroke-width:0.03527778"
       id="path1914"
       inkscape:connector-curvature="0" />
    <path
       d="m 112.17472,52.440338 c 0,0 -0.43568,1.852083 0.88195,2.554111 1.45908,0.779639 1.58009,3.982861 -1.15535,3.982861 -2.7372,0 -3.06952,-3.52425 0.2734,-6.536972"
       style="fill:#fbc108;fill-opacity:1;fill-rule:nonzero;stroke:none;stroke-width:0.03527778"
       id="path1916"
       inkscape:connector-curvature="0" />
    <path
       d="m 111.62298,54.091338 c 0,0 -0.0215,1.262945 0.92992,1.527528 1.05375,0.299861 1.58468,2.353028 -0.18486,2.741083 -1.77024,0.384528 -2.48355,-1.852083 -0.74506,-4.268611"
       style="fill:#f14624;fill-opacity:1;fill-rule:nonzero;stroke:none;stroke-width:0.03527778"
       id="path1918"
       inkscape:connector-curvature="0" />
    <path
       d="m 112.10593,59.845144 h -0.37783 v -2.416528 h 0.37783 v 2.416528"
       style="fill:#351f17;fill-opacity:1;fill-rule:nonzero;stroke:none;stroke-width:0.03527778"
       id="path1920"
       inkscape:connector-curvature="0" />
    <path
       d="m 123.82027,99.719615 4.15149,-25.410583 c 0,-1.125361 -0.91511,-2.042584 -2.04611,-2.042584 H 81.782917 c -1.130299,0 -2.045405,0.917223 -2.045405,2.042584 l 4.150078,25.410583 h 39.93268"
       style="fill:#431b0e;fill-opacity:1;fill-rule:nonzero;stroke:none;stroke-width:0.03527778"
       id="path1922"
       inkscape:connector-curvature="0" />
    <path
       d="m 79.737512,74.309032 0.549981,3.369028 c 0.336903,0.08819 0.688269,0.141111 1.051983,0.141111 1.661936,0 3.092097,-0.980723 3.752144,-2.395361 0.658989,1.414638 2.090561,2.395361 3.753556,2.395361 1.662288,0 3.091391,-0.980723 3.751438,-2.395361 0.659695,1.414638 2.08915,2.395361 3.753556,2.395361 1.66123,0 3.091039,-0.980723 3.75109,-2.395361 0.65898,1.414638 2.0902,2.395361 3.75214,2.395361 1.66476,0 3.09457,-0.980723 3.75391,-2.395361 0.65899,1.414638 2.08985,2.395361 3.75108,2.395361 1.66265,0 3.09351,-0.980723 3.75356,-2.395361 0.65934,1.414638 2.08915,2.395361 3.75144,2.395361 1.6644,0 3.0928,-0.980723 3.75355,-2.395361 0.66005,1.414638 2.08915,2.395361 3.75109,2.395361 0.36654,0 0.71685,-0.05292 1.05304,-0.141111 l 0.55069,-3.369028 c 0,-1.125361 -0.91511,-2.042584 -2.04611,-2.042584 H 81.782917 c -1.130299,0 -2.045405,0.917223 -2.045405,2.042584"
       style="fill:#2b0d07;fill-opacity:1;fill-rule:nonzero;stroke:none;stroke-width:0.03527778"
       id="path1924"
       inkscape:connector-curvature="0" />
    <path
       d="m 88.189714,82.412338 c 0,1.195917 -0.972961,2.166054 -2.170994,2.166054 -1.198033,0 -2.169936,-0.970137 -2.169936,-2.166054 0,-1.199446 0.971903,-2.173113 2.169936,-2.173113 1.198033,0 2.170994,0.973667 2.170994,2.173113"
       style="fill:#2b0d07;fill-opacity:1;fill-rule:evenodd;stroke:none;stroke-width:0.03527778"
       id="path1926"
       inkscape:connector-curvature="0" />
    <path
       d="m 115.60372,90.222838 c 0,1.195917 -0.97014,2.169583 -2.16747,2.169583 -1.19803,0 -2.16993,-0.973666 -2.16993,-2.169583 0,-1.199446 0.9719,-2.169583 2.16993,-2.169583 1.19733,0 2.16747,0.970137 2.16747,2.169583"
       style="fill:#2b0d07;fill-opacity:1;fill-rule:evenodd;stroke:none;stroke-width:0.03527778"
       id="path1928"
       inkscape:connector-curvature="0" />
    <path
       d="m 103.05859,84.578392 c 0,1.195916 -0.97296,2.169583 -2.17099,2.169583 -1.198035,0 -2.168174,-0.973667 -2.168174,-2.169583 0,-1.195917 0.970139,-2.166054 2.168174,-2.166054 1.19803,0 2.17099,0.970137 2.17099,2.166054"
       style="fill:#2b0d07;fill-opacity:1;fill-rule:evenodd;stroke:none;stroke-width:0.03527778"
       id="path1930"
       inkscape:connector-curvature="0" />
    <path
       d="m 121.23264,82.754532 c 0,1.199443 -0.97014,2.166056 -2.16887,2.166056 -1.19663,0 -2.16853,-0.966613 -2.16853,-2.166056 0,-1.199444 0.9719,-2.169584 2.16853,-2.169584 1.19873,0 2.16887,0.97014 2.16887,2.169584"
       style="fill:#2b0d07;fill-opacity:1;fill-rule:evenodd;stroke:none;stroke-width:0.03527778"
       id="path1932"
       inkscape:connector-curvature="0" />
    <path
       d="m 95.601575,90.222838 c 0,1.195917 -0.971902,2.169583 -2.168172,2.169583 -1.198739,0 -2.1717,-0.973666 -2.1717,-2.169583 0,-1.199446 0.972961,-2.169583 2.1717,-2.169583 1.19627,0 2.168172,0.970137 2.168172,2.169583"
       style="fill:#2b0d07;fill-opacity:1;fill-rule:evenodd;stroke:none;stroke-width:0.03527778"
       id="path1934"
       inkscape:connector-curvature="0" />
    <path
       d="m 110.27537,95.408671 c 0,1.195917 -0.97085,2.169584 -2.16888,2.169584 -1.19804,0 -2.17064,-0.973667 -2.17064,-2.169584 0,-1.195916 0.9726,-2.169583 2.17064,-2.169583 1.19803,0 2.16888,0.973667 2.16888,2.169583"
       style="fill:#2b0d07;fill-opacity:1;fill-rule:evenodd;stroke:none;stroke-width:0.03527778"
       id="path1936"
       inkscape:connector-curvature="0" />
    <path
       d="m 91.087078,96.586948 c 0,0.64911 -0.527402,1.178277 -1.178983,1.178277 -0.650522,0 -1.177925,-0.529167 -1.177925,-1.178277 0,-0.65264 0.527403,-1.178277 1.177925,-1.178277 0.651581,0 1.178983,0.525637 1.178983,1.178277"
       style="fill:#2b0d07;fill-opacity:1;fill-rule:evenodd;stroke:none;stroke-width:0.03527778"
       id="path1938"
       inkscape:connector-curvature="0" />
    <path
       d="m 94.369323,82.754532 c 0,0.64911 -0.526698,1.178276 -1.177573,1.178276 -0.650522,0 -1.178983,-0.529166 -1.178983,-1.178276 0,-0.649111 0.528461,-1.178277 1.178983,-1.178277 0.650875,0 1.177573,0.529166 1.177573,1.178277"
       style="fill:#2b0d07;fill-opacity:1;fill-rule:evenodd;stroke:none;stroke-width:0.03527778"
       id="path1940"
       inkscape:connector-curvature="0" />
    <path
       d="m 88.189714,89.450255 c 0,0.64911 -0.529519,1.178277 -1.17863,1.178277 -0.651933,0 -1.178983,-0.529167 -1.178983,-1.178277 0,-0.649113 0.52705,-1.17828 1.178983,-1.17828 0.649111,0 1.17863,0.529167 1.17863,1.17828"
       style="fill:#2b0d07;fill-opacity:1;fill-rule:evenodd;stroke:none;stroke-width:0.03527778"
       id="path1942"
       inkscape:connector-curvature="0" />
    <path
       d="m 104.23581,91.108308 c 0,0.65264 -0.52775,1.181807 -1.17722,1.181807 -0.65228,0 -1.17828,-0.529167 -1.17828,-1.181807 0,-0.645583 0.526,-1.17475 1.17828,-1.17475 0.64947,0 1.17722,0.529167 1.17722,1.17475"
       style="fill:#2b0d07;fill-opacity:1;fill-rule:evenodd;stroke:none;stroke-width:0.03527778"
       id="path1944"
       inkscape:connector-curvature="0" />
    <path
       d="m 99.052094,95.408671 c 0,0.649111 -0.52705,1.17475 -1.178277,1.17475 -0.650522,0 -1.177219,-0.525639 -1.177219,-1.17475 0,-0.652639 0.526697,-1.178279 1.177219,-1.178279 0.651227,0 1.178277,0.52564 1.178277,1.178279"
       style="fill:#2b0d07;fill-opacity:1;fill-rule:evenodd;stroke:none;stroke-width:0.03527778"
       id="path1946"
       inkscape:connector-curvature="0" />
    <path
       d="m 110.39249,82.412338 c 0,0.645583 -0.5267,1.178277 -1.17828,1.178277 -0.65052,0 -1.17828,-0.532694 -1.17828,-1.178277 0,-0.656167 0.52776,-1.17828 1.17828,-1.17828 0.65158,0 1.17828,0.522113 1.17828,1.17828"
       style="fill:#2b0d07;fill-opacity:1;fill-rule:evenodd;stroke:none;stroke-width:0.03527778"
       id="path1948"
       inkscape:connector-curvature="0" />
    <path
       d="m 121.42173,95.408671 c 0,0.652637 -0.52775,1.178277 -1.17898,1.178277 -0.64982,0 -1.17898,-0.52564 -1.17898,-1.178277 0,-0.652639 0.52916,-1.178279 1.17898,-1.178279 0.65123,0 1.17898,0.52564 1.17898,1.178279"
       style="fill:#2b0d07;fill-opacity:1;fill-rule:evenodd;stroke:none;stroke-width:0.03527778"
       id="path1950"
       inkscape:connector-curvature="0" />
    <path
       d="m 121.42173,89.450255 c 0,0.64911 -0.52775,1.178277 -1.17898,1.178277 -0.64982,0 -1.17898,-0.529167 -1.17898,-1.178277 0,-0.649113 0.52916,-1.17828 1.17898,-1.17828 0.65123,0 1.17898,0.529167 1.17898,1.17828"
       style="fill:#2b0d07;fill-opacity:1;fill-rule:evenodd;stroke:none;stroke-width:0.03527778"
       id="path1952"
       inkscape:connector-curvature="0" />
    <path
       d="m 125.3291,79.791198 c 0,0.65264 -0.5267,1.178277 -1.17792,1.178277 -0.65088,0 -1.17758,-0.525637 -1.17758,-1.178277 0,-0.64911 0.5267,-1.17475 1.17758,-1.17475 0.65122,0 1.17792,0.52564 1.17792,1.17475"
       style="fill:#2b0d07;fill-opacity:1;fill-rule:evenodd;stroke:none;stroke-width:0.03527778"
       id="path1954"
       inkscape:connector-curvature="0" />
    <path
       d="m 114.12453,139.43181 c -0.93416,0 -2.10609,0.35983 -3.48298,1.0795 -2.38901,1.24178 -4.79002,2.41653 -6.4703,3.22792 -0.34007,-0.1517 -0.71578,-0.23989 -1.11266,-0.23989 -0.39899,0 -0.77611,0.0882 -1.1183,0.23989 -1.67817,-0.81139 -4.079173,-1.98967 -6.467479,-3.22792 -1.376891,-0.71967 -2.548113,-1.0795 -3.483327,-1.0795 -1.289756,0 -1.903236,0.68086 -2.191103,1.25236 -0.306211,0.60678 -0.30868,1.20297 -0.30868,1.23119 v 8.67128 c 0,0.0212 0.02822,2.48356 2.499783,2.48356 0.935214,0 2.106436,-0.36336 3.483327,-1.0795 2.389012,-1.24178 4.791079,-2.42006 6.470299,-3.23145 0.34113,0.1517 0.71649,0.23989 1.11548,0.23989 0.39794,0 0.77329,-0.0811 1.11549,-0.23989 1.67922,0.81139 4.07952,1.98967 6.46747,3.23145 1.37689,0.71614 2.54882,1.0795 3.48298,1.0795 v 0 c 1.29081,0 1.90358,-0.68439 2.19251,-1.25589 0.30586,-0.60325 0.30939,-1.2065 0.30939,-1.22767 v -8.67128 c 0,-0.0282 -0.0303,-2.48355 -2.5019,-2.48355"
       style="fill:#431b0e;fill-opacity:1;fill-rule:nonzero;stroke:none;stroke-width:0.03527778"
       id="path1956"
       inkscape:connector-curvature="0" />
    <path
       d="m 115.59596,152.06125 c -0.21237,0.21873 -0.50271,0.40217 -0.89817,0.49389 l 1.47496,-4.13455 v 2.02141 l -0.57679,1.61925"
       style="fill:#f14624;fill-opacity:1;fill-rule:nonzero;stroke:none;stroke-width:0.03527778"
       id="path1958"
       inkscape:connector-curvature="0" />
    <path
       d="m 113.38651,152.54456 c -0.21061,-0.0388 -0.43144,-0.0952 -0.66251,-0.16581 l 3.44875,-9.66258 v 2.02142 l -2.78624,7.80697"
       style="fill:#f14624;fill-opacity:1;fill-rule:nonzero;stroke:none;stroke-width:0.03527778"
       id="path1960"
       inkscape:connector-curvature="0" />
    <path
       d="m 115.6517,140.4972 -4.08376,11.43705 c -0.19931,-0.0882 -0.40569,-0.18697 -0.617,-0.29633 l 4.13032,-11.56405 c 0.23707,0.10936 0.42439,0.254 0.57044,0.42333"
       style="fill:#f14624;fill-opacity:1;fill-rule:nonzero;stroke:none;stroke-width:0.03527778"
       id="path1962"
       inkscape:connector-curvature="0" />
    <path
       d="m 109.84145,151.06995 c -0.20426,-0.10584 -0.40993,-0.20814 -0.61172,-0.31397 l 3.83117,-10.7315 c 0.27234,-0.067 0.5274,-0.10936 0.76905,-0.127 l -3.9885,11.17247"
       style="fill:#f14624;fill-opacity:1;fill-rule:nonzero;stroke:none;stroke-width:0.03527778"
       id="path1964"
       inkscape:connector-curvature="0" />
    <path
       d="m 111.55278,140.57128 -3.43606,9.62731 c -0.20638,-0.10936 -0.41169,-0.20814 -0.61348,-0.31045 l 3.17359,-8.88647 c 0.0575,-0.0317 0.11677,-0.06 0.17356,-0.0917 0.24166,-0.12347 0.47343,-0.23636 0.70239,-0.33866"
       style="fill:#f14624;fill-opacity:1;fill-rule:nonzero;stroke:none;stroke-width:0.03527778"
       id="path1966"
       inkscape:connector-curvature="0" />
    <path
       d="m 100.40288,146.96714 c 0.0861,0.31397 0.22507,0.61031 0.41169,0.87136 l -0.41945,1.1677 c -0.28081,0.13758 -0.573263,0.28222 -0.875594,0.43039 l 0.883354,-2.46945"
       style="fill:#f14624;fill-opacity:1;fill-rule:nonzero;stroke:none;stroke-width:0.03527778"
       id="path1968"
       inkscape:connector-curvature="0" />
    <path
       d="m 97.923559,150.23386 c -0.289278,0.14464 -0.585259,0.29281 -0.881592,0.4445 l 2.682875,-7.51769 c 0.210609,0.10231 0.415218,0.20461 0.614538,0.30339 l -2.415821,6.7698"
       style="fill:#f14624;fill-opacity:1;fill-rule:nonzero;stroke:none;stroke-width:0.03527778"
       id="path1970"
       inkscape:connector-curvature="0" />
    <path
       d="m 105.71501,143.48875 c 0.28081,-0.13405 0.57397,-0.27516 0.8763,-0.42333 l -0.88089,2.46239 c -0.0857,-0.31397 -0.22507,-0.61031 -0.41063,-0.87136 l 0.41522,-1.1677"
       style="fill:#f14624;fill-opacity:1;fill-rule:nonzero;stroke:none;stroke-width:0.03527778"
       id="path1972"
       inkscape:connector-curvature="0" />
    <path
       d="m 108.18728,142.26814 c 0.29139,-0.14464 0.5842,-0.2928 0.88159,-0.4445 l -2.68217,7.51417 c -0.2085,-0.10583 -0.41487,-0.20461 -0.61419,-0.30339 l 2.41477,-6.76628"
       style="fill:#f14624;fill-opacity:1;fill-rule:nonzero;stroke:none;stroke-width:0.03527778"
       id="path1974"
       inkscape:connector-curvature="0" />
    <path
       d="m 101.45663,144.01792 0.002,-0.0106 c 0.002,0.004 0.004,0.004 0.004,0.004 -0.002,0.004 -0.004,0.004 -0.006,0.007"
       style="fill:#f14624;fill-opacity:1;fill-rule:nonzero;stroke:none;stroke-width:0.03527778"
       id="path1976"
       inkscape:connector-curvature="0" />
    <path
       d="m 96.270442,141.43206 c 0.204258,0.1023 0.408869,0.20814 0.610658,0.30692 L 93.049228,152.474 c -0.271639,0.0706 -0.527403,0.10936 -0.767291,0.13406 l 3.988505,-11.176"
       style="fill:#f14624;fill-opacity:1;fill-rule:nonzero;stroke:none;stroke-width:0.03527778"
       id="path1978"
       inkscape:connector-curvature="0" />
    <path
       d="m 90.513462,140.44428 c 0.212019,-0.22225 0.50165,-0.40569 0.900641,-0.49741 l -1.472141,4.12749 v -2.02494 l 0.5715,-1.60514"
       style="fill:#f14624;fill-opacity:1;fill-rule:nonzero;stroke:none;stroke-width:0.03527778"
       id="path1980"
       inkscape:connector-curvature="0" />
    <path
       d="m 92.72432,139.95392 c 0.210608,0.0423 0.431447,0.0988 0.664633,0.16581 l -3.446991,9.65552 v -2.02141 l 2.782358,-7.79992"
       style="fill:#f14624;fill-opacity:1;fill-rule:nonzero;stroke:none;stroke-width:0.03527778"
       id="path1982"
       inkscape:connector-curvature="0" />
    <path
       d="m 90.460192,152.00128 4.083403,-11.43705 c 0.199672,0.0882 0.405694,0.18344 0.617361,0.29633 l -4.128558,11.56405 c -0.238125,-0.10583 -0.426156,-0.25752 -0.572206,-0.42333"
       style="fill:#f14624;fill-opacity:1;fill-rule:nonzero;stroke:none;stroke-width:0.03527778"
       id="path1984"
       inkscape:connector-curvature="0" />
    <path
       d="m 94.557353,151.93073 3.43782,-9.62731 c 0.206021,0.10231 0.411338,0.20461 0.612421,0.30339 l -3.174294,8.89353 c -0.05609,0.0318 -0.11183,0.06 -0.167569,0.0882 -0.245181,0.127 -0.478014,0.23989 -0.708378,0.34219"
       style="fill:#f14624;fill-opacity:1;fill-rule:nonzero;stroke:none;stroke-width:0.03527778"
       id="path1986"
       inkscape:connector-curvature="0" />
    <path
       d="m 104.65526,148.48761 -0.002,0.004 h -0.002 c 0.002,0 0.002,0 0.004,-0.004"
       style="fill:#f14624;fill-opacity:1;fill-rule:nonzero;stroke:none;stroke-width:0.03527778"
       id="path1988"
       inkscape:connector-curvature="0" />
  </g>
</svg>
