<?xml version="1.0" encoding="UTF-8" standalone="no"?>
<!-- Created with Inkscape (http://www.inkscape.org/) -->

<svg
   xmlns:dc="http://purl.org/dc/elements/1.1/"
   xmlns:cc="http://creativecommons.org/ns#"
   xmlns:rdf="http://www.w3.org/1999/02/22-rdf-syntax-ns#"
   xmlns:svg="http://www.w3.org/2000/svg"
   xmlns="http://www.w3.org/2000/svg"
   xmlns:sodipodi="http://sodipodi.sourceforge.net/DTD/sodipodi-0.dtd"
   xmlns:inkscape="http://www.inkscape.org/namespaces/inkscape"
   width="79.698738mm"
   height="133.79088mm"
   viewBox="0 0 79.698738 133.79088"
   version="1.1"
   id="svg5335"
   inkscape:version="0.92.2 5c3e80d, 2017-08-06"
   sodipodi:docname="monster11.svg">
  <defs
     id="defs5329" />
  <sodipodi:namedview
     id="base"
     pagecolor="#ffffff"
     bordercolor="#666666"
     borderopacity="1.0"
     inkscape:pageopacity="0.0"
     inkscape:pageshadow="2"
     inkscape:zoom="0.35"
     inkscape:cx="193.46792"
     inkscape:cy="272.83316"
     inkscape:document-units="mm"
     inkscape:current-layer="layer1"
     showgrid="false"
     inkscape:window-width="605"
     inkscape:window-height="429"
     inkscape:window-x="2894"
     inkscape:window-y="238"
     inkscape:window-maximized="0" />
  <metadata
     id="metadata5332">
    <rdf:RDF>
      <cc:Work
         rdf:about="">
        <dc:format>image/svg+xml</dc:format>
        <dc:type
           rdf:resource="http://purl.org/dc/dcmitype/StillImage" />
        <dc:title></dc:title>
      </cc:Work>
    </rdf:RDF>
  </metadata>
  <g
     inkscape:label="Calque 1"
     inkscape:groupmode="layer"
     id="layer1"
     transform="translate(-54.644946,-87.22956)">
    <path
       d="m 121.50055,105.13647 c 2.37066,0.50447 2.81164,3.30553 2.88219,4.74486 l 0.004,0.86431 v 0.004 l 0.0741,21.01497 c 0,0 0.80786,11.1125 -9.72608,14.37217 v 5.9443 c 6.17008,-1.15358 14.50975,-5.54214 14.50975,-20.89502 v -21.16312 c 0.06,-0.43038 0.0212,-1.00541 0,-1.64747 v -0.3563 h -0.0106 c -0.0247,-1.24178 0.0741,-2.63878 1.02658,-3.6195 1.55575,-1.59103 4.67078,-2.16959 3.98639,-3.69711 -0.68439,-1.524005 -3.67594,0.77611 -4.10986,0.0282 -0.43392,-0.744366 5.25992,-4.543783 3.28436,-5.792616 -1.97555,-1.241778 -2.80105,2.864555 -4.67783,2.88925 -1.88031,0.02469 1.13594,-4.427361 -1.77447,-5.348111 -2.91042,-0.92075 -1.1677,5.319888 -2.21898,5.182305 -1.05833,-0.137583 -2.39536,-4.081639 -3.88408,-4.275666 -1.49225,-0.197556 -1.28058,2.166055 -0.39511,2.906888 0.88194,0.747889 2.27542,3.623028 1.44639,5.12939 -0.82903,1.50283 -4.63903,-0.6985 -5.29167,0.83256 -0.65616,1.52752 0.69145,1.99319 4.87539,2.88219"
       style="fill:#4caea9;fill-opacity:1;fill-rule:nonzero;stroke:none;stroke-width:0.03527778"
       id="path1990"
       inkscape:connector-curvature="0" />
    <path
       d="m 67.49027,104.35331 c -2.370667,0.508 -2.811639,3.302 -2.882194,4.74133 l -0.0035,0.86783 v 0.004 l -0.07408,21.01498 c 0,0 -0.807861,11.10897 9.726082,14.36863 v 5.94431 c -6.170081,-1.15003 -14.513274,-5.53859 -14.513274,-20.895 v -21.15608 c -0.05644,-0.43392 -0.02117,-1.016 0,-1.65453 v -0.35631 h 0.01411 c 0.0247,-1.24178 -0.07408,-2.63878 -1.03011,-3.61597 -1.55575,-1.59103 -4.66725,-2.17311 -3.986389,-3.697111 0.687917,-1.527528 3.679472,0.776111 4.113389,0.02822 0.433916,-0.747889 -5.259917,-4.547305 -3.287889,-5.792611 1.975555,-1.241778 2.801055,2.864556 4.681361,2.88925 1.876778,0.02117 -1.139472,-4.427361 1.774472,-5.344583 2.910416,-0.924278 1.167695,5.316361 2.218972,5.178778 1.054805,-0.134056 2.391833,-4.081639 3.884083,-4.279195 1.49225,-0.194028 1.273528,2.169583 0.395111,2.910417 -0.881944,0.744361 -2.278944,3.6195 -1.446389,5.125865 0.829028,1.50989 4.639028,-0.694977 5.291667,0.83255 0.652639,1.52753 -0.691445,1.9932 -4.875389,2.88573"
       style="fill:#4caea9;fill-opacity:1;fill-rule:nonzero;stroke:none;stroke-width:0.03527778"
       id="path1992"
       inkscape:connector-curvature="0" />
    <path
       d="m 115.44688,133.66208 c 0,-25.58697 -41.391416,-26.1373 -41.391416,0 v 31.1785 l -0.02822,51.77014 h -2.832805 c -1.181806,0 -2.144889,0.98778 -2.144889,2.20486 0,1.22061 0.963083,2.20486 2.144889,2.20486 h 2.832805 2.501195 2.141361 V 178.1015 c 2.032,1.59103 4.6355,2.87161 7.612944,3.72533 v 34.78389 h -2.829277 c -1.185333,0 -2.14489,0.98778 -2.14489,2.20486 0,1.22061 0.959557,2.20486 2.14489,2.20486 h 2.829277 2.504723 2.14136 v -38.2658 c 1.266473,0.15169 2.57175,0.23283 3.908777,0.23283 1.262946,0 2.501194,-0.0741 3.704167,-0.21167 v 33.83492 h -2.829279 c -1.185333,0 -2.14136,0.98778 -2.14136,2.20486 0,1.22061 0.956027,2.20486 2.14136,2.20486 h 2.829277 2.501191 2.14489 v -39.14069 c 2.96334,-0.82197 5.56684,-2.06728 7.61295,-3.6195 v 38.35047 h -2.82928 c -1.18533,0 -2.14489,0.98778 -2.14489,2.20486 0,1.22061 0.95956,2.20486 2.14489,2.20486 h 2.82928 2.50119 2.14489 v -87.35836"
       style="fill:#57c6c1;fill-opacity:1;fill-rule:nonzero;stroke:none;stroke-width:0.03527778"
       id="path1994"
       inkscape:connector-curvature="0" />
    <path
       d="m 94.816435,124.57806 c -0.257526,0 -0.465666,-0.21167 -0.465666,-0.4692 v -4.54025 c 0,-0.25753 0.20814,-0.46214 0.465666,-0.46214 0.254,0 0.465667,0.20461 0.465667,0.46214 v 4.54025 c 0,0.25753 -0.208137,0.4692 -0.465667,0.4692"
       style="fill:#0f3633;fill-opacity:1;fill-rule:nonzero;stroke:none;stroke-width:0.03527778"
       id="path1996"
       inkscape:connector-curvature="0" />
    <path
       d="m 99.554242,125.97858 c -0.06703,0 -0.137583,-0.0176 -0.201083,-0.0459 -0.232834,-0.11289 -0.328084,-0.39158 -0.218724,-0.62441 l 1.982615,-4.08164 c 0.11289,-0.23636 0.38805,-0.32809 0.62089,-0.22225 0.23283,0.11641 0.32808,0.39158 0.21519,0.62441 l -1.979084,4.08517 c -0.08114,0.16933 -0.246944,0.26458 -0.419804,0.26458"
       style="fill:#0f3633;fill-opacity:1;fill-rule:nonzero;stroke:none;stroke-width:0.03527778"
       id="path1998"
       inkscape:connector-curvature="0" />
    <path
       d="m 103.51946,129.0795 c -0.12347,0 -0.24694,-0.0529 -0.33866,-0.14817 -0.17639,-0.1905 -0.16581,-0.4833 0.0212,-0.65616 l 3.31964,-3.10092 c 0.18697,-0.17639 0.47977,-0.16581 0.65616,0.0212 0.17286,0.18697 0.16581,0.48331 -0.0212,0.65617 l -3.31964,3.10091 c -0.0882,0.0811 -0.20461,0.127 -0.3175,0.127"
       style="fill:#0f3633;fill-opacity:1;fill-rule:nonzero;stroke:none;stroke-width:0.03527778"
       id="path2000"
       inkscape:connector-curvature="0" />
    <path
       d="m 89.306048,126.04914 c -0.172863,0 -0.342196,-0.10231 -0.423333,-0.27517 l -1.87325,-4.08869 c -0.105833,-0.22931 -0.0035,-0.50447 0.229304,-0.61384 0.232833,-0.10583 0.511529,-0.004 0.617363,0.23284 l 1.87325,4.08516 c 0.10936,0.23284 0.0035,0.50448 -0.229307,0.61737 -0.0635,0.0247 -0.127,0.0423 -0.194027,0.0423"
       style="fill:#0f3633;fill-opacity:1;fill-rule:nonzero;stroke:none;stroke-width:0.03527778"
       id="path2002"
       inkscape:connector-curvature="0" />
    <path
       d="m 85.661852,129.15006 c -0.119943,0 -0.23636,-0.0459 -0.328083,-0.13406 l -3.139721,-3.10444 c -0.179916,-0.17639 -0.183446,-0.47273 -0.0035,-0.65617 0.183447,-0.17992 0.47625,-0.18345 0.659697,-0.004 l 3.13972,3.10092 c 0.179917,0.17991 0.183446,0.47625 0,0.65969 -0.08819,0.0882 -0.208137,0.13759 -0.328083,0.13759"
       style="fill:#0f3633;fill-opacity:1;fill-rule:nonzero;stroke:none;stroke-width:0.03527778"
       id="path2004"
       inkscape:connector-curvature="0" />
    <path
       d="m 106.24996,135.54592 c 0,6.31472 -5.1188,11.43352 -11.433525,11.43352 -6.31472,0 -11.433526,-5.1188 -11.433526,-11.43352 0,-6.31473 5.118806,-11.43706 11.433526,-11.43706 6.314725,0 11.433525,5.12233 11.433525,11.43706"
       style="fill:#ffffff;fill-opacity:1;fill-rule:nonzero;stroke:none;stroke-width:0.03527778"
       id="path2006"
       inkscape:connector-curvature="0" />
    <path
       d="m 103.29721,135.54592 c 0,4.68136 -3.799414,8.47725 -8.480775,8.47725 -4.684887,0 -8.484303,-3.79589 -8.484303,-8.47725 0,-4.68489 3.799416,-8.48078 8.484303,-8.48078 4.681361,0 8.480775,3.79589 8.480775,8.48078"
       style="fill:#54c8f4;fill-opacity:1;fill-rule:nonzero;stroke:none;stroke-width:0.03527778"
       id="path2008"
       inkscape:connector-curvature="0" />
    <path
       d="m 101.69913,135.54592 c 0,3.79941 -3.083278,6.87916 -6.882695,6.87916 -3.802943,0 -6.882693,-3.07975 -6.882693,-6.87916 0,-3.80295 3.07975,-6.8827 6.882693,-6.8827 3.799417,0 6.882695,3.07975 6.882695,6.8827"
       style="fill:#5a3114;fill-opacity:1;fill-rule:nonzero;stroke:none;stroke-width:0.03527778"
       id="path2010"
       inkscape:connector-curvature="0" />
    <path
       d="m 88.812159,140.48833 c 0,1.07245 -0.864307,1.93675 -1.933224,1.93675 -1.068916,0 -1.93322,-0.8643 -1.93322,-1.93675 0,-1.06539 0.864304,-1.92969 1.93322,-1.92969 1.068917,0 1.933224,0.8643 1.933224,1.92969"
       style="fill:#ffffff;fill-opacity:1;fill-rule:nonzero;stroke:none;stroke-width:0.03527778"
       id="path2012"
       inkscape:connector-curvature="0" />
    <path
       d="m 100.75721,129.85561 c 0,1.06539 -0.864301,1.93322 -1.933218,1.93322 -1.068917,0 -1.93675,-0.86783 -1.93675,-1.93322 0,-1.06892 0.867833,-1.94028 1.93675,-1.94028 1.068917,0 1.933218,0.87136 1.933218,1.94028"
       style="fill:#ffffff;fill-opacity:1;fill-rule:nonzero;stroke:none;stroke-width:0.03527778"
       id="path2014"
       inkscape:connector-curvature="0" />
    <path
       d="m 113.22438,172.56641 c 0,1.29823 -1.05128,2.35303 -2.3495,2.35303 -1.29822,0 -2.3495,-1.0548 -2.3495,-2.35303 0,-1.29822 1.05128,-2.3495 2.3495,-2.3495 1.29822,0 2.3495,1.05128 2.3495,2.3495"
       style="fill:#227f73;fill-opacity:1;fill-rule:nonzero;stroke:none;stroke-width:0.03527778"
       id="path2016"
       inkscape:connector-curvature="0" />
    <path
       d="m 108.75469,176.13653 c 0,0.8008 -0.64911,1.44638 -1.44639,1.44638 -0.79728,0 -1.44639,-0.64558 -1.44639,-1.44638 0,-0.80081 0.64911,-1.44639 1.44639,-1.44639 0.79728,0 1.44639,0.64558 1.44639,1.44639"
       style="fill:#227f73;fill-opacity:1;fill-rule:nonzero;stroke:none;stroke-width:0.03527778"
       id="path2018"
       inkscape:connector-curvature="0" />
    <path
       d="m 108.0456,173.00033 c 0,0.52211 -0.42333,0.94897 -0.94544,0.94897 -0.52211,0 -0.94545,-0.42686 -0.94545,-0.94897 0,-0.52211 0.42334,-0.94544 0.94545,-0.94544 0.52211,0 0.94544,0.42333 0.94544,0.94544"
       style="fill:#227f73;fill-opacity:1;fill-rule:nonzero;stroke:none;stroke-width:0.03527778"
       id="path2020"
       inkscape:connector-curvature="0" />
    <path
       d="m 106.02066,174.47847 c 0,0.40569 -0.33161,0.74083 -0.74083,0.74083 -0.40923,0 -0.74437,-0.33514 -0.74437,-0.74083 0,-0.41275 0.33514,-0.74436 0.74437,-0.74436 0.40922,0 0.74083,0.33161 0.74083,0.74436"
       style="fill:#227f73;fill-opacity:1;fill-rule:nonzero;stroke:none;stroke-width:0.03527778"
       id="path2022"
       inkscape:connector-curvature="0" />
    <path
       d="m 107.35063,170.42858 c 0.3422,-0.0494 0.6597,0.19403 0.70908,0.5327 0.0494,0.34925 -0.1905,0.67027 -0.53622,0.71613 -0.34572,0.0494 -0.65969,-0.1905 -0.70908,-0.53622 -0.0494,-0.34572 0.1905,-0.66322 0.53622,-0.71261"
       style="fill:#227f73;fill-opacity:1;fill-rule:nonzero;stroke:none;stroke-width:0.03527778"
       id="path2024"
       inkscape:connector-curvature="0" />
    <path
       d="m 80.694742,176.8315 c -1.298222,0 -2.3495,-1.05128 -2.3495,-2.3495 0,-1.29822 1.051278,-2.3495 2.3495,-2.3495 1.298223,0 2.3495,1.05128 2.3495,2.3495 0,1.29822 -1.051277,2.3495 -2.3495,2.3495"
       style="fill:#227f73;fill-opacity:1;fill-rule:nonzero;stroke:none;stroke-width:0.03527778"
       id="path2026"
       inkscape:connector-curvature="0" />
    <path
       d="m 77.128159,172.36533 c -0.800806,0 -1.446389,-0.65264 -1.446389,-1.44992 0,-0.79727 0.645583,-1.44638 1.446389,-1.44638 0.797277,0 1.446389,0.64911 1.446389,1.44638 0,0.79728 -0.649112,1.44992 -1.446389,1.44992"
       style="fill:#227f73;fill-opacity:1;fill-rule:nonzero;stroke:none;stroke-width:0.03527778"
       id="path2028"
       inkscape:connector-curvature="0" />
    <path
       d="m 80.264353,171.65625 c -0.525639,0 -0.948972,-0.42686 -0.948972,-0.9525 0,-0.52211 0.423333,-0.94192 0.948972,-0.94192 0.518583,0 0.945445,0.41981 0.945445,0.94192 0,0.52564 -0.426862,0.9525 -0.945445,0.9525"
       style="fill:#227f73;fill-opacity:1;fill-rule:nonzero;stroke:none;stroke-width:0.03527778"
       id="path2030"
       inkscape:connector-curvature="0" />
    <path
       d="m 78.786214,169.62778 c -0.409222,0 -0.740833,-0.32809 -0.740833,-0.74084 0,-0.41275 0.331611,-0.74083 0.740833,-0.74083 0.41275,0 0.744361,0.32808 0.744361,0.74083 0,0.41275 -0.331611,0.74084 -0.744361,0.74084"
       style="fill:#227f73;fill-opacity:1;fill-rule:nonzero;stroke:none;stroke-width:0.03527778"
       id="path2032"
       inkscape:connector-curvature="0" />
    <path
       d="m 82.836102,170.95775 c 0.04586,0.34572 -0.194027,0.65969 -0.53975,0.71261 -0.342193,0.0423 -0.659693,-0.19403 -0.709083,-0.53975 -0.04939,-0.3422 0.1905,-0.66322 0.536223,-0.70908 0.345723,-0.0494 0.663223,0.1905 0.71261,0.53622"
       style="fill:#227f73;fill-opacity:1;fill-rule:nonzero;stroke:none;stroke-width:0.03527778"
       id="path2034"
       inkscape:connector-curvature="0" />
    <path
       d="M 110.75846,121.28664 H 77.562075 c 0,0 11.853334,-28.186945 16.234834,-28.186945 4.40972,0 16.961551,28.186945 16.961551,28.186945"
       style="fill:#94d335;fill-opacity:1;fill-rule:nonzero;stroke:none;stroke-width:0.03527778"
       id="path2036"
       inkscape:connector-curvature="0" />
    <path
       d="m 106.63449,114.66853 c -2.28953,2.13078 -4.826,3.8735 -7.524748,5.22111 h 6.745108 c 0.75142,-0.71967 1.47461,-1.47814 2.16606,-2.26836 -0.381,-0.81492 -0.8502,-1.82034 -1.38642,-2.95275"
       style="fill:#295a5b;fill-opacity:1;fill-rule:nonzero;stroke:none;stroke-width:0.03527778"
       id="path2038"
       inkscape:connector-curvature="0" />
    <path
       d="m 104.92352,111.15839 c -0.53269,-1.0795 -1.10067,-2.19781 -1.68628,-3.3267 -6.265331,4.41678 -13.832415,6.38528 -21.254858,5.65503 -1.682751,3.66889 -2.832807,6.40292 -2.832807,6.40292 h 7.8105 c 6.6675,-1.2065 12.897554,-4.21217 17.963445,-8.73125"
       style="fill:#295a5b;fill-opacity:1;fill-rule:nonzero;stroke:none;stroke-width:0.03527778"
       id="path2040"
       inkscape:connector-curvature="0" />
    <path
       d="m 83.245325,110.77386 c 6.536973,-0.51505 12.798777,-2.73403 18.136305,-6.42055 -0.71614,-1.29823 -1.435805,-2.55412 -2.144888,-3.71123 -3.95464,2.00378 -8.258527,3.1362 -12.615333,3.36198 -1.178277,2.21544 -2.33539,4.572 -3.376084,6.7698"
       style="fill:#295a5b;fill-opacity:1;fill-rule:nonzero;stroke:none;stroke-width:0.03527778"
       id="path2042"
       inkscape:connector-curvature="0" />
    <path
       d="m 97.038935,97.336555 c -1.294693,-1.739194 -2.437693,-2.83986 -3.263193,-2.83986 -1.231194,0 -3.115027,2.469444 -5.12586,5.863165 2.913943,-0.666749 5.732637,-1.686277 8.389053,-3.023305"
       style="fill:#295a5b;fill-opacity:1;fill-rule:nonzero;stroke:none;stroke-width:0.03527778"
       id="path2044"
       inkscape:connector-curvature="0" />
    <path
       d="m 93.627575,93.254917 c 0,0 -0.07056,-3.309056 2.275417,-4.035778 0,0 -0.656167,-2.511778 -3.44664,-1.890889 0,0 -1.52047,3.686528 1.171223,5.926667"
       style="fill:#ee205d;fill-opacity:1;fill-rule:nonzero;stroke:none;stroke-width:0.03527778"
       id="path2046"
       inkscape:connector-curvature="0" />
    <path
       d="m 93.475882,93.046778 c 0,0 3.03036,1.329972 2.705803,3.757083 0,0 2.561167,0.462139 3.167944,-2.331861 0,0 -2.716387,-2.924528 -5.873747,-1.425222"
       style="fill:#ee205d;fill-opacity:1;fill-rule:nonzero;stroke:none;stroke-width:0.03527778"
       id="path2048"
       inkscape:connector-curvature="0" />
    <path
       d="m 93.451185,93.254917 c 0,0 -2.356553,2.324805 -4.494387,1.114778 0,0 -1.375833,2.204861 0.991304,3.809999 0,0 3.725333,-1.432277 3.503083,-4.924777"
       style="fill:#ee205d;fill-opacity:1;fill-rule:nonzero;stroke:none;stroke-width:0.03527778"
       id="path2050"
       inkscape:connector-curvature="0" />
    <path
       d="m 93.645215,93.085583 c 0,0 2.58586,-1.527527 4.20511,-0.0035 0,0 1.69686,-1.640416 -0.03881,-3.570111 0,0 -3.594804,0.448028 -4.166304,3.573639"
       style="fill:#ee205d;fill-opacity:1;fill-rule:nonzero;stroke:none;stroke-width:0.03527778"
       id="path2052"
       inkscape:connector-curvature="0" />
    <path
       d="m 93.743992,92.873917 c 0,0 0.306917,2.988028 -1.76036,3.817055 0,0 0.779637,2.226028 3.259666,1.456972 0,0 1.097137,-3.446638 -1.499306,-5.274027"
       style="fill:#ee205d;fill-opacity:1;fill-rule:nonzero;stroke:none;stroke-width:0.03527778"
       id="path2054"
       inkscape:connector-curvature="0" />
    <path
       d="m 93.571132,92.948 c 0,0 -2.88925,-0.8255 -2.88925,-3.051528 0,0 -2.356557,-0.109361 -2.568223,2.4765 0,0 2.794,2.310695 5.457473,0.575028"
       style="fill:#ee205d;fill-opacity:1;fill-rule:nonzero;stroke:none;stroke-width:0.03527778"
       id="path2056"
       inkscape:connector-curvature="0" />
    <path
       d="m 97.568102,169.46197 c -0.606777,-0.27164 -1.210027,-0.50447 -1.816804,-0.67733 -0.606779,-0.18345 -1.217083,-0.29986 -1.827389,-0.32809 -0.610307,-0.0212 -1.217084,0.0459 -1.813277,0.21873 -0.592667,0.17286 -1.167697,0.45508 -1.74978,0.78669 0.388057,-0.55033 0.92428,-1.00542 1.552223,-1.30175 0.627944,-0.29986 1.340557,-0.43392 2.042584,-0.40569 0.6985,0.0318 1.37936,0.21872 1.993193,0.51505 0.613833,0.28928 1.181807,0.68086 1.61925,1.19239"
       style="fill:#0b2524;fill-opacity:1;fill-rule:nonzero;stroke:none;stroke-width:0.03527778"
       id="path2058"
       inkscape:connector-curvature="0" />
    <path
       d="m 98.845159,159.89111 c 0,3.42194 -2.183694,6.20183 -4.878917,6.20183 -2.695223,0 -4.878917,-2.77989 -4.878917,-6.20183 0,-3.42547 2.183694,-6.20183 4.878917,-6.20183 2.695223,0 4.878917,2.77636 4.878917,6.20183"
       style="fill:#7b0f1a;fill-opacity:1;fill-rule:nonzero;stroke:none;stroke-width:0.03527778"
       id="path2060"
       inkscape:connector-curvature="0" />
    <path
       d="m 93.966242,153.96797 c -2.536473,0 -4.596694,2.65642 -4.596694,5.92314 0,3.26319 2.060221,5.91961 4.596694,5.91961 2.532943,0 4.596693,-2.65642 4.596693,-5.91961 0,-3.26672 -2.06375,-5.92314 -4.596693,-5.92314 z m 0,12.40367 c -2.846917,0 -5.16114,-2.90689 -5.16114,-6.48053 0,-3.57364 2.314223,-6.48406 5.16114,-6.48406 2.846917,0 5.161137,2.91042 5.161137,6.48406 0,3.57364 -2.31422,6.48053 -5.161137,6.48053"
       style="fill:#0b2524;fill-opacity:1;fill-rule:nonzero;stroke:none;stroke-width:0.03527778"
       id="path2062"
       inkscape:connector-curvature="0" />
    <path
       d="m 90.374965,156.08464 c 1.516944,0.81844 4.430887,1.91205 7.182554,0.24341 -0.836084,-1.41816 -2.166054,-2.33891 -3.668887,-2.33891 -1.411113,0 -2.674057,0.81491 -3.513667,2.0955"
       style="fill:#ffffff;fill-opacity:1;fill-rule:nonzero;stroke:none;stroke-width:0.03527778"
       id="path2064"
       inkscape:connector-curvature="0" />
    <path
       d="m 97.462269,163.66936 c -0.356307,-0.43039 -0.783167,-0.77964 -1.224137,-0.77964 h -2.16253 -0.21872 -2.16253 c -0.44097,0 -0.87136,0.34925 -1.227667,0.77964 0.821974,1.31233 2.08139,2.14842 3.499557,2.14842 1.418167,0 2.677583,-0.83609 3.496027,-2.14842"
       style="fill:#f03852;fill-opacity:1;fill-rule:nonzero;stroke:none;stroke-width:0.03527778"
       id="path2066"
       inkscape:connector-curvature="0" />
    <path
       d="m 98.040825,157.1853 -16.760473,1.41817 -2.095499,0.17992 h -0.01764 c 0.105833,0.004 0.02469,0.004 0.04586,0.004 h -0.0035 -0.02117 l -0.05645,0.004 -0.112889,0.004 h -0.239905 l -0.486834,-0.0105 c -0.328083,-0.0176 -0.659694,-0.0388 -0.98425,-0.0705 -1.315861,-0.13053 -2.624666,-0.39864 -3.852333,-0.88195 -1.202972,-0.47977 -2.173111,-1.397 -3.012722,-2.40947 -0.250472,-0.52564 -0.508,-1.18886 -0.585611,-1.778 -0.172861,-1.25589 0.09172,-2.57175 0.73025,-3.68653 0.645583,-1.1183 1.636889,-2.04258 2.871611,-2.413 1.220611,-0.38805 2.617611,-0.25752 3.739444,0.4057 0.553861,0.32808 1.065389,0.76905 1.411111,1.3088 0.356306,0.53975 0.557389,1.17475 0.592667,1.82739 0.08114,1.30175 -0.564444,2.19781 -1.679222,2.91748 -0.53975,0.34219 -1.195917,0.98425 -1.845028,0.94897 l 0.05997,0.28928 c 0.687917,0.0635 1.354667,-0.18345 2.003778,-0.44098 1.506361,-0.59266 2.642306,-2.36008 2.614083,-3.82764 -0.01058,-0.73377 -0.211666,-1.47461 -0.596194,-2.10608 -0.384528,-0.64558 -0.934861,-1.15711 -1.55575,-1.55575 -1.248833,-0.8008 -3.517194,-1.24883 -4.956528,-0.85372 -0.719666,0.19755 -1.573389,0.74436 -2.162528,1.21708 -0.589138,0.47272 -1.23825,1.05834 -1.640416,1.68981 -0.790222,1.26294 -1.083028,2.88219 -0.931334,4.38855 0.0635,0.762 0.511528,1.53459 0.903112,2.27189 0,0.0141 -0.0071,0.0247 -0.0035,0.0282 0.02117,0.0388 0.05292,0.0741 0.07408,0.11995 0.01058,0.0141 0.01764,0.0317 0.02822,0.0529 0.0035,0 0.0071,-0.004 0.0071,-0.004 0.758472,1.20297 2.084916,2.14136 3.294944,2.87514 1.277056,0.77258 2.667,1.31586 4.092222,1.71097 0.356306,0.0953 0.719667,0.18345 1.083028,0.26106 l 0.553861,0.10936 0.282222,0.0459 0.144639,0.0212 0.07761,0.0106 0.04233,0.004 0.09172,0.007 2.0955,0.17639 16.760473,1.41817 c 0,0 0.518583,-1.33703 0.518583,-3.02684 0,-1.47108 -0.518583,-2.64936 -0.518583,-2.64936"
       style="fill:#94d335;fill-opacity:1;fill-rule:nonzero;stroke:none;stroke-width:0.03527778"
       id="path2068"
       inkscape:connector-curvature="0" />
    <path
       d="m 94.304909,162.54047 2.159,0.18345 v -5.41162 l -2.159,0.18345 v 5.04472"
       style="fill:#295a5b;fill-opacity:1;fill-rule:nonzero;stroke:none;stroke-width:0.03527778"
       id="path2070"
       inkscape:connector-curvature="0" />
    <path
       d="m 89.387185,162.12419 2.16253,0.18345 v -4.57906 l -2.16253,0.18345 v 4.21216"
       style="fill:#295a5b;fill-opacity:1;fill-rule:nonzero;stroke:none;stroke-width:0.03527778"
       id="path2072"
       inkscape:connector-curvature="0" />
    <path
       d="m 84.472992,161.70792 2.159,0.18344 v -3.7465 l -2.159,0.18344 v 3.37962"
       style="fill:#295a5b;fill-opacity:1;fill-rule:nonzero;stroke:none;stroke-width:0.03527778"
       id="path2074"
       inkscape:connector-curvature="0" />
    <path
       d="m 81.717798,161.47155 v -2.91394 l -0.437446,0.0423 -1.725082,0.14464 v 2.54353 l 1.725082,0.15169 0.437446,0.0318"
       style="fill:#295a5b;fill-opacity:1;fill-rule:nonzero;stroke:none;stroke-width:0.03527778"
       id="path2076"
       inkscape:connector-curvature="0" />
    <path
       d="m 74.34827,159.88053 c 0.656167,0.29633 1.3335,0.54327 2.021417,0.75494 l 0.712611,-1.95792 c -0.726723,-0.0776 -1.449917,-0.20813 -2.159,-0.39158 l -0.575028,1.59456"
       style="fill:#295a5b;fill-opacity:1;fill-rule:nonzero;stroke:none;stroke-width:0.03527778"
       id="path2078"
       inkscape:connector-curvature="0" />
    <path
       d="m 70.972187,156.01408 -0.599723,1.25236 c 0.522111,0.51506 1.128889,0.97367 1.739195,1.37584 l 0.575028,-1.2065 c -0.635,-0.37748 -1.202973,-0.86784 -1.7145,-1.4217"
       style="fill:#295a5b;fill-opacity:1;fill-rule:nonzero;stroke:none;stroke-width:0.03527778"
       id="path2080"
       inkscape:connector-curvature="0" />
    <path
       d="m 69.857409,153.64342 c -0.05292,-0.36689 -0.05997,-0.73731 -0.03528,-1.10773 l -1.340556,0.36336 c -0.0035,0.28928 0.0035,0.57503 0.03175,0.85373 0.03528,0.42333 0.1905,0.85019 0.388056,1.27352 l 1.234722,-0.33866 c -0.127,-0.34572 -0.236361,-0.70909 -0.278694,-1.04422"
       style="fill:#295a5b;fill-opacity:1;fill-rule:nonzero;stroke:none;stroke-width:0.03527778"
       id="path2082"
       inkscape:connector-curvature="0" />
    <path
       d="m 69.144798,149.9075 1.072444,0.82197 c 0.105833,-0.26458 0.225778,-0.52564 0.370417,-0.77258 0.22225,-0.38806 0.486833,-0.74436 0.783166,-1.06539 l -0.896055,-0.69145 c -0.391583,0.35984 -0.769056,0.74789 -1.030111,1.16417 -0.109361,0.17286 -0.208139,0.35278 -0.299861,0.54328"
       style="fill:#295a5b;fill-opacity:1;fill-rule:nonzero;stroke:none;stroke-width:0.03527778"
       id="path2084"
       inkscape:connector-curvature="0" />
    <path
       d="m 73.247603,146.45733 c -0.155222,0.0459 -0.3175,0.10584 -0.479778,0.17639 l -0.08819,1.23825 c 0.246944,-0.13405 0.508,-0.24694 0.779639,-0.32808 0.458611,-0.14464 0.941917,-0.21872 1.425222,-0.2152 l 0.07056,-0.9913 c -0.617361,-0.0459 -1.210028,-0.0177 -1.707445,0.11994"
       style="fill:#295a5b;fill-opacity:1;fill-rule:nonzero;stroke:none;stroke-width:0.03527778"
       id="path2086"
       inkscape:connector-curvature="0" />
    <path
       d="m 78.204131,147.31105 c -0.232833,-0.14816 -0.511528,-0.28222 -0.804333,-0.40216 l -0.772584,0.76553 c 0.194028,0.0776 0.388056,0.1658 0.5715,0.27516 0.451556,0.26459 0.864306,0.61031 1.192389,1.01953 l 0.818445,-0.81844 c -0.299862,-0.32103 -0.638528,-0.60325 -1.005417,-0.83962"
       style="fill:#295a5b;fill-opacity:1;fill-rule:nonzero;stroke:none;stroke-width:0.03527778"
       id="path2088"
       inkscape:connector-curvature="0" />
    <path
       d="m 79.202492,151.08578 c 0.02117,0.34572 -0.01058,0.65969 -0.08819,0.9525 l 1.012472,0.17991 c 0.151694,-0.41627 0.236361,-0.84314 0.229305,-1.2453 -0.0035,-0.31045 -0.04939,-0.62442 -0.123472,-0.93134 l -1.3335,-0.23283 c 0.172861,0.40217 0.278695,0.83608 0.303389,1.27706"
       style="fill:#295a5b;fill-opacity:1;fill-rule:nonzero;stroke:none;stroke-width:0.03527778"
       id="path2090"
       inkscape:connector-curvature="0" />
    <path
       d="m 77.52327,154.00325 c -0.186972,0.11994 -0.388056,0.27164 -0.599722,0.4198 l 0.684388,0.43039 c 0.04586,-0.0177 0.09172,-0.0353 0.134056,-0.0529 0.66675,-0.26105 1.248833,-0.75847 1.700389,-1.34761 l -0.776111,-0.4833 c -0.28575,0.38453 -0.670278,0.72672 -1.143,1.03364"
       style="fill:#295a5b;fill-opacity:1;fill-rule:nonzero;stroke:none;stroke-width:0.03527778"
       id="path2092"
       inkscape:connector-curvature="0" />
  </g>
</svg>
