<?xml version="1.0" encoding="UTF-8" standalone="no"?>
<!-- Created with Inkscape (http://www.inkscape.org/) -->

<svg
   xmlns:dc="http://purl.org/dc/elements/1.1/"
   xmlns:cc="http://creativecommons.org/ns#"
   xmlns:rdf="http://www.w3.org/1999/02/22-rdf-syntax-ns#"
   xmlns:svg="http://www.w3.org/2000/svg"
   xmlns="http://www.w3.org/2000/svg"
   xmlns:sodipodi="http://sodipodi.sourceforge.net/DTD/sodipodi-0.dtd"
   xmlns:inkscape="http://www.inkscape.org/namespaces/inkscape"
   width="79.698166mm"
   height="133.79874mm"
   viewBox="0 0 79.698166 133.79874"
   version="1.1"
   id="svg3283"
   inkscape:version="0.92.2 5c3e80d, 2017-08-06"
   sodipodi:docname="monster3.svg">
  <defs
     id="defs3277" />
  <sodipodi:namedview
     id="base"
     pagecolor="#ffffff"
     bordercolor="#666666"
     borderopacity="1.0"
     inkscape:pageopacity="0.0"
     inkscape:pageshadow="2"
     inkscape:zoom="0.35"
     inkscape:cx="159.18214"
     inkscape:cy="229.99085"
     inkscape:document-units="mm"
     inkscape:current-layer="layer1"
     showgrid="false"
     inkscape:window-width="1920"
     inkscape:window-height="1016"
     inkscape:window-x="1920"
     inkscape:window-y="27"
     inkscape:window-maximized="1" />
  <metadata
     id="metadata3280">
    <rdf:RDF>
      <cc:Work
         rdf:about="">
        <dc:format>image/svg+xml</dc:format>
        <dc:type
           rdf:resource="http://purl.org/dc/dcmitype/StillImage" />
        <dc:title></dc:title>
      </cc:Work>
    </rdf:RDF>
  </metadata>
  <g
     inkscape:label="Calque 1"
     inkscape:groupmode="layer"
     id="layer1"
     transform="translate(-63.716393,-75.886341)">
    <g
       id="g984"
       transform="matrix(0.04239472,0,0,-0.04239472,-282.53997,771.25245)">
      <path
         d="m 9744.41,15979.7 c 55.92,-12 66.32,-77.9 67.9,-111.9 l 0.17,-20.4 v -0.2 l 1.67,-495.7 c 0,0 19.05,-261.9 -229.42,-338.9 v -140.1 c 145.62,27.1 342.34,130.6 342.34,492.8 v 499 c 1.33,10.3 0.5,24 0,39 v 8.4 h -0.25 c -0.59,29.3 1.66,62.3 24.21,85.4 36.7,37.5 110.07,51.1 94.07,87.2 -16.2,36 -86.83,-18.3 -97.07,-0.7 -10.23,17.6 124.07,107.3 77.57,136.6 -46.61,29.4 -66.08,-67.5 -110.35,-68.2 -44.35,-0.5 26.79,104.6 -41.86,126.3 -68.65,21.7 -27.62,-125.5 -52.42,-122.3 -24.88,3.2 -56.42,96.3 -91.62,100.9 -35.11,4.7 -30.12,-51.1 -9.32,-68.7 20.81,-17.4 53.76,-85.3 34.2,-120.9 -19.55,-35.5 -109.42,16.5 -124.81,-19.6 -15.48,-36 16.22,-47 114.99,-68"
         style="fill:#4caea9;fill-opacity:1;fill-rule:nonzero;stroke:none"
         id="path986"
         inkscape:connector-curvature="0" />
    </g>
    <g
       id="g988"
       transform="matrix(0.04244269,0,0,-0.04244269,-282.53997,771.25245)">
      <path
         d="m 8460.77,15980.1 c -55.77,-11.9 -66.24,-77.8 -67.9,-111.8 l -0.08,-20.4 v -0.1 l -1.67,-495.1 c 0,0 -19.11,-261.7 229.16,-338.6 v -140 c -145.46,27.1 -341.94,130.5 -341.94,492.3 v 498.5 c -1.38,10.2 -0.48,23.8 0,38.9 v 8.4 h 0.24 c 0.59,29.3 -1.69,62.3 -24.17,85.3 -36.67,37.5 -110.01,51.1 -93.93,87 16.13,36 86.64,-18.2 96.86,-0.5 10.25,17.5 -123.88,106.9 -77.4,136.4 46.53,29.3 65.96,-67.5 110.23,-68.1 44.27,-0.6 -26.79,104.3 41.77,126 68.57,21.7 27.6,-125.3 52.37,-122.1 24.85,3.2 56.35,96.2 91.43,100.8 35.16,4.7 30.09,-51 9.39,-68.6 -20.78,-17.5 -53.69,-85.3 -34.08,-120.8 19.53,-35.4 109.3,16.5 124.6,-19.6 15.45,-36 -16.21,-46.9 -114.88,-67.9"
         style="fill:#4caea9;fill-opacity:1;fill-rule:nonzero;stroke:none"
         id="path990"
         inkscape:connector-curvature="0" />
    </g>
    <g
       id="g992"
       transform="matrix(0.04141505,0,0,-0.04141505,-282.53997,771.25245)">
      <path
         d="m 9828.69,15668.9 c 0,617.9 -999.43,631.1 -999.43,0 v -752.8 l -0.59,-1250 h -68.4 c -28.63,0 -51.79,-23.9 -51.79,-53.2 0,-29.5 23.16,-53.4 51.79,-53.4 h 68.4 60.39 51.7 v 1036.4 c 49.07,-38.4 111.93,-69.4 183.83,-89.8 v -840 h -68.32 c -28.62,0 -51.79,-23.9 -51.79,-53.2 0,-29.5 23.17,-53.4 51.79,-53.4 h 68.32 60.39 51.79 v 924.1 c 30.58,-3.7 62.1,-5.6 94.29,-5.6 30.58,0 60.48,1.8 89.53,5.1 v -817 h -68.32 c -28.62,0 -51.7,-23.9 -51.7,-53.2 0,-29.5 23.08,-53.4 51.7,-53.4 h 68.32 60.39 51.79 v 945.2 c 71.55,19.9 134.42,49.9 183.82,87.3 v -925.9 h -68.31 c -28.62,0 -51.79,-23.9 -51.79,-53.2 0,-29.5 23.17,-53.4 51.79,-53.4 h 68.31 60.4 51.7 v 2109.4"
         style="fill:#57c6c1;fill-opacity:1;fill-rule:nonzero;stroke:none"
         id="path994"
         inkscape:connector-curvature="0" />
    </g>
    <g
       id="g996"
       transform="matrix(0.04070491,0,0,-0.04070491,-282.53997,771.25245)">
      <path
         d="m 9493.43,16165.6 c -6.33,0 -11.44,5.1 -11.44,11.4 v 111.6 c 0,6.2 5.02,11.4 11.35,11.4 6.33,0 11.44,-5.2 11.44,-11.4 l 0.09,-111.6 c 0,-6.3 -5.12,-11.4 -11.44,-11.4"
         style="fill:#0f3633;fill-opacity:1;fill-rule:nonzero;stroke:none"
         id="path998"
         inkscape:connector-curvature="0" />
    </g>
    <g
       id="g1000"
       transform="matrix(0.04059484,0,0,-0.04059484,-282.53997,771.25245)">
      <path
         d="m 9635.86,16174.8 c -1.74,0 -3.39,0.3 -4.96,1.1 -5.73,2.8 -8.08,9.7 -5.38,15.4 l 48.83,100.7 c 2.7,5.6 9.56,8 15.3,5.3 5.65,-2.8 8.08,-9.6 5.3,-15.3 l -48.75,-100.8 c -2,-4 -6.08,-6.4 -10.34,-6.4"
         style="fill:#0f3633;fill-opacity:1;fill-rule:nonzero;stroke:none"
         id="path1002"
         inkscape:connector-curvature="0" />
    </g>
    <g
       id="g1004"
       transform="matrix(0.04034331,0,0,-0.04034331,-282.53997,771.25245)">
      <path
         d="m 9794.23,16198.9 c -3.06,0 -6.12,1.1 -8.48,3.6 -4.28,4.6 -4.02,11.9 0.61,16.3 l 82.2,76.9 c 4.63,4.3 11.98,4 16.35,-0.6 4.29,-4.7 4.11,-11.9 -0.52,-16.3 l -82.29,-76.9 c -2.27,-2 -5.07,-3 -7.87,-3"
         style="fill:#0f3633;fill-opacity:1;fill-rule:nonzero;stroke:none"
         id="path1006"
         inkscape:connector-curvature="0" />
    </g>
    <g
       id="g1008"
       transform="matrix(0.04059061,0,0,-0.04059061,-282.53997,771.25245)">
      <path
         d="m 9384.41,16174.9 c -4.35,0 -8.43,2.4 -10.43,6.6 l -46.15,100.7 c -2.61,5.7 -0.09,12.5 5.65,15.1 5.73,2.7 12.51,0.2 15.21,-5.6 l 46.15,-100.7 c 2.6,-5.7 0.08,-12.5 -5.65,-15.2 -1.56,-0.7 -3.13,-0.9 -4.78,-0.9"
         style="fill:#0f3633;fill-opacity:1;fill-rule:nonzero;stroke:none"
         id="path1010"
         inkscape:connector-curvature="0" />
    </g>
    <g
       id="g1012"
       transform="matrix(0.04033873,0,0,-0.04033873,-282.53997,771.25245)">
      <path
         d="m 9352.67,16199 c -2.97,0 -5.95,1.1 -8.13,3.3 l -77.84,76.9 c -4.55,4.4 -4.55,11.7 -0.08,16.2 4.54,4.6 11.8,4.6 16.26,0.1 l 77.84,-76.9 c 4.54,-4.4 4.63,-11.7 0.08,-16.3 -2.27,-2.2 -5.24,-3.3 -8.13,-3.3"
         style="fill:#0f3633;fill-opacity:1;fill-rule:nonzero;stroke:none"
         id="path1014"
         inkscape:connector-curvature="0" />
    </g>
    <g
       id="g1016"
       transform="matrix(0.04039764,0,0,-0.04039764,-282.53997,771.25245)">
      <path
         d="m 9848.57,16016.9 c 0,-156.2 -126.62,-282.9 -282.94,-282.9 -156.31,0 -283.02,126.7 -283.02,282.9 0,156.4 126.71,283.1 283.02,283.1 156.32,0 282.94,-126.7 282.94,-283.1"
         style="fill:#ffffff;fill-opacity:1;fill-rule:nonzero;stroke:none"
         id="path1018"
         inkscape:connector-curvature="0" />
    </g>
    <g
       id="g1020"
       transform="matrix(0.04021631,0,0,-0.04021631,-282.53997,771.25245)">
      <path
         d="m 9819.54,16089.1 c 0,-116.4 -94.39,-210.8 -210.79,-210.8 -116.49,0 -210.97,94.4 -210.97,210.8 0,116.6 94.48,210.9 210.97,210.9 116.4,0 210.79,-94.3 210.79,-210.9"
         style="fill:#54c8f4;fill-opacity:1;fill-rule:nonzero;stroke:none"
         id="path1022"
         inkscape:connector-curvature="0" />
    </g>
    <g
       id="g1024"
       transform="matrix(0.04011859,0,0,-0.04011859,-282.53997,771.25245)">
      <path
         d="m 9803.68,16128.4 c 0,-94.7 -76.77,-171.5 -171.47,-171.5 -94.79,0 -171.56,76.8 -171.56,171.5 0,94.9 76.77,171.6 171.56,171.6 94.7,0 171.47,-76.7 171.47,-171.6"
         style="fill:#5a3114;fill-opacity:1;fill-rule:nonzero;stroke:none"
         id="path1026"
         inkscape:connector-curvature="0" />
    </g>
    <g
       id="g1028"
       transform="matrix(0.03951146,0,0,-0.03951146,-282.53997,771.25245)">
      <path
         d="m 9628.21,16251 c 0,-27.1 -21.88,-49 -49.02,-49 -26.96,0 -48.84,21.9 -48.84,49 0,27 21.88,49 48.84,49 27.14,0 49.02,-22 49.02,-49"
         style="fill:#ffffff;fill-opacity:1;fill-rule:nonzero;stroke:none"
         id="path1030"
         inkscape:connector-curvature="0" />
    </g>
    <g
       id="g1032"
       transform="matrix(0.0401641,0,0,-0.0401641,-282.53997,771.25245)">
      <path
         d="m 9769.15,16251.9 c 0,-26.7 -21.52,-48.2 -48.22,-48.2 -26.53,0 -48.14,21.5 -48.14,48.2 0,26.5 21.61,48.1 48.14,48.1 26.7,0 48.22,-21.6 48.22,-48.1"
         style="fill:#ffffff;fill-opacity:1;fill-rule:nonzero;stroke:none"
         id="path1034"
         inkscape:connector-curvature="0" />
    </g>
    <g
       id="g1036"
       transform="matrix(0.03756907,0,0,-0.03756907,-282.53997,771.25245)">
      <path
         d="m 10775.8,16237.4 c 0,-34.5 -28,-62.5 -62.5,-62.5 -34.6,0 -62.6,28 -62.6,62.5 0,34.6 28,62.6 62.6,62.6 34.5,0 62.5,-28 62.5,-62.6"
         style="fill:#227f73;fill-opacity:1;fill-rule:nonzero;stroke:none"
         id="path1038"
         inkscape:connector-curvature="0" />
    </g>
    <g
       id="g1040"
       transform="matrix(0.03729461,0,0,-0.03729461,-282.53997,771.25245)">
      <path
         d="m 10735.1,16261.2 c 0,-21.5 -17.3,-38.9 -38.6,-38.9 -21.5,0 -38.9,17.4 -38.9,38.9 0,21.5 17.4,38.8 38.9,38.8 21.3,0 38.6,-17.3 38.6,-38.8"
         style="fill:#227f73;fill-opacity:1;fill-rule:nonzero;stroke:none"
         id="path1042"
         inkscape:connector-curvature="0" />
    </g>
    <g
       id="g1044"
       transform="matrix(0.03745653,0,0,-0.03745653,-282.53997,771.25245)">
      <path
         d="m 10669.9,16274.6 c 0,-13.9 -11.3,-25.2 -25.2,-25.2 -14.1,0 -25.4,11.3 -25.4,25.2 0,14 11.3,25.4 25.4,25.4 13.9,0 25.2,-11.4 25.2,-25.4"
         style="fill:#227f73;fill-opacity:1;fill-rule:nonzero;stroke:none"
         id="path1046"
         inkscape:connector-curvature="0" />
    </g>
    <g
       id="g1048"
       transform="matrix(0.03735317,0,0,-0.03735317,-282.53997,771.25245)">
      <path
         d="m 10645.2,16280.2 c 0,-11 -8.9,-19.9 -19.9,-19.9 -11,0 -19.8,8.9 -19.8,19.9 0,10.9 8.8,19.8 19.8,19.8 11,0 19.9,-8.9 19.9,-19.8"
         style="fill:#227f73;fill-opacity:1;fill-rule:nonzero;stroke:none"
         id="path1050"
         inkscape:connector-curvature="0" />
    </g>
    <g
       id="g1052"
       transform="matrix(0.03755919,0,0,-0.03755919,-282.53997,771.25245)">
      <path
         d="m 10622.3,16298.6 c 9.1,1.4 17.5,-5 18.8,-14.2 1.4,-9.1 -5,-17.6 -14.2,-18.9 -9.2,-1.4 -17.7,5.2 -18.9,14.3 -1.3,9.1 5.1,17.6 14.3,18.8"
         style="fill:#227f73;fill-opacity:1;fill-rule:nonzero;stroke:none"
         id="path1054"
         inkscape:connector-curvature="0" />
    </g>
    <g
       id="g1056"
       transform="matrix(0.03745159,0,0,-0.03745159,-282.53997,771.25245)">
      <path
         d="m 9941.06,16174.5 c -34.67,0 -62.74,28.2 -62.74,62.8 0,34.7 28.07,62.7 62.74,62.7 34.66,0 62.74,-28 62.74,-62.7 0,-34.6 -28.08,-62.8 -62.74,-62.8"
         style="fill:#227f73;fill-opacity:1;fill-rule:nonzero;stroke:none"
         id="path1058"
         inkscape:connector-curvature="0" />
    </g>
    <g
       id="g1060"
       transform="matrix(0.03761493,0,0,-0.03761493,-282.53997,771.25245)">
      <path
         d="m 9802.95,16223 c -21.2,0 -38.45,17.4 -38.45,38.6 0,21.3 17.25,38.4 38.45,38.4 21.29,0 38.45,-17.1 38.45,-38.4 0,-21.2 -17.16,-38.6 -38.45,-38.6"
         style="fill:#227f73;fill-opacity:1;fill-rule:nonzero;stroke:none"
         id="path1062"
         inkscape:connector-curvature="0" />
    </g>
    <g
       id="g1064"
       transform="matrix(0.03759729,0,0,-0.03759729,-282.53997,771.25245)">
      <path
         d="m 9890.98,16249.6 c -13.88,0 -25.14,11.2 -25.14,25.2 0,13.9 11.26,25.2 25.14,25.2 13.89,0 25.15,-11.3 25.15,-25.2 0,-14 -11.26,-25.2 -25.15,-25.2"
         style="fill:#227f73;fill-opacity:1;fill-rule:nonzero;stroke:none"
         id="path1066"
         inkscape:connector-curvature="0" />
    </g>
    <g
       id="g1068"
       transform="matrix(0.03769642,0,0,-0.03769642,-282.53997,771.25245)">
      <path
         d="m 9825.89,16260.6 c -10.86,0 -19.66,8.9 -19.66,19.7 0,10.9 8.8,19.7 19.66,19.7 10.85,0 19.65,-8.8 19.65,-19.7 0,-10.8 -8.8,-19.7 -19.65,-19.7"
         style="fill:#227f73;fill-opacity:1;fill-rule:nonzero;stroke:none"
         id="path1070"
         inkscape:connector-curvature="0" />
    </g>
    <g
       id="g1072"
       transform="matrix(0.03755954,0,0,-0.03755954,-282.53997,771.25245)">
      <path
         d="m 9969.34,16284.4 c 1.31,-9.2 -5.07,-17.6 -14.28,-18.9 -9.11,-1.3 -17.66,5.1 -18.88,14.2 -1.31,9.2 5.07,17.6 14.28,18.9 9.11,1.4 17.66,-5 18.88,-14.2"
         style="fill:#227f73;fill-opacity:1;fill-rule:nonzero;stroke:none"
         id="path1074"
         inkscape:connector-curvature="0" />
    </g>
    <g
       id="g1076"
       transform="matrix(0.03866832,0,0,-0.03866832,-282.53997,771.25245)">
      <path
         d="m 10224,16293.2 c 11.2,4.8 23.5,6.8 35.9,6.8 12.4,-0.1 25.2,-2.5 36.9,-8.5 11.6,-6 21.3,-16.4 26.2,-28.3 5,-12 5.8,-24.8 3.5,-36.8 -2.9,11.8 -6.5,23 -12.4,32.3 -5.7,9.4 -13.7,16.6 -23.3,21.6 -9.5,5.1 -20.4,7.9 -31.7,9.8 -11.3,1.9 -23,2.7 -35.1,3.1"
         style="fill:#0b2524;fill-opacity:1;fill-rule:nonzero;stroke:none"
         id="path1078"
         inkscape:connector-curvature="0" />
    </g>
    <g
       id="g1080"
       transform="matrix(0.03866832,0,0,-0.03866832,-282.53997,771.25245)">
      <path
         d="m 9762.06,16293.2 c -12.14,-0.4 -23.81,-1.2 -35.22,-3.1 -11.22,-1.9 -22.16,-4.7 -31.65,-9.8 -9.58,-5 -17.61,-12.2 -23.36,-21.6 -5.84,-9.3 -9.31,-20.5 -12.31,-32.3 -2.28,12 -1.56,24.8 3.46,36.8 4.84,11.9 14.69,22.3 26.28,28.3 11.58,6 24.45,8.4 36.85,8.5 12.41,0 24.64,-2 35.95,-6.8"
         style="fill:#0b2524;fill-opacity:1;fill-rule:nonzero;stroke:none"
         id="path1082"
         inkscape:connector-curvature="0" />
    </g>
    <g
       id="g1084"
       transform="matrix(0.03815256,0,0,-0.03815256,-282.53997,771.25245)">
      <path
         d="m 10039,16300 c 12.1,-5.7 24.1,-10.5 36.3,-14.2 12.2,-3.7 24.5,-6 36.8,-6.6 12.3,-0.5 24.6,0.9 36.6,4.5 12,3.5 23.4,9.4 34.8,16.3 -7.7,-10.9 -18.7,-19.8 -31.1,-25.7 -12.6,-5.9 -26.9,-8.5 -40.8,-7.8 -14,0.5 -27.6,4.1 -39.9,9.9 -12.3,5.9 -23.7,13.6 -32.7,23.6"
         style="fill:#0b2524;fill-opacity:1;fill-rule:nonzero;stroke:none"
         id="path1086"
         inkscape:connector-curvature="0" />
    </g>
    <g
       id="g1088"
       transform="matrix(0.03875123,0,0,-0.03875123,-282.53997,771.25245)">
      <path
         d="m 10306.4,16244.3 c 0.5,8.6 1,16.8 0.4,24.7 -0.5,7.8 -2.5,15.5 -7.1,18.9 -2.3,1.8 -5.6,2.7 -9.2,3.1 -3.7,0.4 -7.8,0.4 -11.8,0.2 -8.1,-0.2 -16.5,-1.4 -25.1,-0.9 7.9,3.3 15.7,6.3 24.1,8.2 4.3,0.8 8.7,1.5 13.3,1.4 4.7,-0.1 9.8,-1.1 14.4,-4.4 4.5,-3.4 6.9,-8.2 8.1,-12.9 1.2,-4.7 1.3,-9.3 0.8,-13.7 -0.9,-8.9 -3.5,-17.2 -7.9,-24.6"
         style="fill:#0b2524;fill-opacity:1;fill-rule:nonzero;stroke:none"
         id="path1090"
         inkscape:connector-curvature="0" />
    </g>
    <g
       id="g1092"
       transform="matrix(0.03875123,0,0,-0.03875123,-282.53997,771.25245)">
      <path
         d="m 9603.78,16244.3 c -4.28,7.4 -7.01,15.7 -7.92,24.6 -0.45,4.4 -0.27,9 0.91,13.7 1.1,4.7 3.55,9.5 8.11,12.9 4.55,3.3 9.64,4.3 14.29,4.4 4.64,0.1 9.01,-0.6 13.29,-1.4 8.46,-1.9 16.29,-4.9 24.12,-8.2 -8.46,-0.5 -17.02,0.7 -25.12,0.9 -4.01,0.2 -8.01,0.2 -11.66,-0.2 -3.73,-0.4 -7.1,-1.3 -9.28,-3.1 -4.65,-3.4 -6.56,-11.1 -7.1,-18.9 -0.55,-7.9 -0.09,-16.1 0.36,-24.7"
         style="fill:#0b2524;fill-opacity:1;fill-rule:nonzero;stroke:none"
         id="path1094"
         inkscape:connector-curvature="0" />
    </g>
    <g
       id="g1096"
       transform="matrix(0.03851698,0,0,-0.03851698,-282.53997,771.25245)">
      <path
         d="m 9758.34,16300 c -125.84,-37.4 -168.61,-261.1 -60.45,-296.8 91.96,-30.6 144.44,16.9 149.2,89 4.03,61 29.22,99 60.64,122.7 l -90.31,39.3 -59.08,45.8"
         style="fill:#f03852;fill-opacity:1;fill-rule:nonzero;stroke:none"
         id="path1098"
         inkscape:connector-curvature="0" />
    </g>
    <g
       id="g1100"
       transform="matrix(0.03852933,0,0,-0.03852933,-282.53997,771.25245)">
      <path
         d="m 9754.21,16289.5 c -71.51,-22.8 -115.18,-110 -116.37,-182.1 -0.82,-54.2 20.51,-92.4 58.51,-104.9 18.22,-6.1 35.43,-9.1 51.18,-9.1 53.56,0 87.71,35.1 91.65,94 3.48,52 22.34,92.7 56.22,121.1 l -83.6,36.4 z m -6.59,-305.6 h -0.09 c -16.76,0 -34.98,3.2 -54.2,9.6 -41.57,13.8 -65.84,56.4 -65.01,114.1 1.19,75.2 45.6,168 125.62,191.7 l 2.29,0.7 60.52,-46.8 97.24,-42.4 -6.6,-4.9 c -35.52,-26.8 -55.3,-66.8 -58.69,-119.2 -4.21,-63.4 -42.94,-102.8 -101.08,-102.8"
         style="fill:#0b2524;fill-opacity:1;fill-rule:nonzero;stroke:none"
         id="path1102"
         inkscape:connector-curvature="0" />
    </g>
    <g
       id="g1104"
       transform="matrix(0.03862599,0,0,-0.03862599,-282.53997,771.25245)">
      <path
         d="m 10004.9,16149 h -2.1 c -121.59,0.5 -199.4,39.4 -243.42,72.1 -48.32,35.9 -67.04,71.6 -67.77,73.2 l 11.23,5.7 c 0.18,-0.3 18.54,-34.9 64.66,-69.1 42.56,-31.6 118,-69.1 236.3,-69.2 227,0.4 300.3,136.9 301,138.3 l 11.2,-5.7 c -0.7,-1.6 -19.5,-37.3 -67.7,-73.2 -44,-32.7 -121.9,-71.6 -243.4,-72.1 v 0"
         style="fill:#0b2524;fill-opacity:1;fill-rule:nonzero;stroke:none"
         id="path1106"
         inkscape:connector-curvature="0" />
    </g>
    <g
       id="g1108"
       transform="matrix(0.0383988,0,0,-0.0383988,-282.53997,771.25245)">
      <path
         d="m 9837.4,16300 c -14.14,-17.5 -26.64,-35.8 -37.85,-54.7 -11.12,-19 -20.58,-38.9 -28.02,-59.4 -7.44,-20.5 -12.77,-41.8 -15.34,-63.4 -2.57,-21.8 -2.48,-43.9 -0.28,-66.3 -7.35,21.2 -10.47,44.2 -9.64,66.9 0.82,22.9 5.41,45.7 13.23,67.2 7.81,21.5 18.64,41.8 31.69,60.3 13.23,18.5 28.39,35.7 46.21,49.4"
         style="fill:#972230;fill-opacity:1;fill-rule:nonzero;stroke:none"
         id="path1110"
         inkscape:connector-curvature="0" />
    </g>
    <g
       id="g1112"
       transform="matrix(0.04230052,0,0,-0.04230052,-282.53997,771.25245)">
      <path
         d="m 9512.23,15633.6 h -784.78 c 0,0 280.14,666.4 383.8,666.4 104.17,0 400.98,-666.4 400.98,-666.4"
         style="fill:#94d335;fill-opacity:1;fill-rule:nonzero;stroke:none"
         id="path1114"
         inkscape:connector-curvature="0" />
    </g>
    <g
       id="g1116"
       transform="matrix(0.0409769,0,0,-0.0409769,-282.53997,771.25245)">
      <path
         d="m 9718.83,16300 c -55.87,-51.9 -117.77,-94.5 -183.63,-127.3 h 164.61 c 18.33,17.5 35.9,36 52.86,55.3 -9.3,20 -20.75,44.5 -33.84,72"
         style="fill:#295a5b;fill-opacity:1;fill-rule:nonzero;stroke:none"
         id="path1118"
         inkscape:connector-curvature="0" />
    </g>
    <g
       id="g1120"
       transform="matrix(0.04139635,0,0,-0.04139635,-282.53997,771.25245)">
      <path
         d="m 9578.91,16219.7 c -12.87,26 -26.5,53 -40.65,80.3 -151.43,-106.7 -334.14,-154.3 -513.44,-136.6 -40.65,-88.6 -68.43,-154.7 -68.43,-154.7 h 188.67 c 160.98,29.2 311.48,101.7 433.85,211"
         style="fill:#295a5b;fill-opacity:1;fill-rule:nonzero;stroke:none"
         id="path1122"
         inkscape:connector-curvature="0" />
    </g>
    <g
       id="g1124"
       transform="matrix(0.04183733,0,0,-0.04183733,-282.53997,771.25245)">
      <path
         d="m 8959.82,16057.9 c 156.33,12.2 306,65.3 433.58,153.4 -17.12,31 -34.41,61.1 -51.27,88.7 -94.61,-47.7 -197.48,-74.9 -301.62,-80.2 -28.08,-53.1 -55.73,-109.3 -80.69,-161.9"
         style="fill:#295a5b;fill-opacity:1;fill-rule:nonzero;stroke:none"
         id="path1126"
         inkscape:connector-curvature="0" />
    </g>
    <g
       id="g1128"
       transform="matrix(0.04221445,0,0,-0.04221445,-282.53997,771.25245)">
      <path
         d="m 9206.62,16232.8 c -30.67,41.1 -57.74,67.2 -77.3,67.2 -29.16,0 -73.79,-58.3 -121.42,-138.8 69.02,15.8 135.71,39.9 198.72,71.6"
         style="fill:#295a5b;fill-opacity:1;fill-rule:nonzero;stroke:none"
         id="path1130"
         inkscape:connector-curvature="0" />
    </g>
    <g
       id="g1132"
       transform="matrix(0.04269246,0,0,-0.04269246,-282.53997,771.25245)">
      <path
         d="m 9023.62,16146.5 c 0,0 -1.65,77.7 53.22,94.6 0,0 -15.29,58.9 -80.74,44.4 0,0 -35.53,-86.4 27.52,-139"
         style="fill:#ee205d;fill-opacity:1;fill-rule:nonzero;stroke:none"
         id="path1134"
         inkscape:connector-curvature="0" />
    </g>
    <g
       id="g1136"
       transform="matrix(0.04239542,0,0,-0.04239542,-282.53997,771.25245)">
      <path
         d="m 9083.16,16264.6 c 0,0 71.56,-31.3 63.91,-88.6 0,0 60.32,-10.9 74.64,55.1 0,0 -63.99,68.9 -138.55,33.5"
         style="fill:#ee205d;fill-opacity:1;fill-rule:nonzero;stroke:none"
         id="path1138"
         inkscape:connector-curvature="0" />
    </g>
    <g
       id="g1140"
       transform="matrix(0.04229065,0,0,-0.04229065,-282.53997,771.25245)">
      <path
         d="m 9105.21,16300 c 0,0 -55.72,-54.9 -106.27,-26.3 0,0 -32.62,-52.1 23.36,-90 0,0 88.09,33.8 82.91,116.3"
         style="fill:#ee205d;fill-opacity:1;fill-rule:nonzero;stroke:none"
         id="path1142"
         inkscape:connector-curvature="0" />
    </g>
    <g
       id="g1144"
       transform="matrix(0.0425203,0,0,-0.0425203,-282.53997,771.25245)">
      <path
         d="m 9060.6,16216 c 0,0 60.81,36.1 98.9,0.1 0,0 39.9,38.6 -1,83.9 0,0 -84.46,-10.5 -97.9,-84"
         style="fill:#ee205d;fill-opacity:1;fill-rule:nonzero;stroke:none"
         id="path1146"
         inkscape:connector-curvature="0" />
    </g>
    <g
       id="g1148"
       transform="matrix(0.04231428,0,0,-0.04231428,-282.53997,771.25245)">
      <path
         d="m 9106.94,16300 c 0,0 7.26,-70.7 -41.51,-90.3 0,0 18.34,-52.6 76.95,-34.5 0,0 26.01,81.6 -35.44,124.8"
         style="fill:#ee205d;fill-opacity:1;fill-rule:nonzero;stroke:none"
         id="path1150"
         inkscape:connector-curvature="0" />
    </g>
    <g
       id="g1152"
       transform="matrix(0.04250337,0,0,-0.04250337,-282.53997,771.25245)">
      <path
         d="m 9062.45,16225.7 c 0,0 -67.98,19.4 -67.98,71.8 0,0 -55.53,2.5 -60.42,-58.3 0,0 65.65,-54.2 128.4,-13.5"
         style="fill:#ee205d;fill-opacity:1;fill-rule:nonzero;stroke:none"
         id="path1154"
         inkscape:connector-curvature="0" />
    </g>
  </g>
</svg>
