<?xml version="1.0" encoding="UTF-8" standalone="no"?>
<!-- Created with Inkscape (http://www.inkscape.org/) -->

<svg
   xmlns:dc="http://purl.org/dc/elements/1.1/"
   xmlns:cc="http://creativecommons.org/ns#"
   xmlns:rdf="http://www.w3.org/1999/02/22-rdf-syntax-ns#"
   xmlns:svg="http://www.w3.org/2000/svg"
   xmlns="http://www.w3.org/2000/svg"
   xmlns:sodipodi="http://sodipodi.sourceforge.net/DTD/sodipodi-0.dtd"
   xmlns:inkscape="http://www.inkscape.org/namespaces/inkscape"
   width="116.41479mm"
   height="124.71146mm"
   viewBox="0 0 116.41479 124.71146"
   version="1.1"
   id="svg5854"
   inkscape:version="0.92.2 5c3e80d, 2017-08-06"
   sodipodi:docname="monster13.svg">
  <defs
     id="defs5848" />
  <sodipodi:namedview
     id="base"
     pagecolor="#ffffff"
     bordercolor="#666666"
     borderopacity="1.0"
     inkscape:pageopacity="0.0"
     inkscape:pageshadow="2"
     inkscape:zoom="0.35"
     inkscape:cx="248.56789"
     inkscape:cy="224.24571"
     inkscape:document-units="mm"
     inkscape:current-layer="layer1"
     showgrid="false"
     inkscape:window-width="1920"
     inkscape:window-height="1016"
     inkscape:window-x="1920"
     inkscape:window-y="27"
     inkscape:window-maximized="1" />
  <metadata
     id="metadata5851">
    <rdf:RDF>
      <cc:Work
         rdf:about="">
        <dc:format>image/svg+xml</dc:format>
        <dc:type
           rdf:resource="http://purl.org/dc/dcmitype/StillImage" />
        <dc:title></dc:title>
      </cc:Work>
    </rdf:RDF>
  </metadata>
  <g
     inkscape:label="Calque 1"
     inkscape:groupmode="layer"
     id="layer1"
     transform="translate(-40.066412,-83.453544)">
    <path
       d="m 144.56692,113.11303 c 2.19886,0.4692 2.60879,3.06564 2.67229,4.40267 l 0.004,0.79728 v 0.007 l 0.0688,6.42055 c 0,0 0.75036,10.30464 -9.02265,13.33148 v 5.51391 c 5.72524,-1.06539 13.46236,-5.13644 13.46236,-19.38514 v -6.55461 c 0.0543,-0.39864 0.0198,-0.93486 0,-1.53105 v -0.33162 h -0.01 c -0.0233,-1.14652 0.066,-2.44122 0.95144,-3.35138 1.44463,-1.47814 4.33211,-2.01437 3.69853,-3.43253 -0.63571,-1.41464 -3.41172,0.71966 -3.81459,0.0282 -0.40217,-0.69498 4.88033,-4.21923 3.04729,-5.37281 -1.83056,-1.15711 -2.59609,2.65289 -4.3381,2.67758 -1.74379,0.0212 1.05374,-4.10633 -1.64677,-4.96005 -2.70016,-0.85725 -1.08338,4.93183 -2.05881,4.80483 -0.97896,-0.12347 -2.22003,-3.7853 -3.60257,-3.96522 -1.3843,-0.18344 -1.18604,2.00731 -0.36689,2.69875 0.81563,0.69144 2.10961,3.35492 1.34232,4.75544 -0.77082,1.397 -4.30459,-0.64911 -4.91067,0.77259 -0.60748,1.41816 0.63959,1.84855 4.52403,2.67405"
       style="fill:#804898;fill-opacity:1;fill-rule:nonzero;stroke:none;stroke-width:0.03527778"
       id="path1540"
       inkscape:connector-curvature="0" />
    <path
       d="m 92.260561,139.45142 c -3.31188,1.56986 -6.56308,1.34056 -6.56308,1.34056 l -6.12211,-0.0635 h -0.002 l -0.76411,-0.004 c -1.276,-0.06 -3.74933,-0.45508 -4.19876,-2.55058 -0.78988,-3.7077 -1.19628,-4.89303 -2.55059,-4.318 -1.35361,0.58208 0.59725,3.95463 -0.7366,4.68488 -1.33456,0.73025 -3.87738,-0.50094 -4.53496,-1.28058 -0.65899,-0.77611 -2.74919,-0.97014 -2.57457,0.34925 0.17251,1.31939 3.66324,2.50472 3.7846,3.43958 0.121,0.92428 -5.40138,-0.6103 -4.58646,1.96498 0.81385,2.57175 4.75227,-0.0952 4.73251,1.56633 -0.0222,1.66158 -3.65831,2.39183 -2.55552,4.13808 1.10243,1.74978 4.46264,-3.29141 5.12445,-2.91041 0.66005,0.38805 -1.37513,3.03741 -0.0251,3.64419 1.34902,0.60325 1.86302,-2.15194 3.2706,-3.52778 0.8636,-0.84314 2.1022,-0.93486 3.20146,-0.90664 v 0.007 h 0.31362 c 0.5662,0.0176 1.0795,0.0529 1.46155,0 h 6.24946 c 2.73544,0 5.07118,-0.30339 7.07602,-0.8255 v -4.74839"
       style="fill:#804898;fill-opacity:1;fill-rule:nonzero;stroke:none;stroke-width:0.03527778"
       id="path1542"
       inkscape:connector-curvature="0" />
    <path
       d="m 140.15296,152.02442 h -0.0113 c 0.23036,-0.9278 0.36618,-1.88383 0.36618,-2.88219 v -17.5507 c 0,-6.58283 -5.33682,-11.92036 -11.92106,-11.92036 h -7.18432 c 1.26153,-5.69736 5.26344,-16.77105 17.62054,-20.055416 l -2.67088,-1.485195 C 122.80369,101.72889 119.29426,114.697 118.43666,119.67117 h -6.36482 C 111.21847,114.697 107.73726,101.72889 94.290781,98.130559 l -2.64865,1.485195 c 12.261489,3.284366 16.236239,14.358056 17.486479,20.055416 h -7.03156 c -6.581069,0 -11.917889,5.33753 -11.917889,11.92036 v 17.5507 c 0,0.19403 0.0208,0.38453 0.0293,0.57855 l -0.0155,-0.004 c 0,0 -8.70691,58.44823 1.79281,58.44823 6.81497,0 3.55953,-44.68284 11.233859,-44.67931 7.67256,0.004 2.19322,44.67931 12.91131,44.67931 10.71916,0 4.92584,-45.16967 12.91202,-45.16967 7.98865,0 2.88855,47.61089 10.52301,44.88392 7.63552,-2.72697 0.58702,-55.85531 0.58702,-55.85531"
       style="fill:#9153af;fill-opacity:1;fill-rule:nonzero;stroke:none;stroke-width:0.03527778"
       id="path1544"
       inkscape:connector-curvature="0" />
    <path
       d="m 133.34999,98.130559 c 0,-2.363611 1.91312,-4.275666 4.27567,-4.275666 2.35973,0 4.27355,1.912055 4.27355,4.275666 0,2.360081 -1.91382,4.275671 -4.27355,4.275671 -2.36255,0 -4.27567,-1.91559 -4.27567,-4.275671"
       style="fill:#f03a74;fill-opacity:1;fill-rule:nonzero;stroke:none;stroke-width:0.03527778"
       id="path1546"
       inkscape:connector-curvature="0" />
    <path
       d="m 97.251301,98.130559 c 0,-2.363611 -1.89865,-4.275666 -4.24285,-4.275666 -2.34104,0 -4.2418,1.912055 -4.2418,4.275666 0,2.360081 1.90076,4.275671 4.2418,4.275671 2.3442,0 4.24285,-1.91559 4.24285,-4.275671"
       style="fill:#f03a74;fill-opacity:1;fill-rule:nonzero;stroke:none;stroke-width:0.03527778"
       id="path1548"
       inkscape:connector-curvature="0" />
    <path
       d="m 118.70901,118.24242 2.95028,0.31397 c 0.15628,-0.60677 0.34008,-1.25589 0.55845,-1.93675 l -2.99156,-0.43039 c -0.21131,0.74084 -0.37959,1.42875 -0.51717,2.05317"
       style="fill:#80cc28;fill-opacity:1;fill-rule:nonzero;stroke:none;stroke-width:0.03527778"
       id="path1550"
       inkscape:connector-curvature="0" />
    <path
       d="m 119.8185,114.31953 2.97921,0.64911 c 0.20813,-0.55033 0.4392,-1.11125 0.69285,-1.68275 l -2.82222,-1.13947 c -0.32138,0.74436 -0.60431,1.47108 -0.84984,2.17311"
       style="fill:#80cc28;fill-opacity:1;fill-rule:nonzero;stroke:none;stroke-width:0.03527778"
       id="path1552"
       inkscape:connector-curvature="0" />
    <path
       d="m 121.81063,109.79692 2.7679,1.30881 c 0.31291,-0.56798 0.65299,-1.13948 1.02094,-1.70392 l -2.67512,-1.47814 c -0.40322,0.62089 -0.77434,1.24883 -1.11372,1.87325"
       style="fill:#80cc28;fill-opacity:1;fill-rule:nonzero;stroke:none;stroke-width:0.03527778"
       id="path1554"
       inkscape:connector-curvature="0" />
    <path
       d="m 124.29842,106.00456 2.73368,1.41111 c 0.48895,-0.61736 1.01811,-1.21708 1.58538,-1.79564 l -1.6189,-2.49414 c -1.01071,0.90311 -1.90711,1.87325 -2.70016,2.87867"
       style="fill:#80cc28;fill-opacity:1;fill-rule:nonzero;stroke:none;stroke-width:0.03527778"
       id="path1556"
       inkscape:connector-curvature="0" />
    <path
       d="m 129.06974,101.48195 1.3903,2.4518 c 0.65405,-0.53622 1.35713,-1.04069 2.09938,-1.51341 l -1.13877,-2.3742 c -0.83502,0.4445 -1.61889,0.92075 -2.35091,1.43581"
       style="fill:#80cc28;fill-opacity:1;fill-rule:nonzero;stroke:none;stroke-width:0.03527778"
       id="path1558"
       inkscape:connector-curvature="0" />
    <path
       d="m 111.81432,118.24242 -2.95028,0.31397 c -0.15663,-0.60677 -0.34113,-1.25589 -0.56056,-1.93675 l 2.99261,-0.43039 c 0.21132,0.74084 0.38136,1.42875 0.51823,2.05317"
       style="fill:#80cc28;fill-opacity:1;fill-rule:nonzero;stroke:none;stroke-width:0.03527778"
       id="path1560"
       inkscape:connector-curvature="0" />
    <path
       d="m 110.70131,114.31953 -2.97533,0.64911 c -0.21061,-0.55033 -0.43991,-1.11125 -0.69603,-1.68275 l 2.82293,-1.13947 c 0.32244,0.74436 0.60537,1.47108 0.84843,2.17311"
       style="fill:#80cc28;fill-opacity:1;fill-rule:nonzero;stroke:none;stroke-width:0.03527778"
       id="path1562"
       inkscape:connector-curvature="0" />
    <path
       d="m 108.71164,109.79692 -2.76789,1.30881 c -0.31468,-0.56798 -0.65299,-1.13948 -1.02094,-1.70392 l 2.67335,-1.47814 c 0.40393,0.62089 0.77611,1.24883 1.11548,1.87325"
       style="fill:#80cc28;fill-opacity:1;fill-rule:nonzero;stroke:none;stroke-width:0.03527778"
       id="path1564"
       inkscape:connector-curvature="0" />
    <path
       d="m 106.22385,106.00456 -2.73367,1.41111 c -0.48895,-0.61736 -1.01741,-1.21708 -1.58644,-1.79564 l 1.61995,-2.49414 c 1.01071,0.90311 1.90782,1.87325 2.70016,2.87867"
       style="fill:#80cc28;fill-opacity:1;fill-rule:nonzero;stroke:none;stroke-width:0.03527778"
       id="path1566"
       inkscape:connector-curvature="0" />
    <path
       d="m 101.4543,101.48195 -1.39277,2.4518 c -0.654049,-0.53622 -1.355369,-1.04069 -2.099729,-1.51341 l 1.13982,-2.3742 c 0.83503,0.4445 1.619599,0.92075 2.352679,1.43581"
       style="fill:#80cc28;fill-opacity:1;fill-rule:nonzero;stroke:none;stroke-width:0.03527778"
       id="path1568"
       inkscape:connector-curvature="0" />
    <path
       d="m 136.1447,133.93398 c 0,3.33022 -2.70087,6.0325 -6.03356,6.0325 -3.3334,0 -6.03285,-2.70228 -6.03285,-6.0325 0,-3.33022 2.69945,-6.03603 6.03285,-6.03603 3.33269,0 6.03356,2.70581 6.03356,6.03603"
       style="fill:#ffffff;fill-opacity:1;fill-rule:nonzero;stroke:none;stroke-width:0.03527778"
       id="path1570"
       inkscape:connector-curvature="0" />
    <path
       d="m 134.58613,133.93398 c 0,2.46944 -2.00343,4.46969 -4.47499,4.46969 -2.47156,0 -4.47463,-2.00025 -4.47463,-4.46969 0,-2.46945 2.00307,-4.47322 4.47463,-4.47322 2.47156,0 4.47499,2.00377 4.47499,4.47322"
       style="fill:#54c8f4;fill-opacity:1;fill-rule:nonzero;stroke:none;stroke-width:0.03527778"
       id="path1572"
       inkscape:connector-curvature="0" />
    <path
       d="m 133.74369,133.93398 c 0,2.00378 -1.62666,3.63008 -3.63255,3.63008 -2.00589,0 -3.63185,-1.6263 -3.63185,-3.63008 0,-2.00731 1.62596,-3.63008 3.63185,-3.63008 2.00589,0 3.63255,1.62277 3.63255,3.63008"
       style="fill:#5a3114;fill-opacity:1;fill-rule:nonzero;stroke:none;stroke-width:0.03527778"
       id="path1574"
       inkscape:connector-curvature="0" />
    <path
       d="m 126.94426,136.54101 c 0,0.56444 -0.4572,1.02305 -1.02094,1.02305 -0.56445,0 -1.02094,-0.45861 -1.02094,-1.02305 0,-0.56445 0.45649,-1.016 1.02094,-1.016 0.56374,0 1.02094,0.45155 1.02094,1.016"
       style="fill:#ffffff;fill-opacity:1;fill-rule:nonzero;stroke:none;stroke-width:0.03527778"
       id="path1576"
       inkscape:connector-curvature="0" />
    <path
       d="m 133.24804,130.92831 c 0,0.56445 -0.4572,1.01953 -1.0227,1.01953 -0.56233,0 -1.02023,-0.45508 -1.02023,-1.01953 0,-0.56091 0.4579,-1.01953 1.02023,-1.01953 0.5655,0 1.0227,0.45862 1.0227,1.01953"
       style="fill:#ffffff;fill-opacity:1;fill-rule:nonzero;stroke:none;stroke-width:0.03527778"
       id="path1578"
       inkscape:connector-curvature="0" />
    <path
       d="m 122.03641,133.93398 c 0,3.33022 -2.70157,6.0325 -6.03285,6.0325 -3.33269,0 -6.0318,-2.70228 -6.0318,-6.0325 0,-3.33022 2.69911,-6.03603 6.0318,-6.03603 3.33128,0 6.03285,2.70581 6.03285,6.03603"
       style="fill:#ffffff;fill-opacity:1;fill-rule:nonzero;stroke:none;stroke-width:0.03527778"
       id="path1580"
       inkscape:connector-curvature="0" />
    <path
       d="m 120.47925,133.93398 c 0,2.46944 -2.00413,4.46969 -4.47569,4.46969 -2.47156,0 -4.47569,-2.00025 -4.47569,-4.46969 0,-2.46945 2.00413,-4.47322 4.47569,-4.47322 2.47156,0 4.47569,2.00377 4.47569,4.47322"
       style="fill:#54c8f4;fill-opacity:1;fill-rule:nonzero;stroke:none;stroke-width:0.03527778"
       id="path1582"
       inkscape:connector-curvature="0" />
    <path
       d="m 119.63541,133.93398 c 0,2.00378 -1.62596,3.63008 -3.63185,3.63008 -2.0059,0 -3.63255,-1.6263 -3.63255,-3.63008 0,-2.00731 1.62665,-3.63008 3.63255,-3.63008 2.00589,0 3.63185,1.62277 3.63185,3.63008"
       style="fill:#5a3114;fill-opacity:1;fill-rule:nonzero;stroke:none;stroke-width:0.03527778"
       id="path1584"
       inkscape:connector-curvature="0" />
    <path
       d="m 112.83702,136.54101 c 0,0.56444 -0.45649,1.02305 -1.02199,1.02305 -0.56268,0 -1.02094,-0.45861 -1.02094,-1.02305 0,-0.56445 0.45826,-1.016 1.02094,-1.016 0.5655,0 1.02199,0.45155 1.02199,1.016"
       style="fill:#ffffff;fill-opacity:1;fill-rule:nonzero;stroke:none;stroke-width:0.03527778"
       id="path1586"
       inkscape:connector-curvature="0" />
    <path
       d="m 119.13869,130.92831 c 0,0.56445 -0.4572,1.01953 -1.01917,1.01953 -0.5648,0 -1.02129,-0.45508 -1.02129,-1.01953 0,-0.56091 0.45649,-1.01953 1.02129,-1.01953 0.56197,0 1.01917,0.45862 1.01917,1.01953"
       style="fill:#ffffff;fill-opacity:1;fill-rule:nonzero;stroke:none;stroke-width:0.03527778"
       id="path1588"
       inkscape:connector-curvature="0" />
    <path
       d="m 105.84567,133.93398 c 0,3.33022 -2.70192,6.0325 -6.033549,6.0325 -3.3327,0 -6.03391,-2.70228 -6.03391,-6.0325 0,-3.33022 2.70121,-6.03603 6.03391,-6.03603 3.331629,0 6.033549,2.70581 6.033549,6.03603"
       style="fill:#ffffff;fill-opacity:1;fill-rule:nonzero;stroke:none;stroke-width:0.03527778"
       id="path1590"
       inkscape:connector-curvature="0" />
    <path
       d="m 104.28781,133.93398 c 0,2.46944 -2.00484,4.46969 -4.475689,4.46969 -2.47333,0 -4.4764,-2.00025 -4.4764,-4.46969 0,-2.46945 2.00307,-4.47322 4.4764,-4.47322 2.470849,0 4.475689,2.00377 4.475689,4.47322"
       style="fill:#54c8f4;fill-opacity:1;fill-rule:nonzero;stroke:none;stroke-width:0.03527778"
       id="path1592"
       inkscape:connector-curvature="0" />
    <path
       d="m 103.44467,133.93398 c 0,2.00378 -1.62666,3.63008 -3.632549,3.63008 -2.00484,0 -3.63361,-1.6263 -3.63361,-3.63008 0,-2.00731 1.62877,-3.63008 3.63361,-3.63008 2.005889,0 3.632549,1.62277 3.632549,3.63008"
       style="fill:#5a3114;fill-opacity:1;fill-rule:nonzero;stroke:none;stroke-width:0.03527778"
       id="path1594"
       inkscape:connector-curvature="0" />
    <path
       d="m 96.645231,136.54101 c 0,0.56444 -0.4572,1.02305 -1.02164,1.02305 -0.5648,0 -1.02024,-0.45861 -1.02024,-1.02305 0,-0.56445 0.45544,-1.016 1.02024,-1.016 0.56444,0 1.02164,0.45155 1.02164,1.016"
       style="fill:#ffffff;fill-opacity:1;fill-rule:nonzero;stroke:none;stroke-width:0.03527778"
       id="path1596"
       inkscape:connector-curvature="0" />
    <path
       d="m 102.94725,130.92831 c 0,0.56445 -0.45649,1.01953 -1.02129,1.01953 -0.56444,0 -1.02059,-0.45508 -1.02059,-1.01953 0,-0.56091 0.45615,-1.01953 1.02059,-1.01953 0.5648,0 1.02129,0.45862 1.02129,1.01953"
       style="fill:#ffffff;fill-opacity:1;fill-rule:nonzero;stroke:none;stroke-width:0.03527778"
       id="path1598"
       inkscape:connector-curvature="0" />
    <path
       d="m 115.89702,152.51126 h -0.11677 c -6.50381,-0.0247 -10.66941,-2.10609 -13.02314,-3.85939 -2.58057,-1.91911 -3.585289,-3.82764 -3.626559,-3.90525 l 0.56621,-0.29281 c 0.01,0.0177 0.996239,1.87678 3.471329,3.7077 2.27895,1.69333 6.32848,3.70416 12.67037,3.71475 12.1733,-0.0212 16.10395,-7.34836 16.14276,-7.42245 l 0.56374,0.29281 c -0.0395,0.0776 -1.04493,1.98614 -3.62727,3.90525 -2.35161,1.7533 -6.51686,3.83469 -13.02067,3.85939 v 0"
       style="fill:#271325;fill-opacity:1;fill-rule:nonzero;stroke:none;stroke-width:0.03527778"
       id="path1600"
       inkscape:connector-curvature="0" />
    <path
       d="m 128.23154,143.85056 c 0.60537,-0.25047 1.26436,-0.34925 1.92758,-0.34925 0.66287,0.004 1.34867,0.13406 1.96744,0.45861 0.61877,0.31398 1.13947,0.86431 1.40229,1.50284 0.27093,0.63852 0.31715,1.32997 0.20038,1.9685 -0.15028,-0.63148 -0.33091,-1.23473 -0.64523,-1.7392 -0.30727,-0.508 -0.73942,-0.89605 -1.25342,-1.16769 -0.51788,-0.27164 -1.10314,-0.43039 -1.71168,-0.52564 -0.60748,-0.0953 -1.23648,-0.13406 -1.88736,-0.14817"
       style="fill:#271325;fill-opacity:1;fill-rule:nonzero;stroke:none;stroke-width:0.03527778"
       id="path1602"
       inkscape:connector-curvature="0" />
    <path
       d="m 103.46513,143.85056 c -0.65052,0.0141 -1.27847,0.0529 -1.88701,0.14817 -0.60677,0.0952 -1.19521,0.254 -1.710969,0.52564 -0.51576,0.27164 -0.94721,0.65969 -1.25554,1.16769 -0.31185,0.50447 -0.49494,1.10772 -0.64558,1.7392 -0.11501,-0.63853 -0.0677,-1.32998 0.19756,-1.9685 0.26564,-0.63853 0.78669,-1.18886 1.40723,-1.50284 0.617709,-0.32455 1.302449,-0.45508 1.965319,-0.45861 0.66322,0 1.32257,0.0988 1.92899,0.34925"
       style="fill:#271325;fill-opacity:1;fill-rule:nonzero;stroke:none;stroke-width:0.03527778"
       id="path1604"
       inkscape:connector-curvature="0" />
    <path
       d="m 111.13699,156.36359 c 0.635,0.30692 1.26929,0.56797 1.91382,0.76553 0.64382,0.19403 1.29751,0.32455 1.95156,0.34925 0.65511,0.0282 1.3081,-0.0494 1.94134,-0.23989 0.63359,-0.19403 1.23755,-0.508 1.8408,-0.87489 -0.42369,0.56797 -0.99766,1.03011 -1.65947,1.34056 -0.66534,0.30691 -1.41535,0.44802 -2.14842,0.41275 -0.7366,-0.0318 -1.45239,-0.22225 -2.10361,-0.52564 -0.65088,-0.30692 -1.25483,-0.70556 -1.73602,-1.22767"
       style="fill:#271325;fill-opacity:1;fill-rule:nonzero;stroke:none;stroke-width:0.03527778"
       id="path1606"
       inkscape:connector-curvature="0" />
    <path
       d="m 133.84071,144.60551 c 0.0303,-0.45861 0.061,-0.90311 0.0321,-1.32998 -0.0251,-0.41627 -0.12806,-0.83961 -0.38276,-1.03011 -0.1263,-0.0953 -0.30763,-0.14816 -0.50765,-0.1658 -0.19932,-0.0247 -0.41346,-0.0177 -0.63006,-0.007 -0.43745,0.0177 -0.89006,0.0776 -1.35079,0.0529 0.42439,-0.16933 0.84455,-0.32103 1.29999,-0.42333 0.22789,-0.0459 0.46249,-0.0811 0.71155,-0.0776 0.24518,0.0141 0.52282,0.06 0.76235,0.23988 0.23813,0.17639 0.36795,0.43745 0.43145,0.68439 0.0621,0.25048 0.0688,0.49742 0.0473,0.73378 -0.0473,0.4692 -0.18733,0.92075 -0.41346,1.32292"
       style="fill:#271325;fill-opacity:1;fill-rule:nonzero;stroke:none;stroke-width:0.03527778"
       id="path1608"
       inkscape:connector-curvature="0" />
    <path
       d="m 96.083261,144.60551 c -0.2279,-0.40217 -0.36689,-0.85373 -0.41346,-1.32292 -0.0229,-0.23636 -0.0162,-0.48331 0.0466,-0.73378 0.0635,-0.24694 0.19438,-0.508 0.43321,-0.68439 0.23813,-0.17991 0.51541,-0.22577 0.76024,-0.23989 0.24941,-0.004 0.48401,0.0318 0.71155,0.0776 0.45473,0.10231 0.87595,0.254 1.3014,0.42334 -0.46144,0.0247 -0.9144,-0.0353 -1.34938,-0.0529 -0.22013,-0.0106 -0.43391,-0.0177 -0.63429,0.007 -0.19932,0.0177 -0.37994,0.0705 -0.50447,0.1658 -0.25612,0.1905 -0.36019,0.61383 -0.38559,1.03011 -0.0268,0.42686 0.002,0.87136 0.0342,1.32997"
       style="fill:#271325;fill-opacity:1;fill-rule:nonzero;stroke:none;stroke-width:0.03527778"
       id="path1610"
       inkscape:connector-curvature="0" />
    <path
       d="m 130.99308,121.48798 h -30.30854 c 0,0 10.8204,-25.735143 14.82089,-25.735143 4.0252,0 15.48765,25.735143 15.48765,25.735143"
       style="fill:#57c6c1;fill-opacity:1;fill-rule:nonzero;stroke:none;stroke-width:0.03527778"
       id="path1612"
       inkscape:connector-curvature="0" />
    <path
       d="m 127.22718,115.44842 c -2.08915,1.94028 -4.4069,3.53483 -6.86999,4.7625 h 6.15668 c 0.68756,-0.65617 1.34584,-1.34761 1.98014,-2.0708 -0.34819,-0.74789 -0.77611,-1.66159 -1.26683,-2.6917"
       style="fill:#295a5b;fill-opacity:1;fill-rule:nonzero;stroke:none;stroke-width:0.03527778"
       id="path1614"
       inkscape:connector-curvature="0" />
    <path
       d="m 125.66473,112.24167 c -0.48825,-0.98425 -1.00542,-2.0073 -1.53917,-3.03742 -5.72347,4.03225 -12.62768,5.83142 -19.40736,5.16467 -1.53459,3.34786 -2.5841,5.842 -2.5841,5.842 h 7.12964 c 6.08577,-1.09714 11.77219,-3.84528 16.40099,-7.96925"
       style="fill:#295a5b;fill-opacity:1;fill-rule:nonzero;stroke:none;stroke-width:0.03527778"
       id="path1616"
       inkscape:connector-curvature="0" />
    <path
       d="m 105.87143,111.89242 c 5.97006,-0.46919 11.68858,-2.49767 16.55868,-5.85964 -0.65334,-1.18886 -1.31057,-2.33539 -1.95792,-3.38666 -3.61279,1.82386 -7.53992,2.86102 -11.51995,3.06563 -1.07245,2.02142 -2.12937,4.17336 -3.08081,6.18067"
       style="fill:#295a5b;fill-opacity:1;fill-rule:nonzero;stroke:none;stroke-width:0.03527778"
       id="path1618"
       inkscape:connector-curvature="0" />
    <path
       d="m 118.46559,99.622809 c -1.18145,-1.5875 -2.22497,-2.592916 -2.9785,-2.592916 -1.12395,0 -2.84374,2.250722 -4.6803,5.351637 2.66171,-0.60678 5.23134,-1.53458 7.6588,-2.758721"
       style="fill:#295a5b;fill-opacity:1;fill-rule:nonzero;stroke:none;stroke-width:0.03527778"
       id="path1620"
       inkscape:connector-curvature="0" />
    <path
       d="m 115.35127,95.897476 c 0,0 -0.0635,-3.023306 2.07645,-3.683 0,0 -0.59725,-2.296584 -3.14607,-1.728611 0,0 -1.38571,3.369028 1.06962,5.411611"
       style="fill:#ee205d;fill-opacity:1;fill-rule:nonzero;stroke:none;stroke-width:0.03527778"
       id="path1622"
       inkscape:connector-curvature="0" />
    <path
       d="m 115.21122,95.710504 c 0,0 2.76966,1.2065 2.47085,3.425472 0,0 2.33821,0.419805 2.89243,-2.12725 0,0 -2.47932,-2.670528 -5.36328,-1.298222"
       style="fill:#ee205d;fill-opacity:1;fill-rule:nonzero;stroke:none;stroke-width:0.03527778"
       id="path1624"
       inkscape:connector-curvature="0" />
    <path
       d="m 115.19217,95.897476 c 0,0 -2.15441,2.120194 -4.10316,1.016 0,0 -1.25906,2.017889 0.90311,3.478394 0,0 3.39866,-1.305283 3.20005,-4.494394"
       style="fill:#ee205d;fill-opacity:1;fill-rule:nonzero;stroke:none;stroke-width:0.03527778"
       id="path1626"
       inkscape:connector-curvature="0" />
    <path
       d="m 115.36856,95.742254 c 0,0 2.36079,-1.400528 3.83892,-0.0035 0,0 1.5487,-1.495778 -0.0377,-3.263195 0,0 -3.27942,0.41275 -3.80118,3.266722"
       style="fill:#ee205d;fill-opacity:1;fill-rule:nonzero;stroke:none;stroke-width:0.03527778"
       id="path1628"
       inkscape:connector-curvature="0" />
    <path
       d="m 115.45534,95.544698 c 0,0 0.28187,2.734028 -1.6062,3.488972 0,0 0.71156,2.032 2.97604,1.3335 0,0 1.00189,-3.153833 -1.36984,-4.822472"
       style="fill:#ee205d;fill-opacity:1;fill-rule:nonzero;stroke:none;stroke-width:0.03527778"
       id="path1630"
       inkscape:connector-curvature="0" />
    <path
       d="m 115.298,95.615254 c 0,0 -2.63666,-0.747889 -2.6356,-2.786945 0,0 -2.15371,-0.09878 -2.34527,2.264834 0,0 2.54882,2.106083 4.98087,0.522111"
       style="fill:#ee205d;fill-opacity:1;fill-rule:nonzero;stroke:none;stroke-width:0.03527778"
       id="path1632"
       inkscape:connector-curvature="0" />
    <path
       d="m 79.168271,160.62515 c -0.0593,0.0282 -0.12736,0.0388 -0.19685,0.0317 -0.19332,-0.0212 -0.33161,-0.19403 -0.30868,-0.38806 1.04246,-8.86178 -5.29026,-16.73578 -9.19798,-19.99192 -3.82517,-3.18558 -3.16653,-9.47914 -2.8134,-12.86227 0.4124,-3.95112 -4.37445,-7.20726 -4.42419,-7.23901 -0.16051,-0.10936 -0.20461,-0.32455 -0.0963,-0.48683 0.1076,-0.16228 0.32738,-0.20461 0.48895,-0.0988 0.21132,0.14111 5.18831,3.52778 4.73181,7.89517 -0.50518,4.83305 -0.54292,9.66258 2.56434,12.25197 4.01603,3.34786 10.52407,11.45822 9.44633,20.61281 -0.0155,0.12347 -0.091,0.22225 -0.19403,0.27516"
       style="fill:#411a09;fill-opacity:1;fill-rule:nonzero;stroke:none;stroke-width:0.03527778"
       id="path1634"
       inkscape:connector-curvature="0" />
    <path
       d="m 61.093701,117.99548 c 0,0 1.0167,1.44286 0.0208,2.63172 0,0 1.50707,0.50447 2.72591,-1.26647 0,0 -0.68615,-1.40053 -2.23026,-1.66511 l -0.51647,0.29986"
       style="fill:#d21c51;fill-opacity:1;fill-rule:nonzero;stroke:none;stroke-width:0.03527778"
       id="path1636"
       inkscape:connector-curvature="0" />
    <path
       d="m 64.272581,97.312115 c 3.61879,6.198305 3.61103,17.712975 -2.58163,21.328945 -6.19442,3.62303 -16.229187,-2.02847 -19.847981,-8.21972 -3.619853,-6.19478 -1.531761,-14.146392 4.661961,-17.76942 6.19442,-3.6195 14.14815,-1.531055 17.76765,4.660195"
       style="fill:#ee205d;fill-opacity:1;fill-rule:nonzero;stroke:none;stroke-width:0.03527778"
       id="path1638"
       inkscape:connector-curvature="0" />
    <path
       d="m 42.759486,102.96362 c -1.212144,-2.32481 1.684514,-7.6447 8.651525,-9.9307 6.9663,-2.286 13.00092,4.533195 12.05441,11.11603 0,0 -1.1497,3.62655 -4.67818,3.05505 -3.52884,-0.56797 -2.19499,-10.653885 -6.37928,-9.489719 -4.18606,1.160639 -7.615769,9.143999 -9.648475,5.249339"
       style="fill:#f0346c;fill-opacity:1;fill-rule:nonzero;stroke:none;stroke-width:0.03527778"
       id="path1640"
       inkscape:connector-curvature="0" />
    <path
       d="m 68.344341,158.89653 c -0.0646,0 -0.13159,-0.0177 -0.18979,-0.0529 -0.1644,-0.10936 -0.21167,-0.32808 -0.10513,-0.49036 4.84787,-7.48594 2.64266,-17.34961 0.57679,-21.99569 -2.02495,-4.55083 1.34585,-9.906 3.15454,-12.78467 2.11666,-3.3655 -0.74225,-8.39611 -0.77153,-8.4455 -0.097,-0.16933 -0.0402,-0.38453 0.12983,-0.4833 0.16756,-0.0952 0.38241,-0.0388 0.47942,0.13052 0.12912,0.22225 3.09809,5.45395 0.75883,9.17575 -2.58692,4.10987 -4.75333,8.42434 -3.10833,12.11792 2.12337,4.78014 4.38291,14.92956 -0.6283,22.6695 -0.0677,0.10231 -0.18027,0.15875 -0.29633,0.15875"
       style="fill:#411a09;fill-opacity:1;fill-rule:nonzero;stroke:none;stroke-width:0.03527778"
       id="path1642"
       inkscape:connector-curvature="0" />
    <path
       d="m 70.955251,112.66853 c 0,0 0.27481,1.74272 -1.14476,2.37067 0,0 1.131,1.12183 3.00672,0.067 0,0 0.002,-1.55575 -1.26506,-2.4765 l -0.5969,0.0388"
       style="fill:#66b639;fill-opacity:1;fill-rule:nonzero;stroke:none;stroke-width:0.03527778"
       id="path1644"
       inkscape:connector-curvature="0" />
    <path
       d="m 82.939811,95.516476 c 0.51224,7.154334 -4.58046,17.487194 -11.73444,17.995194 -7.15716,0.51153 -13.66591,-8.98878 -14.17638,-16.143111 -0.51152,-7.154333 4.87433,-13.370278 12.02937,-13.881805 7.1561,-0.508 13.37099,4.871861 13.88145,12.029722"
       style="fill:#94d335;fill-opacity:1;fill-rule:nonzero;stroke:none;stroke-width:0.03527778"
       id="path1646"
       inkscape:connector-curvature="0" />
    <path
       d="m 61.145201,91.085587 c -0.061,-2.624667 4.88562,-6.113639 12.1465,-5.087056 7.26087,1.026584 9.66293,9.807223 5.90655,15.296449 0,0 -2.63384,2.74461 -5.54637,0.6738 -2.91535,-2.067276 2.73544,-10.526888 -1.53141,-11.334749 -4.26755,-0.804333 -10.87296,4.843639 -10.97527,0.451556"
       style="fill:#b2dd41;fill-opacity:1;fill-rule:nonzero;stroke:none;stroke-width:0.03527778"
       id="path1648"
       inkscape:connector-curvature="0" />
    <path
       d="m 64.389351,159.21756 c -0.0624,-0.0247 -0.12206,-0.0635 -0.16651,-0.11289 -0.12383,-0.15169 -0.10513,-0.37394 0.0455,-0.49389 6.85341,-5.71147 7.67821,-15.78327 7.08625,-20.83505 -0.58103,-4.94595 4.22839,-9.05933 6.81143,-11.26772 3.02013,-2.58234 1.78576,-8.24089 1.77306,-8.29734 -0.0423,-0.18697 0.0762,-0.37394 0.26705,-0.42333 0.18909,-0.0388 0.37747,0.0776 0.42051,0.26811 0.0557,0.25047 1.33527,6.13128 -2.00237,8.98878 -3.69217,3.15383 -7.04285,6.63222 -6.57013,10.65036 0.60855,5.19289 -0.25082,15.55044 -7.3346,21.45594 -0.0963,0.0741 -0.22084,0.0988 -0.3302,0.067"
       style="fill:#411a09;fill-opacity:1;fill-rule:nonzero;stroke:none;stroke-width:0.03527778"
       id="path1650"
       inkscape:connector-curvature="0" />
    <path
       d="m 80.617121,115.84706 c 0,0 -0.25541,1.74978 -1.79705,1.92969 0,0 0.74754,1.40053 2.85221,0.9525 0,0 0.46426,-1.48519 -0.47237,-2.74461 l -0.58279,-0.13758"
       style="fill:#4baca8;fill-opacity:1;fill-rule:nonzero;stroke:none;stroke-width:0.03527778"
       id="path1652"
       inkscape:connector-curvature="0" />
    <path
       d="m 97.157461,103.03417 c -1.63689,6.985 -9.56839,15.33172 -16.55162,13.69483 -6.985,-1.63688 -10.3759,-12.64355 -8.73901,-19.628552 1.63794,-6.985 8.62718,-11.313583 15.61077,-9.676694 6.98394,1.636888 11.31781,8.625416 9.67986,15.610416"
       style="fill:#57c6c1;fill-opacity:1;fill-rule:nonzero;stroke:none;stroke-width:0.03527778"
       id="path1654"
       inkscape:connector-curvature="0" />
    <path
       d="m 77.665081,92.323837 c 0.72002,-2.518833 6.48159,-4.385028 13.10993,-1.245306 6.62834,3.132667 6.3119,12.234339 1.0922,16.358309 0,0 -3.3274,1.83797 -5.49593,-1.00542 -2.16711,-2.83633 5.74076,-9.235722 1.90712,-11.274777 -3.83716,-2.039056 -11.82158,1.393472 -10.61332,-2.832806"
       style="fill:#73d1dc;fill-opacity:1;fill-rule:nonzero;stroke:none;stroke-width:0.03527778"
       id="path1656"
       inkscape:connector-curvature="0" />
  </g>
</svg>
