<?xml version="1.0" encoding="UTF-8" standalone="no"?>
<!-- Created with Inkscape (http://www.inkscape.org/) -->

<svg
   xmlns:dc="http://purl.org/dc/elements/1.1/"
   xmlns:cc="http://creativecommons.org/ns#"
   xmlns:rdf="http://www.w3.org/1999/02/22-rdf-syntax-ns#"
   xmlns:svg="http://www.w3.org/2000/svg"
   xmlns="http://www.w3.org/2000/svg"
   xmlns:sodipodi="http://sodipodi.sourceforge.net/DTD/sodipodi-0.dtd"
   xmlns:inkscape="http://www.inkscape.org/namespaces/inkscape"
   width="91.513649mm"
   height="115.65968mm"
   viewBox="0 0 91.513649 115.65968"
   version="1.1"
   id="svg4818"
   inkscape:version="0.92.2 5c3e80d, 2017-08-06"
   sodipodi:docname="monster8.svg">
  <defs
     id="defs4812" />
  <sodipodi:namedview
     id="base"
     pagecolor="#ffffff"
     bordercolor="#666666"
     borderopacity="1.0"
     inkscape:pageopacity="0.0"
     inkscape:pageshadow="2"
     inkscape:zoom="0.35"
     inkscape:cx="170.08456"
     inkscape:cy="169.99803"
     inkscape:document-units="mm"
     inkscape:current-layer="layer1"
     showgrid="false"
     inkscape:window-width="1920"
     inkscape:window-height="1016"
     inkscape:window-x="1920"
     inkscape:window-y="27"
     inkscape:window-maximized="1" />
  <metadata
     id="metadata4815">
    <rdf:RDF>
      <cc:Work
         rdf:about="">
        <dc:format>image/svg+xml</dc:format>
        <dc:type
           rdf:resource="http://purl.org/dc/dcmitype/StillImage" />
        <dc:title></dc:title>
      </cc:Work>
    </rdf:RDF>
  </metadata>
  <g
     inkscape:label="Calque 1"
     inkscape:groupmode="layer"
     id="layer1"
     transform="translate(-60.831793,-78.152298)">
    <path
       d="m 73.749666,163.00037 c -2.38196,-0.51152 -2.82716,-3.32316 -2.89596,-4.76955 l -0.004,-0.87136 v 0 l -0.0755,-21.14197 c 0,0 -0.81209,-11.176 9.78218,-14.45331 v -5.97606 c -6.20642,1.15359 -14.59301,5.56684 -14.59301,21.01145 v 21.28661 c -0.0603,0.43392 -0.024,1.01953 0,1.65805 v 0.35984 h 0.008 c 0.0258,1.24883 -0.0713,2.65641 -1.03364,3.64066 -1.56315,1.59809 -4.69582,2.18017 -4.00896,3.71828 0.69003,1.53459 3.70028,-0.77964 4.13526,-0.0282 0.43744,0.75142 -5.28955,4.572 -3.30447,5.82436 1.98614,1.25236 2.81728,-2.87866 4.70605,-2.90688 1.89054,-0.0247 -1.143,4.45558 1.78506,5.37985 2.927,0.92781 1.17546,-5.3481 2.23238,-5.21052 1.0608,0.13758 2.4063,4.10633 3.90595,4.30036 1.49966,0.20108 1.28482,-2.18017 0.39864,-2.92806 -0.88688,-0.74788 -2.29094,-3.63713 -1.45662,-5.15761 0.83644,-1.51341 4.66478,0.70556 5.32412,-0.83608 0.65652,-1.53458 -0.69603,-2.00378 -4.90643,-2.89983"
       style="fill:#dc2c23;fill-opacity:1;fill-rule:nonzero;stroke:none;stroke-width:0.03527778"
       id="path2388"
       inkscape:connector-curvature="0" />
    <path
       d="m 139.42877,163.00037 c 2.38372,-0.51152 2.82893,-3.32316 2.89772,-4.76955 l 0.002,-0.87136 v 0 l 0.0748,-21.14197 c 0,0 0.8128,-11.176 -9.78218,-14.45331 v -5.97606 c 6.20713,1.15359 14.59548,5.56684 14.59548,21.01145 v 21.28661 c 0.0586,0.43392 0.0226,1.01953 0,1.65805 v 0.35984 h -0.0113 c -0.0247,1.24883 0.073,2.65641 1.03399,3.64066 1.56492,1.59809 4.69653,2.18017 4.00897,3.71828 -0.69004,1.53459 -3.69782,-0.77964 -4.13597,-0.0282 -0.43568,0.75142 5.29096,4.572 3.30518,5.82436 -1.98614,1.25236 -2.81447,-2.87866 -4.7043,-2.90688 -1.89159,-0.0247 1.143,4.45558 -1.78576,5.37985 -2.92735,0.92781 -1.17581,-5.3481 -2.23343,-5.21052 -1.05904,0.13758 -2.4063,4.10633 -3.90525,4.30036 -1.50037,0.20108 -1.28482,-2.18017 -0.39688,-2.92806 0.88583,-0.74788 2.28847,-3.63713 1.4538,-5.15761 -0.83326,-1.51341 -4.66443,0.70556 -5.32377,-0.83608 -0.65652,-1.53458 0.69603,-2.00378 4.90643,-2.89983"
       style="fill:#dc2c23;fill-opacity:1;fill-rule:nonzero;stroke:none;stroke-width:0.03527778"
       id="path2390"
       inkscape:connector-curvature="0" />
    <path
       d="m 135.50659,144.17262 -0.19685,-2.33186 -2.23273,-26.54652 c 0,-33.252837 -53.788384,-33.965448 -53.788384,0 l -1.88736,26.62413 -1.03717,14.64028 -0.43674,6.1595 c -0.87136,9.02406 -1.71943,23.62552 -1.70673,23.79838 0.0886,5.3587 0.93521,7.29545 8.97819,7.29545 8.923514,0 9.044871,-7.22489 9.044871,-7.22489 l 1.540933,-17.21202 27.60204,0.39158 c 0,0 -0.03,0.91722 0,2.36361 v 14.45683 c 0,0 0.11888,7.22489 8.85013,7.22489 7.96043,0 8.71397,-1.9932 8.78629,-7.49653 0.0102,-0.16228 -3.51155,-42.09696 -3.51649,-42.14283"
       style="fill:#f14624;fill-opacity:1;fill-rule:nonzero;stroke:none;stroke-width:0.03527778"
       id="path2392"
       inkscape:connector-curvature="0" />
    <path
       d="m 106.04682,105.3459 c -0.33408,0 -0.60501,-0.27164 -0.60501,-0.60325 l -8e-4,-6.067775 c 0,-0.331611 0.26988,-0.60325 0.60502,-0.60325 0.33267,0 0.6043,0.271639 0.6043,0.60325 l 0.001,6.067775 c 0,0.33161 -0.27164,0.60325 -0.60501,0.60325"
       style="fill:#4f1308;fill-opacity:1;fill-rule:nonzero;stroke:none;stroke-width:0.03527778"
       id="path2394"
       inkscape:connector-curvature="0" />
    <path
       d="m 112.37354,107.21563 c -0.0875,0 -0.17957,-0.0212 -0.26282,-0.0635 -0.30163,-0.14464 -0.42722,-0.50448 -0.28117,-0.80787 l 2.64196,-5.45394 c 0.14605,-0.30339 0.50941,-0.42333 0.80962,-0.28575 0.29986,0.14817 0.42722,0.51506 0.28081,0.81139 l -2.64442,5.461 c -0.10372,0.21167 -0.32032,0.33867 -0.54398,0.33867"
       style="fill:#4f1308;fill-opacity:1;fill-rule:nonzero;stroke:none;stroke-width:0.03527778"
       id="path2396"
       inkscape:connector-curvature="0" />
    <path
       d="m 117.66838,111.35371 c -0.16263,0 -0.3242,-0.06 -0.44203,-0.18697 -0.22825,-0.24695 -0.21625,-0.62795 0.0279,-0.85725 l 4.43089,-4.14161 c 0.24306,-0.22931 0.62653,-0.2152 0.85407,0.0282 0.22966,0.24694 0.2159,0.62794 -0.0293,0.85725 l -4.42912,4.13808 c -0.11677,0.11289 -0.26459,0.16228 -0.4124,0.16228"
       style="fill:#4f1308;fill-opacity:1;fill-rule:nonzero;stroke:none;stroke-width:0.03527778"
       id="path2398"
       inkscape:connector-curvature="0" />
    <path
       d="m 98.692464,107.31088 c -0.229659,0 -0.448734,-0.13053 -0.55104,-0.35278 l -2.500842,-5.461 c -0.138993,-0.29986 -0.0049,-0.6597 0.29845,-0.80081 0.304096,-0.13758 0.662517,-0.004 0.802571,0.29986 l 2.500136,5.45748 c 0.140051,0.30338 0.0056,0.66322 -0.29845,0.8008 -0.08149,0.0353 -0.165807,0.0564 -0.250825,0.0564"
       style="fill:#4f1308;fill-opacity:1;fill-rule:nonzero;stroke:none;stroke-width:0.03527778"
       id="path2400"
       inkscape:connector-curvature="0" />
    <path
       d="m 93.824837,111.45249 c -0.153107,0 -0.30833,-0.06 -0.42545,-0.17639 l -4.191,-4.14161 c -0.236363,-0.23636 -0.238832,-0.61736 -0.0042,-0.85725 0.234596,-0.23284 0.619477,-0.23636 0.854779,-0.007 l 4.191355,4.14161 c 0.23636,0.23989 0.240593,0.62089 0.0042,0.85725 -0.11783,0.11994 -0.274108,0.18344 -0.429683,0.18344"
       style="fill:#4f1308;fill-opacity:1;fill-rule:nonzero;stroke:none;stroke-width:0.03527778"
       id="path2402"
       inkscape:connector-curvature="0" />
    <path
       d="m 122.27283,116.87468 c 2.07434,8.63953 -3.25261,17.33197 -11.89637,19.40631 -8.64376,2.0708 -17.33197,-3.25262 -19.407361,-11.89214 -2.073627,-8.64659 3.253671,-17.3355 11.896371,-19.40984 8.6427,-2.0708 17.3355,3.25262 19.40736,11.89567"
       style="fill:#ffffff;fill-opacity:1;fill-rule:nonzero;stroke:none;stroke-width:0.03527778"
       id="path2404"
       inkscape:connector-curvature="0" />
    <path
       d="m 118.23035,117.84482 c 1.53917,6.40997 -2.40982,12.85875 -8.82226,14.39333 -6.41456,1.54517 -12.858045,-2.413 -14.397216,-8.81944 -1.538462,-6.41703 2.411238,-12.85875 8.824026,-14.39686 6.4128,-1.54164 12.85629,2.40947 14.39545,8.82297"
       style="fill:#54c8f4;fill-opacity:1;fill-rule:nonzero;stroke:none;stroke-width:0.03527778"
       id="path2406"
       inkscape:connector-curvature="0" />
    <path
       d="m 116.04243,118.37046 c 1.24883,5.20347 -1.95863,10.43516 -7.16033,11.68047 -5.20348,1.25236 -10.43376,-1.95792 -11.682593,-7.16139 -1.248479,-5.20347 1.956858,-10.43164 7.159623,-11.684 5.20347,-1.24178 10.43552,1.96497 11.6833,7.16492"
       style="fill:#5a3114;fill-opacity:1;fill-rule:nonzero;stroke:none;stroke-width:0.03527778"
       id="path2408"
       inkscape:connector-curvature="0" />
    <path
       d="m 100.02808,129.3736 c 0.35207,1.46402 -0.548568,2.93511 -2.014715,3.28789 -1.461558,0.34925 -2.931228,-0.55387 -3.280833,-2.01789 -0.352425,-1.4605 0.548923,-2.92806 2.010833,-3.28084 1.466147,-0.35277 2.934055,0.54681 3.284715,2.01084"
       style="fill:#ffffff;fill-opacity:1;fill-rule:nonzero;stroke:none;stroke-width:0.03527778"
       id="path2410"
       inkscape:connector-curvature="0" />
    <path
       d="m 112.88577,110.88451 c 0.35137,1.46756 -0.55104,2.93159 -2.01436,3.28436 -1.46085,0.34925 -2.93123,-0.55033 -3.2826,-2.01083 -0.35066,-1.46403 0.54998,-2.93511 2.0126,-3.28436 1.46438,-0.35278 2.93476,0.55033 3.28436,2.01083"
       style="fill:#ffffff;fill-opacity:1;fill-rule:nonzero;stroke:none;stroke-width:0.03527778"
       id="path2412"
       inkscape:connector-curvature="0" />
    <path
       d="m 128.49548,95.013042 h -3.30517 c -0.94263,-4.554361 -1.88631,-9.108722 -2.83069,-13.666611 -0.46496,-2.106083 -2.54282,-3.436055 -4.66443,-3.157361 -4.68383,0.613833 -18.614318,0.613833 -23.298853,0 -2.121959,-0.278694 -4.199115,1.051278 -4.663017,3.157361 -0.943681,4.557889 -1.887008,9.11225 -2.830689,13.666611 h -3.304475 c -2.15159,0 -3.89713,1.74625 -3.89713,3.898194 0,2.151944 1.74554,3.894664 3.89713,3.894664 h 44.897324 c 2.15195,0 3.89396,-1.74272 3.89396,-3.894664 0,-2.151944 -1.74201,-3.898194 -3.89396,-3.898194"
       style="fill:#431b0e;fill-opacity:1;fill-rule:nonzero;stroke:none;stroke-width:0.03527778"
       id="path2414"
       inkscape:connector-curvature="0" />
    <path
       d="m 125.17937,94.960125 c -0.26564,-1.280583 -0.53128,-2.557639 -0.79587,-3.838222 H 87.708022 c -0.265642,1.280583 -0.531283,2.557639 -0.795866,3.838222 h 38.267214"
       style="fill:#e8bd17;fill-opacity:1;fill-rule:nonzero;stroke:none;stroke-width:0.03527778"
       id="path2416"
       inkscape:connector-curvature="0" />
    <path
       d="m 119.50318,144.15499 c -3.18418,-5.28814 -9.16623,-5.13645 -12.85134,-4.28978 -3.68583,-0.84667 -9.669643,-0.99836 -12.852758,4.28978 -3.362677,5.58447 -9.489366,6.22652 -9.489366,6.22652 14.142858,5.23522 20.494624,-2.25072 22.342124,-5.16114 1.84608,2.91042 8.19855,10.39636 22.34141,5.16114 0,0 -6.12669,-0.64205 -9.49007,-6.22652"
       style="fill:#431b0e;fill-opacity:1;fill-rule:nonzero;stroke:none;stroke-width:0.03527778"
       id="path2418"
       inkscape:connector-curvature="0" />
    <path
       d="m 107.95111,160.88723 c 0,0 4.66232,-7.05908 8.82086,-3.97933 1.84432,1.36525 4.29154,7.46125 0,9.17575 -2.13818,0.85725 -6.12316,-3.26319 -8.82086,-2.65289 v -2.54353"
       style="fill:#e8bd17;fill-opacity:1;fill-rule:nonzero;stroke:none;stroke-width:0.03527778"
       id="path2420"
       inkscape:connector-curvature="0" />
    <path
       d="m 105.29082,160.88723 c 0,0 -4.66231,-7.05908 -8.822621,-3.97933 -1.843262,1.36525 -4.289777,7.46125 0,9.17575 2.13995,0.85725 6.124931,-3.26319 8.822621,-2.65289 v -2.54353"
       style="fill:#e8bd17;fill-opacity:1;fill-rule:nonzero;stroke:none;stroke-width:0.03527778"
       id="path2422"
       inkscape:connector-curvature="0" />
    <path
       d="m 108.94736,163.27201 c 0,0.47625 -0.38594,0.86784 -0.8629,0.86784 h -2.92699 c -0.47802,0 -0.8636,-0.39159 -0.8636,-0.86784 v -2.92453 c 0,-0.47625 0.38558,-0.8643 0.8636,-0.8643 h 2.92699 c 0.47696,0 0.8629,0.38805 0.8629,0.8643 v 2.92453"
       style="fill:#c08415;fill-opacity:1;fill-rule:nonzero;stroke:none;stroke-width:0.03527778"
       id="path2424"
       inkscape:connector-curvature="0" />
  </g>
</svg>
