<?xml version="1.0" encoding="UTF-8" standalone="no"?>
<!-- Created with Inkscape (http://www.inkscape.org/) -->

<svg
   xmlns:dc="http://purl.org/dc/elements/1.1/"
   xmlns:cc="http://creativecommons.org/ns#"
   xmlns:rdf="http://www.w3.org/1999/02/22-rdf-syntax-ns#"
   xmlns:svg="http://www.w3.org/2000/svg"
   xmlns="http://www.w3.org/2000/svg"
   xmlns:sodipodi="http://sodipodi.sourceforge.net/DTD/sodipodi-0.dtd"
   xmlns:inkscape="http://www.inkscape.org/namespaces/inkscape"
   width="83.482887mm"
   height="131.76657mm"
   viewBox="0 0 83.482887 131.76657"
   version="1.1"
   id="svg4623"
   inkscape:version="0.92.2 5c3e80d, 2017-08-06"
   sodipodi:docname="monster7.svg">
  <defs
     id="defs4617" />
  <sodipodi:namedview
     id="base"
     pagecolor="#ffffff"
     bordercolor="#666666"
     borderopacity="1.0"
     inkscape:pageopacity="0.0"
     inkscape:pageshadow="2"
     inkscape:zoom="0.35"
     inkscape:cx="129.1915"
     inkscape:cy="214.72197"
     inkscape:document-units="mm"
     inkscape:current-layer="layer1"
     showgrid="false"
     inkscape:window-width="1920"
     inkscape:window-height="1016"
     inkscape:window-x="1920"
     inkscape:window-y="27"
     inkscape:window-maximized="1" />
  <metadata
     id="metadata4620">
    <rdf:RDF>
      <cc:Work
         rdf:about="">
        <dc:format>image/svg+xml</dc:format>
        <dc:type
           rdf:resource="http://purl.org/dc/dcmitype/StillImage" />
        <dc:title></dc:title>
      </cc:Work>
    </rdf:RDF>
  </metadata>
  <g
     inkscape:label="Calque 1"
     inkscape:groupmode="layer"
     id="layer1"
     transform="translate(-71.651416,-73.878623)">
    <g
       id="g2094"
       transform="matrix(0.0390719,0,0,-0.0390719,-545.61138,608.27912)">
      <path
         d="m 16126.8,11606.9 c -60.6,13 -72,84.6 -73.7,121.5 l -0.1,22.1 v 0.1 l -1.9,537.9 c 0,0 -20.7,284.3 248.9,367.8 v 152.1 c -158,-29.4 -371.4,-141.8 -371.4,-534.8 v -541.5 c -1.5,-11.1 -0.6,-26 0,-42.3 v -9.1 h 0.3 c 0.6,-31.8 -1.9,-67.7 -26.4,-92.6 -39.7,-40.8 -119.4,-55.6 -101.9,-94.6 17.5,-39.1 94.1,19.8 105.2,0.6 11.1,-19.1 -134.6,-116.2 -84.2,-148.2 50.7,-31.9 71.7,73.3 119.8,74 48.2,0.6 -29.1,-113.5 45.5,-137 74.5,-23.4 29.9,136.2 56.8,132.7 27,-3.4 61.3,-104.5 99.4,-109.4 38.2,-5.1 32.7,55.4 10.1,74.4 -22.6,19.1 -58.2,92.6 -37,131.3 21.2,38.5 118.7,-17.9 135.4,21.2 16.8,39.2 -17.7,51 -124.8,73.8"
         style="fill:#8bafae;fill-opacity:1;fill-rule:nonzero;stroke:none"
         id="path2096"
         inkscape:connector-curvature="0" />
    </g>
    <g
       id="g2098"
       transform="matrix(0.04305512,0,0,-0.04305512,-545.61138,608.27912)">
      <path
         d="m 15977.3,10514.8 c 55,11.9 65.3,76.8 66.9,110.4 l 0.1,20 v 0 l 1.7,488.1 c 0,0 18.8,258.1 -225.9,333.8 v 138 c 143.3,-26.6 337,-128.6 337,-485.2 v -491.5 c 1.3,-10.1 0.6,-23.5 0,-38.4 v -8.3 h -0.2 c -0.6,-28.7 1.6,-61.2 23.8,-83.9 36.1,-37 108.5,-50.5 92.6,-85.9 -15.9,-35.5 -85.4,18 -95.5,0.7 -10,-17.4 122.2,-105.6 76.3,-134.5 -45.9,-29 -65,66.4 -108.6,67 -43.6,0.5 26.4,-102.8 -41.2,-124.3 -67.6,-21.3 -27.2,123.7 -51.6,120.4 -24.5,-3.1 -55.5,-94.8 -90.2,-99.3 -34.7,-4.5 -29.7,50.3 -9.2,67.6 20.5,17.3 52.9,84.1 33.6,119.1 -19.2,35 -107.7,-16.3 -122.9,19.3 -15.1,35.5 16.1,46.3 113.3,66.9"
         style="fill:#8bafae;fill-opacity:1;fill-rule:nonzero;stroke:none"
         id="path2100"
         inkscape:connector-curvature="0" />
    </g>
    <g
       id="g2102"
       transform="matrix(0.04184085,0,0,-0.04184085,-545.61138,608.27912)">
      <path
         d="m 16020.2,12400.2 c -118,0 -219.3,-72 -262.3,-174.5 -43,102.5 -144.3,174.5 -262.3,174.5 -157.1,0 -284.4,-127.4 -284.4,-284.4 0,-8.9 0.4,-17.8 1.1,-26.5 -0.7,-6.2 -1.1,-12.6 -1.1,-18.9 v -617.9 c 0,-72.5 49.8,-133.1 117,-149.9 l 24.7,-1595.77 c 0,-46.25 11.7,-83.8 58,-83.8 46.3,0 58,37.55 58,83.8 l 24.6,1590.97 h 181.7 l 24.7,-1590.97 c 0,-46.25 11.8,-83.8 58,-83.8 46.2,0 58,37.55 58,83.8 l 24.6,1590.97 h 182.3 l 24.6,-1590.97 c 0,-46.25 11.7,-83.8 58,-83.8 46.3,0 58,37.55 58,83.8 l 24.7,1596.97 c 62.9,17.8 109,74.4 111.9,142.3 v 720 c -23.9,133 -139.9,234.1 -279.8,234.1"
         style="fill:#9fc8c7;fill-opacity:1;fill-rule:nonzero;stroke:none"
         id="path2104"
         inkscape:connector-curvature="0" />
    </g>
    <g
       id="g2106"
       transform="matrix(0.04151207,0,0,-0.04151207,-545.61138,608.27912)">
      <path
         d="m 16226.7,9917.86 v 656.84 l -27.1,-518.3 -25.6,482 -7,-271.3 7.5,-483.39 c 0,-46.63 11.8,-84.47 58.5,-84.47 46.6,0 58.4,37.84 58.4,84.47 l 8.6,553.29 -37.1,-361.89 v 584.49 l -36.2,-641.74"
         style="fill:#4db2c7;fill-opacity:1;fill-rule:nonzero;stroke:none"
         id="path2108"
         inkscape:connector-curvature="0" />
    </g>
    <g
       id="g2110"
       transform="matrix(0.04061848,0,0,-0.04061848,-545.61138,608.27912)">
      <path
         d="m 16225.1,10136 v 671.3 l -27.7,-529.7 -26.2,492.6 -7.1,-277.3 7.6,-494 c 0,-47.65 12.1,-86.32 59.8,-86.32 47.7,0 59.8,38.67 59.8,86.32 l 8.7,565.5 -38,-369.9 v 597.4 l -36.9,-655.9"
         style="fill:#4db2c7;fill-opacity:1;fill-rule:nonzero;stroke:none"
         id="path2112"
         inkscape:connector-curvature="0" />
    </g>
    <g
       id="g2114"
       transform="matrix(0.03972525,0,0,-0.03972525,-545.61138,608.27912)">
      <path
         d="m 16223.4,10364 v 686.3 l -28.2,-541.5 -26.9,503.7 -7.3,-283.6 7.8,-505.1 c 0,-48.7 12.4,-88.3 61.1,-88.3 48.8,0 61.1,39.6 61.1,88.3 l 9,578.2 -38.8,-378.2 v 610.8 l -37.8,-670.6"
         style="fill:#4db2c7;fill-opacity:1;fill-rule:nonzero;stroke:none"
         id="path2116"
         inkscape:connector-curvature="0" />
    </g>
    <g
       id="g2118"
       transform="matrix(0.04156569,0,0,-0.04156569,-545.61138,608.27912)">
      <path
         d="m 16300,12167.4 c 0,-96.2 -78.1,-174.3 -174.2,-174.3 -96.3,0 -174.2,78.1 -174.2,174.3 0,96.1 77.9,174.2 174.2,174.2 96.1,0 174.2,-78.1 174.2,-174.2"
         style="fill:#ffffff;fill-opacity:1;fill-rule:nonzero;stroke:none"
         id="path2120"
         inkscape:connector-curvature="0" />
    </g>
    <g
       id="g2122"
       transform="matrix(0.04145104,0,0,-0.04145104,-545.61138,608.27912)">
      <path
         d="m 16300,12201 c 0,-71.5 -58,-129.6 -129.6,-129.6 -71.5,0 -129.6,58.1 -129.6,129.6 0,71.6 58.1,129.7 129.6,129.7 71.6,0 129.6,-58.1 129.6,-129.7"
         style="fill:#54c8f4;fill-opacity:1;fill-rule:nonzero;stroke:none"
         id="path2124"
         inkscape:connector-curvature="0" />
    </g>
    <g
       id="g2126"
       transform="matrix(0.04138895,0,0,-0.04138895,-545.61138,608.27912)">
      <path
         d="m 16300,12219.3 c 0,-58.1 -47.1,-105.3 -105.4,-105.3 -58.1,0 -105.2,47.2 -105.2,105.3 0,58.2 47.1,105.4 105.2,105.4 58.3,0 105.4,-47.2 105.4,-105.4"
         style="fill:#5a3114;fill-opacity:1;fill-rule:nonzero;stroke:none"
         id="path2128"
         inkscape:connector-curvature="0" />
    </g>
    <g
       id="g2130"
       transform="matrix(0.04088835,0,0,-0.04088835,-545.61138,608.27912)">
      <path
         d="m 16300,12292.4 c 0,-16.6 -13.4,-30.1 -30,-30.1 -16.6,0 -30,13.5 -30,30.1 0,16.5 13.4,29.9 30,29.9 16.6,0 30,-13.4 30,-29.9"
         style="fill:#ffffff;fill-opacity:1;fill-rule:nonzero;stroke:none"
         id="path2132"
         inkscape:connector-curvature="0" />
    </g>
    <g
       id="g2134"
       transform="matrix(0.04135226,0,0,-0.04135226,-545.61138,608.27912)">
      <path
         d="m 16300,12317.4 c 0,-16.5 -13.2,-29.7 -29.6,-29.7 -16.4,0 -29.6,13.2 -29.6,29.7 0,16.2 13.2,29.6 29.6,29.6 16.4,0 29.6,-13.4 29.6,-29.6"
         style="fill:#ffffff;fill-opacity:1;fill-rule:nonzero;stroke:none"
         id="path2136"
         inkscape:connector-curvature="0" />
    </g>
    <g
       id="g2138"
       transform="matrix(0.04020926,0,0,-0.04020926,-545.61138,608.27912)">
      <path
         d="m 16300,12577.9 c 0,-99.5 -80.6,-180.2 -180,-180.2 -99.5,0 -180.2,80.7 -180.2,180.2 0,99.4 80.7,180.1 180.2,180.1 99.4,0 180,-80.7 180,-180.1"
         style="fill:#ffffff;fill-opacity:1;fill-rule:nonzero;stroke:none"
         id="path2140"
         inkscape:connector-curvature="0" />
    </g>
    <g
       id="g2142"
       transform="matrix(0.04009425,0,0,-0.04009425,-545.61138,608.27912)">
      <path
         d="m 16300,12613.9 c 0,-74 -59.9,-134.1 -133.9,-134.1 -74,0 -134,60.1 -134,134.1 0,73.9 60,134 134,134 74,0 133.9,-60.1 133.9,-134"
         style="fill:#54c8f4;fill-opacity:1;fill-rule:nonzero;stroke:none"
         id="path2144"
         inkscape:connector-curvature="0" />
    </g>
    <g
       id="g2146"
       transform="matrix(0.04003252,0,0,-0.04003252,-545.61138,608.27912)">
      <path
         d="m 16300,12633.4 c 0,-60.2 -48.8,-108.9 -108.9,-108.9 -60.1,0 -108.9,48.7 -108.9,108.9 0,60.1 48.8,108.8 108.9,108.8 60.1,0 108.9,-48.7 108.9,-108.8"
         style="fill:#5a3114;fill-opacity:1;fill-rule:nonzero;stroke:none"
         id="path2148"
         inkscape:connector-curvature="0" />
    </g>
    <g
       id="g2150"
       transform="matrix(0.03953157,0,0,-0.03953157,-545.61138,608.27912)">
      <path
         d="m 16300,12714.2 c 0,-17.1 -13.8,-31.1 -31,-31.1 -17.1,0 -30.9,14 -30.9,31.1 0,17.1 13.8,30.9 30.9,30.9 17.2,0 31,-13.8 31,-30.9"
         style="fill:#ffffff;fill-opacity:1;fill-rule:nonzero;stroke:none"
         id="path2152"
         inkscape:connector-curvature="0" />
    </g>
    <g
       id="g2154"
       transform="matrix(0.03999583,0,0,-0.03999583,-545.61138,608.27912)">
      <path
         d="m 16300,12735.1 c 0,-16.9 -13.6,-30.6 -30.6,-30.6 -16.9,0 -30.6,13.7 -30.6,30.6 0,16.9 13.7,30.7 30.6,30.7 17,0 30.6,-13.8 30.6,-30.7"
         style="fill:#ffffff;fill-opacity:1;fill-rule:nonzero;stroke:none"
         id="path2156"
         inkscape:connector-curvature="0" />
    </g>
    <g
       id="g2158"
       transform="matrix(0.04174878,0,0,-0.04174878,-545.61138,608.27912)">
      <path
         d="m 16178.3,11809.1 c 32.7,-9.9 56.6,-40.3 56.6,-76.2 0,-23.5 -10.4,-44.8 -26.7,-59.3 -2,-2.1 -4.4,-4 -7,-5.6 -12.9,-9.1 -28.7,-14.5 -45.7,-14.5 -78.2,0 -106,45.5 -125.5,95.5 -38.1,97.9 -87.2,150.8 -169.2,152.3 -19.9,0.3 -53.9,-9.3 -72.9,-43.9 -19,34.6 -53,44.2 -72.8,43.9 -82.1,-1.5 -131.2,-54.4 -169.3,-152.3 -19.5,-50 -47.2,-95.5 -125.4,-95.5 -17.1,0 -32.8,5.4 -45.8,14.5 -2.6,1.6 -4.9,3.5 -7,5.6 -16.4,14.5 -26.7,35.8 -26.7,59.3 0,35.9 23.9,66.3 56.6,76.2 -57.8,-0.7 -121.7,-47.6 -121.7,-105.4 0,-72.7 56,-131.7 149.3,-131.7 158.4,0 316.1,94.7 362.8,178.4 46.7,-83.7 204.4,-178.4 362.9,-178.4 93.3,0 149.2,59 149.2,131.7 0,57.8 -63.9,104.7 -121.7,105.4"
         style="fill:#431b0e;fill-opacity:1;fill-rule:nonzero;stroke:none"
         id="path2160"
         inkscape:connector-curvature="0" />
    </g>
    <g
       id="g2162"
       transform="matrix(0.04173679,0,0,-0.04173679,-545.61138,608.27912)">
      <path
         d="m 16059.9,11947.5 c -89.8,0 -162.8,72.9 -162.8,162.7 0,89.7 73,162.6 162.8,162.6 89.7,0 162.7,-72.9 162.7,-162.6 0,-89.8 -73,-162.7 -162.7,-162.7 z m -533,0 c -89.7,0 -162.7,72.9 -162.7,162.7 0,89.7 73,162.6 162.7,162.6 89.7,0 162.8,-72.9 162.8,-162.6 0,-89.8 -73.1,-162.7 -162.8,-162.7 z m 750.6,185 h -26.9 c -11.2,95.5 -92.4,169.8 -190.7,169.8 -98.4,0 -179.6,-74.3 -190.8,-169.8 h -77.1 -23.2 -51.2 c -11.1,95.5 -92.4,169.8 -190.7,169.8 -98.3,0 -179.6,-74.3 -190.7,-169.8 h -27 c -12.3,0 -22.4,-10 -22.4,-22.3 0,-12.4 10.1,-22.4 22.4,-22.4 h 27 c 11.1,-95.4 92.4,-169.7 190.7,-169.7 98.3,0 179.6,74.3 190.7,169.7 h 51.2 23.2 77.1 c 11.2,-95.4 92.4,-169.7 190.8,-169.7 98.3,0 179.5,74.3 190.7,169.7 h 26.9 c 12.4,0 22.5,10 22.5,22.4 0,12.3 -10.1,22.3 -22.5,22.3"
         style="fill:#431b0e;fill-opacity:1;fill-rule:nonzero;stroke:none"
         id="path2164"
         inkscape:connector-curvature="0" />
    </g>
    <g
       id="g2166"
       transform="matrix(0.04129017,0,0,-0.04129017,-545.61138,608.27912)">
      <path
         d="m 16300,12567.5 c -19.8,99 -39.6,197.9 -59.3,296.9 -10.7,49.4 -59.1,81 -108.9,74.8 -110,-13.8 -221.2,-12.9 -331,2.4 -49.7,6.9 -98.8,-24 -110,-73.4 -21.2,-98.7 -42.3,-197.3 -63.5,-295.9 219.4,-63.6 452.4,-65.2 672.7,-4.8"
         style="fill:#94d335;fill-opacity:1;fill-rule:nonzero;stroke:none"
         id="path2168"
         inkscape:connector-curvature="0" />
    </g>
    <g
       id="g2170"
       transform="matrix(0.04129017,0,0,-0.04129017,-545.61138,608.27912)">
      <path
         d="m 16300,12567.5 c -6.1,30 -17.9,90.5 -23.8,120.6 -208.5,-53.8 -415.4,-52.2 -623.1,4.4 -6.4,-30 -19.4,-90.3 -25.8,-120.2 219.4,-63.6 452.4,-65.2 672.7,-4.8"
         style="fill:#431b0e;fill-opacity:1;fill-rule:nonzero;stroke:none"
         id="path2172"
         inkscape:connector-curvature="0" />
    </g>
    <g
       id="g2174"
       transform="matrix(0.04187895,0,0,-0.04187895,-545.61138,608.27912)">
      <path
         d="m 16279.2,12369.6 c 20.8,-45 -7.1,-102.2 -63.6,-122.1 -309.2,-109.5 -647.2,-107.2 -954.9,6.7 -56.3,20.7 -83.2,78.3 -61.8,123 v 0 c 21.4,45 76.5,63.6 124.4,46 268.1,-99.2 562.7,-101.4 832.1,-5.9 48.1,16.9 102.9,-2.4 123.8,-47.7 v 0"
         style="fill:#94d335;fill-opacity:1;fill-rule:nonzero;stroke:none"
         id="path2176"
         inkscape:connector-curvature="0" />
    </g>
    <g
       id="g2178"
       transform="matrix(0.04132333,0,0,-0.04132333,-545.61138,608.27912)">
      <path
         d="m 15982.7,11539.1 c 0,0 112.8,170.8 213.5,96.3 44.6,-33.1 103.8,-180.6 0,-222.1 -51.7,-20.7 -148.2,79 -213.5,64.1 v 61.7"
         style="fill:#74331d;fill-opacity:1;fill-rule:nonzero;stroke:none"
         id="path2180"
         inkscape:connector-curvature="0" />
    </g>
    <g
       id="g2182"
       transform="matrix(0.04035566,0,0,-0.04035566,-545.61138,608.27912)">
      <path
         d="m 16300,11815.8 c 0,0 -115.6,174.9 -218.6,98.6 -45.7,-33.9 -106.3,-185 0,-227.4 52.9,-21.2 151.7,80.8 218.6,65.6 v 63.2"
         style="fill:#74331d;fill-opacity:1;fill-rule:nonzero;stroke:none"
         id="path2184"
         inkscape:connector-curvature="0" />
    </g>
    <g
       id="g2186"
       transform="matrix(0.04058003,0,0,-0.04058003,-545.61138,608.27912)">
      <path
         d="m 16300,11691.6 c 0,-11.8 -9.6,-21.3 -21.3,-21.3 h -72.2 c -11.7,0 -21.3,9.5 -21.3,21.3 v 72.1 c 0,11.8 9.6,21.3 21.3,21.3 h 72.2 c 11.7,0 21.3,-9.5 21.3,-21.3 v -72.1"
         style="fill:#431b0e;fill-opacity:1;fill-rule:nonzero;stroke:none"
         id="path2188"
         inkscape:connector-curvature="0" />
    </g>
  </g>
</svg>
