<?xml version="1.0" encoding="UTF-8" standalone="no"?>
<!-- Created with Inkscape (http://www.inkscape.org/) -->

<svg
   xmlns:dc="http://purl.org/dc/elements/1.1/"
   xmlns:cc="http://creativecommons.org/ns#"
   xmlns:rdf="http://www.w3.org/1999/02/22-rdf-syntax-ns#"
   xmlns:svg="http://www.w3.org/2000/svg"
   xmlns="http://www.w3.org/2000/svg"
   xmlns:sodipodi="http://sodipodi.sourceforge.net/DTD/sodipodi-0.dtd"
   xmlns:inkscape="http://www.inkscape.org/namespaces/inkscape"
   width="84.840607mm"
   height="127.29986mm"
   viewBox="0 0 84.840607 127.29986"
   version="1.1"
   id="svg4393"
   inkscape:version="0.92.2 5c3e80d, 2017-08-06"
   sodipodi:docname="monster6.svg">
  <defs
     id="defs4387" />
  <sodipodi:namedview
     id="base"
     pagecolor="#ffffff"
     bordercolor="#666666"
     borderopacity="1.0"
     inkscape:pageopacity="0.0"
     inkscape:pageshadow="2"
     inkscape:zoom="0.35"
     inkscape:cx="157.4706"
     inkscape:cy="203.4238"
     inkscape:document-units="mm"
     inkscape:current-layer="layer1"
     showgrid="false"
     inkscape:window-width="1920"
     inkscape:window-height="1016"
     inkscape:window-x="1920"
     inkscape:window-y="27"
     inkscape:window-maximized="1" />
  <metadata
     id="metadata4390">
    <rdf:RDF>
      <cc:Work
         rdf:about="">
        <dc:format>image/svg+xml</dc:format>
        <dc:type
           rdf:resource="http://purl.org/dc/dcmitype/StillImage" />
        <dc:title></dc:title>
      </cc:Work>
    </rdf:RDF>
  </metadata>
  <g
     inkscape:label="Calque 1"
     inkscape:groupmode="layer"
     id="layer1"
     transform="translate(-64.169236,-75.356022)">
    <path
       d="m 76.17284,149.46405 c -2.215445,-0.47625 -2.628195,-3.09033 -2.691695,-4.43442 l -0.0071,-0.81139 v 0 l -0.06703,-6.46994 c 0,0 -0.754945,-10.38225 9.087556,-13.43025 v -5.55625 c -5.767917,1.07597 -13.560778,5.17525 -13.560778,19.52625 v 6.604 c -0.05645,0.40569 -0.02117,0.94544 0,1.54517 v 0.33161 h 0.0071 c 0.02469,1.16416 -0.0635,2.46944 -0.956028,3.38314 -1.456972,1.48872 -4.363861,2.02847 -3.725333,3.45369 0.642056,1.42875 3.436056,-0.72319 3.84175,-0.0247 0.405694,0.70203 -4.917722,4.25097 -3.072694,5.41514 1.845027,1.16064 2.617611,-2.68111 4.370916,-2.70228 1.756833,-0.0212 -1.058333,4.13808 1.661583,4.99886 2.719917,0.86078 1.093612,-4.97417 2.074334,-4.84364 0.98425,0.127 2.236611,3.81353 3.630084,4.0005 1.393472,0.17992 1.195916,-2.02494 0.370416,-2.72344 -0.821972,-0.69497 -2.12725,-3.37961 -1.354666,-4.79072 0.776111,-1.40759 4.335638,0.65263 4.949472,-0.77612 0.610305,-1.43227 -0.649111,-1.85913 -4.557889,-2.69522"
       style="fill:#929b24;fill-opacity:1;fill-rule:nonzero;stroke:none;stroke-width:0.03527778"
       id="path2190"
       inkscape:connector-curvature="0" />
    <path
       d="m 137.00584,149.46405 c 2.21544,-0.47625 2.62819,-3.09033 2.69169,-4.43442 l 0.004,-0.81139 v 0 l 0.0706,-6.46994 c 0,0 0.75495,-10.38225 -9.09108,-13.43025 v -5.55625 c 5.76792,1.07597 13.5643,5.17525 13.5643,19.52625 v 6.604 c 0.0529,0.40569 0.0177,0.94544 0,1.54517 v 0.33161 h -0.0106 c -0.0247,1.16416 0.067,2.46944 0.95956,3.38314 1.45344,1.48872 4.36386,2.02847 3.72533,3.45369 -0.64205,1.42875 -3.43605,-0.72319 -3.84175,-0.0247 -0.40569,0.70203 4.91773,4.25097 3.0727,5.41514 -1.84503,1.16064 -2.61761,-2.68111 -4.37445,-2.70228 -1.75683,-0.0212 1.06186,4.13808 -1.66158,4.99886 -2.71639,0.86078 -1.09008,-4.97417 -2.07081,-4.84364 -0.98777,0.127 -2.23661,3.81353 -3.63008,4.0005 -1.39347,0.17992 -1.19592,-2.02494 -0.37042,-2.72344 0.82198,-0.69497 2.12725,-3.37961 1.35467,-4.79072 -0.77964,-1.40759 -4.33917,0.65263 -4.94947,-0.77612 -0.61031,-1.43227 0.64558,-1.85913 4.55789,-2.69522"
       style="fill:#929b24;fill-opacity:1;fill-rule:nonzero;stroke:none;stroke-width:0.03527778"
       id="path2192"
       inkscape:connector-curvature="0" />
    <path
       d="m 131.08623,133.96652 h -0.0106 c 0.2293,-0.93486 0.37041,-1.90147 0.37041,-2.91042 v -17.67769 c 0,-6.63222 -5.37986,-12.00856 -12.01208,-12.00856 h -7.24253 c 1.27353,-5.73969 5.30578,-16.89805 17.75883,-20.210633 l -2.69522,-1.495778 c -13.64897,3.630083 -17.1838,16.693443 -18.04811,21.706411 h -6.4135 C 101.9362,96.356882 98.42606,83.293522 84.879395,79.663439 l -2.670528,1.495778 C 94.563144,84.4718 98.567173,95.63016 99.830117,101.36985 H 92.74281 c -6.628693,0 -12.008554,5.37634 -12.008554,12.00856 v 17.67769 c 0,0.19756 0.02117,0.38806 0.03175,0.58562 h -0.01764 c 0,0 -8.770055,71.01416 1.806222,71.01416 6.868584,0 3.58775,-57.14647 11.320639,-57.14294 7.729363,0.004 17.970503,-0.49036 26.017363,-0.49036 8.04686,0 2.91042,60.08863 10.60097,57.34402 7.69408,-2.74461 0.59267,-68.40008 0.59267,-68.40008"
       style="fill:#acb72b;fill-opacity:1;fill-rule:nonzero;stroke:none;stroke-width:0.03527778"
       id="path2194"
       inkscape:connector-curvature="0" />
    <path
       d="m 124.23176,79.663439 c 0,-2.38125 1.92969,-4.307417 4.30741,-4.307417 2.37772,0 4.30742,1.926167 4.30742,4.307417 0,2.377722 -1.9297,4.307417 -4.30742,4.307417 -2.37772,0 -4.30741,-1.929695 -4.30741,-4.307417"
       style="fill:#49745e;fill-opacity:1;fill-rule:nonzero;stroke:none;stroke-width:0.03527778"
       id="path2196"
       inkscape:connector-curvature="0" />
    <path
       d="m 87.863895,79.663439 c 0,-2.38125 -1.915583,-4.307417 -4.275666,-4.307417 -2.360084,0 -4.275667,1.926167 -4.275667,4.307417 0,2.377722 1.915583,4.307417 4.275667,4.307417 2.360083,0 4.275666,-1.929695 4.275666,-4.307417"
       style="fill:#49745e;fill-opacity:1;fill-rule:nonzero;stroke:none;stroke-width:0.03527778"
       id="path2198"
       inkscape:connector-curvature="0" />
    <path
       d="m 109.48212,99.930521 2.97039,0.313969 c 0.15875,-0.610302 0.34572,-1.266469 0.56444,-1.950858 l -3.01625,-0.433916 c -0.21167,0.744361 -0.381,1.439333 -0.51858,2.070805"
       style="fill:#5a3114;fill-opacity:1;fill-rule:nonzero;stroke:none;stroke-width:0.03527778"
       id="path2200"
       inkscape:connector-curvature="0" />
    <path
       d="m 110.60042,95.97941 2.99861,0.656167 c 0.21167,-0.557389 0.4445,-1.125361 0.70203,-1.696861 l -2.84692,-1.150056 c -0.32455,0.747889 -0.60677,1.481667 -0.85372,2.19075"
       style="fill:#5a3114;fill-opacity:1;fill-rule:nonzero;stroke:none;stroke-width:0.03527778"
       id="path2202"
       inkscape:connector-curvature="0" />
    <path
       d="m 112.6042,91.414466 2.79047,1.326444 c 0.31397,-0.575027 0.6597,-1.150055 1.02659,-1.721555 l -2.6917,-1.488722 c -0.40922,0.627944 -0.78317,1.255889 -1.12536,1.883833"
       style="fill:#5a3114;fill-opacity:1;fill-rule:nonzero;stroke:none;stroke-width:0.03527778"
       id="path2204"
       inkscape:connector-curvature="0" />
    <path
       d="m 115.11245,87.597411 2.75519,1.421694 c 0.49037,-0.620889 1.02306,-1.224139 1.59809,-1.80975 l -1.63336,-2.511777 c -1.016,0.913694 -1.91911,1.88736 -2.71992,2.899833"
       style="fill:#5a3114;fill-opacity:1;fill-rule:nonzero;stroke:none;stroke-width:0.03527778"
       id="path2206"
       inkscape:connector-curvature="0" />
    <path
       d="m 119.91728,83.04305 1.40406,2.465916 c 0.65969,-0.536222 1.36525,-1.044222 2.11667,-1.523999 l -1.15006,-2.388306 c -0.83961,0.4445 -1.62983,0.927806 -2.37067,1.446389"
       style="fill:#5a3114;fill-opacity:1;fill-rule:nonzero;stroke:none;stroke-width:0.03527778"
       id="path2208"
       inkscape:connector-curvature="0" />
    <path
       d="m 102.53239,99.930521 -2.970384,0.313969 C 99.403256,99.634188 99.21981,98.978021 98.99756,98.293632 l 3.01625,-0.433916 c 0.21167,0.744361 0.381,1.439333 0.51858,2.070805"
       style="fill:#5a3114;fill-opacity:1;fill-rule:nonzero;stroke:none;stroke-width:0.03527778"
       id="path2210"
       inkscape:connector-curvature="0" />
    <path
       d="m 101.41409,95.97941 -2.998613,0.656167 c -0.211667,-0.557389 -0.4445,-1.125361 -0.702027,-1.696861 l 2.84692,-1.150056 c 0.32455,0.747889 0.60677,1.481667 0.85372,2.19075"
       style="fill:#5a3114;fill-opacity:1;fill-rule:nonzero;stroke:none;stroke-width:0.03527778"
       id="path2212"
       inkscape:connector-curvature="0" />
    <path
       d="M 99.406783,91.414466 96.61984,92.74091 c -0.3175,-0.575027 -0.656167,-1.150055 -1.030113,-1.721555 l 2.695223,-1.488722 c 0.405694,0.627944 0.783167,1.255889 1.121833,1.883833"
       style="fill:#5a3114;fill-opacity:1;fill-rule:nonzero;stroke:none;stroke-width:0.03527778"
       id="path2214"
       inkscape:connector-curvature="0" />
    <path
       d="m 96.90206,87.597411 -2.755193,1.421694 c -0.49389,-0.620889 -1.026584,-1.224139 -1.598084,-1.80975 l 1.633361,-2.511777 c 1.016,0.913694 1.922639,1.88736 2.719916,2.899833"
       style="fill:#5a3114;fill-opacity:1;fill-rule:nonzero;stroke:none;stroke-width:0.03527778"
       id="path2216"
       inkscape:connector-curvature="0" />
    <path
       d="m 92.0937,83.04305 -1.400527,2.465916 c -0.659695,-0.536222 -1.36525,-1.044222 -2.116667,-1.523999 l 1.150056,-2.388306 c 0.839611,0.4445 1.633361,0.927806 2.367138,1.446389"
       style="fill:#5a3114;fill-opacity:1;fill-rule:nonzero;stroke:none;stroke-width:0.03527778"
       id="path2218"
       inkscape:connector-curvature="0" />
    <path
       d="m 127.04692,115.73849 c 0,3.35492 -2.71991,6.07836 -6.07836,6.07836 -3.35844,0 -6.07836,-2.72344 -6.07836,-6.07836 0,-3.35844 2.71992,-6.08189 6.07836,-6.08189 3.35845,0 6.07836,2.72345 6.07836,6.08189"
       style="fill:#ffffff;fill-opacity:1;fill-rule:nonzero;stroke:none;stroke-width:0.03527778"
       id="path2220"
       inkscape:connector-curvature="0" />
    <path
       d="m 125.48059,115.73849 c 0,2.49061 -2.02142,4.5085 -4.51203,4.5085 -2.49061,0 -4.5085,-2.01789 -4.5085,-4.5085 0,-2.49061 2.01789,-4.51202 4.5085,-4.51202 2.49061,0 4.51203,2.02141 4.51203,4.51202"
       style="fill:#54c8f4;fill-opacity:1;fill-rule:nonzero;stroke:none;stroke-width:0.03527778"
       id="path2222"
       inkscape:connector-curvature="0" />
    <path
       d="m 124.63039,115.73849 c 0,2.02142 -1.64041,3.65831 -3.66183,3.65831 -2.01789,0 -3.6583,-1.63689 -3.6583,-3.65831 0,-2.02494 1.64041,-3.66183 3.6583,-3.66183 2.02142,0 3.66183,1.63689 3.66183,3.66183"
       style="fill:#5a3114;fill-opacity:1;fill-rule:nonzero;stroke:none;stroke-width:0.03527778"
       id="path2224"
       inkscape:connector-curvature="0" />
    <path
       d="m 117.77945,118.36316 c 0,0.5715 -0.46214,1.03364 -1.03011,1.03364 -0.56797,0 -1.03011,-0.46214 -1.03011,-1.03364 0,-0.56444 0.46214,-1.02306 1.03011,-1.02306 0.56797,0 1.03011,0.45862 1.03011,1.02306"
       style="fill:#ffffff;fill-opacity:1;fill-rule:nonzero;stroke:none;stroke-width:0.03527778"
       id="path2226"
       inkscape:connector-curvature="0" />
    <path
       d="m 124.12945,112.71166 c 0,0.56797 -0.45861,1.02658 -1.03011,1.02658 -0.56445,0 -1.02658,-0.45861 -1.02658,-1.02658 0,-0.56797 0.46213,-1.03011 1.02658,-1.03011 0.5715,0 1.03011,0.46214 1.03011,1.03011"
       style="fill:#ffffff;fill-opacity:1;fill-rule:nonzero;stroke:none;stroke-width:0.03527778"
       id="path2228"
       inkscape:connector-curvature="0" />
    <path
       d="m 112.83351,115.73849 c 0,3.35492 -2.72345,6.07836 -6.07837,6.07836 -3.35844,0 -6.07836,-2.72344 -6.07836,-6.07836 0,-3.35844 2.71992,-6.08189 6.07836,-6.08189 3.35492,0 6.07837,2.72345 6.07837,6.08189"
       style="fill:#ffffff;fill-opacity:1;fill-rule:nonzero;stroke:none;stroke-width:0.03527778"
       id="path2230"
       inkscape:connector-curvature="0" />
    <path
       d="m 111.26364,115.73849 c 0,2.49061 -2.01788,4.5085 -4.5085,4.5085 -2.49061,0 -4.5085,-2.01789 -4.5085,-4.5085 0,-2.49061 2.01789,-4.51202 4.5085,-4.51202 2.49062,0 4.5085,2.02141 4.5085,4.51202"
       style="fill:#54c8f4;fill-opacity:1;fill-rule:nonzero;stroke:none;stroke-width:0.03527778"
       id="path2232"
       inkscape:connector-curvature="0" />
    <path
       d="m 110.41345,115.73849 c 0,2.02142 -1.63689,3.65831 -3.65831,3.65831 -2.02141,0 -3.6583,-1.63689 -3.6583,-3.65831 0,-2.02494 1.63689,-3.66183 3.6583,-3.66183 2.02142,0 3.65831,1.63689 3.65831,3.66183"
       style="fill:#5a3114;fill-opacity:1;fill-rule:nonzero;stroke:none;stroke-width:0.03527778"
       id="path2234"
       inkscape:connector-curvature="0" />
    <path
       d="m 103.56603,118.36316 c 0,0.5715 -0.46214,1.03364 -1.03011,1.03364 -0.56797,0 -1.03011,-0.46214 -1.03011,-1.03364 0,-0.56444 0.46214,-1.02306 1.03011,-1.02306 0.56797,0 1.03011,0.45862 1.03011,1.02306"
       style="fill:#ffffff;fill-opacity:1;fill-rule:nonzero;stroke:none;stroke-width:0.03527778"
       id="path2236"
       inkscape:connector-curvature="0" />
    <path
       d="m 109.91251,112.71166 c 0,0.56797 -0.45862,1.02658 -1.02659,1.02658 -0.56797,0 -1.03011,-0.45861 -1.03011,-1.02658 0,-0.56797 0.46214,-1.03011 1.03011,-1.03011 0.56797,0 1.02659,0.46214 1.02659,1.03011"
       style="fill:#ffffff;fill-opacity:1;fill-rule:nonzero;stroke:none;stroke-width:0.03527778"
       id="path2238"
       inkscape:connector-curvature="0" />
    <path
       d="m 96.52106,115.73849 c 0,3.35492 -2.719916,6.07836 -6.078359,6.07836 -3.358445,0 -6.081889,-2.72344 -6.081889,-6.07836 0,-3.35844 2.723444,-6.08189 6.081889,-6.08189 3.358443,0 6.078359,2.72345 6.078359,6.08189"
       style="fill:#ffffff;fill-opacity:1;fill-rule:nonzero;stroke:none;stroke-width:0.03527778"
       id="path2240"
       inkscape:connector-curvature="0" />
    <path
       d="m 94.9512,115.73849 c 0,2.49061 -2.01789,4.5085 -4.508499,4.5085 -2.494139,0 -4.512028,-2.01789 -4.512028,-4.5085 0,-2.49061 2.017889,-4.51202 4.512028,-4.51202 2.490609,0 4.508499,2.02141 4.508499,4.51202"
       style="fill:#54c8f4;fill-opacity:1;fill-rule:nonzero;stroke:none;stroke-width:0.03527778"
       id="path2242"
       inkscape:connector-curvature="0" />
    <path
       d="m 94.101006,115.73849 c 0,2.02142 -1.636889,3.65831 -3.658305,3.65831 -2.021417,0 -3.661834,-1.63689 -3.661834,-3.65831 0,-2.02494 1.640417,-3.66183 3.661834,-3.66183 2.021416,0 3.658305,1.63689 3.658305,3.66183"
       style="fill:#5a3114;fill-opacity:1;fill-rule:nonzero;stroke:none;stroke-width:0.03527778"
       id="path2244"
       inkscape:connector-curvature="0" />
    <path
       d="m 87.250062,118.36316 c 0,0.5715 -0.458611,1.03364 -1.026583,1.03364 -0.5715,0 -1.030112,-0.46214 -1.030112,-1.03364 0,-0.56444 0.458612,-1.02306 1.030112,-1.02306 0.567972,0 1.026583,0.45862 1.026583,1.02306"
       style="fill:#ffffff;fill-opacity:1;fill-rule:nonzero;stroke:none;stroke-width:0.03527778"
       id="path2246"
       inkscape:connector-curvature="0" />
    <path
       d="m 93.60006,112.71166 c 0,0.56797 -0.45861,1.02658 -1.03011,1.02658 -0.564444,0 -1.026583,-0.45861 -1.026583,-1.02658 0,-0.56797 0.462139,-1.03011 1.026583,-1.03011 0.5715,0 1.03011,0.46214 1.03011,1.03011"
       style="fill:#ffffff;fill-opacity:1;fill-rule:nonzero;stroke:none;stroke-width:0.03527778"
       id="path2248"
       inkscape:connector-curvature="0" />
    <path
       d="m 124.86323,98.293632 h -2.61056 c -0.74436,-3.598333 -1.49225,-7.196666 -2.23661,-10.798527 -0.36689,-1.665111 -2.01083,-2.716388 -3.683,-2.497666 -3.70064,0.49036 -12.50244,0.49036 -16.20308,0 -1.675697,-0.218722 -8.73478,-1.524 -8.73478,2.497666 0,3.675944 -1.492249,7.200194 -2.23661,10.798527 h -2.610556 c -1.700389,0 -3.07975,1.375834 -3.07975,3.079748 0,1.70039 1.379361,3.07622 3.07975,3.07622 h 38.315196 c 1.70039,0 3.07622,-1.37583 3.07622,-3.07622 0,-1.703914 -1.37583,-3.079748 -3.07622,-3.079748"
       style="fill:#49745e;fill-opacity:1;fill-rule:nonzero;stroke:none;stroke-width:0.03527778"
       id="path2250"
       inkscape:connector-curvature="0" />
    <path
       d="m 122.24562,98.251299 c -0.21167,-1.008944 -0.41981,-2.021417 -0.63148,-3.033889 H 89.797117 c -0.211666,1.012472 -0.419805,2.024945 -0.631472,3.033889 h 33.079975"
       style="fill:#431b0e;fill-opacity:1;fill-rule:nonzero;stroke:none;stroke-width:0.03527778"
       id="path2252"
       inkscape:connector-curvature="0" />
    <path
       d="m 106.52584,143.66085 c 0,0 5.09764,-3.97933 12.33664,-3.97933 0,0 2.03905,4.79072 0,9.17575 0,0 -8.56545,-3.25967 -12.33664,-2.64936 v -2.54706"
       style="fill:#431b0e;fill-opacity:1;fill-rule:nonzero;stroke:none;stroke-width:0.03527778"
       id="path2254"
       inkscape:connector-curvature="0" />
    <path
       d="m 104.88542,143.66085 c 0,0 -5.097637,-3.97933 -12.336637,-3.97933 0,0 -2.039055,4.79072 0,9.17575 0,0 8.561917,-3.25967 12.336637,-2.64936 v -2.54706"
       style="fill:#431b0e;fill-opacity:1;fill-rule:nonzero;stroke:none;stroke-width:0.03527778"
       id="path2256"
       inkscape:connector-curvature="0" />
    <path
       d="m 108.0322,146.04563 c 0,0.47625 -0.38806,0.86431 -0.86431,0.86431 h -2.92805 c -0.47625,0 -0.86078,-0.38806 -0.86078,-0.86431 v -2.92453 c 0,-0.47625 0.38453,-0.86783 0.86078,-0.86783 h 2.92805 c 0.47625,0 0.86431,0.39158 0.86431,0.86783 v 2.92453"
       style="fill:#260e05;fill-opacity:1;fill-rule:nonzero;stroke:none;stroke-width:0.03527778"
       id="path2258"
       inkscape:connector-curvature="0" />
    <path
       d="m 117.70537,128.43144 c -2.97039,-4.93536 -8.55839,-4.79425 -12.0015,-4.00403 -3.43959,-0.79022 -9.027587,-0.93133 -12.001503,4.00403 -3.139722,5.21405 -8.861777,5.82083 -8.861777,5.82083 13.208,4.88597 19.14172,-2.10608 20.86328,-4.82247 1.72508,2.71639 7.6588,9.70844 20.8668,4.82247 0,0 -5.72205,-0.60678 -8.8653,-5.82083"
       style="fill:#431b0e;fill-opacity:1;fill-rule:nonzero;stroke:none;stroke-width:0.03527778"
       id="path2260"
       inkscape:connector-curvature="0" />
  </g>
</svg>
